<svg xmlns="http://www.w3.org/2000/svg" version="1.1" xmlns:xlink="http://www.w3.org/1999/xlink" xmlns:svgjs="http://svgjs.dev/svgjs" width="1000" height="623" viewBox="0 0 1000 623"><g transform="matrix(1,0,0,1,-0.6060606060606233,0.2522267206477409)"><svg viewBox="0 0 396 247" data-background-color="#ffffff" preserveAspectRatio="xMidYMid meet" height="623" width="1000" xmlns="http://www.w3.org/2000/svg" xmlns:xlink="http://www.w3.org/1999/xlink"><g id="tight-bounds" transform="matrix(1,0,0,1,0.2400000000000091,-0.09999999999999432)"><svg viewBox="0 0 395.52 247.2" height="247.2" width="395.52"><g><svg></svg></g><g><svg viewBox="0 0 395.52 247.2" height="247.2" width="395.52"><g><path d="M55.039 247.2l26.403-45.732h3.964l-24.313 42.111h273.334l-24.313-42.111 3.964 0 26.403 45.732zM197.76 0l26.403 45.732-3.963 0-22.44-38.867-22.44 38.867-3.963 0z" fill="#0080ff" fillRule="nonzero" stroke="none" strokeWidth="1" strokeLinecap="butt" strokeLinejoin="miter" stroke-miterlimit="10" stroke-dasharray="" stroke-dashoffset="0" font-family="none" font-weight="none" font-size="none" text-anchor="none" style="mix-blend-mode: normal" data-fill-palette-color="tertiary"></path></g><g transform="matrix(1,0,0,1,75.12965933200184,67.97999999999999)"><svg viewBox="0 0 245.2606813359963 111.24" height="111.24" width="245.2606813359963"><g><svg viewBox="0 0 466.4009371938912 211.53998256398793" height="111.24" width="245.2606813359963"><g transform="matrix(1,0,0,1,0,29.235988907179234)"><svg viewBox="0 0 302.2822220502857 153.06800474962947" height="153.06800474962947" width="302.2822220502857"><g id="textblocktransform"><svg viewBox="0 0 302.2822220502857 153.06800474962947" height="153.06800474962947" width="302.2822220502857" id="textblock"><g><svg viewBox="0 0 302.2822220502857 110.5525368" height="110.5525368" width="302.2822220502857"><g transform="matrix(1,0,0,1,0,0)"><svg width="302.2822220502857" viewBox="3.9 -35 95.69999999999999 35" height="110.5525368" data-palette-color="#0080ff"><path d="M20 0L5.1 0Q4.6 0 4.25-0.35 3.9-0.7 3.9-1.2L3.9-1.2 3.9-33.75Q3.9-34.3 4.25-34.65 4.6-35 5.1-35L5.1-35 19.6-35Q23.65-35 26.2-33.77 28.75-32.55 29.98-30.4 31.2-28.25 31.2-25.4L31.2-25.4Q31.2-23.5 30.53-22.08 29.85-20.65 28.88-19.75 27.9-18.85 26.95-18.35L26.95-18.35Q28.9-17.45 30.4-15.35 31.9-13.25 31.9-10.35L31.9-10.35Q31.9-7.35 30.55-5 29.2-2.65 26.55-1.33 23.9 0 20 0L20 0ZM10.85-15.45L10.85-5.3 19.2-5.3Q21.9-5.3 23.3-6.78 24.7-8.25 24.7-10.35L24.7-10.35Q24.7-12.55 23.28-14 21.85-15.45 19.2-15.45L19.2-15.45 10.85-15.45ZM10.85-29.75L10.85-20.65 18.7-20.65Q21.35-20.65 22.68-21.93 24-23.2 24-25.25L24-25.25Q24-27.35 22.68-28.55 21.35-29.75 18.7-29.75L18.7-29.75 10.85-29.75ZM54.3 0L39.4 0Q38.9 0 38.55-0.35 38.2-0.7 38.2-1.2L38.2-1.2 38.2-33.75Q38.2-34.3 38.55-34.65 38.9-35 39.4-35L39.4-35 53.9-35Q57.95-35 60.5-33.77 63.05-32.55 64.27-30.4 65.5-28.25 65.5-25.4L65.5-25.4Q65.5-23.5 64.82-22.08 64.15-20.65 63.17-19.75 62.2-18.85 61.25-18.35L61.25-18.35Q63.2-17.45 64.7-15.35 66.2-13.25 66.2-10.35L66.2-10.35Q66.2-7.35 64.85-5 63.5-2.65 60.85-1.33 58.2 0 54.3 0L54.3 0ZM45.15-15.45L45.15-5.3 53.5-5.3Q56.2-5.3 57.6-6.78 59-8.25 59-10.35L59-10.35Q59-12.55 57.57-14 56.15-15.45 53.5-15.45L53.5-15.45 45.15-15.45ZM45.15-29.75L45.15-20.65 53-20.65Q55.65-20.65 56.97-21.93 58.3-23.2 58.3-25.25L58.3-25.25Q58.3-27.35 56.97-28.55 55.65-29.75 53-29.75L53-29.75 45.15-29.75ZM78.1 0L73.7 0Q73.2 0 72.85-0.35 72.5-0.7 72.5-1.2L72.5-1.2 72.5-33.75Q72.5-34.3 72.85-34.65 73.2-35 73.7-35L73.7-35 78.1-35Q78.65-35 79-34.65 79.35-34.3 79.35-33.75L79.35-33.75 79.35-22.05 90.65-34.1Q90.85-34.35 91.32-34.68 91.8-35 92.6-35L92.6-35 97.55-35Q97.95-35 98.27-34.7 98.6-34.4 98.6-33.95L98.6-33.95Q98.6-33.6 98.4-33.35L98.4-33.35 84.65-18.25 99.35-1.7Q99.6-1.4 99.6-1.05L99.6-1.05Q99.6-0.6 99.27-0.3 98.95 0 98.55 0L98.55 0 93.4 0Q92.55 0 92.07-0.38 91.6-0.75 91.45-0.9L91.45-0.9 79.35-14.15 79.35-1.2Q79.35-0.7 79-0.35 78.65 0 78.1 0L78.1 0Z" opacity="1" transform="matrix(1,0,0,1,0,0)" fill="#0080ff" class="wordmark-text-0" data-fill-palette-color="primary" id="text-0"></path></svg></g></svg></g><g transform="matrix(1,0,0,1,15.1141111025143,136.6513374775968)"><svg viewBox="0 0 287.1681109477714 16.41666727203267" height="16.41666727203267" width="287.1681109477714"><g transform="matrix(1,0,0,1,0,0)"><svg width="287.1681109477714" viewBox="3.25 -35.5 813.32 46.5" height="16.41666727203267" data-palette-color="#0080ff"><path d="M16.55 0.5L16.55 0.5Q12 0.5 9.13-1.28 6.25-3.05 4.85-6.1 3.45-9.15 3.3-13.05L3.3-13.05Q3.25-15.1 3.25-17.45 3.25-19.8 3.3-21.95L3.3-21.95Q3.45-25.85 4.85-28.93 6.25-32 9.13-33.75 12-35.5 16.55-35.5L16.55-35.5Q20.1-35.5 22.6-34.5 25.1-33.5 26.68-31.88 28.25-30.25 29.03-28.38 29.8-26.5 29.9-24.7L29.9-24.7Q29.95-24.25 29.63-23.98 29.3-23.7 28.85-23.7L28.85-23.7 27.85-23.7Q27.45-23.7 27.15-23.93 26.85-24.15 26.75-24.75L26.75-24.75Q25.8-29.2 23.18-30.85 20.55-32.5 16.55-32.5L16.55-32.5Q12-32.5 9.33-29.93 6.65-27.35 6.45-21.7L6.45-21.7Q6.3-17.6 6.45-13.3L6.45-13.3Q6.65-7.65 9.33-5.08 12-2.5 16.55-2.5L16.55-2.5Q20.55-2.5 23.18-4.15 25.8-5.8 26.75-10.25L26.75-10.25Q26.85-10.85 27.15-11.08 27.45-11.3 27.85-11.3L27.85-11.3 28.85-11.3Q29.3-11.3 29.63-11.03 29.95-10.75 29.9-10.3L29.9-10.3Q29.8-8.5 29.03-6.63 28.25-4.75 26.68-3.13 25.1-1.5 22.6-0.5 20.1 0.5 16.55 0.5ZM46.5 0.5L46.5 0.5Q42.9 0.5 40.47-1 38.05-2.5 36.77-5.1 35.5-7.7 35.4-10.9L35.4-10.9Q35.35-11.65 35.35-13 35.35-14.35 35.4-15.1L35.4-15.1Q35.5-18.35 36.77-20.93 38.05-23.5 40.47-25 42.9-26.5 46.5-26.5L46.5-26.5Q50.1-26.5 52.52-25 54.95-23.5 56.22-20.93 57.5-18.35 57.6-15.1L57.6-15.1Q57.65-14.35 57.65-13 57.65-11.65 57.6-10.9L57.6-10.9Q57.5-7.7 56.22-5.1 54.95-2.5 52.52-1 50.1 0.5 46.5 0.5ZM46.5-2.4L46.5-2.4Q50-2.4 52.2-4.65 54.4-6.9 54.55-11.15L54.55-11.15Q54.6-11.9 54.6-13 54.6-14.1 54.55-14.85L54.55-14.85Q54.4-19.15 52.2-21.38 50-23.6 46.5-23.6L46.5-23.6Q43-23.6 40.8-21.38 38.6-19.15 38.45-14.85L38.45-14.85Q38.4-14.1 38.4-13 38.4-11.9 38.45-11.15L38.45-11.15Q38.6-6.9 40.8-4.65 43-2.4 46.5-2.4ZM66.45 0L65.6 0Q65.1 0 64.8-0.3 64.5-0.6 64.5-1.1L64.5-1.1 64.5-24.9Q64.5-25.4 64.8-25.7 65.1-26 65.6-26L65.6-26 66.45-26Q66.95-26 67.25-25.7 67.55-25.4 67.55-24.9L67.55-24.9 67.55-22.55Q68.9-24.3 70.82-25.4 72.75-26.5 75.95-26.5L75.95-26.5Q79.35-26.5 81.62-25.03 83.9-23.55 85.02-21.03 86.15-18.5 86.15-15.3L86.15-15.3 86.15-1.1Q86.15-0.6 85.85-0.3 85.55 0 85.05 0L85.05 0 84.2 0Q83.7 0 83.4-0.3 83.1-0.6 83.1-1.1L83.1-1.1 83.1-15.05Q83.1-19.05 81.15-21.33 79.2-23.6 75.45-23.6L75.45-23.6Q71.9-23.6 69.72-21.33 67.55-19.05 67.55-15.05L67.55-15.05 67.55-1.1Q67.55-0.6 67.25-0.3 66.95 0 66.45 0L66.45 0ZM102.24 0.5L102.24 0.5Q99.64 0.5 97.77-0.2 95.89-0.9 94.69-1.88 93.49-2.85 92.92-3.8 92.34-4.75 92.29-5.25L92.29-5.25Q92.24-5.8 92.64-6.08 93.04-6.35 93.39-6.35L93.39-6.35 94.14-6.35Q94.44-6.35 94.67-6.25 94.89-6.15 95.24-5.7L95.24-5.7Q95.89-4.85 96.74-4.08 97.59-3.3 98.92-2.85 100.24-2.4 102.24-2.4L102.24-2.4Q105.24-2.4 107.19-3.55 109.14-4.7 109.14-6.95L109.14-6.95Q109.14-8.35 108.37-9.2 107.59-10.05 105.74-10.7 103.89-11.35 100.74-12.05L100.74-12.05Q97.59-12.8 95.92-13.85 94.24-14.9 93.64-16.28 93.04-17.65 93.04-19.25L93.04-19.25Q93.04-21 94.04-22.68 95.04-24.35 97.02-25.43 98.99-26.5 101.99-26.5L101.99-26.5Q104.44-26.5 106.17-25.85 107.89-25.2 108.99-24.28 110.09-23.35 110.62-22.45 111.14-21.55 111.19-21L111.19-21Q111.24-20.5 110.89-20.2 110.54-19.9 110.09-19.9L110.09-19.9 109.34-19.9Q108.94-19.9 108.69-20.08 108.44-20.25 108.24-20.55L108.24-20.55Q107.74-21.35 107.04-22.05 106.34-22.75 105.17-23.18 103.99-23.6 101.99-23.6L101.99-23.6Q98.99-23.6 97.54-22.38 96.09-21.15 96.09-19.25L96.09-19.25Q96.09-18.15 96.69-17.32 97.29-16.5 98.94-15.83 100.59-15.15 103.74-14.4L103.74-14.4Q106.94-13.7 108.79-12.68 110.64-11.65 111.42-10.25 112.19-8.85 112.19-6.95L112.19-6.95Q112.19-4.95 111.07-3.25 109.94-1.55 107.72-0.53 105.49 0.5 102.24 0.5ZM130.29 0L127.34 0Q124.74 0 123.24-1.1 121.74-2.2 121.14-4.1 120.54-6 120.54-8.35L120.54-8.35 120.54-23.1 116.64-23.1Q116.14-23.1 115.84-23.4 115.54-23.7 115.54-24.2L115.54-24.2 115.54-24.9Q115.54-25.4 115.84-25.7 116.14-26 116.64-26L116.64-26 120.54-26 120.54-34.4Q120.54-34.9 120.84-35.2 121.14-35.5 121.64-35.5L121.64-35.5 122.49-35.5Q122.99-35.5 123.29-35.2 123.59-34.9 123.59-34.4L123.59-34.4 123.59-26 129.79-26Q130.29-26 130.59-25.7 130.89-25.4 130.89-24.9L130.89-24.9 130.89-24.2Q130.89-23.7 130.59-23.4 130.29-23.1 129.79-23.1L129.79-23.1 123.59-23.1 123.59-8.55Q123.59-5.9 124.47-4.4 125.34-2.9 127.59-2.9L127.59-2.9 130.29-2.9Q130.79-2.9 131.09-2.6 131.39-2.3 131.39-1.8L131.39-1.8 131.39-1.1Q131.39-0.6 131.09-0.3 130.79 0 130.29 0L130.29 0ZM138.44 0L137.64 0Q137.14 0 136.84-0.3 136.54-0.6 136.54-1.1L136.54-1.1 136.54-24.85Q136.54-25.35 136.84-25.68 137.14-26 137.64-26L137.64-26 138.44-26Q138.94-26 139.26-25.68 139.59-25.35 139.59-24.85L139.59-24.85 139.59-22.55Q140.49-24.3 142.19-25.15 143.89-26 146.39-26L146.39-26 148.24-26Q148.74-26 149.04-25.7 149.34-25.4 149.34-24.9L149.34-24.9 149.34-24.2Q149.34-23.7 149.04-23.4 148.74-23.1 148.24-23.1L148.24-23.1 146.09-23.1Q143.09-23.1 141.34-21.35 139.59-19.6 139.59-16.6L139.59-16.6 139.59-1.1Q139.59-0.6 139.26-0.3 138.94 0 138.44 0L138.44 0ZM163.69 0.5L163.69 0.5Q160.29 0.5 158.06-0.98 155.84-2.45 154.76-5 153.69-7.55 153.69-10.7L153.69-10.7 153.69-24.9Q153.69-25.4 153.99-25.7 154.29-26 154.79-26L154.79-26 155.64-26Q156.14-26 156.44-25.7 156.74-25.4 156.74-24.9L156.74-24.9 156.74-10.95Q156.74-2.4 164.19-2.4L164.19-2.4Q167.74-2.4 169.89-4.67 172.04-6.95 172.04-10.95L172.04-10.95 172.04-24.9Q172.04-25.4 172.34-25.7 172.64-26 173.14-26L173.14-26 173.99-26Q174.49-26 174.79-25.7 175.09-25.4 175.09-24.9L175.09-24.9 175.09-1.1Q175.09-0.6 174.79-0.3 174.49 0 173.99 0L173.99 0 173.14 0Q172.64 0 172.34-0.3 172.04-0.6 172.04-1.1L172.04-1.1 172.04-3.45Q170.69-1.7 168.81-0.6 166.94 0.5 163.69 0.5ZM193.03 0.5L193.03 0.5Q189.53 0.5 187.08-0.88 184.63-2.25 183.36-4.85 182.08-7.45 181.98-11L181.98-11Q181.93-11.75 181.93-13 181.93-14.25 181.98-15L181.98-15Q182.08-18.6 183.36-21.18 184.63-23.75 187.08-25.13 189.53-26.5 193.03-26.5L193.03-26.5Q195.68-26.5 197.61-25.78 199.53-25.05 200.78-23.88 202.03-22.7 202.68-21.3 203.33-19.9 203.38-18.55L203.38-18.55Q203.43-18.05 203.08-17.75 202.73-17.45 202.28-17.45L202.28-17.45 201.58-17.45Q201.08-17.45 200.86-17.68 200.63-17.9 200.38-18.5L200.38-18.5Q199.33-21.35 197.51-22.48 195.68-23.6 193.03-23.6L193.03-23.6Q189.63-23.6 187.41-21.53 185.18-19.45 185.03-14.75L185.03-14.75Q184.93-13 185.03-11.25L185.03-11.25Q185.18-6.55 187.41-4.48 189.63-2.4 193.03-2.4L193.03-2.4Q195.68-2.4 197.51-3.53 199.33-4.65 200.38-7.5L200.38-7.5Q200.63-8.1 200.86-8.33 201.08-8.55 201.58-8.55L201.58-8.55 202.28-8.55Q202.73-8.55 203.08-8.25 203.43-7.95 203.38-7.45L203.38-7.45Q203.33-6.35 202.93-5.25 202.53-4.15 201.71-3.1 200.88-2.05 199.68-1.25 198.48-0.45 196.81 0.03 195.13 0.5 193.03 0.5ZM221.68 0L218.73 0Q216.13 0 214.63-1.1 213.13-2.2 212.53-4.1 211.93-6 211.93-8.35L211.93-8.35 211.93-23.1 208.03-23.1Q207.53-23.1 207.23-23.4 206.93-23.7 206.93-24.2L206.93-24.2 206.93-24.9Q206.93-25.4 207.23-25.7 207.53-26 208.03-26L208.03-26 211.93-26 211.93-34.4Q211.93-34.9 212.23-35.2 212.53-35.5 213.03-35.5L213.03-35.5 213.88-35.5Q214.38-35.5 214.68-35.2 214.98-34.9 214.98-34.4L214.98-34.4 214.98-26 221.18-26Q221.68-26 221.98-25.7 222.28-25.4 222.28-24.9L222.28-24.9 222.28-24.2Q222.28-23.7 221.98-23.4 221.68-23.1 221.18-23.1L221.18-23.1 214.98-23.1 214.98-8.55Q214.98-5.9 215.86-4.4 216.73-2.9 218.98-2.9L218.98-2.9 221.68-2.9Q222.18-2.9 222.48-2.6 222.78-2.3 222.78-1.8L222.78-1.8 222.78-1.1Q222.78-0.6 222.48-0.3 222.18 0 221.68 0L221.68 0ZM229.88 0L229.03 0Q228.53 0 228.23-0.3 227.93-0.6 227.93-1.1L227.93-1.1 227.93-24.9Q227.93-25.4 228.23-25.7 228.53-26 229.03-26L229.03-26 229.88-26Q230.38-26 230.68-25.7 230.98-25.4 230.98-24.9L230.98-24.9 230.98-1.1Q230.98-0.6 230.68-0.3 230.38 0 229.88 0L229.88 0ZM230.38-31.35L228.48-31.35Q227.98-31.35 227.68-31.65 227.38-31.95 227.38-32.45L227.38-32.45 227.38-34.35Q227.38-34.85 227.68-35.18 227.98-35.5 228.48-35.5L228.48-35.5 230.38-35.5Q230.88-35.5 231.2-35.18 231.53-34.85 231.53-34.35L231.53-34.35 231.53-32.45Q231.53-31.95 231.2-31.65 230.88-31.35 230.38-31.35L230.38-31.35ZM248.98 0.5L248.98 0.5Q245.38 0.5 242.95-1 240.53-2.5 239.25-5.1 237.98-7.7 237.88-10.9L237.88-10.9Q237.83-11.65 237.83-13 237.83-14.35 237.88-15.1L237.88-15.1Q237.98-18.35 239.25-20.93 240.53-23.5 242.95-25 245.38-26.5 248.98-26.5L248.98-26.5Q252.58-26.5 255-25 257.43-23.5 258.7-20.93 259.98-18.35 260.08-15.1L260.08-15.1Q260.13-14.35 260.13-13 260.13-11.65 260.08-10.9L260.08-10.9Q259.98-7.7 258.7-5.1 257.43-2.5 255-1 252.58 0.5 248.98 0.5ZM248.98-2.4L248.98-2.4Q252.48-2.4 254.68-4.65 256.88-6.9 257.03-11.15L257.03-11.15Q257.08-11.9 257.08-13 257.08-14.1 257.03-14.85L257.03-14.85Q256.88-19.15 254.68-21.38 252.48-23.6 248.98-23.6L248.98-23.6Q245.48-23.6 243.28-21.38 241.08-19.15 240.93-14.85L240.93-14.85Q240.88-14.1 240.88-13 240.88-11.9 240.93-11.15L240.93-11.15Q241.08-6.9 243.28-4.65 245.48-2.4 248.98-2.4ZM268.92 0L268.07 0Q267.57 0 267.27-0.3 266.97-0.6 266.97-1.1L266.97-1.1 266.97-24.9Q266.97-25.4 267.27-25.7 267.57-26 268.07-26L268.07-26 268.92-26Q269.42-26 269.72-25.7 270.02-25.4 270.02-24.9L270.02-24.9 270.02-22.55Q271.37-24.3 273.3-25.4 275.22-26.5 278.42-26.5L278.42-26.5Q281.82-26.5 284.1-25.03 286.37-23.55 287.5-21.03 288.62-18.5 288.62-15.3L288.62-15.3 288.62-1.1Q288.62-0.6 288.32-0.3 288.02 0 287.52 0L287.52 0 286.67 0Q286.17 0 285.87-0.3 285.57-0.6 285.57-1.1L285.57-1.1 285.57-15.05Q285.57-19.05 283.62-21.33 281.67-23.6 277.92-23.6L277.92-23.6Q274.37-23.6 272.2-21.33 270.02-19.05 270.02-15.05L270.02-15.05 270.02-1.1Q270.02-0.6 269.72-0.3 269.42 0 268.92 0L268.92 0ZM316.37 0.5L316.37 0.5Q313.97 0.5 311.94-0.5 309.92-1.5 308.67-3.18 307.42-4.85 307.42-6.95L307.42-6.95Q307.42-10.35 310.17-12.4 312.92-14.45 317.32-15.05L317.32-15.05 325.22-16.15 325.22-17.9Q325.22-20.55 323.59-22.08 321.97-23.6 318.42-23.6L318.42-23.6Q315.82-23.6 314.22-22.58 312.62-21.55 312.02-19.9L312.02-19.9Q311.77-19.15 311.07-19.15L311.07-19.15 310.27-19.15Q309.67-19.15 309.42-19.48 309.17-19.8 309.17-20.25L309.17-20.25Q309.17-20.95 309.69-22 310.22-23.05 311.32-24.08 312.42-25.1 314.17-25.8 315.92-26.5 318.42-26.5L318.42-26.5Q321.37-26.5 323.29-25.7 325.22-24.9 326.29-23.63 327.37-22.35 327.82-20.8 328.27-19.25 328.27-17.75L328.27-17.75 328.27-1.1Q328.27-0.6 327.97-0.3 327.67 0 327.17 0L327.17 0 326.32 0Q325.82 0 325.52-0.3 325.22-0.6 325.22-1.1L325.22-1.1 325.22-3.45Q324.62-2.55 323.52-1.65 322.42-0.75 320.69-0.13 318.97 0.5 316.37 0.5ZM316.87-2.4L316.87-2.4Q319.17-2.4 321.07-3.4 322.97-4.4 324.09-6.48 325.22-8.55 325.22-11.7L325.22-11.7 325.22-13.4 318.77-12.5Q314.67-11.95 312.57-10.6 310.47-9.25 310.47-7.2L310.47-7.2Q310.47-5.55 311.42-4.5 312.37-3.45 313.84-2.93 315.32-2.4 316.87-2.4ZM346.01 0.5L346.01 0.5Q342.51 0.5 340.06-0.88 337.62-2.25 336.34-4.85 335.06-7.45 334.97-11L334.97-11Q334.92-11.75 334.92-13 334.92-14.25 334.97-15L334.97-15Q335.06-18.6 336.34-21.18 337.62-23.75 340.06-25.13 342.51-26.5 346.01-26.5L346.01-26.5Q348.67-26.5 350.59-25.78 352.51-25.05 353.76-23.88 355.01-22.7 355.67-21.3 356.31-19.9 356.37-18.55L356.37-18.55Q356.42-18.05 356.06-17.75 355.72-17.45 355.26-17.45L355.26-17.45 354.56-17.45Q354.06-17.45 353.84-17.68 353.62-17.9 353.37-18.5L353.37-18.5Q352.31-21.35 350.49-22.48 348.67-23.6 346.01-23.6L346.01-23.6Q342.62-23.6 340.39-21.53 338.17-19.45 338.01-14.75L338.01-14.75Q337.92-13 338.01-11.25L338.01-11.25Q338.17-6.55 340.39-4.48 342.62-2.4 346.01-2.4L346.01-2.4Q348.67-2.4 350.49-3.53 352.31-4.65 353.37-7.5L353.37-7.5Q353.62-8.1 353.84-8.33 354.06-8.55 354.56-8.55L354.56-8.55 355.26-8.55Q355.72-8.55 356.06-8.25 356.42-7.95 356.37-7.45L356.37-7.45Q356.31-6.35 355.92-5.25 355.51-4.15 354.69-3.1 353.87-2.05 352.67-1.25 351.47-0.45 349.79 0.03 348.12 0.5 346.01 0.5ZM372.81 0.5L372.81 0.5Q369.31 0.5 366.86-0.88 364.41-2.25 363.14-4.85 361.86-7.45 361.76-11L361.76-11Q361.71-11.75 361.71-13 361.71-14.25 361.76-15L361.76-15Q361.86-18.6 363.14-21.18 364.41-23.75 366.86-25.13 369.31-26.5 372.81-26.5L372.81-26.5Q375.46-26.5 377.39-25.78 379.31-25.05 380.56-23.88 381.81-22.7 382.46-21.3 383.11-19.9 383.16-18.55L383.16-18.55Q383.21-18.05 382.86-17.75 382.51-17.45 382.06-17.45L382.06-17.45 381.36-17.45Q380.86-17.45 380.64-17.68 380.41-17.9 380.16-18.5L380.16-18.5Q379.11-21.35 377.29-22.48 375.46-23.6 372.81-23.6L372.81-23.6Q369.41-23.6 367.19-21.53 364.96-19.45 364.81-14.75L364.81-14.75Q364.71-13 364.81-11.25L364.81-11.25Q364.96-6.55 367.19-4.48 369.41-2.4 372.81-2.4L372.81-2.4Q375.46-2.4 377.29-3.53 379.11-4.65 380.16-7.5L380.16-7.5Q380.41-8.1 380.64-8.33 380.86-8.55 381.36-8.55L381.36-8.55 382.06-8.55Q382.51-8.55 382.86-8.25 383.21-7.95 383.16-7.45L383.16-7.45Q383.11-6.35 382.71-5.25 382.31-4.15 381.49-3.1 380.66-2.05 379.46-1.25 378.26-0.45 376.59 0.03 374.91 0.5 372.81 0.5ZM399.66 0.5L399.66 0.5Q396.06 0.5 393.64-1 391.21-2.5 389.94-5.1 388.66-7.7 388.56-10.9L388.56-10.9Q388.51-11.65 388.51-13 388.51-14.35 388.56-15.1L388.56-15.1Q388.66-18.35 389.94-20.93 391.21-23.5 393.64-25 396.06-26.5 399.66-26.5L399.66-26.5Q403.26-26.5 405.69-25 408.11-23.5 409.39-20.93 410.66-18.35 410.76-15.1L410.76-15.1Q410.81-14.35 410.81-13 410.81-11.65 410.76-10.9L410.76-10.9Q410.66-7.7 409.39-5.1 408.11-2.5 405.69-1 403.26 0.5 399.66 0.5ZM399.66-2.4L399.66-2.4Q403.16-2.4 405.36-4.65 407.56-6.9 407.71-11.15L407.71-11.15Q407.76-11.9 407.76-13 407.76-14.1 407.71-14.85L407.71-14.85Q407.56-19.15 405.36-21.38 403.16-23.6 399.66-23.6L399.66-23.6Q396.16-23.6 393.96-21.38 391.76-19.15 391.61-14.85L391.61-14.85Q391.56-14.1 391.56-13 391.56-11.9 391.61-11.15L391.61-11.15Q391.76-6.9 393.96-4.65 396.16-2.4 399.66-2.4ZM427.41 0.5L427.41 0.5Q424.01 0.5 421.78-0.98 419.56-2.45 418.48-5 417.41-7.55 417.41-10.7L417.41-10.7 417.41-24.9Q417.41-25.4 417.71-25.7 418.01-26 418.51-26L418.51-26 419.36-26Q419.86-26 420.16-25.7 420.46-25.4 420.46-24.9L420.46-24.9 420.46-10.95Q420.46-2.4 427.91-2.4L427.91-2.4Q431.46-2.4 433.61-4.67 435.76-6.95 435.76-10.95L435.76-10.95 435.76-24.9Q435.76-25.4 436.06-25.7 436.36-26 436.86-26L436.86-26 437.71-26Q438.21-26 438.51-25.7 438.81-25.4 438.81-24.9L438.81-24.9 438.81-1.1Q438.81-0.6 438.51-0.3 438.21 0 437.71 0L437.71 0 436.86 0Q436.36 0 436.06-0.3 435.76-0.6 435.76-1.1L435.76-1.1 435.76-3.45Q434.41-1.7 432.53-0.6 430.66 0.5 427.41 0.5ZM448.86 0L448 0Q447.5 0 447.21-0.3 446.91-0.6 446.91-1.1L446.91-1.1 446.91-24.9Q446.91-25.4 447.21-25.7 447.5-26 448-26L448-26 448.86-26Q449.36-26 449.66-25.7 449.96-25.4 449.96-24.9L449.96-24.9 449.96-22.55Q451.31-24.3 453.23-25.4 455.16-26.5 458.36-26.5L458.36-26.5Q461.75-26.5 464.03-25.03 466.31-23.55 467.43-21.03 468.56-18.5 468.56-15.3L468.56-15.3 468.56-1.1Q468.56-0.6 468.25-0.3 467.96 0 467.46 0L467.46 0 466.61 0Q466.11 0 465.81-0.3 465.5-0.6 465.5-1.1L465.5-1.1 465.5-15.05Q465.5-19.05 463.56-21.33 461.61-23.6 457.86-23.6L457.86-23.6Q454.31-23.6 452.13-21.33 449.96-19.05 449.96-15.05L449.96-15.05 449.96-1.1Q449.96-0.6 449.66-0.3 449.36 0 448.86 0L448.86 0ZM488.1 0L485.15 0Q482.55 0 481.05-1.1 479.55-2.2 478.95-4.1 478.35-6 478.35-8.35L478.35-8.35 478.35-23.1 474.45-23.1Q473.95-23.1 473.65-23.4 473.35-23.7 473.35-24.2L473.35-24.2 473.35-24.9Q473.35-25.4 473.65-25.7 473.95-26 474.45-26L474.45-26 478.35-26 478.35-34.4Q478.35-34.9 478.65-35.2 478.95-35.5 479.45-35.5L479.45-35.5 480.3-35.5Q480.8-35.5 481.1-35.2 481.4-34.9 481.4-34.4L481.4-34.4 481.4-26 487.6-26Q488.1-26 488.4-25.7 488.7-25.4 488.7-24.9L488.7-24.9 488.7-24.2Q488.7-23.7 488.4-23.4 488.1-23.1 487.6-23.1L487.6-23.1 481.4-23.1 481.4-8.55Q481.4-5.9 482.28-4.4 483.15-2.9 485.4-2.9L485.4-2.9 488.1-2.9Q488.6-2.9 488.9-2.6 489.2-2.3 489.2-1.8L489.2-1.8 489.2-1.1Q489.2-0.6 488.9-0.3 488.6 0 488.1 0L488.1 0ZM496.3 0L495.45 0Q494.95 0 494.65-0.3 494.35-0.6 494.35-1.1L494.35-1.1 494.35-24.9Q494.35-25.4 494.65-25.7 494.95-26 495.45-26L495.45-26 496.3-26Q496.8-26 497.1-25.7 497.4-25.4 497.4-24.9L497.4-24.9 497.4-1.1Q497.4-0.6 497.1-0.3 496.8 0 496.3 0L496.3 0ZM496.8-31.35L494.9-31.35Q494.4-31.35 494.1-31.65 493.8-31.95 493.8-32.45L493.8-32.45 493.8-34.35Q493.8-34.85 494.1-35.18 494.4-35.5 494.9-35.5L494.9-35.5 496.8-35.5Q497.3-35.5 497.63-35.18 497.95-34.85 497.95-34.35L497.95-34.35 497.95-32.45Q497.95-31.95 497.63-31.65 497.3-31.35 496.8-31.35L496.8-31.35ZM507.45 0L506.6 0Q506.1 0 505.8-0.3 505.5-0.6 505.5-1.1L505.5-1.1 505.5-24.9Q505.5-25.4 505.8-25.7 506.1-26 506.6-26L506.6-26 507.45-26Q507.95-26 508.25-25.7 508.55-25.4 508.55-24.9L508.55-24.9 508.55-22.55Q509.9-24.3 511.82-25.4 513.75-26.5 516.95-26.5L516.95-26.5Q520.35-26.5 522.62-25.03 524.9-23.55 526.02-21.03 527.15-18.5 527.15-15.3L527.15-15.3 527.15-1.1Q527.15-0.6 526.85-0.3 526.55 0 526.05 0L526.05 0 525.2 0Q524.7 0 524.4-0.3 524.1-0.6 524.1-1.1L524.1-1.1 524.1-15.05Q524.1-19.05 522.15-21.33 520.2-23.6 516.45-23.6L516.45-23.6Q512.9-23.6 510.72-21.33 508.55-19.05 508.55-15.05L508.55-15.05 508.55-1.1Q508.55-0.6 508.25-0.3 507.95 0 507.45 0L507.45 0ZM544.69 11L544.69 11Q541.49 11 539.47 10.15 537.44 9.3 536.32 8.08 535.19 6.85 534.74 5.63 534.29 4.4 534.24 3.65L534.24 3.65Q534.19 3.15 534.54 2.83 534.89 2.5 535.34 2.5L535.34 2.5 536.04 2.5Q536.44 2.5 536.74 2.68 537.04 2.85 537.24 3.55L537.24 3.55Q537.54 4.35 538.22 5.43 538.89 6.5 540.37 7.3 541.84 8.1 544.44 8.1L544.44 8.1Q547.19 8.1 549.04 7.4 550.89 6.7 551.87 4.93 552.84 3.15 552.84 0L552.84 0 552.84-3.45Q551.59-1.75 549.57-0.63 547.54 0.5 544.44 0.5L544.44 0.5Q541.54 0.5 539.52-0.55 537.49-1.6 536.24-3.35 534.99-5.1 534.39-7.25 533.79-9.4 533.74-11.6L533.74-11.6Q533.69-13 533.74-14.4L533.74-14.4Q533.79-16.6 534.39-18.75 534.99-20.9 536.24-22.65 537.49-24.4 539.52-25.45 541.54-26.5 544.44-26.5L544.44-26.5Q547.54-26.5 549.57-25.35 551.59-24.2 552.84-22.55L552.84-22.55 552.84-24.85Q552.84-25.35 553.14-25.68 553.44-26 553.94-26L553.94-26 554.74-26Q555.24-26 555.57-25.68 555.89-25.35 555.89-24.85L555.89-24.85 555.89-0.5Q555.89 2.7 554.94 5.3 553.99 7.9 551.57 9.45 549.14 11 544.69 11ZM544.74-2.4L544.74-2.4Q547.59-2.4 549.34-3.75 551.09-5.1 551.92-7.13 552.74-9.15 552.84-11.2L552.84-11.2Q552.89-11.95 552.89-13 552.89-14.05 552.84-14.8L552.84-14.8Q552.74-16.85 551.92-18.88 551.09-20.9 549.34-22.25 547.59-23.6 544.74-23.6L544.74-23.6Q541.84-23.6 540.12-22.3 538.39-21 537.64-18.9 536.89-16.8 536.79-14.4L536.79-14.4Q536.74-13 536.79-11.6L536.79-11.6Q536.89-9.2 537.64-7.1 538.39-5 540.12-3.7 541.84-2.4 544.74-2.4ZM578.89 0L578.04 0Q577.54 0 577.24-0.3 576.94-0.6 576.94-1.1L576.94-1.1 576.94-24.9Q576.94-25.4 577.24-25.7 577.54-26 578.04-26L578.04-26 578.89-26Q579.39-26 579.69-25.7 579.99-25.4 579.99-24.9L579.99-24.9 579.99-23.15Q581.24-24.75 582.96-25.63 584.69-26.5 587.14-26.5L587.14-26.5Q592.74-26.5 595.14-21.8L595.14-21.8Q596.29-23.95 598.51-25.23 600.74-26.5 603.64-26.5L603.64-26.5Q606.29-26.5 608.41-25.28 610.54-24.05 611.76-21.65 612.99-19.25 612.99-15.65L612.99-15.65 612.99-1.1Q612.99-0.6 612.69-0.3 612.39 0 611.89 0L611.89 0 611.04 0Q610.54 0 610.24-0.3 609.94-0.6 609.94-1.1L609.94-1.1 609.94-15.15Q609.94-18.45 608.99-20.28 608.04-22.1 606.49-22.85 604.94-23.6 603.14-23.6L603.14-23.6Q601.64-23.6 600.09-22.85 598.54-22.1 597.51-20.28 596.49-18.45 596.49-15.15L596.49-15.15 596.49-1.1Q596.49-0.6 596.19-0.3 595.89 0 595.39 0L595.39 0 594.54 0Q594.04 0 593.74-0.3 593.44-0.6 593.44-1.1L593.44-1.1 593.44-15.15Q593.44-18.45 592.44-20.28 591.44-22.1 589.89-22.85 588.34-23.6 586.64-23.6L586.64-23.6Q585.14-23.6 583.59-22.85 582.04-22.1 581.01-20.28 579.99-18.45 579.99-15.2L579.99-15.2 579.99-1.1Q579.99-0.6 579.69-0.3 579.39 0 578.89 0L578.89 0ZM627.84 0.5L627.84 0.5Q625.44 0.5 623.41-0.5 621.39-1.5 620.14-3.18 618.89-4.85 618.89-6.95L618.89-6.95Q618.89-10.35 621.64-12.4 624.39-14.45 628.79-15.05L628.79-15.05 636.69-16.15 636.69-17.9Q636.69-20.55 635.06-22.08 633.44-23.6 629.89-23.6L629.89-23.6Q627.29-23.6 625.69-22.58 624.09-21.55 623.49-19.9L623.49-19.9Q623.24-19.15 622.54-19.15L622.54-19.15 621.74-19.15Q621.14-19.15 620.89-19.48 620.64-19.8 620.64-20.25L620.64-20.25Q620.64-20.95 621.16-22 621.69-23.05 622.79-24.08 623.89-25.1 625.64-25.8 627.39-26.5 629.89-26.5L629.89-26.5Q632.84-26.5 634.76-25.7 636.69-24.9 637.76-23.63 638.84-22.35 639.29-20.8 639.74-19.25 639.74-17.75L639.74-17.75 639.74-1.1Q639.74-0.6 639.44-0.3 639.14 0 638.64 0L638.64 0 637.79 0Q637.29 0 636.99-0.3 636.69-0.6 636.69-1.1L636.69-1.1 636.69-3.45Q636.09-2.55 634.99-1.65 633.89-0.75 632.16-0.13 630.44 0.5 627.84 0.5ZM628.34-2.4L628.34-2.4Q630.64-2.4 632.54-3.4 634.44-4.4 635.56-6.48 636.69-8.55 636.69-11.7L636.69-11.7 636.69-13.4 630.24-12.5Q626.14-11.95 624.04-10.6 621.94-9.25 621.94-7.2L621.94-7.2Q621.94-5.55 622.89-4.5 623.84-3.45 625.31-2.93 626.79-2.4 628.34-2.4ZM657.03 0.5L657.03 0.5Q654.13 0.5 652.11-0.55 650.08-1.6 648.83-3.35 647.58-5.1 647.01-7.25 646.43-9.4 646.33-11.6L646.33-11.6Q646.28-12.35 646.28-13 646.28-13.65 646.33-14.4L646.33-14.4Q646.43-16.6 647.01-18.75 647.58-20.9 648.83-22.65 650.08-24.4 652.11-25.45 654.13-26.5 657.03-26.5L657.03-26.5Q660.13-26.5 662.16-25.35 664.18-24.2 665.43-22.55L665.43-22.55 665.43-34.4Q665.43-34.9 665.73-35.2 666.03-35.5 666.53-35.5L666.53-35.5 667.38-35.5Q667.88-35.5 668.18-35.2 668.48-34.9 668.48-34.4L668.48-34.4 668.48-1.1Q668.48-0.6 668.18-0.3 667.88 0 667.38 0L667.38 0 666.53 0Q666.03 0 665.73-0.3 665.43-0.6 665.43-1.1L665.43-1.1 665.43-3.45Q664.18-1.75 662.16-0.63 660.13 0.5 657.03 0.5ZM657.33-2.4L657.33-2.4Q660.18-2.4 661.93-3.75 663.68-5.1 664.53-7.13 665.38-9.15 665.43-11.2L665.43-11.2Q665.48-11.95 665.48-13.15 665.48-14.35 665.43-15.1L665.43-15.1Q665.38-17.1 664.51-19.05 663.63-21 661.88-22.3 660.13-23.6 657.33-23.6L657.33-23.6Q654.43-23.6 652.71-22.3 650.98-21 650.23-18.9 649.48-16.8 649.38-14.4L649.38-14.4Q649.33-13 649.38-11.6L649.38-11.6Q649.48-9.2 650.23-7.1 650.98-5 652.71-3.7 654.43-2.4 657.33-2.4ZM686.28 0.5L686.28 0.5Q681.43 0.5 678.58-2.68 675.73-5.85 675.33-11L675.33-11Q675.28-11.75 675.28-13 675.28-14.25 675.33-15L675.33-15Q675.58-18.4 676.93-21 678.28-23.6 680.66-25.05 683.03-26.5 686.28-26.5L686.28-26.5Q689.78-26.5 692.23-24.95 694.68-23.4 696.01-20.5 697.33-17.6 697.33-13.6L697.33-13.6 697.33-12.85Q697.33-12.35 697.01-12.05 696.68-11.75 696.18-11.75L696.18-11.75 678.38-11.75Q678.38-11.75 678.38-11.55 678.38-11.35 678.38-11.25L678.38-11.25Q678.48-9 679.43-6.98 680.38-4.95 682.13-3.68 683.88-2.4 686.28-2.4L686.28-2.4Q688.43-2.4 689.86-3.05 691.28-3.7 692.13-4.48 692.98-5.25 693.23-5.65L693.23-5.65Q693.68-6.3 693.93-6.43 694.18-6.55 694.73-6.55L694.73-6.55 695.53-6.55Q695.98-6.55 696.31-6.28 696.63-6 696.58-5.55L696.58-5.55Q696.53-4.85 695.81-3.83 695.08-2.8 693.76-1.8 692.43-0.8 690.53-0.15 688.63 0.5 686.28 0.5ZM678.38-14.75L678.38-14.55 694.28-14.55 694.28-14.75Q694.28-17.25 693.33-19.25 692.38-21.25 690.58-22.43 688.78-23.6 686.28-23.6L686.28-23.6Q683.78-23.6 682.01-22.43 680.23-21.25 679.31-19.25 678.38-17.25 678.38-14.75L678.38-14.75ZM726.48 0.5L726.48 0.5Q721.63 0.5 718.78-2.68 715.93-5.85 715.53-11L715.53-11Q715.48-11.75 715.48-13 715.48-14.25 715.53-15L715.53-15Q715.78-18.4 717.13-21 718.48-23.6 720.85-25.05 723.23-26.5 726.48-26.5L726.48-26.5Q729.98-26.5 732.43-24.95 734.88-23.4 736.2-20.5 737.53-17.6 737.53-13.6L737.53-13.6 737.53-12.85Q737.53-12.35 737.2-12.05 736.88-11.75 736.38-11.75L736.38-11.75 718.58-11.75Q718.58-11.75 718.58-11.55 718.58-11.35 718.58-11.25L718.58-11.25Q718.68-9 719.63-6.98 720.58-4.95 722.33-3.68 724.08-2.4 726.48-2.4L726.48-2.4Q728.63-2.4 730.05-3.05 731.48-3.7 732.33-4.48 733.18-5.25 733.43-5.65L733.43-5.65Q733.88-6.3 734.13-6.43 734.38-6.55 734.93-6.55L734.93-6.55 735.73-6.55Q736.18-6.55 736.5-6.28 736.83-6 736.78-5.55L736.78-5.55Q736.73-4.85 736-3.83 735.28-2.8 733.95-1.8 732.63-0.8 730.73-0.15 728.83 0.5 726.48 0.5ZM718.58-14.75L718.58-14.55 734.48-14.55 734.48-14.75Q734.48-17.25 733.53-19.25 732.58-21.25 730.78-22.43 728.98-23.6 726.48-23.6L726.48-23.6Q723.98-23.6 722.2-22.43 720.43-21.25 719.5-19.25 718.58-17.25 718.58-14.75L718.58-14.75ZM751.12 0.5L751.12 0.5Q748.72 0.5 746.7-0.5 744.67-1.5 743.42-3.18 742.17-4.85 742.17-6.95L742.17-6.95Q742.17-10.35 744.92-12.4 747.67-14.45 752.07-15.05L752.07-15.05 759.97-16.15 759.97-17.9Q759.97-20.55 758.35-22.08 756.72-23.6 753.17-23.6L753.17-23.6Q750.57-23.6 748.97-22.58 747.37-21.55 746.77-19.9L746.77-19.9Q746.52-19.15 745.82-19.15L745.82-19.15 745.02-19.15Q744.42-19.15 744.17-19.48 743.92-19.8 743.92-20.25L743.92-20.25Q743.92-20.95 744.45-22 744.97-23.05 746.07-24.08 747.17-25.1 748.92-25.8 750.67-26.5 753.17-26.5L753.17-26.5Q756.12-26.5 758.05-25.7 759.97-24.9 761.05-23.63 762.12-22.35 762.57-20.8 763.02-19.25 763.02-17.75L763.02-17.75 763.02-1.1Q763.02-0.6 762.72-0.3 762.42 0 761.92 0L761.92 0 761.07 0Q760.57 0 760.27-0.3 759.97-0.6 759.97-1.1L759.97-1.1 759.97-3.45Q759.37-2.55 758.27-1.65 757.17-0.75 755.45-0.13 753.72 0.5 751.12 0.5ZM751.62-2.4L751.62-2.4Q753.92-2.4 755.82-3.4 757.72-4.4 758.85-6.48 759.97-8.55 759.97-11.7L759.97-11.7 759.97-13.4 753.52-12.5Q749.42-11.95 747.32-10.6 745.22-9.25 745.22-7.2L745.22-7.2Q745.22-5.55 746.17-4.5 747.12-3.45 748.6-2.93 750.07-2.4 751.62-2.4ZM779.17 0.5L779.17 0.5Q776.57 0.5 774.7-0.2 772.82-0.9 771.62-1.88 770.42-2.85 769.85-3.8 769.27-4.75 769.22-5.25L769.22-5.25Q769.17-5.8 769.57-6.08 769.97-6.35 770.32-6.35L770.32-6.35 771.07-6.35Q771.37-6.35 771.6-6.25 771.82-6.15 772.17-5.7L772.17-5.7Q772.82-4.85 773.67-4.08 774.52-3.3 775.85-2.85 777.17-2.4 779.17-2.4L779.17-2.4Q782.17-2.4 784.12-3.55 786.07-4.7 786.07-6.95L786.07-6.95Q786.07-8.35 785.3-9.2 784.52-10.05 782.67-10.7 780.82-11.35 777.67-12.05L777.67-12.05Q774.52-12.8 772.85-13.85 771.17-14.9 770.57-16.28 769.97-17.65 769.97-19.25L769.97-19.25Q769.97-21 770.97-22.68 771.97-24.35 773.95-25.43 775.92-26.5 778.92-26.5L778.92-26.5Q781.37-26.5 783.1-25.85 784.82-25.2 785.92-24.28 787.02-23.35 787.55-22.45 788.07-21.55 788.12-21L788.12-21Q788.17-20.5 787.82-20.2 787.47-19.9 787.02-19.9L787.02-19.9 786.27-19.9Q785.87-19.9 785.62-20.08 785.37-20.25 785.17-20.55L785.17-20.55Q784.67-21.35 783.97-22.05 783.27-22.75 782.1-23.18 780.92-23.6 778.92-23.6L778.92-23.6Q775.92-23.6 774.47-22.38 773.02-21.15 773.02-19.25L773.02-19.25Q773.02-18.15 773.62-17.32 774.22-16.5 775.87-15.83 777.52-15.15 780.67-14.4L780.67-14.4Q783.87-13.7 785.72-12.68 787.57-11.65 788.35-10.25 789.12-8.85 789.12-6.95L789.12-6.95Q789.12-4.95 788-3.25 786.87-1.55 784.65-0.53 782.42 0.5 779.17 0.5ZM800.92 9.5L799.92 9.5Q799.52 9.5 799.22 9.2 798.92 8.9 798.92 8.5L798.92 8.5Q798.92 8.3 798.99 8.08 799.07 7.85 799.22 7.5L799.22 7.5 803.07-1.5 793.52-24Q793.22-24.75 793.22-25L793.22-25Q793.22-25.4 793.52-25.7 793.82-26 794.22-26L794.22-26 795.27-26Q795.77-26 796.02-25.78 796.27-25.55 796.42-25.25L796.42-25.25 804.82-5.45 813.42-25.25Q813.57-25.55 813.82-25.78 814.07-26 814.57-26L814.57-26 815.57-26Q815.97-26 816.27-25.7 816.57-25.4 816.57-25L816.57-25Q816.57-24.75 816.27-24L816.27-24 802.07 8.75Q801.92 9.05 801.67 9.28 801.42 9.5 800.92 9.5L800.92 9.5Z" opacity="1" transform="matrix(1,0,0,1,0,0)" fill="#0080ff" class="slogan-text-1" data-fill-palette-color="secondary" id="text-1"></path></svg></g></svg></g></svg></g></svg></g><g transform="matrix(1,0,0,1,328.3810227278825,0)"><svg viewBox="0 0 138.0199144660087 211.53998256398793" height="211.53998256398793" width="138.0199144660087"><g><svg xmlns="http://www.w3.org/2000/svg" xmlns:xlink="http://www.w3.org/1999/xlink" version="1.1" x="0" y="0" viewBox="13.892 0.551 57.715999999999994 88.46" enable-background="new 0 0 90 90" xml:space="preserve" height="211.53998256398793" width="138.0199144660087" class="icon-icon-0" data-fill-palette-color="accent" id="icon-0"><path d="M59.847 46.875H35.341c-2.18 0-4.109 1.066-5.302 2.704 0.53 0.63 0.912 1.387 1.082 2.223h1.713c1.201 0 2.234 0.72 2.695 1.75h1.796c2.015 0 3.652 1.637 3.652 3.652v22.519h18.869c3.627 0 6.565-2.938 6.565-6.564V53.439C66.412 49.814 63.474 46.875 59.847 46.875z" fill="#010c80" data-fill-palette-color="accent"></path><path d="M32.835 54.245h-4.507c0.283-0.411 0.448-0.908 0.448-1.445 0-1.416-1.147-2.564-2.563-2.564-1.415 0-2.564 1.148-2.564 2.564 0 0.537 0.167 1.034 0.45 1.445h-4.508c-0.278 0-0.504 0.226-0.504 0.506v3.462c0 0.279 0.227 0.506 0.504 0.506h13.244c0.281 0 0.506-0.227 0.506-0.506v-3.462C33.341 54.471 33.116 54.245 32.835 54.245zM26.213 51.718c0.596 0 1.081 0.485 1.081 1.082 0 0.596-0.484 1.08-1.081 1.08-0.597 0-1.079-0.484-1.079-1.08C25.134 52.203 25.616 51.718 26.213 51.718z" fill="#010c80" data-fill-palette-color="accent"></path><path d="M37.326 55.994h-2.477v2.219c0 1.099-0.894 1.994-1.994 1.994H19.612c-1.099 0-1.994-0.896-1.994-1.994v-2.219h-2.517c-0.667 0-1.209 0.543-1.209 1.21v30.599c0 0.667 0.542 1.208 1.209 1.208h22.225c0.668 0 1.208-0.541 1.208-1.208V57.204C38.535 56.537 37.994 55.994 37.326 55.994zM36.111 84.824H16.356V61.743h19.755V84.824z" fill="#010c80" data-fill-palette-color="accent"></path><polygon points="20.918,69.94 19.292,67.399 20.419,66.679 21.148,67.818 24.239,64.726 25.186,65.673 " fill="#010c80" data-fill-palette-color="accent"></polygon><polygon points="20.918,74.642 19.292,72.101 20.419,71.379 21.148,72.519 24.239,69.425 25.186,70.372 " fill="#010c80" data-fill-palette-color="accent"></polygon><polygon points="20.917,79.344 19.292,76.8 20.419,76.079 21.148,77.219 24.239,74.126 25.186,75.073 " fill="#010c80" data-fill-palette-color="accent"></polygon><path d="M27.448 26.034c1.083 10.012 9.559 17.807 19.86 17.807 10.301 0 18.778-7.795 19.858-17.807H27.448z" fill="#010c80" data-fill-palette-color="accent"></path><path d="M69.035 18h-1.274c-1.11-7.565-6.328-13.795-13.329-16.31v6.95c0 0.933-0.759 1.69-1.691 1.69-0.935 0-1.692-0.757-1.692-1.69V0.801c-0.67-0.117-1.354-0.201-2.049-0.25V8.64c0 0.933-0.756 1.69-1.69 1.69-0.934 0-1.692-0.757-1.692-1.69V0.581c-0.693 0.064-1.376 0.161-2.049 0.292V8.64c0 0.933-0.756 1.69-1.69 1.69-0.936 0-1.692-0.757-1.692-1.69V1.848C33.391 4.457 28.355 10.584 27.266 18h-1.683c-1.422 0-2.576 1.152-2.576 2.574 0 1.422 1.153 2.575 2.576 2.575h43.452c1.421 0 2.573-1.152 2.573-2.575C71.608 19.152 70.456 18 69.035 18z" fill="#010c80" data-fill-palette-color="accent"></path></svg></g></svg></g></svg></g></svg></g></svg></g><defs></defs></svg><rect width="395.52" height="247.2" fill="none" stroke="none" visibility="hidden"></rect></g></svg></g></svg>