<?xml version="1.0" encoding="utf-8"?>
<!-- Generator: Adobe Illustrator 25.0.1, SVG Export Plug-In . SVG Version: 6.00 Build 0)  -->
<svg version="1.1" id="Layer_1" xmlns="http://www.w3.org/2000/svg" xmlns:xlink="http://www.w3.org/1999/xlink" x="0px" y="0px"
	 viewBox="0 0 499.2 361.8" style="enable-background:new 0 0 499.2 361.8;" xml:space="preserve">
<style type="text/css">
	.st0{fill:none;}
</style>
<path id="XMLID_1287_" d="M129.4,253.1v4.1h-15.2v10.6h13.8v4h-13.8v10.6h15.2v4.1h-19.5v-33.5L129.4,253.1L129.4,253.1z"/>
<path id="XMLID_1290_" d="M165.7,286.5h-4.3v-33.5h4.3l11.6,20.4h0.2l11.6-20.4h4.3v33.5h-4.3v-19.9l0.2-5.6h-0.2l-10.5,18.4h-2.5
	l-10.5-18.4h-0.2l0.2,5.6L165.7,286.5L165.7,286.5z"/>
<path id="XMLID_1292_" d="M230.7,273v13.6h-4.3v-33.5h11.4c2.9,0,5.4,1,7.4,2.9c2.1,1.9,3.1,4.3,3.1,7.1c0,2.8-1,5.2-3.1,7.1
	c-2,1.9-4.5,2.9-7.4,2.9L230.7,273L230.7,273z M230.7,257.2v11.7h7.2c1.7,0,3.1-0.6,4.3-1.7c1.1-1.1,1.7-2.5,1.7-4.1
	c0-1.6-0.6-2.9-1.7-4.1c-1.1-1.2-2.5-1.8-4.3-1.8H230.7z"/>
<path id="XMLID_1295_" d="M283.2,286.5h-4.3v-33.5h4.3V286.5z"/>
<path id="XMLID_1297_" d="M320.4,286.5h-4.3v-33.5h11.4c2.9,0,5.4,1,7.4,2.9s3.1,4.3,3.1,7.1c0,2.3-0.8,4.4-2.3,6.1
	s-3.4,2.9-5.7,3.4l-0.1,0.1l9.4,13.6v0.2h-5.1l-9-13.6h-4.8L320.4,286.5L320.4,286.5z M320.4,257.2V269h6.9c1.8,0,3.2-0.6,4.4-1.7
	c1.2-1.1,1.8-2.5,1.8-4.2c0-1.6-0.6-2.9-1.7-4.1c-1.1-1.2-2.6-1.8-4.3-1.8L320.4,257.2L320.4,257.2z"/>
<path id="XMLID_1300_" d="M388.9,253.1v4.1h-15.2v10.6h13.8v4h-13.8v10.6h15.2v4.1h-19.5v-33.5L388.9,253.1L388.9,253.1z"/>
<path id="XMLID_1302_" d="M26.1,322v4.1H10.9v10.6h13.8v4H10.9v10.6h15.2v4.1H6.5V322L26.1,322L26.1,322z"/>
<path id="XMLID_1304_" d="M60.5,355.5h-5l11.2-17.3L56.1,322h5.1l8.1,12.8h0.2l8.1-12.8h5.1l-10.6,16.2l11.2,17.3h-5l-8.9-13.7h-0.2
	L60.5,355.5z"/>
<path id="XMLID_1306_" d="M118.1,341.9v13.6h-4.3V322h11.4c2.9,0,5.4,1,7.4,2.9c2.1,1.9,3.1,4.3,3.1,7c0,2.8-1,5.2-3.1,7.1
	c-2,1.9-4.5,2.8-7.4,2.8L118.1,341.9L118.1,341.9z M118.1,326.1v11.7h7.2c1.7,0,3.1-0.6,4.3-1.7c1.1-1.2,1.7-2.5,1.7-4.1
	c0-1.5-0.6-2.9-1.7-4.1c-1.1-1.2-2.5-1.8-4.3-1.8H118.1z"/>
<path id="XMLID_1309_" d="M185.9,322v4.1h-15.2v10.6h13.8v4h-13.8v10.6h15.2v4.1h-19.5V322L185.9,322L185.9,322z"/>
<path id="XMLID_1314_" d="M217.9,355.5V322h10.2c5.1,0,9.2,1.5,12.3,4.6c3.1,3.1,4.6,7.1,4.6,12.1c0,5-1.5,9.1-4.6,12.1
	c-3.1,3.1-7.2,4.6-12.3,4.6H217.9z M222.2,326.1v25.2h5.9c3.9,0,7-1.1,9.2-3.3c2.2-2.2,3.4-5.3,3.4-9.3c0-3.9-1.1-7-3.4-9.2
	c-2.2-2.2-5.3-3.4-9.2-3.4L222.2,326.1L222.2,326.1z"/>
<path id="XMLID_1317_" d="M280.7,355.5h-4.3V322h4.3V355.5z"/>
<path id="XMLID_1319_" d="M325,326.1v29.4h-4.3v-29.4h-9.3V322h23v4.1L325,326.1L325,326.1z"/>
<path id="XMLID_1321_" d="M369.3,355.5H365V322h4.3V355.5z"/>
<path id="XMLID_1327_" d="M406.6,355.5h-4.3V322h5.2l16.3,26h0.2l-0.2-6.5V322h4.3v33.5h-4.5l-17-27.3h-0.2l0.2,6.5V355.5z"/>
<path id="XMLID_1329_" d="M492.7,340.1c0,4.7-1.4,8.4-4.2,11.2c-3.1,3.3-7.2,5-12.3,5c-4.9,0-9-1.7-12.3-5c-3.4-3.4-5-7.5-5-12.4
	s1.7-9.1,5-12.4c3.4-3.4,7.5-5,12.3-5c2.5,0,4.8,0.4,7,1.3c2.2,0.9,4,2.1,5.4,3.7l-3.1,3.1c-1-1.2-2.4-2.2-4-2.9s-3.4-1-5.3-1
	c-3.7,0-6.7,1.3-9.3,3.8c-2.5,2.6-3.7,5.7-3.7,9.6c0,3.8,1.2,7,3.7,9.6c2.5,2.5,5.6,3.8,9.3,3.8c3.3,0,6.1-0.9,8.3-2.8
	s3.5-4.4,3.8-7.7h-12.2v-4h16.2C492.7,338.4,492.7,339.3,492.7,340.1z"/>
<path id="XMLID_1259_" d="M338.8,211.9l-87.4-42.4l-2-1l-1.6,1l-87.3,42.4l-0.5,0.2l-0.3-0.4L160,49.6l87.8-42.7l1.6-0.8l2,0.8
	l87.8,42.6l0.3,162.6L338.8,211.9z M163.8,205.8l42.9-20.8l42.9-20.9l83.5,40.6l2.3,1.1l-0.2-153.7l-83.5-40.6v25.4l58.7,28.5h0.4
	l-0.1,0.4l0.1,24.4v14.2L267,83.1v25.4l43.5,21h0.4l-0.1,0.4l0,24.4v14.1l-59.5-28.9l-0.4-0.2l-1.4-0.6l-1.1,0.7l-0.4,0.2
	l-46.5,22.6l-13,6.3v-14.1l0-24.8h0.4l42.7-20.7V83.4l-43.1,21V90.1l0.1-24.8h0.4l58.6-28.5V11.5l-83.5,40.6L163.8,205.8z
	 M253.5,136.1l53.2,25.9v-12.9l0-16.9l-40.2-19.5l-3.5-1.6V76.7l3.8,1.8l39.8,19.4v-13l0-17.1l-57.1-27.6l-1.4,0.9L192.7,68l0,16.9
	v13l39.2-19.1l3.8-1.8v34.4l-43.1,20.8l0,16.9V162l55.5-27l1.6-0.7L253.5,136.1z"/>
<path id="XMLID_1336_" d="M338.9,49.8L251.3,7.3l-1.6-0.8L248,7.3l-87.6,42.6l-0.3,161.8l0.2-0.1l87.3-42.4l2-1l1.9,1l87.3,42.4
	l0.2,0.1L338.9,49.8z M251.4,40.7l55.6,27v0.1l0,17.1v13.6l-39.8-19.4l-0.6-0.3l-3.2-1.5V80v27.2v3.7l3.2,1.5l0.6,0.3l39.8,19.2
	l0,17.2v13.5l-53.7-26.1l-2.3-1.1l-1.4-0.7l-1.4,0.7l-2.3,1.1l-27,13.1l-26.7,13v-13.5l0-17.2l39.8-19.2l3.2-1.6v-3.7V81.2v-3.6
	l-3.2,1.6l-39.8,19.4V84.9l0-17.1v-0.1l55.6-27l1.8-0.9L251.4,40.7z M333,205l-81.5-39.6l-0.5-0.2l-1.4-0.7l-1.4,0.7l0,0l-41.3,20.1
	l-43.5,21.1l0.2-154.6l84.3-41v26.2l-58.9,28.6h0v1.9L189,90.2v13.6l43.1-21v26.3L189,129.9h0v1.8l0,22.6v13.5l12.4-6l21.4-10.4
	l25.2-12.2l0.4-0.2l1.4-0.7l1.4,0.7l0.4,0.2l58.9,28.6v-13.5l0-22.6v-1.8h0l-43.1-20.9l-0.6-0.3V82.5l0.6,0.3l43.1,21V90.2
	l-0.1-22.4v-1.9h0l-58.9-28.6V10.9l84.3,40.9l0.2,154.6L333,205z"/>
<rect x="-262" y="-183.9" class="st0" width="1024" height="720"/>
</svg>
