<svg width="38" height="38" viewBox="0 0 38 38" fill="none" xmlns="http://www.w3.org/2000/svg">
<g id="Frame" clipPath="url(#clip0_191_755)">
<g id="Group">
<path id="Vector" d="M33.1192 37.5609H4.92321C2.44899 37.5609 0.439209 35.5511 0.439209 33.0769V5.0498C0.439209 2.57557 2.44899 0.565796 4.92321 0.565796H33.1192C35.5934 0.565796 37.6032 2.57557 37.6032 5.0498V33.0769C37.6032 35.5511 35.5934 37.5609 33.1192 37.5609ZM4.92321 1.41024C2.91343 1.41024 1.28365 3.04002 1.28365 5.0498V33.0769C1.28365 35.0867 2.91343 36.7165 4.92321 36.7165H33.1192C35.129 36.7165 36.7588 35.0867 36.7588 33.0769V5.0498C36.7588 3.04002 35.129 1.41024 33.1192 1.41024H4.92321Z" fill="#FCC310"/>
<path id="Vector_2" d="M37.181 7.78578H0.861431C0.624987 7.78578 0.439209 7.6 0.439209 7.36356C0.439209 7.12711 0.624987 6.94134 0.861431 6.94134H37.181C37.4174 6.94134 37.6032 7.12711 37.6032 7.36356C37.6032 7.6 37.4174 7.78578 37.181 7.78578ZM6.50232 5.88578C5.55654 5.88578 4.7881 5.11734 4.7881 4.17156C4.7881 3.22578 5.56499 2.46578 6.50232 2.46578C7.43965 2.46578 8.21654 3.23423 8.21654 4.18C8.21654 5.12578 7.4481 5.88578 6.50232 5.88578ZM6.50232 3.31023C6.02099 3.31023 5.63254 3.69867 5.63254 4.18C5.63254 4.66134 6.02943 5.04134 6.50232 5.04134C6.97521 5.04134 7.3721 4.65289 7.3721 4.17156C7.3721 3.69023 6.98365 3.31023 6.50232 3.31023ZM11.2397 5.88578C10.2939 5.88578 9.52543 5.11734 9.52543 4.17156C9.52543 3.22578 10.2939 2.45734 11.2397 2.45734C12.1854 2.45734 12.9539 3.22578 12.9539 4.17156C12.9539 5.11734 12.1854 5.88578 11.2397 5.88578ZM11.2397 3.31023C10.7583 3.31023 10.3699 3.69867 10.3699 4.18C10.3699 4.66134 10.7583 5.04978 11.2397 5.04978C11.721 5.04978 12.1094 4.66134 12.1094 4.18C12.1094 3.69867 11.721 3.31023 11.2397 3.31023ZM15.977 5.88578C15.0312 5.88578 14.2628 5.11734 14.2628 4.17156C14.2628 3.22578 15.0312 2.45734 15.977 2.45734C16.9228 2.45734 17.6912 3.22578 17.6912 4.17156C17.6912 5.11734 16.9228 5.88578 15.977 5.88578ZM15.977 3.31023C15.4957 3.31023 15.1072 3.69867 15.1072 4.18C15.1072 4.66134 15.4957 5.04978 15.977 5.04978C16.4583 5.04978 16.8468 4.66134 16.8468 4.18C16.8468 3.69867 16.4583 3.31023 15.977 3.31023ZM32.8321 4.59378H19.4223C19.1859 4.59378 19.0001 4.408 19.0001 4.17156C19.0001 3.93511 19.1859 3.74934 19.4223 3.74934H32.8321C33.0685 3.74934 33.2543 3.93511 33.2543 4.17156C33.2543 4.408 33.0601 4.59378 32.8321 4.59378ZM8.19121 34.0058C7.95476 34.0058 7.76899 33.82 7.76899 33.5836V13.6631C7.76899 13.4267 7.95476 13.2409 8.19121 13.2409H12.8948C13.1312 13.2409 13.317 13.4267 13.317 13.6631C13.317 13.8996 13.1312 14.0853 12.8948 14.0853H8.61343V33.5836C8.61343 33.82 8.41921 34.0058 8.19121 34.0058Z" fill="#FCC310"/>
<path id="Vector_3" d="M26.524 34.0058H8.19113C8.06447 34.0058 7.9378 33.9467 7.8618 33.8454C7.7858 33.744 7.75202 33.6089 7.7858 33.4822L11.1129 20.2667C11.1636 20.0809 11.3325 19.9458 11.5267 19.9458H29.8596C29.9862 19.9458 30.1129 20.0049 30.1889 20.1062C30.2734 20.2076 30.2987 20.3427 30.2649 20.4694L26.9294 33.6934C26.8871 33.8791 26.7182 34.0058 26.524 34.0058ZM8.73158 33.1614H26.1947L29.3191 20.7902H11.8476L8.73158 33.1614Z" fill="#FCC310"/>
<path id="Vector_4" d="M26.9886 20.7902C26.7521 20.7902 26.5663 20.6045 26.5663 20.368V11.3409H13.3086V20.368C13.3086 20.6045 13.1228 20.7902 12.8863 20.7902C12.6499 20.7902 12.4641 20.6045 12.4641 20.368V10.9187C12.4641 10.6822 12.6499 10.4965 12.8863 10.4965H26.9886C27.225 10.4965 27.4108 10.6822 27.4108 10.9187V20.368C27.4108 20.6045 27.225 20.7902 26.9886 20.7902Z" fill="#FCC310"/>
<path id="Vector_5" d="M25.2912 13.2916H14.5836C14.3472 13.2916 14.1614 13.1058 14.1614 12.8694C14.1614 12.6329 14.3472 12.4471 14.5836 12.4471H25.2827C25.5192 12.4471 25.705 12.6329 25.705 12.8694C25.705 13.1058 25.5192 13.2916 25.2912 13.2916ZM25.2912 15.2169H14.5836C14.3472 15.2169 14.1614 15.0311 14.1614 14.7947C14.1614 14.5583 14.3472 14.3725 14.5836 14.3725H25.2827C25.5192 14.3725 25.705 14.5583 25.705 14.7947C25.705 15.0311 25.5192 15.2169 25.2912 15.2169ZM25.2912 17.1338H14.5836C14.3472 17.1338 14.1614 16.948 14.1614 16.7116C14.1614 16.4751 14.3472 16.2894 14.5836 16.2894H25.2827C25.5192 16.2894 25.705 16.4751 25.705 16.7116C25.705 16.948 25.5192 17.1338 25.2912 17.1338ZM25.2912 19.0507H14.5836C14.3472 19.0507 14.1614 18.8649 14.1614 18.6285C14.1614 18.392 14.3472 18.2063 14.5836 18.2063H25.2827C25.5192 18.2063 25.705 18.392 25.705 18.6285C25.705 18.8649 25.5192 19.0507 25.2912 19.0507ZM20.0725 29.3867C19.9205 29.3867 19.777 29.3023 19.701 29.1587L17.5983 25.1814C17.4885 24.9787 17.5645 24.7169 17.7756 24.6071C17.9783 24.4974 18.2401 24.5734 18.3498 24.7845L20.4525 28.7618C20.5623 28.9645 20.4863 29.2263 20.2752 29.336C20.2076 29.3698 20.1401 29.3867 20.0725 29.3867ZM16.3738 29.3867C16.2894 29.3867 16.205 29.3614 16.129 29.3023L13.3761 27.3178C13.2663 27.2418 13.1987 27.1067 13.1987 26.98C13.1987 26.8534 13.2663 26.7183 13.3761 26.6423L16.129 24.6578C16.3147 24.5227 16.585 24.5649 16.7201 24.7507C16.8552 24.9365 16.813 25.2067 16.6272 25.3418L14.3472 26.9885L16.6272 28.6351C16.813 28.7703 16.8552 29.032 16.7201 29.2263C16.6356 29.3276 16.509 29.3867 16.3738 29.3867ZM21.6685 29.3867C21.5334 29.3867 21.4067 29.3276 21.3223 29.2094C21.1872 29.0236 21.2294 28.7534 21.4152 28.6183L23.6952 26.9716L21.4152 25.3249C21.2294 25.1898 21.1872 24.928 21.3223 24.7338C21.4574 24.548 21.7192 24.5058 21.9134 24.6409L24.6663 26.6254C24.7761 26.7014 24.8436 26.8365 24.8436 26.9631C24.8436 27.0898 24.7761 27.2249 24.6663 27.3009L21.9134 29.2854C21.8374 29.3614 21.753 29.3867 21.6685 29.3867Z" fill="#FCC310"/>
</g>
</g>
<defs>
<clipPath id="clip0_191_755">
<rect width="38" height="38" fill="white"/>
</clipPath>
</defs>
</svg>
