<svg width="40" height="40" viewBox="0 0 40 40" fill="none" xmlns="http://www.w3.org/2000/svg">
<g id="UX 1">
<g id="Group">
<path id="Vector" d="M34.0578 20.004C34.7418 18.6407 35.2801 17.2702 35.6539 15.9199C36.8256 11.6888 36.2582 8.14574 34.0558 5.94393C31.8537 3.74199 28.3102 3.17438 24.0785 4.34603C22.728 4.71966 21.3574 5.25819 19.9939 5.94183C18.2977 5.09061 16.599 4.46778 14.9622 4.10895C11.1606 3.27588 7.95638 3.92747 5.93997 5.94393C4.64577 7.2379 3.89513 9.05619 3.76968 11.2023C3.6568 13.1328 4.04812 15.3484 4.90098 17.6305C4.20062 18.1842 3.75 19.0402 3.75 20C3.75 20.9598 4.20062 21.8157 4.90092 22.3694C4.04806 24.6516 3.65668 26.8674 3.76962 28.7977C3.89532 30.9437 4.64571 32.762 5.93997 34.0561C7.38527 35.5014 9.41304 36.2465 11.8625 36.2465C12.3542 36.2465 12.863 36.2165 13.3878 36.1561C15.488 35.9138 17.7321 35.1984 19.9972 34.0595C21.3596 34.7427 22.7292 35.2805 24.0785 35.6539C25.5186 36.0527 26.879 36.25 28.1341 36.25C30.5666 36.25 32.6031 35.5086 34.0558 34.0561C36.0725 32.04 36.7241 28.8361 35.8909 25.0348C35.5321 23.3985 34.9092 21.7 34.0578 20.004ZM24.3331 5.26517C28.2193 4.18925 31.4327 4.66983 33.3814 6.6183C35.33 8.56672 35.8107 11.7797 34.7346 15.6654C34.4333 16.7539 34.0194 17.8573 33.5046 18.9597C32.5821 17.3057 31.4475 15.6666 30.133 14.1033C30.5357 13.5901 30.7767 12.9441 30.7767 12.2426C30.7767 11.5645 30.5573 10.9238 30.1417 10.3897L29.3887 10.9751C29.673 11.3403 29.823 11.7787 29.823 12.2426C29.823 13.3822 28.8958 14.3091 27.7563 14.3091C26.6168 14.3091 25.6895 13.3822 25.6895 12.2426C25.6895 11.1031 26.6167 10.1762 27.7563 10.1762C28.1273 10.1758 28.4916 10.2755 28.8107 10.4648L29.2983 9.64506C28.8316 9.36813 28.2989 9.22209 27.7562 9.2223C27.0547 9.2223 26.4087 9.46352 25.8956 9.86621C24.3318 8.5518 22.6926 7.41741 21.0383 6.49478C22.1408 5.9803 23.2444 5.56637 24.3331 5.26517ZM6.61444 6.61837C9.19332 4.03982 13.922 4.13599 18.9536 6.49211C16.4973 7.86181 14.0881 9.69597 11.8902 11.8933C10.2604 13.5229 8.82606 15.2732 7.62111 17.1004C7.34478 17.0202 7.05848 16.9795 6.77074 16.9797C6.42023 16.9795 6.07238 17.0405 5.74285 17.1599C4.09022 12.6563 4.3997 8.83256 6.61444 6.61837ZM11.8872 35.2895C9.72945 35.2895 7.89505 34.6621 6.61418 33.3817C4.39964 31.1674 4.0899 27.3439 5.74279 22.8401C6.3464 23.0589 7.00411 23.0791 7.62004 22.8979C8.82498 24.7258 10.2599 26.4766 11.8902 28.1067C14.0873 30.3033 16.4958 32.1369 18.9513 33.5066C16.4291 34.6869 14.0025 35.2897 11.8872 35.2894V35.2895ZM19.9951 32.9876C17.4188 31.6346 14.8746 29.7417 12.5647 27.4321C11.0125 25.88 9.64336 24.2167 8.48895 22.4821C9.27508 21.9363 9.79115 21.0275 9.79115 20.0002C9.79115 19.9107 9.78747 19.8202 9.77954 19.7312L8.82917 19.8153C8.83469 19.8762 8.83742 19.9382 8.83742 20C8.83742 21.1396 7.91016 22.0665 6.77067 22.0665C5.63118 22.0665 4.70399 21.1396 4.70399 20C4.70399 18.8604 5.63125 17.9335 6.77074 17.9335C7.55782 17.9335 8.26637 18.3709 8.61948 19.0748L9.47208 18.6474C9.23896 18.1825 8.89919 17.7974 8.49105 17.5145C9.6452 15.7813 11.0136 14.1188 12.5647 12.5678C14.8752 10.2576 17.4203 8.36416 19.9974 7.0111C21.7514 7.93424 23.526 9.12442 25.2453 10.5658C24.9123 11.0616 24.7348 11.6455 24.7355 12.2427C24.7355 13.908 26.0907 15.2628 27.7562 15.2628C28.3765 15.2628 28.9532 15.0749 29.4334 14.753C30.8749 16.4721 32.065 18.2467 32.9883 20.0002C31.635 22.577 29.7413 25.1217 27.4311 27.4322C27.1769 27.6861 26.9157 27.9385 26.6519 28.1857C26.1254 27.7404 25.4457 27.4711 24.7037 27.4711C24.0255 27.4711 23.3847 27.6908 22.8505 28.1061L23.4363 28.859C23.8013 28.575 24.2397 28.4251 24.7037 28.4248C25.8432 28.4248 26.7704 29.3519 26.7704 30.4912C26.7704 31.6308 25.8432 32.5577 24.7037 32.5577C23.5642 32.5577 22.637 31.6308 22.637 30.4912C22.637 30.1193 22.7367 29.7548 22.9257 29.4372L22.1058 28.9494C21.8289 29.416 21.6828 29.9487 21.683 30.4913C21.6826 30.9537 21.7891 31.41 21.9942 31.8245C21.3259 32.251 20.6582 32.6388 19.9951 32.9876ZM33.3812 33.3816C31.4326 35.3304 28.2191 35.8106 24.3329 34.7349C23.245 34.4337 22.1424 34.0204 21.0406 33.5061C21.5516 33.2203 22.0539 32.9192 22.5469 32.6033C23.0957 33.1632 23.8595 33.5116 24.7037 33.5116C26.3691 33.5116 27.7244 32.1568 27.7244 30.4915C27.7249 29.9325 27.5694 29.3844 27.2753 28.909C27.5564 28.6462 27.8331 28.3787 28.1053 28.1067C30.3032 25.9088 32.1373 23.4999 33.5074 21.0439C35.8639 26.0751 35.96 30.8031 33.3812 33.3816Z" fill="#FCC310"/>
<path id="Vector_2" d="M27.8195 24.9278H26.834V22.5248C26.834 21.4621 26.1196 20.5184 25.0966 20.2298L24.74 20.1294L24.4811 21.0473L24.8377 21.148C25.4513 21.321 25.88 21.8871 25.88 22.5248V24.9278H24.163V23.6243H23.2092V24.9278H18.9165V25.8814H27.8196L27.8195 24.9278Z" fill="#FCC310"/>
<path id="Vector_3" d="M21.575 20.2278L23.5629 20.7887L23.822 19.8705L21.8735 19.3211V18.0545C22.7557 17.453 23.3362 16.4406 23.3362 15.2948V13.8957C23.3362 12.0552 21.8386 10.5576 19.9976 10.5576C18.1567 10.5576 16.6589 12.0552 16.6589 13.8958V15.2948C16.6589 16.4405 17.2394 17.453 18.1215 18.0545V19.3211L14.8986 20.2298C13.8757 20.5184 13.1613 21.4621 13.1613 22.5249V24.9278H12.1758V25.8814H17.9626V24.9278H16.7861V23.6243H15.8323V24.9278H14.1152V22.5249C14.1152 21.8871 14.544 21.3211 15.1575 21.148L18.42 20.2281C18.8219 20.6675 19.3892 20.9221 19.9976 20.9221C20.6059 20.9221 21.1735 20.6672 21.575 20.2278ZM19.9976 11.5114C21.3123 11.5114 22.3822 12.5811 22.3822 13.896V14.4272L21.3796 13.1011H17.7495C18.0776 12.176 18.9612 11.5114 19.9976 11.5114ZM17.6129 15.2948V14.055H20.9049L22.3031 15.9037C22.033 16.9246 21.1018 17.6791 19.9976 17.6791C18.6827 17.6791 17.6129 16.6094 17.6129 15.2948ZM19.0756 19.5281V18.5023C19.6779 18.6764 20.3172 18.6764 20.9195 18.5023V19.5281C20.6954 19.8056 20.3596 19.9682 19.9976 19.9682C19.6355 19.9682 19.2995 19.8056 19.0756 19.5281Z" fill="#FCC310"/>
<path id="Vector_4" d="M22.5168 22.4753L21.1732 22.0964L21.4324 21.1785L22.7757 21.5573L22.5168 22.4753ZM24.6109 22.0733L24.3517 22.9913L23.4337 22.7324L23.6928 21.8145L24.6109 22.0733ZM27.2792 11.7658H28.2329V12.7197H27.2793L27.2792 11.7658ZM24.2267 30.0146H25.1804V30.9682H24.2267V30.0146ZM6.29346 19.5231H7.24751V20.4768H6.29346V19.5231Z" fill="#FCC310"/>
</g>
</g>
</svg>
