<svg width="40" height="40" viewBox="0 0 40 40" fill="none" xmlns="http://www.w3.org/2000/svg">
<g id="co 1">
<g id="Group">
<path id="Vector" d="M33.0298 12.6416H30.1213V9.54279C30.1213 7.76701 29.4531 6.07537 28.2399 4.77966C28.1863 4.72238 28.1219 4.67623 28.0505 4.64383C27.979 4.61144 27.9019 4.59344 27.8234 4.59086C27.745 4.58829 27.6669 4.60119 27.5934 4.62882C27.52 4.65646 27.4527 4.69829 27.3955 4.75193C27.3382 4.80555 27.2921 4.86992 27.2597 4.94138C27.2273 5.01283 27.2093 5.08996 27.2067 5.16837C27.2041 5.24678 27.217 5.32493 27.2447 5.39835C27.2723 5.47178 27.3141 5.53904 27.3677 5.5963C28.3728 6.66982 28.9264 8.07138 28.9264 9.54279V12.6416H16.7692C12.9259 12.6416 9.79906 15.7685 9.79906 19.6119V21.7492H8.86328C8.68015 21.7487 8.49874 21.7845 8.32954 21.8546C8.16035 21.9247 8.00673 22.0276 7.87758 22.1575L4.70664 25.3284V22.1386C4.70664 21.6499 4.445 21.1907 4.02367 20.9402C2.27883 19.9028 1.19484 17.9998 1.19484 15.974V9.54279C1.19484 6.35826 3.78562 3.76748 6.97016 3.76748H23.1511C23.8975 3.76748 24.6235 3.90755 25.309 4.18396C25.4559 4.24321 25.6204 4.24165 25.7662 4.17963C25.912 4.11761 26.0272 4.00021 26.0865 3.85326C26.1457 3.7063 26.1442 3.54183 26.0822 3.39602C26.0201 3.25021 25.9027 3.13501 25.7558 3.07576C24.9277 2.74185 24.0513 2.57263 23.1511 2.57263H6.97016C3.1268 2.57263 0 5.69943 0 9.54279V15.974C0 18.4191 1.30781 20.7156 3.41305 21.9672C3.44289 21.9849 3.46767 22.0099 3.48498 22.04C3.50228 22.07 3.51152 22.104 3.5118 22.1386V25.6169C3.51138 25.8297 3.57428 26.0378 3.6925 26.2147C3.81071 26.3916 3.97889 26.5294 4.17563 26.6104C4.44477 26.7398 4.9943 26.7211 5.34758 26.3774L8.72242 23.0025C8.74087 22.9839 8.76282 22.9692 8.787 22.9592C8.81118 22.9492 8.83711 22.944 8.86328 22.9441H9.79906V26.0429C9.79906 26.9837 9.98344 27.8966 10.347 28.7563C10.4099 28.9006 10.5271 29.0143 10.6732 29.0726C10.8194 29.131 10.9826 29.1293 11.1276 29.068C11.2725 29.0067 11.3874 28.8907 11.4473 28.7452C11.5073 28.5997 11.5073 28.4364 11.4476 28.2908C11.1466 27.5793 10.994 26.823 10.994 26.043V19.6119C10.994 16.4273 13.5848 13.8365 16.7693 13.8365H33.0298C36.2144 13.8365 38.8052 16.4273 38.8052 19.6119V26.043C38.8052 28.0768 37.7652 29.9227 36.0233 30.981C35.6127 31.2304 35.3577 31.6857 35.3577 32.169V36.0655L31.5187 32.2265C31.3896 32.0967 31.236 31.9937 31.0668 31.9237C30.8976 31.8536 30.7162 31.8178 30.533 31.8183H16.7692C15.3199 31.8183 13.9341 31.2792 12.8668 30.3004C12.75 30.1933 12.5955 30.137 12.4372 30.1439C12.2789 30.1507 12.1298 30.2201 12.0227 30.3369C11.9156 30.4537 11.8592 30.6082 11.8661 30.7666C11.8729 30.9249 11.9424 31.074 12.0591 31.1811C13.3473 32.3626 15.02 33.0132 16.7691 33.0132H30.5329C30.5853 33.0132 30.6366 33.0344 30.6737 33.0715L34.7166 37.1144C35.0288 37.3544 35.3339 37.5398 35.8884 37.3475C36.0852 37.2664 36.2534 37.1287 36.3716 36.9518C36.4898 36.7748 36.5527 36.5667 36.5523 36.354V32.1689C36.5523 32.1002 36.5873 32.0362 36.6435 32.0021C38.7453 30.7253 40 28.4976 40 26.0429V19.6119C40 15.7685 36.8732 12.6416 33.0298 12.6416Z" fill="#FCC310"/>
<path id="Vector_2" d="M23.2133 26.8895C22.863 26.3945 22.2248 26.0626 21.4969 26.0626C20.3932 26.0626 19.4954 26.8255 19.4954 27.7632C19.4954 28.7009 20.3933 29.4638 21.4969 29.4638C22.4654 29.4638 23.2751 28.8764 23.4591 28.0989C23.9007 27.913 24.297 27.6339 24.6208 27.2807C24.9446 26.9275 25.1883 26.5085 25.3352 26.0524C26.2077 25.8537 26.8611 25.0721 26.8611 24.1403V21.986C26.8611 21.0864 26.2521 20.3268 25.425 20.0965C25.2303 18.8966 24.6406 17.7956 23.7366 16.9635C22.7279 16.0349 21.417 15.5236 20.0453 15.5236C17.346 15.5236 15.0882 17.4679 14.665 20.0966C13.8382 20.3271 13.2295 21.0865 13.2295 21.9859V24.1402C13.2295 25.2217 14.1094 26.1017 15.191 26.1017C16.2725 26.1017 17.1525 25.2217 17.1525 24.1402V21.9859C17.1525 21.1425 16.6174 20.4218 15.8689 20.1453C16.2563 18.166 17.9865 16.7185 20.0453 16.7185C22.0779 16.7185 23.83 18.1913 24.22 20.1459C23.4724 20.4228 22.9381 21.1431 22.9381 21.9859V24.1402C22.9381 24.9374 23.4164 25.6246 24.1009 25.931C23.9125 26.3355 23.6021 26.6707 23.2133 26.8895ZM21.4969 28.269C21.0215 28.269 20.6903 28.0025 20.6903 27.7633C20.6903 27.5241 21.0215 27.2575 21.4969 27.2575C21.9723 27.2575 22.3036 27.5241 22.3036 27.7633C22.3036 28.0025 21.9722 28.269 21.4969 28.269ZM15.9576 24.1403C15.9576 24.5631 15.6137 24.907 15.191 24.907C14.7682 24.907 14.4243 24.5631 14.4243 24.1403V21.986C14.4243 21.5633 14.7682 21.2194 15.191 21.2194C15.6137 21.2194 15.9576 21.5633 15.9576 21.986V24.1403ZM24.1329 21.986C24.1329 21.5633 24.4768 21.2194 24.8996 21.2194C25.3223 21.2194 25.6662 21.5633 25.6662 21.986V24.1403C25.6662 24.5631 25.3223 24.907 24.8996 24.907C24.4768 24.907 24.1329 24.5631 24.1329 24.1403V21.986ZM28.4135 18.9096H33.1721C33.3306 18.9096 33.4826 18.8466 33.5946 18.7346C33.7066 18.6225 33.7696 18.4706 33.7696 18.3121C33.7696 18.1537 33.7066 18.0017 33.5946 17.8897C33.4826 17.7777 33.3306 17.7147 33.1721 17.7147H28.4135C28.255 17.7147 28.1031 17.7777 27.991 17.8897C27.879 18.0017 27.8161 18.1537 27.8161 18.3121C27.8161 18.4706 27.879 18.6225 27.991 18.7346C28.1031 18.8466 28.255 18.9096 28.4135 18.9096ZM28.4135 21.584H32.0828C32.2412 21.584 32.3932 21.5211 32.5052 21.409C32.6173 21.297 32.6802 21.145 32.6802 20.9866C32.6802 20.8281 32.6173 20.6762 32.5052 20.5641C32.3932 20.4521 32.2412 20.3892 32.0828 20.3892H28.4135C28.255 20.3892 28.1031 20.4521 27.991 20.5641C27.879 20.6762 27.8161 20.8281 27.8161 20.9866C27.8161 21.145 27.879 21.297 27.991 21.409C28.1031 21.5211 28.255 21.584 28.4135 21.584Z" fill="#FCC310"/>
<path id="Vector_3" d="M5.87703 11.2776C6.36895 11.2776 6.76773 10.8788 6.76773 10.3869C6.76773 9.895 6.36895 9.49622 5.87703 9.49622C5.38511 9.49622 4.98633 9.895 4.98633 10.3869C4.98633 10.8788 5.38511 11.2776 5.87703 11.2776Z" fill="#FCC310"/>
<path id="Vector_4" d="M8.57527 11.2776C9.0672 11.2776 9.46598 10.8788 9.46598 10.3869C9.46598 9.895 9.0672 9.49622 8.57527 9.49622C8.08335 9.49622 7.68457 9.895 7.68457 10.3869C7.68457 10.8788 8.08335 11.2776 8.57527 11.2776Z" fill="#FCC310"/>
<path id="Vector_5" d="M11.2569 11.2776C11.7488 11.2776 12.1476 10.8788 12.1476 10.3869C12.1476 9.895 11.7488 9.49622 11.2569 9.49622C10.765 9.49622 10.3662 9.895 10.3662 10.3869C10.3662 10.8788 10.765 11.2776 11.2569 11.2776Z" fill="#FCC310"/>
</g>
</g>
</svg>
