<svg width="38" height="38" viewBox="0 0 38 38" fill="none" xmlns="http://www.w3.org/2000/svg">
<g id="Frame" clipPath="url(#clip0_191_747)">
<g id="Group">
<path id="Vector" d="M32.6562 26.7223V24.3438C32.6553 23.5567 32.3422 22.8021 31.7857 22.2456C31.2291 21.689 30.4746 21.3759 29.6875 21.375H24.6893C25.2389 20.3612 25.6822 19.2933 26.0122 18.1883L28.2684 16.3828C28.6191 16.1028 28.8755 15.7219 29.003 15.2917C29.1305 14.8614 29.1229 14.4024 28.9812 13.9765C28.8396 13.5507 28.5708 13.1786 28.211 12.9103C27.8512 12.6421 27.4179 12.4907 26.9693 12.4765L28.2922 8.83916C28.6297 7.9109 28.7386 6.91495 28.6094 5.9357C28.4803 4.95645 28.117 4.02275 27.5504 3.21372C26.9838 2.40468 26.2305 1.74414 25.3544 1.28807C24.4783 0.832001 23.5051 0.593834 22.5174 0.593751H17.4764C13.7045 0.59281 10.0084 1.65284 6.81031 3.65275C6.71422 3.71227 6.63712 3.79798 6.58806 3.89982C6.53901 4.00165 6.52004 4.11536 6.53338 4.2276C6.54673 4.33984 6.59183 4.44594 6.66339 4.53343C6.73496 4.62092 6.83001 4.68617 6.93738 4.7215L8.36891 5.1965C8.56594 5.26223 8.74746 5.36752 8.90234 5.50591C9.05722 5.6443 9.1822 5.81288 9.2696 6.0013C9.35699 6.18972 9.40498 6.39401 9.4106 6.60163C9.41622 6.80926 9.37936 7.01585 9.30228 7.20872C9.16002 7.56429 9.09467 7.94595 9.11053 8.32859C9.12639 8.71123 9.22311 9.08618 9.39431 9.42875L10.925 12.4872C10.4871 12.522 10.0698 12.6877 9.72731 12.9628C9.3848 13.2379 9.13292 13.6095 9.00436 14.0296C8.87581 14.4496 8.87652 14.8986 9.00641 15.3183C9.13631 15.7379 9.38937 16.1088 9.73275 16.3828L11.989 18.1883C12.3186 19.2933 12.7615 20.3611 13.3107 21.375H8.3125C7.52543 21.3759 6.77086 21.689 6.21432 22.2456C5.65777 22.8021 5.34469 23.5567 5.34375 24.3438V26.7223C3.93849 27.3094 2.73796 28.2985 1.89289 29.5654C1.04782 30.8324 0.595856 32.3208 0.59375 33.8438V36.8125C0.59375 36.97 0.656306 37.121 0.767655 37.2323C0.879005 37.3437 1.03003 37.4062 1.1875 37.4062H36.8125C36.97 37.4062 37.121 37.3437 37.2323 37.2323C37.3437 37.121 37.4062 36.97 37.4062 36.8125V33.8438C37.4041 32.3208 36.9522 30.8324 36.1071 29.5654C35.262 28.2985 34.0615 27.3094 32.6562 26.7223ZM23.75 12.4688H20.1875C20.03 12.4688 19.879 12.5313 19.7677 12.6427C19.6563 12.754 19.5938 12.905 19.5938 13.0625V13.6563H18.4062V13.0625C18.4062 12.905 18.3437 12.754 18.2323 12.6427C18.121 12.5313 17.97 12.4688 17.8125 12.4688H12.4688V11.5989L16.1749 9.12831C16.9725 8.59552 17.9103 8.31158 18.8694 8.3125C20.2416 8.3109 21.5726 7.84391 22.645 6.98784L23.6152 6.21181L24.6335 7.74013C25.2198 8.61737 25.5322 9.64901 25.5312 10.7041V12.4688H23.75ZM23.1562 13.6563V15.4375C23.1562 15.595 23.0937 15.746 22.9823 15.8573C22.871 15.9687 22.72 16.0313 22.5625 16.0313H21.375C21.2175 16.0313 21.0665 15.9687 20.9552 15.8573C20.8438 15.746 20.7812 15.595 20.7812 15.4375V13.6563H23.1562ZM17.2188 13.6563V15.4375C17.2188 15.595 17.1562 15.746 17.0448 15.8573C16.9335 15.9687 16.7825 16.0313 16.625 16.0313H15.4375C15.28 16.0313 15.129 15.9687 15.0177 15.8573C14.9063 15.746 14.8438 15.595 14.8438 15.4375V13.6563H17.2188ZM27.9062 14.6656C27.9066 14.8171 27.8726 14.9667 27.8071 15.1032C27.7415 15.2397 27.6459 15.3597 27.5274 15.4541L26.451 16.3151C26.6079 15.4371 26.6943 14.548 26.7093 13.6563H26.8969C27.1646 13.6563 27.4213 13.7626 27.6106 13.9519C27.7999 14.1412 27.9062 14.3979 27.9062 14.6656ZM10.4043 7.64988C10.5415 7.30682 10.6071 6.93936 10.5972 6.57002C10.5873 6.20069 10.502 5.83728 10.3466 5.50208C10.1912 5.16689 9.96896 4.86697 9.69351 4.62074C9.41806 4.37451 9.0952 4.18715 8.74475 4.07016L8.56306 4.01078C11.3058 2.54646 14.3672 1.7807 17.4764 1.78125H22.5174C23.314 1.7814 24.0989 1.97351 24.8055 2.34132C25.5121 2.70913 26.1197 3.24181 26.5769 3.89424C27.034 4.54667 27.3271 5.29965 27.4315 6.08941C27.5359 6.87917 27.4484 7.68246 27.1765 8.43125L26.6606 9.85031C26.5316 8.85892 26.176 7.91054 25.6215 7.07869L24.244 5.01184C24.1983 4.94339 24.1388 4.88518 24.0694 4.84092C24 4.79666 23.9222 4.76732 23.8408 4.75475C23.7595 4.74247 23.6766 4.74704 23.5971 4.76819C23.5176 4.78933 23.4434 4.82659 23.3789 4.87766L21.9034 6.061C21.0414 6.74838 19.9719 7.12344 18.8694 7.125C17.6757 7.12392 16.5085 7.47729 15.5159 8.14031L11.5455 10.7873C11.5087 10.8122 11.4748 10.8413 11.4445 10.8739L10.4565 8.89734C10.3602 8.70488 10.3058 8.49422 10.2968 8.27921C10.2878 8.06419 10.3244 7.84971 10.4043 7.64988ZM10.4732 15.4553C10.3093 15.3248 10.19 15.1466 10.132 14.9454C10.0739 14.7441 10.0799 14.5297 10.1492 14.332C10.2184 14.1343 10.3474 13.9631 10.5184 13.842C10.6893 13.7209 10.8937 13.656 11.1031 13.6563H11.2896C11.3045 14.5484 11.3909 15.4379 11.5478 16.3163L10.4732 15.4553ZM12.4783 13.6563H13.6562V15.4375C13.6562 15.9099 13.8439 16.363 14.178 16.697C14.512 17.0311 14.9651 17.2188 15.4375 17.2188H16.625C17.0974 17.2188 17.5505 17.0311 17.8845 16.697C18.2186 16.363 18.4062 15.9099 18.4062 15.4375V14.8438H19.5938V15.4375C19.5938 15.9099 19.7814 16.363 20.1155 16.697C20.4495 17.0311 20.9026 17.2188 21.375 17.2188H22.5625C23.0349 17.2188 23.488 17.0311 23.822 16.697C24.1561 16.363 24.3438 15.9099 24.3438 15.4375V13.6563H25.5218C25.4756 16.3777 24.7158 19.0393 23.3183 21.375H14.6817C13.2841 19.0393 12.5244 16.3777 12.4783 13.6563ZM8.3125 22.5625H29.6875C30.1599 22.5625 30.613 22.7502 30.947 23.0842C31.2811 23.4183 31.4688 23.8713 31.4688 24.3438V36.2188H6.53125V24.3438C6.53125 23.8713 6.71892 23.4183 7.05297 23.0842C7.38701 22.7502 7.84008 22.5625 8.3125 22.5625ZM1.78125 33.8438C1.78286 32.6407 2.11627 31.4613 2.74479 30.4355C3.37332 29.4096 4.27261 28.577 5.34375 28.0292V36.2188H1.78125V33.8438ZM36.2188 36.2188H32.6562V28.0292C33.7273 28.577 34.6266 29.4097 35.2551 30.4355C35.8836 31.4614 36.2171 32.6407 36.2188 33.8438V36.2188Z" fill="#FCC310"/>
<path id="Vector_2" d="M19.0001 34.4375C19.4698 34.4375 19.929 34.2982 20.3196 34.0373C20.7102 33.7763 21.0146 33.4054 21.1943 32.9714C21.3741 32.5374 21.4211 32.0599 21.3295 31.5992C21.2378 31.1385 21.0116 30.7153 20.6795 30.3831C20.3473 30.051 19.9242 29.8248 19.4635 29.7331C19.0028 29.6415 18.5252 29.6885 18.0912 29.8683C17.6573 30.0481 17.2863 30.3525 17.0254 30.743C16.7644 31.1336 16.6251 31.5928 16.6251 32.0625C16.6251 32.6924 16.8753 33.2965 17.3207 33.7419C17.7661 34.1873 18.3702 34.4375 19.0001 34.4375ZM19.0001 30.875C19.235 30.875 19.4646 30.9447 19.6599 31.0751C19.8551 31.2056 20.0073 31.3911 20.0972 31.6081C20.1871 31.8251 20.2106 32.0638 20.1648 32.2942C20.119 32.5245 20.0059 32.7361 19.8398 32.9022C19.6737 33.0683 19.4621 33.1814 19.2318 33.2272C19.0014 33.273 18.7627 33.2495 18.5457 33.1596C18.3287 33.0697 18.1432 32.9175 18.0127 32.7223C17.8823 32.527 17.8126 32.2974 17.8126 32.0625C17.8126 31.7476 17.9377 31.4455 18.1604 31.2228C18.3831 31.0001 18.6852 30.875 19.0001 30.875ZM15.0178 28.9198L15.8574 28.0802L13.9022 26.125L15.8574 24.1698L15.0178 23.3302L12.6428 25.7052C12.5315 25.8166 12.469 25.9676 12.469 26.125C12.469 26.2825 12.5315 26.4334 12.6428 26.5448L15.0178 28.9198ZM22.9824 28.9198L25.3574 26.5448C25.4687 26.4334 25.5312 26.2825 25.5312 26.125C25.5312 25.9676 25.4687 25.8166 25.3574 25.7052L22.9824 23.3302L22.1428 24.1698L24.0981 26.125L22.1428 28.0802L22.9824 28.9198ZM16.7439 28.1432L20.3064 23.3938L21.2564 24.1063L17.6933 28.8563L16.7439 28.1432Z" fill="#FCC310"/>
</g>
</g>
<defs>
<clipPath id="clip0_191_747">
<rect width="38" height="38" fill="white"/>
</clipPath>
</defs>
</svg>
