<svg width="52" height="52" viewBox="0 0 52 52" fill="none" xmlns="http://www.w3.org/2000/svg">
<g id="Frame">
<g id="Group">
<path id="Vector" d="M36.5625 46.3125C35.7009 46.3114 34.8749 45.9687 34.2656 45.3594C33.6563 44.7501 33.3136 43.9241 33.3125 43.0625V38.935C32.2861 38.3437 31.4411 37.4828 30.8691 36.4455C30.2971 35.4082 30.0199 34.2341 30.0677 33.0505C30.1154 31.8669 30.4861 30.7189 31.1398 29.731C31.7934 28.7432 32.7049 27.953 33.7756 27.4462C33.8995 27.3873 34.0363 27.3606 34.1732 27.3687C34.3102 27.3769 34.4428 27.4196 34.5588 27.4928C34.6748 27.5661 34.7704 27.6675 34.8366 27.7876C34.9028 27.9078 34.9375 28.0427 34.9375 28.1799V32.5H38.1875V28.1799C38.1875 28.0427 38.2222 27.9078 38.2884 27.7876C38.3546 27.6675 38.4502 27.5661 38.5662 27.4928C38.6822 27.4196 38.8148 27.3769 38.9518 27.3687C39.0887 27.3606 39.2255 27.3873 39.3494 27.4462C40.4201 27.953 41.3316 28.7432 41.9852 29.731C42.6389 30.7189 43.0096 31.8669 43.0574 33.0505C43.1051 34.2341 42.8279 35.4082 42.2559 36.4455C41.6839 37.4828 40.8389 38.3437 39.8125 38.935V43.0625C39.8114 43.9241 39.4687 44.7501 38.8594 45.3594C38.2502 45.9687 37.4241 46.3114 36.5625 46.3125ZM33.3125 29.6888C32.7132 30.2233 32.2556 30.8979 31.9807 31.6525C31.7059 32.407 31.6222 33.2179 31.7373 34.0127C31.8524 34.8075 32.1626 35.5613 32.6403 36.2069C33.1179 36.8525 33.748 37.3697 34.4744 37.7122C34.6129 37.7782 34.7299 37.882 34.8119 38.0117C34.8938 38.1414 34.9374 38.2916 34.9375 38.4451V43.0625C34.9375 43.4935 35.1087 43.9068 35.4135 44.2115C35.7182 44.5163 36.1315 44.6875 36.5625 44.6875C36.9935 44.6875 37.4068 44.5163 37.7116 44.2115C38.0163 43.9068 38.1875 43.4935 38.1875 43.0625V38.4451C38.1876 38.2916 38.2312 38.1414 38.3132 38.0117C38.3951 37.882 38.5121 37.7782 38.6506 37.7122C39.377 37.3697 40.0071 36.8525 40.4847 36.2069C40.9624 35.5613 41.2726 34.8075 41.3877 34.0127C41.5028 33.2179 41.4191 32.407 41.1443 31.6525C40.8694 30.8979 40.4118 30.2233 39.8125 29.6888V33.3125C39.8125 33.528 39.7269 33.7347 39.5745 33.887C39.4222 34.0394 39.2155 34.125 39 34.125H34.125C33.9095 34.125 33.7029 34.0394 33.5505 33.887C33.3981 33.7347 33.3125 33.528 33.3125 33.3125V29.6888ZM6.5 22.5574C6.30325 22.5579 6.11303 22.4869 5.96466 22.3576C5.81629 22.2284 5.71986 22.0497 5.69325 21.8548C5.66665 21.6598 5.71169 21.4619 5.82002 21.2976C5.92834 21.1334 6.09258 21.014 6.28225 20.9617L12.7823 19.1563C12.9899 19.0986 13.2119 19.1257 13.3996 19.2316C13.5872 19.3376 13.7251 19.5138 13.7828 19.7214C13.8406 19.929 13.8135 20.1511 13.7075 20.3387C13.6016 20.5264 13.4254 20.6642 13.2178 20.722L6.71775 22.5274C6.64687 22.5472 6.57361 22.5573 6.5 22.5574ZM20.3125 10.5625C20.097 10.5625 19.8904 10.4769 19.738 10.3245C19.5856 10.1722 19.5 9.96549 19.5 9.75V7.3125C19.5006 6.66623 19.7577 6.04662 20.2146 5.58964C20.6716 5.13266 21.2912 4.87565 21.9375 4.875C22.153 4.875 22.3597 4.9606 22.512 5.11298C22.6644 5.26535 22.75 5.47201 22.75 5.6875C22.75 5.90299 22.6644 6.10965 22.512 6.26202C22.3597 6.4144 22.153 6.5 21.9375 6.5C21.7221 6.50022 21.5155 6.58589 21.3632 6.73821C21.2109 6.89054 21.1252 7.09708 21.125 7.3125V9.75C21.125 9.96549 21.0394 10.1722 20.887 10.3245C20.7347 10.4769 20.528 10.5625 20.3125 10.5625Z" fill="#EAB308"/>
<path id="Vector_2" d="M42.25 23.9899V19.5C42.2499 19.3225 42.1917 19.15 42.0843 19.0087C41.9769 18.8674 41.8262 18.7651 41.6553 18.7176L36.5625 17.303V13.8125C36.5625 13.597 36.4769 13.3903 36.3245 13.238C36.1722 13.0856 35.9655 13 35.75 13H30.875C30.6595 13 30.4528 13.0856 30.3005 13.238C30.1481 13.3903 30.0625 13.597 30.0625 13.8125V15.4968L27.625 14.82V7.3125C27.625 5.80408 27.0258 4.35744 25.9592 3.29083C24.8926 2.22422 23.4459 1.625 21.9375 1.625C20.4291 1.625 18.9824 2.22422 17.9158 3.29083C16.8492 4.35744 16.25 5.80408 16.25 7.3125V14.82L13.8125 15.4968V13.8125C13.8125 13.597 13.7269 13.3903 13.5745 13.238C13.4222 13.0856 13.2155 13 13 13H8.125C7.90951 13 7.70285 13.0856 7.55048 13.238C7.3981 13.3903 7.3125 13.597 7.3125 13.8125V17.303L2.21975 18.7167C2.04863 18.7644 1.89782 18.8667 1.79041 19.0082C1.683 19.1496 1.6249 19.3224 1.625 19.5V26.8125C1.625 27.028 1.7106 27.2347 1.86298 27.387C2.01535 27.5394 2.22201 27.625 2.4375 27.625H16.25C16.2438 29.4931 16.4213 31.3573 16.7798 33.1906L12.0282 34.1413C11.8441 34.1781 11.6784 34.2775 11.5593 34.4226C11.4403 34.5678 11.3751 34.7497 11.375 34.9375V38.1875C11.375 38.403 11.4606 38.6097 11.613 38.762C11.7653 38.9144 11.972 39 12.1875 39H19.1133C19.2841 39.2201 19.4706 39.4276 19.6714 39.6208C19.9786 41.5415 20.7098 43.0625 21.9375 43.0625C22.7126 43.0625 23.2879 42.4515 23.686 41.5212C24.4987 43.6377 25.8202 45.5215 27.5337 47.0061C29.2472 48.4907 31.3001 49.5304 33.5108 50.0333C35.7215 50.5363 38.022 50.487 40.2092 49.8898C42.3963 49.2926 44.4027 48.1659 46.051 46.6092C47.6994 45.0526 48.939 43.1139 49.6602 40.9645C50.3815 38.8151 50.5622 36.5211 50.1865 34.2852C49.8108 32.0494 48.8902 29.9405 47.506 28.1449C46.1218 26.3493 44.3166 24.9222 42.25 23.9899ZM8.9375 14.625H12.1875V15.9486L8.9375 16.8512V14.625ZM16.25 26H3.25V20.1175L16.25 16.5059V26ZM31.6875 14.625H34.9375V16.8512L31.6875 15.9486V14.625ZM40.625 20.1175V23.3618C38.4072 22.6777 36.0524 22.5654 33.7795 23.0354C31.5066 23.5055 29.3895 24.5426 27.625 26.0504V16.5059L40.625 20.1175ZM13 37.375V35.6037L17.1551 34.7726C17.3989 35.667 17.722 36.5379 18.1204 37.375H13ZM19.5228 36.5682C18.3478 33.737 17.7863 30.689 17.875 27.625V7.3125C17.875 6.23506 18.303 5.20175 19.0649 4.43988C19.8267 3.67801 20.8601 3.25 21.9375 3.25C23.0149 3.25 24.0483 3.67801 24.8101 4.43988C25.572 5.20175 26 6.23506 26 7.3125C26 7.3125 25.9894 22.7752 25.9699 27.7136C24.7743 29.1412 23.8802 30.7962 23.3415 32.5788C23.2036 32.3223 23.002 32.1056 22.7561 31.9495C22.5102 31.7934 22.2283 31.7032 21.9375 31.6875C20.4141 31.6875 19.6544 34.0259 19.5228 36.5682ZM21.9375 41.3644C21.6369 40.9825 21.125 39.6216 21.125 37.3758C21.125 35.1301 21.6369 33.7683 21.9375 33.3864C22.2381 33.7683 22.75 35.1301 22.75 37.3758C22.75 39.6216 22.2381 40.9825 21.9375 41.3644ZM36.5625 48.75C34.152 48.75 31.7957 48.0352 29.7915 46.696C27.7873 45.3569 26.2252 43.4534 25.3027 41.2265C24.3803 38.9995 24.1389 36.549 24.6092 34.1848C25.0794 31.8207 26.2402 29.6491 27.9446 27.9446C29.6491 26.2402 31.8207 25.0794 34.1848 24.6092C36.549 24.1389 38.9995 24.3803 41.2265 25.3027C43.4534 26.2252 45.3569 27.7873 46.696 29.7915C48.0352 31.7957 48.75 34.152 48.75 36.5625C48.7463 39.7937 47.4611 42.8915 45.1763 45.1763C42.8915 47.4611 39.7937 48.7463 36.5625 48.75Z" fill="#E9ECEF"/>
<path id="Vector_3" d="M20.3125 13.8125C20.7612 13.8125 21.125 13.4487 21.125 13C21.125 12.5513 20.7612 12.1875 20.3125 12.1875C19.8638 12.1875 19.5 12.5513 19.5 13C19.5 13.4487 19.8638 13.8125 20.3125 13.8125Z" fill="#E9ECEF"/>
</g>
</g>
</svg>
