<?xml version="1.0" encoding="UTF-8"?>
<!DOCTYPE svg PUBLIC "-//W3C//DTD SVG 1.1//EN" "http://www.w3.org/Graphics/SVG/1.1/DTD/svg11.dtd">
<svg xmlns="http://www.w3.org/2000/svg" version="1.1" width="640px" height="457px" style="shapeRendering:geometricPrecision; text-rendering:geometricPrecision; image-rendering:optimizeQuality; fillRule:evenodd; clipRule:evenodd" xmlns:xlink="http://www.w3.org/1999/xlink">
<g><path style="opacity:0.991" fill="#f1f1f1" d="M 497.5,92.5 C 497.95,100.169 494.283,103.336 486.5,102C 485.692,104.088 484.692,106.088 483.5,108C 477.599,106.058 472.599,107.392 468.5,112C 464.892,112.026 461.558,112.859 458.5,114.5C 480.232,115.177 501.898,115.844 523.5,116.5C 554.489,147.897 576.489,184.897 589.5,227.5C 574.167,227.5 558.833,227.5 543.5,227.5C 543.5,202.5 543.5,177.5 543.5,152.5C 541.167,152.5 538.833,152.5 536.5,152.5C 536.817,149.428 536.484,146.428 535.5,143.5C 530.198,140.849 524.864,138.182 519.5,135.5C 518.513,132.232 518.18,128.898 518.5,125.5C 517.5,125.5 516.5,125.5 515.5,125.5C 515.5,134.5 515.5,143.5 515.5,152.5C 514.5,152.5 513.5,152.5 512.5,152.5C 512.5,177.833 512.5,203.167 512.5,228.5C 511.5,228.5 510.5,228.5 509.5,228.5C 509.5,215.167 509.5,201.833 509.5,188.5C 506.167,188.5 502.833,188.5 499.5,188.5C 499.83,181.8 499.497,175.134 498.5,168.5C 497.5,188.489 497.167,208.489 497.5,228.5C 495.167,228.5 492.833,228.5 490.5,228.5C 490.5,220.833 490.5,213.167 490.5,205.5C 488.833,205.5 487.167,205.5 485.5,205.5C 485.5,203.5 485.5,201.5 485.5,199.5C 484.167,199.5 482.833,199.5 481.5,199.5C 481.83,180.992 481.497,162.659 480.5,144.5C 480.084,142.248 478.751,140.748 476.5,140C 367.832,139.568 259.165,139.902 150.5,141C 149.333,142.167 148.167,143.333 147,144.5C 146.238,195.174 146.571,245.841 148,296.5C 148.5,298.333 149.667,299.5 151.5,300C 163.162,300.5 174.829,300.667 186.5,300.5C 185.97,311.161 185.47,321.828 185,332.5C 184.802,334.382 184.302,336.048 183.5,337.5C 182.395,336.4 181.062,335.733 179.5,335.5C 180.509,330.204 180.676,324.871 180,319.5C 179.705,317.069 178.538,315.236 176.5,314C 161.837,313.5 147.17,313.333 132.5,313.5C 132.5,257.5 132.5,201.5 132.5,145.5C 135.653,145.843 137.987,145.51 139.5,144.5C 139.198,139.321 139.865,134.321 141.5,129.5C 164.833,129.5 188.167,129.5 211.5,129.5C 213.379,133.106 216.046,135.939 219.5,138C 223.063,137.303 226.73,136.803 230.5,136.5C 231.011,133.978 232.011,131.645 233.5,129.5C 239.537,129.171 245.537,129.504 251.5,130.5C 253.152,134.384 255.985,137.05 260,138.5C 262.886,136.775 266.052,136.108 269.5,136.5C 269.549,133.901 270.549,131.734 272.5,130C 276.025,129.821 279.359,129.321 282.5,128.5C 282.5,123.167 282.5,117.833 282.5,112.5C 279.167,112.5 275.833,112.5 272.5,112.5C 227.499,112.333 182.499,112.5 137.5,113C 138.078,114.417 139.078,115.25 140.5,115.5C 140.5,118.833 140.5,122.167 140.5,125.5C 138.5,125.5 136.5,125.5 134.5,125.5C 133.694,120.637 132.694,115.804 131.5,111C 132.347,109.229 133.68,108.063 135.5,107.5C 137.176,108.183 137.843,109.517 137.5,111.5C 155.503,111.667 173.503,111.5 191.5,111C 187.462,109.05 183.128,107.883 178.5,107.5C 177.395,106.108 176.061,104.941 174.5,104C 169.833,104 165.167,104 160.5,104C 159.312,96.2506 154.978,93.2506 147.5,95C 146.944,94.6174 146.611,94.1174 146.5,93.5C 151.872,89.4884 157.205,85.4884 162.5,81.5C 164.137,82.2178 165.803,82.3845 167.5,82C 166.244,81.5831 165.577,80.7498 165.5,79.5C 243.935,28.6488 327.935,17.8154 417.5,47C 425.304,50.715 433.304,54.0484 441.5,57C 461.381,67.0966 480.048,78.9299 497.5,92.5 Z"/></g>
<g><path style="opacity:0.396" fill="#858483" d="M 165.5,79.5 C 165.577,80.7498 166.244,81.5831 167.5,82C 165.803,82.3845 164.137,82.2178 162.5,81.5C 152.35,77.5593 142.35,73.226 132.5,68.5C 131.265,69.3398 130.265,70.3398 129.5,71.5C 127.973,71.427 126.973,72.0937 126.5,73.5C 124.208,74.6861 121.874,74.6861 119.5,73.5C 119.179,71.9519 118.179,71.2852 116.5,71.5C 105.187,81.8113 93.8534,92.1447 82.5,102.5C 80.2547,104.567 79.9213,106.9 81.5,109.5C 79.6481,110.089 77.8148,110.756 76,111.5C 73.3333,110.167 70.6667,110.167 68,111.5C 67.5357,110.906 67.369,110.239 67.5,109.5C 67.5494,106.901 68.5494,104.734 70.5,103C 73.9555,102.82 77.2889,102.153 80.5,101C 90.9738,91.1946 101.474,81.3613 112,71.5C 113.609,66.7542 115.442,62.0875 117.5,57.5C 126.565,54.3569 131.898,57.3569 133.5,66.5C 143.89,71.3568 154.557,75.6901 165.5,79.5 Z M 119.5,73.5 C 121.874,74.6861 124.208,74.6861 126.5,73.5C 126.5,75.8333 126.5,78.1667 126.5,80.5C 124.071,80.8844 121.737,81.551 119.5,82.5C 119.5,79.5 119.5,76.5 119.5,73.5 Z"/></g>
<g><path style="opacity:0.767" fill="#f0b219" d="M 129.5,71.5 C 129.5,74.1667 129.5,76.8333 129.5,79.5C 129.5,79.8333 129.5,80.1667 129.5,80.5C 128.833,80.8333 128.167,81.1667 127.5,81.5C 126.833,81.5 126.5,81.1667 126.5,80.5C 126.5,78.1667 126.5,75.8333 126.5,73.5C 126.973,72.0937 127.973,71.427 129.5,71.5 Z"/></g>
<g><path style="opacity:0.972" fill="#fefefe" d="M 129.5,79.5 C 135.472,78.907 140.306,80.907 144,85.5C 145.341,88.022 146.174,90.6887 146.5,93.5C 146.611,94.1174 146.944,94.6174 147.5,95C 154.978,93.2506 159.312,96.2506 160.5,104C 165.167,104 169.833,104 174.5,104C 176.061,104.941 177.395,106.108 178.5,107.5C 183.128,107.883 187.462,109.05 191.5,111C 173.503,111.5 155.503,111.667 137.5,111.5C 137.843,109.517 137.176,108.183 135.5,107.5C 134.448,105.744 132.781,105.077 130.5,105.5C 130.5,103.5 130.5,101.5 130.5,99.5C 130.233,93.1624 129.9,86.829 129.5,80.5C 129.5,80.1667 129.5,79.8333 129.5,79.5 Z"/></g>
<g><path style="opacity:0.879" fill="#fbf8f1" d="M 126.5,80.5 C 126.5,81.1667 126.833,81.5 127.5,81.5C 127.674,83.861 128.007,86.1944 128.5,88.5C 125.167,88.5 121.833,88.5 118.5,88.5C 118.325,86.3792 118.659,84.3792 119.5,82.5C 121.737,81.551 124.071,80.8844 126.5,80.5 Z"/></g>
<g><path style="opacity:0.854" fill="#fdf9f4" d="M 116.5,85.5 C 116.666,91.8421 116.5,98.1754 116,104.5C 113.26,105.282 110.426,105.782 107.5,106C 106.577,108.041 106.244,110.208 106.5,112.5C 104.167,112.5 101.833,112.5 99.5,112.5C 98.5525,111.022 97.2191,110.022 95.5,109.5C 97.7245,105.96 101.058,104.294 105.5,104.5C 105.336,101.813 105.503,99.146 106,96.5C 110.744,93.9247 114.244,90.2581 116.5,85.5 Z"/></g>
<g><path style="opacity:0.928" fill="#fefefe" d="M 523.5,116.5 C 501.898,115.844 480.232,115.177 458.5,114.5C 461.558,112.859 464.892,112.026 468.5,112C 472.599,107.392 477.599,106.058 483.5,108C 484.692,106.088 485.692,104.088 486.5,102C 494.283,103.336 497.95,100.169 497.5,92.5C 503.708,87.7534 510.375,87.2534 517.5,91C 519.764,93.0979 521.43,95.5979 522.5,98.5C 527.019,100.273 528.686,103.607 527.5,108.5C 533.709,107.749 536.709,110.415 536.5,116.5C 532.167,116.5 527.833,116.5 523.5,116.5 Z"/></g>
<g><path style="opacity:1" fill="#fffbf4" d="M 128.5,97.5 C 128.216,99.4147 128.549,101.081 129.5,102.5C 129.5,103.5 129.5,104.5 129.5,105.5C 125.5,105.5 121.5,105.5 117.5,105.5C 117.5,101.167 117.5,96.8333 117.5,92.5C 121.167,92.5 124.833,92.5 128.5,92.5C 128.5,94.1667 128.5,95.8333 128.5,97.5 Z"/></g>
<g><path style="opacity:1" fill="#f5d18a" d="M 129.5,80.5 C 129.9,86.829 130.233,93.1624 130.5,99.5C 129.596,100.209 129.263,101.209 129.5,102.5C 128.549,101.081 128.216,99.4147 128.5,97.5C 129.681,94.6377 129.681,91.6377 128.5,88.5C 128.007,86.1944 127.674,83.861 127.5,81.5C 128.167,81.1667 128.833,80.8333 129.5,80.5 Z"/></g>
<g><path style="opacity:1" fill="#f9c21a" d="M 116.5,71.5 C 118.179,71.2852 119.179,71.9519 119.5,73.5C 119.5,76.5 119.5,79.5 119.5,82.5C 118.659,84.3792 118.325,86.3792 118.5,88.5C 121.833,88.5 125.167,88.5 128.5,88.5C 129.681,91.6377 129.681,94.6377 128.5,97.5C 128.5,95.8333 128.5,94.1667 128.5,92.5C 124.833,92.5 121.167,92.5 117.5,92.5C 117.5,96.8333 117.5,101.167 117.5,105.5C 121.5,105.5 125.5,105.5 129.5,105.5C 129.5,104.5 129.5,103.5 129.5,102.5C 129.263,101.209 129.596,100.209 130.5,99.5C 130.5,101.5 130.5,103.5 130.5,105.5C 132.781,105.077 134.448,105.744 135.5,107.5C 133.68,108.063 132.347,109.229 131.5,111C 132.694,115.804 133.694,120.637 134.5,125.5C 136.5,125.5 138.5,125.5 140.5,125.5C 140.5,122.167 140.5,118.833 140.5,115.5C 141.5,115.5 142.5,115.5 143.5,115.5C 143.5,118.833 143.5,122.167 143.5,125.5C 141.952,125.821 141.285,126.821 141.5,128.5C 141.5,128.833 141.5,129.167 141.5,129.5C 139.865,134.321 139.198,139.321 139.5,144.5C 128.167,144.5 116.833,144.5 105.5,144.5C 106.301,142.958 106.634,141.292 106.5,139.5C 104.833,139.5 103.167,139.5 101.5,139.5C 101.842,138.662 102.508,138.328 103.5,138.5C 104.5,138.5 105.5,138.5 106.5,138.5C 106.5,131.167 106.5,123.833 106.5,116.5C 106.5,115.167 106.5,113.833 106.5,112.5C 106.244,110.208 106.577,108.041 107.5,106C 110.426,105.782 113.26,105.282 116,104.5C 116.5,98.1754 116.666,91.8421 116.5,85.5C 116.5,80.8333 116.5,76.1667 116.5,71.5 Z"/></g>
<g><path style="opacity:0.984" fill="#eba81a" d="M 87.5,109.5 C 90.1667,109.5 92.8333,109.5 95.5,109.5C 97.2191,110.022 98.5525,111.022 99.5,112.5C 95.5,112.5 91.5,112.5 87.5,112.5C 87.5,111.5 87.5,110.5 87.5,109.5 Z"/></g>
<g><path style="opacity:0.957" fill="#fd7e01" d="M 87.5,112.5 C 91.5,112.5 95.5,112.5 99.5,112.5C 101.833,112.5 104.167,112.5 106.5,112.5C 106.5,113.833 106.5,115.167 106.5,116.5C 105.508,116.328 104.842,116.662 104.5,117.5C 103.167,117.5 101.833,117.5 100.5,117.5C 99.3646,115.787 97.698,115.12 95.5,115.5C 94.8333,115.5 94.1667,115.5 93.5,115.5C 91.5,115.5 89.5,115.5 87.5,115.5C 87.5,114.5 87.5,113.5 87.5,112.5 Z"/></g>
<g><path style="opacity:1" fill="#fe8515" d="M 272.5,112.5 C 272.5,113.5 272.5,114.5 272.5,115.5C 271.5,115.5 270.5,115.5 269.5,115.5C 267.833,115.5 266.167,115.5 264.5,115.5C 264.5,118.833 264.5,122.167 264.5,125.5C 266.167,125.5 267.833,125.5 269.5,125.5C 270.5,125.5 271.5,125.5 272.5,125.5C 272.5,126.5 272.5,127.5 272.5,128.5C 228.833,128.5 185.167,128.5 141.5,128.5C 141.285,126.821 141.952,125.821 143.5,125.5C 146.167,125.5 148.833,125.5 151.5,125.5C 151.5,122.167 151.5,118.833 151.5,115.5C 148.833,115.5 146.167,115.5 143.5,115.5C 142.5,115.5 141.5,115.5 140.5,115.5C 139.078,115.25 138.078,114.417 137.5,113C 182.499,112.5 227.499,112.333 272.5,112.5 Z"/></g>
<g><path style="opacity:1" fill="#fdc60f" d="M 272.5,112.5 C 275.833,112.5 279.167,112.5 282.5,112.5C 282.5,117.833 282.5,123.167 282.5,128.5C 279.167,128.5 275.833,128.5 272.5,128.5C 272.5,127.5 272.5,126.5 272.5,125.5C 275.167,125.5 277.833,125.5 280.5,125.5C 280.5,122.167 280.5,118.833 280.5,115.5C 277.833,115.5 275.167,115.5 272.5,115.5C 272.5,114.5 272.5,113.5 272.5,112.5 Z"/></g>
<g><path style="opacity:1" fill="#f3ebe6" d="M 143.5,115.5 C 146.167,115.5 148.833,115.5 151.5,115.5C 151.5,118.833 151.5,122.167 151.5,125.5C 148.833,125.5 146.167,125.5 143.5,125.5C 143.5,122.167 143.5,118.833 143.5,115.5 Z"/></g>
<g><path style="opacity:1" fill="#f5e6d7" d="M 159.5,115.5 C 159.5,118.833 159.5,122.167 159.5,125.5C 157.5,125.5 155.5,125.5 153.5,125.5C 153.5,122.167 153.5,118.833 153.5,115.5C 155.5,115.5 157.5,115.5 159.5,115.5 Z"/></g>
<g><path style="opacity:1" fill="#fdc62b" d="M 159.5,115.5 C 160.167,115.5 160.833,115.5 161.5,115.5C 161.5,118.833 161.5,122.167 161.5,125.5C 160.833,125.5 160.167,125.5 159.5,125.5C 159.5,122.167 159.5,118.833 159.5,115.5 Z"/></g>
<g><path style="opacity:1" fill="#f3ece4" d="M 161.5,115.5 C 164.167,115.5 166.833,115.5 169.5,115.5C 169.5,118.833 169.5,122.167 169.5,125.5C 166.833,125.5 164.167,125.5 161.5,125.5C 161.5,122.167 161.5,118.833 161.5,115.5 Z"/></g>
<g><path style="opacity:1" fill="#f3eee5" d="M 179.5,115.5 C 182.167,115.5 184.833,115.5 187.5,115.5C 187.5,118.833 187.5,122.167 187.5,125.5C 184.833,125.5 182.167,125.5 179.5,125.5C 179.5,122.167 179.5,118.833 179.5,115.5 Z"/></g>
<g><path style="opacity:1" fill="#fdc628" d="M 195.5,115.5 C 196.5,115.5 197.5,115.5 198.5,115.5C 198.5,118.833 198.5,122.167 198.5,125.5C 197.5,125.5 196.5,125.5 195.5,125.5C 195.5,122.167 195.5,118.833 195.5,115.5 Z"/></g>
<g><path style="opacity:1" fill="#f2edeb" d="M 198.5,115.5 C 201.167,115.5 203.833,115.5 206.5,115.5C 206.5,118.833 206.5,122.167 206.5,125.5C 203.833,125.5 201.167,125.5 198.5,125.5C 198.5,122.167 198.5,118.833 198.5,115.5 Z"/></g>
<g><path style="opacity:1" fill="#f3ede3" d="M 214.5,115.5 C 214.5,118.833 214.5,122.167 214.5,125.5C 212.833,125.5 211.167,125.5 209.5,125.5C 209.5,122.167 209.5,118.833 209.5,115.5C 211.167,115.5 212.833,115.5 214.5,115.5 Z"/></g>
<g><path style="opacity:1" fill="#fdc500" d="M 214.5,115.5 C 215.167,115.5 215.833,115.5 216.5,115.5C 216.5,118.833 216.5,122.167 216.5,125.5C 215.833,125.5 215.167,125.5 214.5,125.5C 214.5,122.167 214.5,118.833 214.5,115.5 Z"/></g>
<g><path style="opacity:1" fill="#f3eae3" d="M 232.5,115.5 C 232.5,118.833 232.5,122.167 232.5,125.5C 230.833,125.5 229.167,125.5 227.5,125.5C 227.5,122.167 227.5,118.833 227.5,115.5C 229.167,115.5 230.833,115.5 232.5,115.5 Z"/></g>
<g><path style="opacity:1" fill="#f3ece4" d="M 235.5,115.5 C 238.167,115.5 240.833,115.5 243.5,115.5C 243.5,118.833 243.5,122.167 243.5,125.5C 240.833,125.5 238.167,125.5 235.5,125.5C 235.5,122.167 235.5,118.833 235.5,115.5 Z"/></g>
<g><path style="opacity:1" fill="#f6e1c9" d="M 245.5,115.5 C 247.5,115.5 249.5,115.5 251.5,115.5C 251.5,118.833 251.5,122.167 251.5,125.5C 249.5,125.5 247.5,125.5 245.5,125.5C 245.5,122.167 245.5,118.833 245.5,115.5 Z"/></g>
<g><path style="opacity:1" fill="#f3ede4" d="M 253.5,115.5 C 256.167,115.5 258.833,115.5 261.5,115.5C 261.5,118.833 261.5,122.167 261.5,125.5C 258.833,125.5 256.167,125.5 253.5,125.5C 253.5,122.167 253.5,118.833 253.5,115.5 Z"/></g>
<g><path style="opacity:1" fill="#f3ede5" d="M 269.5,115.5 C 269.5,118.833 269.5,122.167 269.5,125.5C 267.833,125.5 266.167,125.5 264.5,125.5C 264.5,122.167 264.5,118.833 264.5,115.5C 266.167,115.5 267.833,115.5 269.5,115.5 Z"/></g>
<g><path style="opacity:1" fill="#f2f0e8" d="M 272.5,115.5 C 275.167,115.5 277.833,115.5 280.5,115.5C 280.5,118.833 280.5,122.167 280.5,125.5C 277.833,125.5 275.167,125.5 272.5,125.5C 272.5,122.167 272.5,118.833 272.5,115.5 Z"/></g>
<g><path style="opacity:0.992" fill="#eaa813" d="M 95.5,115.5 C 97.698,115.12 99.3646,115.787 100.5,117.5C 100.5,119.833 100.5,122.167 100.5,124.5C 98.283,125.369 95.9496,125.702 93.5,125.5C 94.3739,122.211 95.0405,118.877 95.5,115.5 Z"/></g>
<g><path style="opacity:0.991" fill="#d1b89d" d="M 116.5,109.5 C 118.01,114.528 119.343,119.528 120.5,124.5C 123.807,125.051 127.14,125.384 130.5,125.5C 129.129,126.787 127.295,127.453 125,127.5C 122.906,127.464 120.906,127.131 119,126.5C 116.507,120.883 115.674,115.217 116.5,109.5 Z"/></g>
<g><path style="opacity:1" fill="#f6e1cd" d="M 171.5,115.5 C 173.5,115.5 175.5,115.5 177.5,115.5C 177.5,118.833 177.5,122.167 177.5,125.5C 175.5,125.5 173.5,125.5 171.5,125.5C 171.5,122.167 171.5,118.833 171.5,115.5 Z"/></g>
<g><path style="opacity:1" fill="#f3e9de" d="M 195.5,115.5 C 195.5,118.833 195.5,122.167 195.5,125.5C 193.833,125.5 192.167,125.5 190.5,125.5C 190.5,122.167 190.5,118.833 190.5,115.5C 192.167,115.5 193.833,115.5 195.5,115.5 Z"/></g>
<g><path style="opacity:1" fill="#ecd9c6" d="M 216.5,115.5 C 219.5,115.5 222.5,115.5 225.5,115.5C 225.5,118.833 225.5,122.167 225.5,125.5C 222.5,125.5 219.5,125.5 216.5,125.5C 216.5,122.167 216.5,118.833 216.5,115.5 Z"/></g>
<g><path style="opacity:1" fill="#fdc737" d="M 232.5,115.5 C 233.5,115.5 234.5,115.5 235.5,115.5C 235.5,118.833 235.5,122.167 235.5,125.5C 234.5,125.5 233.5,125.5 232.5,125.5C 232.5,122.167 232.5,118.833 232.5,115.5 Z"/></g>
<g><path style="opacity:1" fill="#fcca44" d="M 269.5,115.5 C 270.5,115.5 271.5,115.5 272.5,115.5C 272.5,118.833 272.5,122.167 272.5,125.5C 271.5,125.5 270.5,125.5 269.5,125.5C 269.5,122.167 269.5,118.833 269.5,115.5 Z"/></g>
<g><path style="opacity:0.999" fill="#e9e5e1" d="M 116.5,109.5 C 120.437,109.207 124.27,109.54 128,110.5C 129.317,115.431 130.15,120.431 130.5,125.5C 127.14,125.384 123.807,125.051 120.5,124.5C 119.343,119.528 118.01,114.528 116.5,109.5 Z"/></g>
<g><path style="opacity:0.942" fill="#e6a415" d="M 67.5,109.5 C 67.369,110.239 67.5357,110.906 68,111.5C 70.6667,110.167 73.3333,110.167 76,111.5C 77.8148,110.756 79.6481,110.089 81.5,109.5C 82.5,109.5 83.5,109.5 84.5,109.5C 83.8338,121.488 83.5005,133.488 83.5,145.5C 77.1667,145.5 70.8333,145.5 64.5,145.5C 64.631,144.761 64.4643,144.094 64,143.5C 63.7216,144.416 63.2216,145.082 62.5,145.5C 56.5,145.5 50.5,145.5 44.5,145.5C 44.5,133.5 44.5,121.5 44.5,109.5C 52.1667,109.5 59.8333,109.5 67.5,109.5 Z"/></g>
<g><path style="opacity:1" fill="#fbd478" d="M 93.5,115.5 C 94.1667,115.5 94.8333,115.5 95.5,115.5C 95.0405,118.877 94.3739,122.211 93.5,125.5C 92.5,125.5 91.5,125.5 90.5,125.5C 91.1009,122.032 92.1009,118.699 93.5,115.5 Z"/></g>
<g><path style="opacity:0.864" fill="#fb8205" d="M 100.5,124.5 C 101.833,124.5 103.167,124.5 104.5,124.5C 105.833,126.5 105.833,128.5 104.5,130.5C 103.167,130.5 101.833,130.5 100.5,130.5C 96.4865,128.666 92.1532,127.999 87.5,128.5C 87.5,127.5 87.5,126.5 87.5,125.5C 88.5,125.5 89.5,125.5 90.5,125.5C 91.5,125.5 92.5,125.5 93.5,125.5C 95.9496,125.702 98.283,125.369 100.5,124.5 Z"/></g>
<g><path style="opacity:1" fill="#e5e1e0" d="M 589.5,227.5 C 573.328,228.167 556.995,228.833 540.5,229.5C 539.873,230.417 539.539,231.417 539.5,232.5C 539.923,233.265 540.257,234.098 540.5,235C 536.822,245.891 534.489,257.057 533.5,268.5C 522.819,268.47 512.152,268.804 501.5,269.5C 499.853,261.125 498.686,252.458 498,243.5C 496.638,240.764 494.804,238.431 492.5,236.5C 492.167,236.833 491.833,237.167 491.5,237.5C 495.669,240.843 497.336,245.176 496.5,250.5C 496.167,252.833 495.833,255.167 495.5,257.5C 494.914,257.709 494.414,258.043 494,258.5C 493.501,262.486 493.334,266.486 493.5,270.5C 490.992,272.554 487.992,273.554 484.5,273.5C 482.596,273.262 481.262,272.262 480.5,270.5C 480.5,228.5 480.5,186.5 480.5,144.5C 481.497,162.659 481.83,180.992 481.5,199.5C 482.833,199.5 484.167,199.5 485.5,199.5C 485.5,201.5 485.5,203.5 485.5,205.5C 487.167,205.5 488.833,205.5 490.5,205.5C 490.5,213.167 490.5,220.833 490.5,228.5C 492.833,228.5 495.167,228.5 497.5,228.5C 497.167,208.489 497.5,188.489 498.5,168.5C 499.497,175.134 499.83,181.8 499.5,188.5C 502.833,188.5 506.167,188.5 509.5,188.5C 509.5,201.833 509.5,215.167 509.5,228.5C 510.5,228.5 511.5,228.5 512.5,228.5C 512.5,203.167 512.5,177.833 512.5,152.5C 513.5,152.5 514.5,152.5 515.5,152.5C 515.5,143.5 515.5,134.5 515.5,125.5C 516.5,125.5 517.5,125.5 518.5,125.5C 518.18,128.898 518.513,132.232 519.5,135.5C 524.864,138.182 530.198,140.849 535.5,143.5C 536.484,146.428 536.817,149.428 536.5,152.5C 538.833,152.5 541.167,152.5 543.5,152.5C 543.5,177.5 543.5,202.5 543.5,227.5C 558.833,227.5 574.167,227.5 589.5,227.5 Z"/></g>
<g><path style="opacity:0.8" fill="#68554f" d="M 106.5,116.5 C 106.5,123.833 106.5,131.167 106.5,138.5C 105.5,138.5 104.5,138.5 103.5,138.5C 104.265,135.904 104.599,133.237 104.5,130.5C 105.833,128.5 105.833,126.5 104.5,124.5C 104.5,122.167 104.5,119.833 104.5,117.5C 104.842,116.662 105.508,116.328 106.5,116.5 Z"/></g>
<g><path style="opacity:1" fill="#b2b1b0" d="M 211.5,129.5 C 218.833,129.5 226.167,129.5 233.5,129.5C 232.011,131.645 231.011,133.978 230.5,136.5C 226.73,136.803 223.063,137.303 219.5,138C 216.046,135.939 213.379,133.106 211.5,129.5 Z"/></g>
<g><path style="opacity:1" fill="#cab4a4" d="M 141.5,129.5 C 141.5,129.167 141.5,128.833 141.5,128.5C 185.167,128.5 228.833,128.5 272.5,128.5C 275.833,128.5 279.167,128.5 282.5,128.5C 279.359,129.321 276.025,129.821 272.5,130C 270.549,131.734 269.549,133.901 269.5,136.5C 266.052,136.108 262.886,136.775 260,138.5C 255.985,137.05 253.152,134.384 251.5,130.5C 245.537,129.504 239.537,129.171 233.5,129.5C 226.167,129.5 218.833,129.5 211.5,129.5C 188.167,129.5 164.833,129.5 141.5,129.5 Z"/></g>
<g><path style="opacity:0.962" fill="#eba613" d="M 87.5,128.5 C 92.1532,127.999 96.4865,128.666 100.5,130.5C 100.5,134.167 100.5,137.833 100.5,141.5C 99.9744,143.23 98.9744,144.564 97.5,145.5C 95.8333,145.5 94.1667,145.5 92.5,145.5C 93.8333,140.167 95.1667,134.833 96.5,129.5C 95.5,129.5 94.5,129.5 93.5,129.5C 92.1623,134.851 90.829,140.184 89.5,145.5C 88.8333,145.5 88.1667,145.5 87.5,145.5C 87.5,139.833 87.5,134.167 87.5,128.5 Z"/></g>
<g><path style="opacity:1" fill="#91753a" d="M 117.5,129.5 C 119.5,129.5 121.5,129.5 123.5,129.5C 123.5,130.5 123.5,131.5 123.5,132.5C 121.5,132.5 119.5,132.5 117.5,132.5C 117.5,131.5 117.5,130.5 117.5,129.5 Z"/></g>
<g><path style="opacity:1" fill="#bb8b22" d="M 84.5,109.5 C 85.5,109.5 86.5,109.5 87.5,109.5C 87.5,110.5 87.5,111.5 87.5,112.5C 87.5,113.5 87.5,114.5 87.5,115.5C 89.5,115.5 91.5,115.5 93.5,115.5C 92.1009,118.699 91.1009,122.032 90.5,125.5C 89.5,125.5 88.5,125.5 87.5,125.5C 87.5,126.5 87.5,127.5 87.5,128.5C 87.5,134.167 87.5,139.833 87.5,145.5C 86.1667,145.5 84.8333,145.5 83.5,145.5C 83.5005,133.488 83.8338,121.488 84.5,109.5 Z"/></g>
<g><path style="opacity:1" fill="#fbd57a" d="M 92.5,145.5 C 91.5,145.5 90.5,145.5 89.5,145.5C 90.829,140.184 92.1623,134.851 93.5,129.5C 94.5,129.5 95.5,129.5 96.5,129.5C 95.1667,134.833 93.8333,140.167 92.5,145.5 Z"/></g>
<g><path style="opacity:0.994" fill="#f1f1f0" d="M 101.5,139.5 C 103.167,139.5 104.833,139.5 106.5,139.5C 106.634,141.292 106.301,142.958 105.5,144.5C 107.988,146.388 110.988,147.055 114.5,146.5C 114.5,202.167 114.5,257.833 114.5,313.5C 105.827,313.334 97.1603,313.5 88.5,314C 90.0488,315.214 91.2155,316.714 92,318.5C 92.7586,323.707 92.5919,328.874 91.5,334C 91.6387,335.301 92.3054,336.134 93.5,336.5C 95.0222,337.191 96.0222,338.358 96.5,340C 97.5919,345.126 97.7586,350.293 97,355.5C 96.3028,357.584 95.1361,359.251 93.5,360.5C 91.8333,360.5 90.1667,360.5 88.5,360.5C 85.2829,353.483 84.6162,346.149 86.5,338.5C 82.0573,337.336 79.724,334.336 79.5,329.5C 79.5,326.833 79.5,324.167 79.5,321.5C 79.5,320.167 79.5,318.833 79.5,317.5C 79.5,316.833 79.5,316.167 79.5,315.5C 79.5,314.167 79.5,312.833 79.5,311.5C 71.8333,311.5 64.1667,311.5 56.5,311.5C 55.5088,318.313 55.1755,325.313 55.5,332.5C 51.6286,332.815 47.9619,332.482 44.5,331.5C 41.3581,289.263 47.3581,248.596 62.5,209.5C 64.1605,233.988 63.8272,258.321 61.5,282.5C 59.5,282.5 57.5,282.5 55.5,282.5C 55.185,286.371 55.5184,290.038 56.5,293.5C 55.6586,295.379 55.3253,297.379 55.5,299.5C 63.5,299.5 71.5,299.5 79.5,299.5C 79.5,297.5 79.5,295.5 79.5,293.5C 79.5,292.167 79.5,290.833 79.5,289.5C 79.5,287.167 79.5,284.833 79.5,282.5C 74.8333,282.5 70.1667,282.5 65.5,282.5C 64.5096,256.574 64.1763,230.574 64.5,204.5C 73.3641,183.052 84.3641,163.385 97.5,145.5C 98.9744,144.564 99.9744,143.23 100.5,141.5C 101.338,141.158 101.672,140.492 101.5,139.5 Z"/></g>
<g><path style="opacity:0.441" fill="#909090" d="M 64.5,145.5 C 64.5,165.167 64.5,184.833 64.5,204.5C 64.1763,230.574 64.5096,256.574 65.5,282.5C 64.1667,282.5 62.8333,282.5 61.5,282.5C 63.8272,258.321 64.1605,233.988 62.5,209.5C 62.5,188.167 62.5,166.833 62.5,145.5C 63.2216,145.082 63.7216,144.416 64,143.5C 64.4643,144.094 64.631,144.761 64.5,145.5 Z"/></g>
<g><path style="opacity:1" fill="#f7bb06" d="M 130.5,145.5 C 131.167,145.5 131.833,145.5 132.5,145.5C 132.5,201.5 132.5,257.5 132.5,313.5C 131.833,313.5 131.167,313.5 130.5,313.5C 130.5,309.167 130.5,304.833 130.5,300.5C 128.833,300.5 127.167,300.5 125.5,300.5C 125.5,299.5 125.5,298.5 125.5,297.5C 127.167,297.5 128.833,297.5 130.5,297.5C 130.5,289.167 130.5,280.833 130.5,272.5C 129.081,271.549 127.415,271.216 125.5,271.5C 125.5,270.5 125.5,269.5 125.5,268.5C 126.833,268.5 128.167,268.5 129.5,268.5C 130.493,260.35 130.826,252.017 130.5,243.5C 128.833,243.5 127.167,243.5 125.5,243.5C 125.5,242.5 125.5,241.5 125.5,240.5C 127.167,240.5 128.833,240.5 130.5,240.5C 130.825,232.981 130.492,225.648 129.5,218.5C 128.167,218.5 126.833,218.5 125.5,218.5C 125.5,217.5 125.5,216.5 125.5,215.5C 127.415,215.784 129.081,215.451 130.5,214.5C 130.5,207.5 130.5,200.5 130.5,193.5C 128.833,193.5 127.167,193.5 125.5,193.5C 125.5,192.167 125.5,190.833 125.5,189.5C 126.833,189.5 128.167,189.5 129.5,189.5C 130.492,182.352 130.825,175.019 130.5,167.5C 128.833,167.5 127.167,167.5 125.5,167.5C 125.5,166.5 125.5,165.5 125.5,164.5C 127.167,164.5 128.833,164.5 130.5,164.5C 130.5,158.167 130.5,151.833 130.5,145.5 Z"/></g>
<g><path style="opacity:1" fill="#d6bfa0" d="M 105.5,144.5 C 116.833,144.5 128.167,144.5 139.5,144.5C 137.987,145.51 135.653,145.843 132.5,145.5C 131.833,145.5 131.167,145.5 130.5,145.5C 126.167,145.5 121.833,145.5 117.5,145.5C 115.504,201.157 114.837,257.157 115.5,313.5C 115.167,313.5 114.833,313.5 114.5,313.5C 114.5,257.833 114.5,202.167 114.5,146.5C 110.988,147.055 107.988,146.388 105.5,144.5 Z"/></g>
<g><path style="opacity:1" fill="#f2b732" d="M 117.5,145.5 C 117.5,151.833 117.5,158.167 117.5,164.5C 120.167,164.5 122.833,164.5 125.5,164.5C 125.5,165.5 125.5,166.5 125.5,167.5C 122.615,167.194 119.948,167.527 117.5,168.5C 117.5,175.5 117.5,182.5 117.5,189.5C 120.167,189.5 122.833,189.5 125.5,189.5C 125.5,190.833 125.5,192.167 125.5,193.5C 122.833,193.5 120.167,193.5 117.5,193.5C 117.5,200.5 117.5,207.5 117.5,214.5C 121.833,214.5 126.167,214.5 130.5,214.5C 129.081,215.451 127.415,215.784 125.5,215.5C 125.5,216.5 125.5,217.5 125.5,218.5C 122.833,218.5 120.167,218.5 117.5,218.5C 117.5,225.5 117.5,232.5 117.5,239.5C 119.948,240.473 122.615,240.806 125.5,240.5C 125.5,241.5 125.5,242.5 125.5,243.5C 122.615,243.194 119.948,243.527 117.5,244.5C 117.5,252.5 117.5,260.5 117.5,268.5C 120.167,268.5 122.833,268.5 125.5,268.5C 125.5,269.5 125.5,270.5 125.5,271.5C 127.415,271.216 129.081,271.549 130.5,272.5C 126.167,272.5 121.833,272.5 117.5,272.5C 117.5,280.833 117.5,289.167 117.5,297.5C 120.167,297.5 122.833,297.5 125.5,297.5C 125.5,298.5 125.5,299.5 125.5,300.5C 122.833,300.5 120.167,300.5 117.5,300.5C 117.5,304.833 117.5,309.167 117.5,313.5C 116.833,313.5 116.167,313.5 115.5,313.5C 114.837,257.157 115.504,201.157 117.5,145.5 Z"/></g>
<g><path style="opacity:1" fill="#efede8" d="M 117.5,145.5 C 121.833,145.5 126.167,145.5 130.5,145.5C 130.5,151.833 130.5,158.167 130.5,164.5C 128.833,164.5 127.167,164.5 125.5,164.5C 122.833,164.5 120.167,164.5 117.5,164.5C 117.5,158.167 117.5,151.833 117.5,145.5 Z"/></g>
<g><path style="opacity:1" fill="#f7f7f7" d="M 453.5,141.5 C 461.556,141.198 469.556,141.531 477.5,142.5C 478.5,185.161 478.833,227.828 478.5,270.5C 458.432,276.467 438.599,283.134 419,290.5C 417.659,293.022 416.826,295.689 416.5,298.5C 416.5,299.167 416.167,299.5 415.5,299.5C 409.824,299.666 404.157,299.499 398.5,299C 397.292,296.75 395.959,294.583 394.5,292.5C 392.016,294.483 389.683,296.65 387.5,299C 369.17,299.5 350.836,299.667 332.5,299.5C 328.859,299.348 326.193,297.682 324.5,294.5C 345.167,294.5 365.833,294.5 386.5,294.5C 386.5,264.5 386.5,234.5 386.5,204.5C 331.167,204.5 275.833,204.5 220.5,204.5C 220.333,234.169 220.5,263.835 221,293.5C 250.76,294.495 280.593,294.829 310.5,294.5C 310.5,294.833 310.5,295.167 310.5,295.5C 308.628,297.604 306.295,298.937 303.5,299.5C 265.5,299.5 227.5,299.5 189.5,299.5C 176.989,299.829 164.655,299.495 152.5,298.5C 202.834,298.667 253.168,298.5 303.5,298C 273.502,297.5 243.502,297.333 213.5,297.5C 213.828,254.428 213.494,211.428 212.5,168.5C 213.479,165.375 213.813,162.042 213.5,158.5C 192.167,158.5 170.833,158.5 149.5,158.5C 149.167,158.5 148.833,158.5 148.5,158.5C 148.334,153.821 148.501,149.155 149,144.5C 149.5,144 150,143.5 150.5,143C 175.5,142.333 200.5,142.333 225.5,143C 227.333,145.5 229.167,148 231,150.5C 230.62,147.579 229.453,144.912 227.5,142.5C 236.525,142.168 245.525,142.502 254.5,143.5C 253.037,145.729 252.203,148.063 252,150.5C 253.626,148.083 255.126,145.583 256.5,143C 312.832,142.5 369.166,142.333 425.5,142.5C 425.5,143.833 425.5,145.167 425.5,146.5C 430.443,146.712 431.11,145.712 427.5,143.5C 428.689,142.571 430.022,142.238 431.5,142.5C 431.5,143.833 431.5,145.167 431.5,146.5C 435.6,145.995 439.6,145.995 443.5,146.5C 443.5,145.5 443.5,144.5 443.5,143.5C 440.15,143.665 436.817,143.498 433.5,143C 440.346,142.828 447.013,142.328 453.5,141.5 Z"/></g>
<g><path style="opacity:1" fill="#ababab" d="M 480.5,144.5 C 480.5,186.5 480.5,228.5 480.5,270.5C 479.833,270.5 479.167,270.5 478.5,270.5C 478.833,227.828 478.5,185.161 477.5,142.5C 469.556,141.531 461.556,141.198 453.5,141.5C 377.998,141.167 302.665,141.501 227.5,142.5C 229.453,144.912 230.62,147.579 231,150.5C 229.167,148 227.333,145.5 225.5,143C 200.5,142.333 175.5,142.333 150.5,143C 150,143.5 149.5,144 149,144.5C 148.501,149.155 148.334,153.821 148.5,158.5C 147.167,161.833 147.167,165.167 148.5,168.5C 149.264,211.158 149.764,253.825 150,296.5C 150.417,297.756 151.25,298.423 152.5,298.5C 164.655,299.495 176.989,299.829 189.5,299.5C 189.5,299.833 189.5,300.167 189.5,300.5C 188.5,300.5 187.5,300.5 186.5,300.5C 174.829,300.667 163.162,300.5 151.5,300C 149.667,299.5 148.5,298.333 148,296.5C 146.571,245.841 146.238,195.174 147,144.5C 148.167,143.333 149.333,142.167 150.5,141C 259.165,139.902 367.832,139.568 476.5,140C 478.751,140.748 480.084,142.248 480.5,144.5 Z"/></g>
<g><path style="opacity:1" fill="#c5c7c6" d="M 425.5,147.5 C 436.33,147.025 446.997,147.525 457.5,149C 449.784,149.199 442.118,149.699 434.5,150.5C 431.039,150.232 428.039,149.232 425.5,147.5 Z"/></g>
<g><path style="opacity:1" fill="#92b2e9" d="M 176.5,145.5 C 179.167,145.5 181.833,145.5 184.5,145.5C 184.719,146.675 184.386,147.675 183.5,148.5C 180.655,148.234 178.322,147.234 176.5,145.5 Z"/></g>
<g><path style="opacity:1" fill="#e1e1e1" d="M 227.5,142.5 C 302.665,141.501 377.998,141.167 453.5,141.5C 447.013,142.328 440.346,142.828 433.5,143C 436.817,143.498 440.15,143.665 443.5,143.5C 443.5,144.5 443.5,145.5 443.5,146.5C 439.6,145.995 435.6,145.995 431.5,146.5C 431.5,145.167 431.5,143.833 431.5,142.5C 430.022,142.238 428.689,142.571 427.5,143.5C 431.11,145.712 430.443,146.712 425.5,146.5C 425.5,145.167 425.5,143.833 425.5,142.5C 369.166,142.333 312.832,142.5 256.5,143C 255.126,145.583 253.626,148.083 252,150.5C 252.203,148.063 253.037,145.729 254.5,143.5C 245.525,142.502 236.525,142.168 227.5,142.5 Z"/></g>
<g><path style="opacity:1" fill="#eaf1fd" d="M 149.5,158.5 C 170.833,158.5 192.167,158.5 213.5,158.5C 213.813,162.042 213.479,165.375 212.5,168.5C 191.5,168.5 170.5,168.5 149.5,168.5C 149.5,165.167 149.5,161.833 149.5,158.5 Z"/></g>
<g><path style="opacity:1" fill="#688cd8" d="M 148.5,158.5 C 148.833,158.5 149.167,158.5 149.5,158.5C 149.5,161.833 149.5,165.167 149.5,168.5C 149.167,168.5 148.833,168.5 148.5,168.5C 147.167,165.167 147.167,161.833 148.5,158.5 Z"/></g>
<g><path style="opacity:1" fill="#90b3f9" d="M 153.5,161.5 C 154.833,161.5 156.167,161.5 157.5,161.5C 157.5,162.833 157.5,164.167 157.5,165.5C 156.167,165.5 154.833,165.5 153.5,165.5C 153.5,164.167 153.5,162.833 153.5,161.5 Z"/></g>
<g><path style="opacity:1" fill="#aeadac" d="M 235.5,163.5 C 234.833,164.167 234.167,164.833 233.5,165.5C 229.486,167.334 225.153,168.001 220.5,167.5C 220.5,165.833 220.5,164.167 220.5,162.5C 225.453,163.329 230.453,163.663 235.5,163.5 Z"/></g>
<g><path style="opacity:1" fill="#c0d2fb" d="M 160.5,161.5 C 167.123,162.38 173.789,162.713 180.5,162.5C 180.5,163.5 180.5,164.5 180.5,165.5C 173.833,165.5 167.167,165.5 160.5,165.5C 160.5,164.167 160.5,162.833 160.5,161.5 Z"/></g>
<g><path style="opacity:1" fill="#797776" d="M 233.5,165.5 C 234.167,164.833 234.833,164.167 235.5,163.5C 236.874,161.041 239.04,160.041 242,160.5C 245.59,161.274 249.09,162.274 252.5,163.5C 252.5,164.833 252.5,166.167 252.5,167.5C 250.022,168.195 248.022,169.695 246.5,172C 239.715,174.308 235.382,172.142 233.5,165.5 Z"/></g>
<g><path style="opacity:1" fill="#f4d99a" d="M 117.5,168.5 C 119.948,167.527 122.615,167.194 125.5,167.5C 127.167,167.5 128.833,167.5 130.5,167.5C 130.825,175.019 130.492,182.352 129.5,189.5C 129.5,182.5 129.5,175.5 129.5,168.5C 125.5,168.5 121.5,168.5 117.5,168.5 Z"/></g>
<g><path style="opacity:1" fill="#fcfcfc" d="M 148.5,168.5 C 148.833,168.5 149.167,168.5 149.5,168.5C 170.5,168.5 191.5,168.5 212.5,168.5C 213.494,211.428 213.828,254.428 213.5,297.5C 243.502,297.333 273.502,297.5 303.5,298C 253.168,298.5 202.834,298.667 152.5,298.5C 151.25,298.423 150.417,297.756 150,296.5C 149.764,253.825 149.264,211.158 148.5,168.5 Z"/></g>
<g><path style="opacity:1" fill="#f2f1f0" d="M 117.5,168.5 C 121.5,168.5 125.5,168.5 129.5,168.5C 129.5,175.5 129.5,182.5 129.5,189.5C 128.167,189.5 126.833,189.5 125.5,189.5C 122.833,189.5 120.167,189.5 117.5,189.5C 117.5,182.5 117.5,175.5 117.5,168.5 Z"/></g>
<g><path style="opacity:1" fill="#88c688" d="M 266.5,182.5 C 267.5,182.5 268.5,182.5 269.5,182.5C 269.5,184.167 269.5,185.833 269.5,187.5C 265.716,187.475 264.716,185.808 266.5,182.5 Z"/></g>
<g><path style="opacity:1" fill="#aeaeaf" d="M 353.5,185.5 C 357.673,184.956 361.506,185.623 365,187.5C 365.689,186.643 366.522,185.977 367.5,185.5C 368.833,186.833 370.167,186.833 371.5,185.5C 372.429,186.689 372.762,188.022 372.5,189.5C 367.797,189.861 363.631,190.195 360,190.5C 358.324,189.939 356.991,188.939 356,187.5C 355.581,188.672 354.915,189.672 354,190.5C 353.506,188.866 353.34,187.199 353.5,185.5 Z"/></g>
<g><path style="opacity:1" fill="#adadad" d="M 289.5,185.5 C 292.547,184.855 294.713,185.855 296,188.5C 296.483,187.552 296.649,186.552 296.5,185.5C 298.527,185.338 300.527,185.505 302.5,186C 303.337,187.011 303.67,188.178 303.5,189.5C 298.54,190.755 293.54,190.755 288.5,189.5C 288.433,188.041 288.766,186.708 289.5,185.5 Z"/></g>
<g><path style="opacity:1" fill="#aaa8a5" d="M 419.5,185.5 C 423.015,185.712 426.348,185.712 429.5,185.5C 430.429,186.689 430.762,188.022 430.5,189.5C 427.289,189.988 424.456,189.321 422,187.5C 421.692,188.308 421.192,188.975 420.5,189.5C 419.571,188.311 419.238,186.978 419.5,185.5 Z"/></g>
<g><path style="opacity:1" fill="#7f7d7c" d="M 239.5,178.5 C 241.144,178.286 242.644,178.62 244,179.5C 244.128,182.514 244.128,185.514 244,188.5C 249.819,192.079 249.985,195.912 244.5,200C 241.331,200.997 238.664,200.33 236.5,198C 238.199,197.607 239.699,198.107 241,199.5C 242.992,198.771 243.826,197.271 243.5,195C 243.419,192.443 242.253,190.61 240,189.5C 239.095,185.745 238.928,182.079 239.5,178.5 Z"/></g>
<g><path style="opacity:1" fill="#f2f0eb" d="M 125.5,193.5 C 127.167,193.5 128.833,193.5 130.5,193.5C 130.5,200.5 130.5,207.5 130.5,214.5C 126.167,214.5 121.833,214.5 117.5,214.5C 117.5,207.5 117.5,200.5 117.5,193.5C 120.167,193.5 122.833,193.5 125.5,193.5 Z"/></g>
<g><path style="opacity:1" fill="#fdfdfd" d="M 324.5,294.5 C 319.795,291.952 315.129,291.952 310.5,294.5C 280.593,294.829 250.76,294.495 221,293.5C 220.5,263.835 220.333,234.169 220.5,204.5C 275.833,204.5 331.167,204.5 386.5,204.5C 386.5,234.5 386.5,264.5 386.5,294.5C 365.833,294.5 345.167,294.5 324.5,294.5 Z"/></g>
<g><path style="opacity:1" fill="#f2f0ed" d="M 125.5,218.5 C 126.833,218.5 128.167,218.5 129.5,218.5C 129.5,225.5 129.5,232.5 129.5,239.5C 125.5,239.5 121.5,239.5 117.5,239.5C 117.5,232.5 117.5,225.5 117.5,218.5C 120.167,218.5 122.833,218.5 125.5,218.5 Z"/></g>
<g><path style="opacity:1" fill="#f4d8a0" d="M 129.5,218.5 C 130.492,225.648 130.825,232.981 130.5,240.5C 128.833,240.5 127.167,240.5 125.5,240.5C 122.615,240.806 119.948,240.473 117.5,239.5C 121.5,239.5 125.5,239.5 129.5,239.5C 129.5,232.5 129.5,225.5 129.5,218.5 Z"/></g>
<g><path style="opacity:1" fill="#ffc16d" d="M 349.5,245.5 C 349.5,245.833 349.5,246.167 349.5,246.5C 347.5,246.5 345.5,246.5 343.5,246.5C 343.5,237.167 343.5,227.833 343.5,218.5C 345.5,218.5 347.5,218.5 349.5,218.5C 349.5,227.5 349.5,236.5 349.5,245.5 Z"/></g>
<g><path style="opacity:1" fill="#2caeff" d="M 427.5,222.5 C 441.205,220.932 450.372,226.598 455,239.5C 457.168,252.02 452.668,261.187 441.5,267C 426.823,271.245 416.323,266.412 410,252.5C 407.38,237.39 413.213,227.39 427.5,222.5 Z"/></g>
<g><path style="opacity:0.957" fill="#fd8211" d="M 589.5,227.5 C 592.167,227.5 594.833,227.5 597.5,227.5C 597.5,229.5 597.5,231.5 597.5,233.5C 596.5,233.5 595.5,233.5 594.5,233.5C 576.341,232.503 558.008,232.17 539.5,232.5C 539.539,231.417 539.873,230.417 540.5,229.5C 556.995,228.833 573.328,228.167 589.5,227.5 Z"/></g>
<g><path style="opacity:1" fill="#f7f9fb" d="M 429.5,228.5 C 436.634,228.251 442.468,230.918 447,236.5C 451.837,248.337 448.337,256.503 436.5,261C 419.752,261.894 413.586,254.06 418,237.5C 420.593,232.721 424.427,229.721 429.5,228.5 Z"/></g>
<g><path style="opacity:1" fill="#c79124" d="M 539.5,232.5 C 558.008,232.17 576.341,232.503 594.5,233.5C 594.5,234.167 594.5,234.833 594.5,235.5C 593.5,235.5 592.5,235.5 591.5,235.5C 580.833,234.167 570.167,234.167 559.5,235.5C 558.5,235.5 557.5,235.5 556.5,235.5C 555.5,235.5 554.5,235.5 553.5,235.5C 549.339,233.944 545.506,234.61 542,237.5C 538.578,245.855 536.411,254.522 535.5,263.5C 534.549,264.919 534.216,266.585 534.5,268.5C 534.167,268.5 533.833,268.5 533.5,268.5C 534.489,257.057 536.822,245.891 540.5,235C 540.257,234.098 539.923,233.265 539.5,232.5 Z"/></g>
<g><path style="opacity:1" fill="#47423a" d="M 591.5,235.5 C 592.638,244.756 592.805,254.089 592,263.5C 591.5,264 591,264.5 590.5,265C 580.151,265.832 569.817,265.666 559.5,264.5C 558.169,254.804 558.169,245.137 559.5,235.5C 570.167,234.167 580.833,234.167 591.5,235.5 Z"/></g>
<g><path style="opacity:1" fill="#f2f1ee" d="M 117.5,244.5 C 121.5,244.5 125.5,244.5 129.5,244.5C 129.5,252.5 129.5,260.5 129.5,268.5C 128.167,268.5 126.833,268.5 125.5,268.5C 122.833,268.5 120.167,268.5 117.5,268.5C 117.5,260.5 117.5,252.5 117.5,244.5 Z"/></g>
<g><path style="opacity:1" fill="#f4dda4" d="M 117.5,244.5 C 119.948,243.527 122.615,243.194 125.5,243.5C 127.167,243.5 128.833,243.5 130.5,243.5C 130.826,252.017 130.493,260.35 129.5,268.5C 129.5,260.5 129.5,252.5 129.5,244.5C 125.5,244.5 121.5,244.5 117.5,244.5 Z"/></g>
<g><path style="opacity:1" fill="#4dacf8" d="M 349.5,245.5 C 351.5,245.5 353.5,245.5 355.5,245.5C 355.5,254.833 355.5,264.167 355.5,273.5C 353.5,273.5 351.5,273.5 349.5,273.5C 349.5,264.5 349.5,255.5 349.5,246.5C 349.5,246.167 349.5,245.833 349.5,245.5 Z"/></g>
<g><path style="opacity:1" fill="#d1cdbd" d="M 534.5,279.5 C 534.5,275.833 534.5,272.167 534.5,268.5C 534.216,266.585 534.549,264.919 535.5,263.5C 535.369,264.239 535.536,264.906 536,265.5C 537.508,256.624 539.841,247.958 543,239.5C 545.642,236.971 548.808,235.971 552.5,236.5C 552.832,247.52 552.499,258.52 551.5,269.5C 548.344,272.822 545.011,275.988 541.5,279C 539.19,279.497 536.857,279.663 534.5,279.5 Z"/></g>
<g><path style="opacity:1" fill="#797172" d="M 501.5,269.5 C 499.052,270.473 496.385,270.806 493.5,270.5C 493.334,266.486 493.501,262.486 494,258.5C 494.414,258.043 494.914,257.709 495.5,257.5C 495.833,255.167 496.167,252.833 496.5,250.5C 497.336,245.176 495.669,240.843 491.5,237.5C 491.833,237.167 492.167,236.833 492.5,236.5C 494.804,238.431 496.638,240.764 498,243.5C 498.686,252.458 499.853,261.125 501.5,269.5 Z"/></g>
<g><path style="opacity:0.646" fill="#f1f2f2" d="M 594.5,249.5 C 595.117,249.611 595.617,249.944 596,250.5C 597.278,257.169 598.445,263.835 599.5,270.5C 597.833,270.5 596.167,270.5 594.5,270.5C 594.5,263.5 594.5,256.5 594.5,249.5 Z"/></g>
<g><path style="opacity:1" fill="#fd7f05" d="M 533.5,268.5 C 533.833,268.5 534.167,268.5 534.5,268.5C 534.5,272.167 534.5,275.833 534.5,279.5C 534.5,280.167 534.5,280.833 534.5,281.5C 533.521,284.625 533.187,287.958 533.5,291.5C 511.831,291.667 490.164,291.5 468.5,291C 474.032,289.604 479.199,287.437 484,284.5C 485.822,280.91 485.989,277.243 484.5,273.5C 487.992,273.554 490.992,272.554 493.5,270.5C 496.385,270.806 499.052,270.473 501.5,269.5C 512.152,268.804 522.819,268.47 533.5,268.5 Z"/></g>
<g><path style="opacity:1" fill="#fac211" d="M 553.5,235.5 C 554.5,235.5 555.5,235.5 556.5,235.5C 556.5,254.833 556.5,274.167 556.5,293.5C 523.498,293.333 490.498,293.5 457.5,294C 456.099,294.41 454.766,294.91 453.5,295.5C 448.912,296.022 444.912,297.688 441.5,300.5C 440.833,300.5 440.167,300.5 439.5,300.5C 436.341,301.331 433.341,302.331 430.5,303.5C 429.662,303.842 429.328,304.508 429.5,305.5C 429.5,306.167 429.167,306.5 428.5,306.5C 426.317,304.766 423.65,303.766 420.5,303.5C 419.113,301.79 417.779,300.123 416.5,298.5C 416.826,295.689 417.659,293.022 419,290.5C 438.599,283.134 458.432,276.467 478.5,270.5C 479.167,270.5 479.833,270.5 480.5,270.5C 481.262,272.262 482.596,273.262 484.5,273.5C 485.989,277.243 485.822,280.91 484,284.5C 479.199,287.437 474.032,289.604 468.5,291C 490.164,291.5 511.831,291.667 533.5,291.5C 533.187,287.958 533.521,284.625 534.5,281.5C 536.857,281.663 539.19,281.497 541.5,281C 545.239,277.383 549.072,273.883 553,270.5C 553.5,258.838 553.667,247.171 553.5,235.5 Z"/></g>
<g><path style="opacity:1" fill="#f3e3c0" d="M 130.5,272.5 C 130.5,280.833 130.5,289.167 130.5,297.5C 128.833,297.5 127.167,297.5 125.5,297.5C 122.833,297.5 120.167,297.5 117.5,297.5C 117.5,289.167 117.5,280.833 117.5,272.5C 121.833,272.5 126.167,272.5 130.5,272.5 Z"/></g>
<g><path style="opacity:1" fill="#f2f2f2" d="M 118.5,273.5 C 122.167,273.5 125.833,273.5 129.5,273.5C 129.5,281.167 129.5,288.833 129.5,296.5C 125.833,296.5 122.167,296.5 118.5,296.5C 118.5,288.833 118.5,281.167 118.5,273.5 Z"/></g>
<g><path style="opacity:0.954" fill="#686461" d="M 594.5,270.5 C 596.167,270.5 597.833,270.5 599.5,270.5C 602.711,270.012 605.544,270.679 608,272.5C 609.386,280.146 610.552,287.813 611.5,295.5C 609.833,295.5 608.167,295.5 606.5,295.5C 591.009,294.504 575.342,294.17 559.5,294.5C 559.5,286.5 559.5,278.5 559.5,270.5C 571.167,270.5 582.833,270.5 594.5,270.5 Z"/></g>
<g><path style="opacity:1" fill="#3f4345" d="M 553.5,235.5 C 553.667,247.171 553.5,258.838 553,270.5C 549.072,273.883 545.239,277.383 541.5,281C 539.19,281.497 536.857,281.663 534.5,281.5C 534.5,280.833 534.5,280.167 534.5,279.5C 536.857,279.663 539.19,279.497 541.5,279C 545.011,275.988 548.344,272.822 551.5,269.5C 552.499,258.52 552.832,247.52 552.5,236.5C 548.808,235.971 545.642,236.971 543,239.5C 539.841,247.958 537.508,256.624 536,265.5C 535.536,264.906 535.369,264.239 535.5,263.5C 536.411,254.522 538.578,245.855 542,237.5C 545.506,234.61 549.339,233.944 553.5,235.5 Z"/></g>
<g><path style="opacity:1" fill="#f6bd8c" d="M 61.5,282.5 C 62.8333,282.5 64.1667,282.5 65.5,282.5C 70.1667,282.5 74.8333,282.5 79.5,282.5C 79.5,284.833 79.5,287.167 79.5,289.5C 71.8333,289.5 64.1667,289.5 56.5,289.5C 56.5,290.833 56.5,292.167 56.5,293.5C 55.5184,290.038 55.185,286.371 55.5,282.5C 57.5,282.5 59.5,282.5 61.5,282.5 Z"/></g>
<g><path style="opacity:1" fill="#fe7f14" d="M 56.5,283.5 C 63.8333,283.5 71.1667,283.5 78.5,283.5C 78.5,284.5 78.5,285.5 78.5,286.5C 71.1667,286.5 63.8333,286.5 56.5,286.5C 56.5,285.5 56.5,284.5 56.5,283.5 Z"/></g>
<g><path style="opacity:1" fill="#ff851b" d="M 79.5,289.5 C 79.5,290.833 79.5,292.167 79.5,293.5C 71.8333,293.5 64.1667,293.5 56.5,293.5C 56.5,292.167 56.5,290.833 56.5,289.5C 64.1667,289.5 71.8333,289.5 79.5,289.5 Z"/></g>
<g><path style="opacity:1" fill="#fea01a" d="M 556.5,293.5 C 524.003,294.332 491.336,294.832 458.5,295C 456.846,295.608 455.179,296.108 453.5,296.5C 453.5,296.167 453.5,295.833 453.5,295.5C 454.766,294.91 456.099,294.41 457.5,294C 490.498,293.5 523.498,293.333 556.5,293.5 Z"/></g>
<g><path style="opacity:0.998" fill="#fc7e02" d="M 556.5,235.5 C 557.5,235.5 558.5,235.5 559.5,235.5C 558.169,245.137 558.169,254.804 559.5,264.5C 569.817,265.666 580.151,265.832 590.5,265C 591,264.5 591.5,264 592,263.5C 592.805,254.089 592.638,244.756 591.5,235.5C 592.5,235.5 593.5,235.5 594.5,235.5C 594.5,240.167 594.5,244.833 594.5,249.5C 594.5,256.5 594.5,263.5 594.5,270.5C 582.833,270.5 571.167,270.5 559.5,270.5C 559.5,278.5 559.5,286.5 559.5,294.5C 575.342,294.17 591.009,294.504 606.5,295.5C 607.445,300.405 607.779,305.405 607.5,310.5C 606.883,310.611 606.383,310.944 606,311.5C 605.501,317.491 605.334,323.491 605.5,329.5C 602.833,329.5 600.167,329.5 597.5,329.5C 594.833,329.5 592.167,329.5 589.5,329.5C 584.5,329.5 579.5,329.5 574.5,329.5C 571.5,329.5 568.5,329.5 565.5,329.5C 561.5,329.5 557.5,329.5 553.5,329.5C 550.5,329.5 547.5,329.5 544.5,329.5C 531.5,329.5 518.5,329.5 505.5,329.5C 502.167,329.5 498.833,329.5 495.5,329.5C 494.576,325.213 493.243,321.213 491.5,317.5C 490.167,317.5 488.833,317.5 487.5,317.5C 487.5,315.833 487.5,314.167 487.5,312.5C 484.912,312.457 482.746,311.457 481,309.5C 480.439,310.022 479.772,310.355 479,310.5C 476.208,308.903 473.208,307.903 470,307.5C 468,308.833 466,308.833 464,307.5C 462.416,307.988 461.249,308.988 460.5,310.5C 457.72,309.238 456.054,310.238 455.5,313.5C 454.817,313.137 454.15,312.804 453.5,312.5C 453.5,307.167 453.5,301.833 453.5,296.5C 455.179,296.108 456.846,295.608 458.5,295C 491.336,294.832 524.003,294.332 556.5,293.5C 556.5,274.167 556.5,254.833 556.5,235.5 Z"/></g>
<g><path style="opacity:1" fill="#d2cebd" d="M 561.5,236.5 C 570.839,236.334 580.173,236.5 589.5,237C 590.65,245.755 590.816,254.588 590,263.5C 580.56,264.817 571.06,264.817 561.5,263.5C 560.169,254.47 560.169,245.47 561.5,236.5 Z"/></g>
<g><path style="opacity:1" fill="#494a4b" d="M 415.5,299.5 C 415.5,299.833 415.5,300.167 415.5,300.5C 410.156,300.334 404.823,300.501 399.5,301C 404.123,308.414 408.456,315.914 412.5,323.5C 411.778,328.489 411.612,333.489 412,338.5C 412.383,339.056 412.883,339.389 413.5,339.5C 412.243,342.427 410.243,344.761 407.5,346.5C 403.78,337.825 399.947,329.159 396,320.5C 394.694,317.379 392.86,314.713 390.5,312.5C 390.804,311.85 391.137,311.183 391.5,310.5C 389.15,307.662 387.483,304.495 386.5,301C 368.503,300.5 350.503,300.333 332.5,300.5C 332.5,300.167 332.5,299.833 332.5,299.5C 350.836,299.667 369.17,299.5 387.5,299C 389.683,296.65 392.016,294.483 394.5,292.5C 395.959,294.583 397.292,296.75 398.5,299C 404.157,299.499 409.824,299.666 415.5,299.5 Z"/></g>
<g><path style="opacity:1" fill="#545e5b" d="M 422.5,292.5 C 426.976,292.8 428.31,294.967 426.5,299C 420.339,299.878 419.006,297.711 422.5,292.5 Z"/></g>
<g><path style="opacity:1" fill="#f0a41c" d="M 307.5,311.5 C 306.833,311.5 306.167,311.5 305.5,311.5C 303.177,310.942 300.843,310.275 298.5,309.5C 299.761,306.248 301.428,303.248 303.5,300.5C 303.5,300.167 303.5,299.833 303.5,299.5C 306.295,298.937 308.628,297.604 310.5,295.5C 312.137,294.782 313.803,294.616 315.5,295C 321.755,299.594 324.422,305.761 323.5,313.5C 318.167,312.833 312.833,312.167 307.5,311.5 Z"/></g>
<g><path style="opacity:1" fill="#ffbe8c" d="M 56.5,293.5 C 64.1667,293.5 71.8333,293.5 79.5,293.5C 79.5,295.5 79.5,297.5 79.5,299.5C 71.5,299.5 63.5,299.5 55.5,299.5C 55.3253,297.379 55.6586,295.379 56.5,293.5 Z"/></g>
<g><path style="opacity:1" fill="#fe7d00" d="M 56.5,295.5 C 63.8333,295.5 71.1667,295.5 78.5,295.5C 78.5,296.5 78.5,297.5 78.5,298.5C 71.1667,298.5 63.8333,298.5 56.5,298.5C 56.5,297.5 56.5,296.5 56.5,295.5 Z"/></g>
<g><path style="opacity:1" fill="#b4c0c6" d="M 332.5,300.5 C 350.503,300.333 368.503,300.5 386.5,301C 387.483,304.495 389.15,307.662 391.5,310.5C 391.137,311.183 390.804,311.85 390.5,312.5C 388.771,313.117 387.271,314.117 386,315.5C 383.767,322.052 381.267,328.385 378.5,334.5C 377.817,332.824 376.483,332.157 374.5,332.5C 373.833,320.5 373.167,320.5 372.5,332.5C 368.251,332.683 364.251,332.683 360.5,332.5C 360.5,329.5 360.5,326.5 360.5,323.5C 353.5,323.5 346.5,323.5 339.5,323.5C 337.881,318.006 337.048,312.339 337,306.5C 335.248,304.649 333.748,302.649 332.5,300.5 Z"/></g>
<g><path style="opacity:1" fill="#c4a281" d="M 453.5,295.5 C 453.5,295.833 453.5,296.167 453.5,296.5C 453.5,301.833 453.5,307.167 453.5,312.5C 452.539,310.735 452.205,308.735 452.5,306.5C 452.5,304.5 452.5,302.5 452.5,300.5C 448.833,300.5 445.167,300.5 441.5,300.5C 444.912,297.688 448.912,296.022 453.5,295.5 Z"/></g>
<g><path style="opacity:1" fill="#fe7f08" d="M 56.5,300.5 C 64.1667,300.5 71.8333,300.5 79.5,300.5C 79.5,301.833 79.5,303.167 79.5,304.5C 71.8333,304.5 64.1667,304.5 56.5,304.5C 56.5,303.167 56.5,301.833 56.5,300.5 Z"/></g>
<g><path style="opacity:1" fill="#f3eee5" d="M 125.5,300.5 C 127.167,300.5 128.833,300.5 130.5,300.5C 130.5,304.833 130.5,309.167 130.5,313.5C 126.167,313.5 121.833,313.5 117.5,313.5C 117.5,309.167 117.5,304.833 117.5,300.5C 120.167,300.5 122.833,300.5 125.5,300.5 Z"/></g>
<g><path style="opacity:1" fill="#b4c0c7" d="M 186.5,300.5 C 187.5,300.5 188.5,300.5 189.5,300.5C 188.81,314.156 188.477,327.822 188.5,341.5C 189.833,341.5 191.167,341.5 192.5,341.5C 192.5,327.833 192.5,314.167 192.5,300.5C 199.833,300.5 207.167,300.5 214.5,300.5C 213.935,311.353 214.602,322.02 216.5,332.5C 214.076,332.192 211.743,332.526 209.5,333.5C 208.482,337.523 207.482,341.523 206.5,345.5C 199.922,344.54 193.255,344.207 186.5,344.5C 186.81,347.713 186.477,350.713 185.5,353.5C 185.666,348.821 185.499,344.155 185,339.5C 184.283,338.956 183.783,338.289 183.5,337.5C 184.302,336.048 184.802,334.382 185,332.5C 185.47,321.828 185.97,311.161 186.5,300.5 Z"/></g>
<g><path style="opacity:1" fill="#76818a" d="M 189.5,300.5 C 189.5,300.167 189.5,299.833 189.5,299.5C 227.5,299.5 265.5,299.5 303.5,299.5C 303.5,299.833 303.5,300.167 303.5,300.5C 279.143,299.843 255.143,300.51 231.5,302.5C 229.389,301.258 227.389,301.258 225.5,302.5C 221.91,305.122 221.576,308.122 224.5,311.5C 224.5,314.167 224.5,316.833 224.5,319.5C 221.813,319.336 219.146,319.503 216.5,320C 217.428,320.388 218.095,321.055 218.5,322C 217.938,325.654 217.271,329.154 216.5,332.5C 214.602,322.02 213.935,311.353 214.5,300.5C 207.167,300.5 199.833,300.5 192.5,300.5C 191.5,300.5 190.5,300.5 189.5,300.5 Z"/></g>
<g><path style="opacity:1" fill="#e6e6e6" d="M 303.5,300.5 C 301.428,303.248 299.761,306.248 298.5,309.5C 300.843,310.275 303.177,310.942 305.5,311.5C 305.326,313.861 304.993,316.194 304.5,318.5C 280.5,318.5 256.5,318.5 232.5,318.5C 232.5,316.5 232.5,314.5 232.5,312.5C 234.137,310.077 234.637,307.41 234,304.5C 233.292,303.619 232.458,302.953 231.5,302.5C 255.143,300.51 279.143,299.843 303.5,300.5 Z"/></g>
<g><path style="opacity:1" fill="#afbcc2" d="M 415.5,300.5 C 415.5,302.833 415.5,305.167 415.5,307.5C 413.694,312.547 412.694,317.88 412.5,323.5C 408.456,315.914 404.123,308.414 399.5,301C 404.823,300.501 410.156,300.334 415.5,300.5 Z"/></g>
<g><path style="opacity:1" fill="#fd8507" d="M 416.5,298.5 C 417.779,300.123 419.113,301.79 420.5,303.5C 423.65,303.766 426.317,304.766 428.5,306.5C 428.5,307.167 428.5,307.833 428.5,308.5C 424.951,316.467 421.951,324.801 419.5,333.5C 418.833,334.167 418.167,334.833 417.5,335.5C 416.791,334.596 415.791,334.263 414.5,334.5C 413.838,332.696 413.505,330.696 413.5,328.5C 414.101,321.486 414.768,314.486 415.5,307.5C 415.5,305.167 415.5,302.833 415.5,300.5C 415.5,300.167 415.5,299.833 415.5,299.5C 416.167,299.5 416.5,299.167 416.5,298.5 Z"/></g>
<g><path style="opacity:1" fill="#d5d2d2" d="M 439.5,300.5 C 440.167,300.5 440.833,300.5 441.5,300.5C 445.167,300.5 448.833,300.5 452.5,300.5C 452.5,302.5 452.5,304.5 452.5,306.5C 448.136,304.444 443.802,302.444 439.5,300.5 Z"/></g>
<g><path style="opacity:1" fill="#e9b610" d="M 225.5,302.5 C 232.821,303.319 234.154,306.486 229.5,312C 227.735,312.64 226.068,312.473 224.5,311.5C 221.576,308.122 221.91,305.122 225.5,302.5 Z"/></g>
<g><path style="opacity:1" fill="#63605d" d="M 429.5,305.5 C 431.466,306.441 433.466,307.441 435.5,308.5C 436.386,307.675 436.719,306.675 436.5,305.5C 439.739,306.462 442.739,307.795 445.5,309.5C 443.5,309.167 441.5,308.833 439.5,308.5C 439.5,316.5 439.5,324.5 439.5,332.5C 438.5,333.833 437.5,333.833 436.5,332.5C 436.829,326.463 436.496,320.463 435.5,314.5C 432.487,313.144 430.153,311.144 428.5,308.5C 428.5,307.833 428.5,307.167 428.5,306.5C 429.167,306.5 429.5,306.167 429.5,305.5 Z"/></g>
<g><path style="opacity:1" fill="#bab7b5" d="M 430.5,303.5 C 432.5,304.167 434.5,304.833 436.5,305.5C 436.719,306.675 436.386,307.675 435.5,308.5C 433.466,307.441 431.466,306.441 429.5,305.5C 429.328,304.508 429.662,303.842 430.5,303.5 Z"/></g>
<g><path style="opacity:1" fill="#feb186" d="M 55.5,305.5 C 63.5,305.5 71.5,305.5 79.5,305.5C 79.5,307.167 79.5,308.833 79.5,310.5C 71.5,310.5 63.5,310.5 55.5,310.5C 55.5,308.833 55.5,307.167 55.5,305.5 Z"/></g>
<g><path style="opacity:1" fill="#fe7c00" d="M 56.5,306.5 C 63.8333,306.5 71.1667,306.5 78.5,306.5C 78.5,307.5 78.5,308.5 78.5,309.5C 71.1667,309.5 63.8333,309.5 56.5,309.5C 56.5,308.5 56.5,307.5 56.5,306.5 Z"/></g>
<g><path style="opacity:1" fill="#dcd9d9" d="M 445.5,309.5 C 447.214,310.738 449.214,311.405 451.5,311.5C 451.5,313.5 451.5,315.5 451.5,317.5C 448.079,317.238 447.079,318.572 448.5,321.5C 444.374,322.542 443.707,324.542 446.5,327.5C 445.675,328.386 444.675,328.719 443.5,328.5C 443.433,329.959 443.766,331.292 444.5,332.5C 442.833,332.5 441.167,332.5 439.5,332.5C 439.5,324.5 439.5,316.5 439.5,308.5C 441.5,308.833 443.5,309.167 445.5,309.5 Z"/></g>
<g><path style="opacity:1" fill="#343333" d="M 439.5,300.5 C 443.802,302.444 448.136,304.444 452.5,306.5C 452.205,308.735 452.539,310.735 453.5,312.5C 454.15,312.804 454.817,313.137 455.5,313.5C 456.054,310.238 457.72,309.238 460.5,310.5C 461.249,308.988 462.416,307.988 464,307.5C 466,308.833 468,308.833 470,307.5C 473.208,307.903 476.208,308.903 479,310.5C 479.772,310.355 480.439,310.022 481,309.5C 482.746,311.457 484.912,312.457 487.5,312.5C 487.5,314.167 487.5,315.833 487.5,317.5C 488.833,317.5 490.167,317.5 491.5,317.5C 493.243,321.213 494.576,325.213 495.5,329.5C 496.992,332.587 496.659,335.421 494.5,338C 494.833,339 495.167,340 495.5,341C 493.997,342.921 493.331,345.088 493.5,347.5C 492.127,347.343 490.793,347.51 489.5,348C 490.38,349.356 490.714,350.856 490.5,352.5C 489.178,352.67 488.011,352.337 487,351.5C 486.506,353.134 486.34,354.801 486.5,356.5C 485.07,356.579 483.736,356.246 482.5,355.5C 481.702,359.384 480.036,360.051 477.5,357.5C 475.895,360.821 473.895,361.154 471.5,358.5C 470.784,359.311 469.95,359.978 469,360.5C 465.986,359.289 462.986,357.956 460,356.5C 457.359,357.713 456.192,356.713 456.5,353.5C 454.833,353.5 453.167,353.5 451.5,353.5C 451.5,352.167 451.5,350.833 451.5,349.5C 448.079,349.762 447.079,348.428 448.5,345.5C 447.675,344.614 446.675,344.281 445.5,344.5C 445.357,342.738 445.691,341.071 446.5,339.5C 445.585,338.672 444.919,337.672 444.5,336.5C 445.372,334.946 445.372,333.612 444.5,332.5C 443.766,331.292 443.433,329.959 443.5,328.5C 444.675,328.719 445.675,328.386 446.5,327.5C 443.707,324.542 444.374,322.542 448.5,321.5C 447.079,318.572 448.079,317.238 451.5,317.5C 451.5,315.5 451.5,313.5 451.5,311.5C 449.214,311.405 447.214,310.738 445.5,309.5C 442.739,307.795 439.739,306.462 436.5,305.5C 434.5,304.833 432.5,304.167 430.5,303.5C 433.341,302.331 436.341,301.331 439.5,300.5 Z"/></g>
<g><path style="opacity:1" fill="#dbd7d3" d="M 428.5,308.5 C 430.153,311.144 432.487,313.144 435.5,314.5C 436.496,320.463 436.829,326.463 436.5,332.5C 431.422,332.962 426.422,332.962 421.5,332.5C 421.715,334.179 421.048,335.179 419.5,335.5C 419.5,334.833 419.5,334.167 419.5,333.5C 421.951,324.801 424.951,316.467 428.5,308.5 Z"/></g>
<g><path style="opacity:1" fill="#ff830d" d="M 56.5,311.5 C 64.1667,311.5 71.8333,311.5 79.5,311.5C 79.5,312.833 79.5,314.167 79.5,315.5C 71.8333,315.5 64.1667,315.5 56.5,315.5C 56.5,314.167 56.5,312.833 56.5,311.5 Z"/></g>
<g><path style="opacity:1" fill="#f6b83c" d="M 324.5,294.5 C 326.193,297.682 328.859,299.348 332.5,299.5C 332.5,299.833 332.5,300.167 332.5,300.5C 333.748,302.649 335.248,304.649 337,306.5C 337.048,312.339 337.881,318.006 339.5,323.5C 339.5,324.833 339.5,326.167 339.5,327.5C 333.034,327.256 326.701,326.256 320.5,324.5C 319.833,324.167 319.167,323.833 318.5,323.5C 313.444,320.777 309.777,316.777 307.5,311.5C 312.833,312.167 318.167,312.833 323.5,313.5C 324.422,305.761 321.755,299.594 315.5,295C 313.803,294.616 312.137,294.782 310.5,295.5C 310.5,295.167 310.5,294.833 310.5,294.5C 315.129,291.952 319.795,291.952 324.5,294.5 Z"/></g>
<g><path style="opacity:1" fill="#373737" d="M 390.5,312.5 C 392.86,314.713 394.694,317.379 396,320.5C 399.947,329.159 403.78,337.825 407.5,346.5C 407.047,347.458 406.381,348.292 405.5,349C 391.492,349.534 377.492,349.368 363.5,348.5C 363.5,347.5 363.5,346.5 363.5,345.5C 367.167,345.5 370.833,345.5 374.5,345.5C 375.459,341.617 376.792,337.95 378.5,334.5C 381.267,328.385 383.767,322.052 386,315.5C 387.271,314.117 388.771,313.117 390.5,312.5 Z"/></g>
<g><path style="opacity:1" fill="#b1c1d2" d="M 114.5,313.5 C 114.833,313.5 115.167,313.5 115.5,313.5C 116.167,313.5 116.833,313.5 117.5,313.5C 121.833,313.5 126.167,313.5 130.5,313.5C 131.167,313.5 131.833,313.5 132.5,313.5C 147.17,313.333 161.837,313.5 176.5,314C 178.538,315.236 179.705,317.069 180,319.5C 180.676,324.871 180.509,330.204 179.5,335.5C 150.662,335.169 121.995,335.502 93.5,336.5C 92.3054,336.134 91.6387,335.301 91.5,334C 92.5919,328.874 92.7586,323.707 92,318.5C 91.2155,316.714 90.0488,315.214 88.5,314C 97.1603,313.5 105.827,313.334 114.5,313.5 Z"/></g>
<g><path style="opacity:1" fill="#a19a94" d="M 83.5,315.5 C 86.8329,315.027 88.9996,316.36 90,319.5C 90.6667,323.833 90.6667,328.167 90,332.5C 86.1484,338.039 83.4817,337.372 82,330.5C 81.2948,325.35 81.7948,320.35 83.5,315.5 Z"/></g>
<g><path style="opacity:1" fill="#7b491d" d="M 607.5,310.5 C 608.72,312.05 608.72,313.716 607.5,315.5C 606.833,320.167 606.167,324.833 605.5,329.5C 605.334,323.491 605.501,317.491 606,311.5C 606.383,310.944 606.883,310.611 607.5,310.5 Z"/></g>
<g><path style="opacity:1" fill="#a4a4a4" d="M 232.5,312.5 C 232.5,314.5 232.5,316.5 232.5,318.5C 256.5,318.5 280.5,318.5 304.5,318.5C 281.006,319.498 257.339,319.831 233.5,319.5C 232.275,318.848 231.608,317.681 231.5,316C 231.514,314.615 231.848,313.449 232.5,312.5 Z"/></g>
<g><path style="opacity:1" fill="#ff8f38" d="M 79.5,317.5 C 79.5,318.833 79.5,320.167 79.5,321.5C 71.8333,321.5 64.1667,321.5 56.5,321.5C 56.5,320.167 56.5,318.833 56.5,317.5C 64.1667,317.5 71.8333,317.5 79.5,317.5 Z"/></g>
<g><path style="opacity:1" fill="#f3c599" d="M 56.5,311.5 C 56.5,312.833 56.5,314.167 56.5,315.5C 64.1667,315.5 71.8333,315.5 79.5,315.5C 79.5,316.167 79.5,316.833 79.5,317.5C 71.8333,317.5 64.1667,317.5 56.5,317.5C 56.5,318.833 56.5,320.167 56.5,321.5C 64.1667,321.5 71.8333,321.5 79.5,321.5C 79.5,324.167 79.5,326.833 79.5,329.5C 71.8333,329.5 64.1667,329.5 56.5,329.5C 56.5,332.167 56.5,334.833 56.5,337.5C 59.8531,337.345 60.1864,338.012 57.5,339.5C 55.8516,337.544 55.1849,335.211 55.5,332.5C 55.1755,325.313 55.5088,318.313 56.5,311.5 Z"/></g>
<g><path style="opacity:1" fill="#43423f" d="M 225.5,302.5 C 227.389,301.258 229.389,301.258 231.5,302.5C 232.458,302.953 233.292,303.619 234,304.5C 234.637,307.41 234.137,310.077 232.5,312.5C 231.848,313.449 231.514,314.615 231.5,316C 231.608,317.681 232.275,318.848 233.5,319.5C 233.5,319.833 233.5,320.167 233.5,320.5C 230.223,320.216 227.057,320.549 224,321.5C 222.515,325.28 222.348,328.946 223.5,332.5C 218.052,337.064 212.385,341.398 206.5,345.5C 207.482,341.523 208.482,337.523 209.5,333.5C 211.743,332.526 214.076,332.192 216.5,332.5C 217.271,329.154 217.938,325.654 218.5,322C 218.095,321.055 217.428,320.388 216.5,320C 219.146,319.503 221.813,319.336 224.5,319.5C 224.5,316.833 224.5,314.167 224.5,311.5C 226.068,312.473 227.735,312.64 229.5,312C 234.154,306.486 232.821,303.319 225.5,302.5 Z"/></g>
<g><path style="opacity:1" fill="#cda537" d="M 481.5,325.5 C 480.883,325.389 480.383,325.056 480,324.5C 478.847,326.497 477.347,326.83 475.5,325.5C 476.854,321.91 475.521,320.244 471.5,320.5C 471.065,322.703 471.065,324.703 471.5,326.5C 470.5,326.5 469.5,326.5 468.5,326.5C 467.465,324.795 467.465,323.128 468.5,321.5C 466.955,320.548 465.288,320.215 463.5,320.5C 470.914,316.858 476.914,318.525 481.5,325.5 Z"/></g>
<g><path style="opacity:1" fill="#fe7d00" d="M 56.5,323.5 C 63.8333,323.5 71.1667,323.5 78.5,323.5C 78.5,324.833 78.5,326.167 78.5,327.5C 71.1667,327.5 63.8333,327.5 56.5,327.5C 56.5,326.167 56.5,324.833 56.5,323.5 Z"/></g>
<g><path style="opacity:1" fill="#303030" d="M 305.5,311.5 C 306.167,311.5 306.833,311.5 307.5,311.5C 309.777,316.777 313.444,320.777 318.5,323.5C 317.735,326.096 317.401,328.763 317.5,331.5C 315.833,331.5 314.167,331.5 312.5,331.5C 312.5,328.167 312.5,324.833 312.5,321.5C 310.167,321.5 307.833,321.5 305.5,321.5C 281.672,320.502 257.672,320.169 233.5,320.5C 233.5,320.167 233.5,319.833 233.5,319.5C 257.339,319.831 281.006,319.498 304.5,318.5C 304.993,316.194 305.326,313.861 305.5,311.5 Z"/></g>
<g><path style="opacity:1" fill="#e4e0de" d="M 339.5,323.5 C 346.5,323.5 353.5,323.5 360.5,323.5C 360.5,326.5 360.5,329.5 360.5,332.5C 347.421,332.186 334.421,332.52 321.5,333.5C 321.5,333.167 321.5,332.833 321.5,332.5C 320.612,329.946 320.279,327.279 320.5,324.5C 326.701,326.256 333.034,327.256 339.5,327.5C 339.5,326.167 339.5,324.833 339.5,323.5 Z"/></g>
<g><path style="opacity:1" fill="#595550" d="M 374.5,332.5 C 373.833,333.833 373.167,333.833 372.5,332.5C 373.167,320.5 373.833,320.5 374.5,332.5 Z"/></g>
<g><path style="opacity:1" fill="#929697" d="M 189.5,300.5 C 190.5,300.5 191.5,300.5 192.5,300.5C 192.5,314.167 192.5,327.833 192.5,341.5C 191.167,341.5 189.833,341.5 188.5,341.5C 188.477,327.822 188.81,314.156 189.5,300.5 Z"/></g>
<g><path style="opacity:1" fill="#7d7c7b" d="M 79.5,329.5 C 79.724,334.336 82.0573,337.336 86.5,338.5C 84.6162,346.149 85.2829,353.483 88.5,360.5C 85.5,360.5 82.5,360.5 79.5,360.5C 82.8191,356.871 84.1525,352.537 83.5,347.5C 84.4888,341.684 82.3221,337.684 77,335.5C 74.704,336.628 72.8707,338.295 71.5,340.5C 69.0312,341.168 66.6979,341.835 64.5,342.5C 63.601,345.452 61.601,346.619 58.5,346C 56.3162,344.102 55.9829,341.936 57.5,339.5C 60.1864,338.012 59.8531,337.345 56.5,337.5C 56.5,334.833 56.5,332.167 56.5,329.5C 64.1667,329.5 71.8333,329.5 79.5,329.5 Z"/></g>
<g><path style="opacity:1" fill="#363534" d="M 607.5,315.5 C 609.384,315.712 610.717,316.712 611.5,318.5C 612.303,321.503 612.303,324.67 611.5,328C 612.973,328.71 613.64,329.876 613.5,331.5C 609.575,332.684 608.909,334.684 611.5,337.5C 610.509,338.665 609.509,339.832 608.5,341C 609.187,342.162 609.353,343.328 609,344.5C 606.636,346.059 605.136,348.225 604.5,351C 603.552,351.483 602.552,351.649 601.5,351.5C 601.5,352.833 601.5,354.167 601.5,355.5C 599.533,355.739 597.699,355.406 596,354.5C 595.51,355.793 595.343,357.127 595.5,358.5C 593.738,358.643 592.071,358.309 590.5,357.5C 588.616,361.017 586.283,361.351 583.5,358.5C 582.15,359.95 580.484,360.617 578.5,360.5C 578.5,359.5 578.5,358.5 578.5,357.5C 575.107,359.477 572.441,358.81 570.5,355.5C 569.264,356.246 567.93,356.579 566.5,356.5C 566.5,355.167 566.5,353.833 566.5,352.5C 562.062,353.575 560.062,351.908 560.5,347.5C 559.167,347.5 557.833,347.5 556.5,347.5C 556.785,345.712 556.452,344.045 555.5,342.5C 552.677,341.367 552.01,339.533 553.5,337C 550.937,334.45 550.937,331.95 553.5,329.5C 557.5,329.5 561.5,329.5 565.5,329.5C 567.191,341.676 574.191,346.843 586.5,345C 593.486,342.182 597.152,337.016 597.5,329.5C 600.167,329.5 602.833,329.5 605.5,329.5C 606.167,324.833 606.833,320.167 607.5,315.5 Z"/></g>
<g><path style="opacity:0.98" fill="#feefbf" d="M 495.5,329.5 C 498.833,329.5 502.167,329.5 505.5,329.5C 505.833,330.833 506.167,332.167 506.5,333.5C 507.024,335.306 507.691,336.972 508.5,338.5C 510.252,343.255 511.919,348.089 513.5,353C 521.167,353.667 528.833,353.667 536.5,353C 538.882,347.31 540.882,341.477 542.5,335.5C 542.5,334.833 542.5,334.167 542.5,333.5C 543.674,332.486 544.34,331.153 544.5,329.5C 547.5,329.5 550.5,329.5 553.5,329.5C 550.937,331.95 550.937,334.45 553.5,337C 552.01,339.533 552.677,341.367 555.5,342.5C 556.452,344.045 556.785,345.712 556.5,347.5C 557.833,347.5 559.167,347.5 560.5,347.5C 560.062,351.908 562.062,353.575 566.5,352.5C 566.5,353.833 566.5,355.167 566.5,356.5C 567.93,356.579 569.264,356.246 570.5,355.5C 572.441,358.81 575.107,359.477 578.5,357.5C 578.5,358.5 578.5,359.5 578.5,360.5C 580.484,360.617 582.15,359.95 583.5,358.5C 586.283,361.351 588.616,361.017 590.5,357.5C 592.071,358.309 593.738,358.643 595.5,358.5C 595.343,357.127 595.51,355.793 596,354.5C 597.699,355.406 599.533,355.739 601.5,355.5C 601.5,354.167 601.5,352.833 601.5,351.5C 602.552,351.649 603.552,351.483 604.5,351C 605.136,348.225 606.636,346.059 609,344.5C 609.353,343.328 609.187,342.162 608.5,341C 609.509,339.832 610.509,338.665 611.5,337.5C 608.909,334.684 609.575,332.684 613.5,331.5C 619.359,333.189 623.526,336.856 626,342.5C 626.667,370.5 626.667,398.5 626,426.5C 624.65,431.185 621.817,434.685 617.5,437C 518.389,438.163 419.222,438.663 320,438.5C 220.778,438.663 121.611,438.163 22.5,437C 17.0297,434.185 13.863,429.685 13,423.5C 12.0438,396.126 12.3772,368.793 14,341.5C 16.3369,336.936 19.8369,333.769 24.5,332C 31.1583,331.5 37.825,331.334 44.5,331.5C 47.9619,332.482 51.6286,332.815 55.5,332.5C 55.1849,335.211 55.8516,337.544 57.5,339.5C 55.9829,341.936 56.3162,344.102 58.5,346C 61.601,346.619 63.601,345.452 64.5,342.5C 66.8333,342.5 69.1667,342.5 71.5,342.5C 71.3341,347.511 71.5007,352.511 72,357.5C 73.8484,360.041 76.3484,361.041 79.5,360.5C 82.5,360.5 85.5,360.5 88.5,360.5C 90.1667,360.5 91.8333,360.5 93.5,360.5C 120.833,360.5 148.167,360.5 175.5,360.5C 174.699,362.042 174.366,363.708 174.5,365.5C 173.262,367.214 172.595,369.214 172.5,371.5C 171.434,373.701 170.767,376.035 170.5,378.5C 169.85,380.435 169.517,382.435 169.5,384.5C 168.833,384.5 168.5,384.167 168.5,383.5C 168.179,381.952 167.179,381.285 165.5,381.5C 164.708,385.211 163.708,388.878 162.5,392.5C 172.478,393.499 182.478,393.832 192.5,393.5C 192.5,392.5 192.5,391.5 192.5,390.5C 191.531,388.337 190.698,386.004 190,383.5C 189.329,382.748 188.496,382.414 187.5,382.5C 187.5,382.167 187.5,381.833 187.5,381.5C 189.932,380.25 192.266,378.75 194.5,377C 196.126,374.372 198.126,372.039 200.5,370C 196.375,369.146 192.375,369.48 188.5,371C 186.771,372.789 186.104,374.956 186.5,377.5C 186.167,377.5 185.833,377.5 185.5,377.5C 185.795,375.265 185.461,373.265 184.5,371.5C 184.125,369.302 183.458,367.302 182.5,365.5C 182.5,363.5 182.5,361.5 182.5,359.5C 184.539,358.089 185.539,356.089 185.5,353.5C 186.477,350.713 186.81,347.713 186.5,344.5C 193.255,344.207 199.922,344.54 206.5,345.5C 202.394,352.628 204.394,355.962 212.5,355.5C 212.5,357.5 212.5,359.5 212.5,361.5C 209.675,361.162 207.508,362.162 206,364.5C 204.539,367.679 203.705,371.012 203.5,374.5C 201.727,377.488 201.06,380.821 201.5,384.5C 203.833,384.5 206.167,384.5 208.5,384.5C 207.215,392.662 205.881,400.828 204.5,409C 204.935,412.063 205.768,412.23 207,409.5C 207.754,403.614 208.92,397.947 210.5,392.5C 214.514,392.666 218.514,392.499 222.5,392C 223.79,389.708 225.457,387.708 227.5,386C 223.5,385.333 219.5,385.333 215.5,386C 213.917,387.758 212.25,389.258 210.5,390.5C 211.15,388.565 211.483,386.565 211.5,384.5C 218.167,384.5 224.833,384.5 231.5,384.5C 232.272,391.029 233.772,397.363 236,403.5C 236.45,399.812 236.283,396.146 235.5,392.5C 241.969,394.015 246.302,391.682 248.5,385.5C 251.833,385.5 255.167,385.5 258.5,385.5C 256.721,387.546 255.054,389.713 253.5,392C 257.5,392.667 261.5,392.667 265.5,392C 267.054,389.713 268.721,387.546 270.5,385.5C 273.5,385.5 276.5,385.5 279.5,385.5C 278.559,387.466 277.559,389.466 276.5,391.5C 283.789,394.44 288.789,392.44 291.5,385.5C 295.182,385.335 298.848,385.501 302.5,386C 301.223,391.385 300.556,396.885 300.5,402.5C 300.337,404.857 300.503,407.19 301,409.5C 302.029,403.787 303.196,398.12 304.5,392.5C 306.04,390.162 306.706,387.495 306.5,384.5C 308.833,384.5 311.167,384.5 313.5,384.5C 313.263,383.209 313.596,382.209 314.5,381.5C 314.343,382.873 314.51,384.207 315,385.5C 317.354,380.113 320.188,375.113 323.5,370.5C 326.073,380.614 328.239,390.948 330,401.5C 331.232,404.23 332.065,404.063 332.5,401C 331.784,398.208 331.451,395.374 331.5,392.5C 336.467,385.562 340.134,377.895 342.5,369.5C 339.15,369.335 335.817,369.502 332.5,370C 331.267,372.314 329.933,374.481 328.5,376.5C 326.286,366.009 324.619,355.343 323.5,344.5C 329.176,344.666 334.843,344.499 340.5,344C 341.624,343.751 342.624,343.251 343.5,342.5C 340.36,340.527 337.36,338.36 334.5,336C 330.514,335.501 326.514,335.334 322.5,335.5C 322.167,335.5 321.833,335.5 321.5,335.5C 321.5,335.167 321.5,334.833 321.5,334.5C 321.5,334.167 321.5,333.833 321.5,333.5C 334.421,332.52 347.421,332.186 360.5,332.5C 364.251,332.683 368.251,332.683 372.5,332.5C 373.167,333.833 373.833,333.833 374.5,332.5C 376.483,332.157 377.817,332.824 378.5,334.5C 376.792,337.95 375.459,341.617 374.5,345.5C 370.833,345.5 367.167,345.5 363.5,345.5C 363.5,346.5 363.5,347.5 363.5,348.5C 377.492,349.368 391.492,349.534 405.5,349C 406.381,348.292 407.047,347.458 407.5,346.5C 410.243,344.761 412.243,342.427 413.5,339.5C 416.856,340.138 418.856,338.804 419.5,335.5C 421.048,335.179 421.715,334.179 421.5,332.5C 426.422,332.962 431.422,332.962 436.5,332.5C 437.5,333.833 438.5,333.833 439.5,332.5C 441.167,332.5 442.833,332.5 444.5,332.5C 445.372,333.612 445.372,334.946 444.5,336.5C 444.919,337.672 445.585,338.672 446.5,339.5C 445.691,341.071 445.357,342.738 445.5,344.5C 446.675,344.281 447.675,344.614 448.5,345.5C 447.079,348.428 448.079,349.762 451.5,349.5C 451.5,350.833 451.5,352.167 451.5,353.5C 453.167,353.5 454.833,353.5 456.5,353.5C 456.192,356.713 457.359,357.713 460,356.5C 462.986,357.956 465.986,359.289 469,360.5C 469.95,359.978 470.784,359.311 471.5,358.5C 473.895,361.154 475.895,360.821 477.5,357.5C 480.036,360.051 481.702,359.384 482.5,355.5C 483.736,356.246 485.07,356.579 486.5,356.5C 486.34,354.801 486.506,353.134 487,351.5C 488.011,352.337 489.178,352.67 490.5,352.5C 490.714,350.856 490.38,349.356 489.5,348C 490.793,347.51 492.127,347.343 493.5,347.5C 493.331,345.088 493.997,342.921 495.5,341C 495.167,340 494.833,339 494.5,338C 496.659,335.421 496.992,332.587 495.5,329.5 Z"/></g>
<g><path style="opacity:1" fill="#9e9e9c" d="M 233.5,320.5 C 257.672,320.169 281.672,320.502 305.5,321.5C 307.833,321.5 310.167,321.5 312.5,321.5C 312.5,324.833 312.5,328.167 312.5,331.5C 314.167,331.5 315.833,331.5 317.5,331.5C 317.401,328.763 317.735,326.096 318.5,323.5C 319.167,323.833 319.833,324.167 320.5,324.5C 320.279,327.279 320.612,329.946 321.5,332.5C 317.833,332.5 314.167,332.5 310.5,332.5C 306.167,332.5 301.833,332.5 297.5,332.5C 294.5,332.5 291.5,332.5 288.5,332.5C 284.5,332.5 280.5,332.5 276.5,332.5C 273.5,332.5 270.5,332.5 267.5,332.5C 263.167,332.5 258.833,332.5 254.5,332.5C 251.5,332.5 248.5,332.5 245.5,332.5C 241.167,332.5 236.833,332.5 232.5,332.5C 229.5,332.5 226.5,332.5 223.5,332.5C 222.348,328.946 222.515,325.28 224,321.5C 227.057,320.549 230.223,320.216 233.5,320.5 Z"/></g>
<g><path style="opacity:1" fill="#b1bfc6" d="M 231.5,321.5 C 243.314,322.832 255.481,323.499 268,323.5C 280.519,323.499 292.686,322.832 304.5,321.5C 304.833,321.5 305.167,321.5 305.5,321.5C 305.281,322.675 305.614,323.675 306.5,324.5C 310.85,324.886 312.517,327.219 311.5,331.5C 283.167,331.5 254.833,331.5 226.5,331.5C 226.5,328.167 226.5,324.833 226.5,321.5C 228.167,321.5 229.833,321.5 231.5,321.5 Z"/></g>
<g><path style="opacity:1" fill="#e7e8e8" d="M 231.5,321.5 C 255.833,321.5 280.167,321.5 304.5,321.5C 292.686,322.832 280.519,323.499 268,323.5C 255.481,323.499 243.314,322.832 231.5,321.5 Z"/></g>
<g><path style="opacity:1" fill="#443f3b" d="M 505.5,329.5 C 518.5,329.5 531.5,329.5 544.5,329.5C 544.34,331.153 543.674,332.486 542.5,333.5C 530.5,333.5 518.5,333.5 506.5,333.5C 506.167,332.167 505.833,330.833 505.5,329.5 Z"/></g>
<g><path style="opacity:1" fill="#eb9e12" d="M 223.5,332.5 C 226.5,332.5 229.5,332.5 232.5,332.5C 224.831,339.819 216.497,346.485 207.5,352.5C 214.21,354.824 219.877,353.491 224.5,348.5C 224.5,349.167 224.5,349.833 224.5,350.5C 223.766,351.878 223.099,353.378 222.5,355C 220.527,355.495 218.527,355.662 216.5,355.5C 215.167,355.5 213.833,355.5 212.5,355.5C 204.394,355.962 202.394,352.628 206.5,345.5C 212.385,341.398 218.052,337.064 223.5,332.5 Z"/></g>
<g><path style="opacity:1" fill="#f2a104" d="M 245.5,332.5 C 248.5,332.5 251.5,332.5 254.5,332.5C 253.027,334.395 251.36,336.061 249.5,337.5C 246.167,337.5 242.833,337.5 239.5,337.5C 241.5,335.833 243.5,334.167 245.5,332.5 Z"/></g>
<g><path style="opacity:1" fill="#f1a006" d="M 267.5,332.5 C 270.5,332.5 273.5,332.5 276.5,332.5C 274.54,334.156 272.54,335.823 270.5,337.5C 267.5,337.5 264.5,337.5 261.5,337.5C 263.5,335.833 265.5,334.167 267.5,332.5 Z"/></g>
<g><path style="opacity:1" fill="#ef9f08" d="M 310.5,332.5 C 314.167,332.5 317.833,332.5 321.5,332.5C 321.5,332.833 321.5,333.167 321.5,333.5C 320.448,333.351 319.448,333.517 318.5,334C 314.137,337.176 309.804,340.343 305.5,343.5C 303.833,342.5 302.5,341.167 301.5,339.5C 304.681,337.408 307.681,335.075 310.5,332.5 Z"/></g>
<g><path style="opacity:1" fill="#6d6d6c" d="M 506.5,333.5 C 518.5,333.5 530.5,333.5 542.5,333.5C 542.5,334.167 542.5,334.833 542.5,335.5C 531.167,335.5 519.833,335.5 508.5,335.5C 508.5,336.5 508.5,337.5 508.5,338.5C 507.691,336.972 507.024,335.306 506.5,333.5 Z"/></g>
<g><path style="opacity:1" fill="#413f3b" d="M 276.5,332.5 C 280.5,332.5 284.5,332.5 288.5,332.5C 283.786,336.546 278.786,340.212 273.5,343.5C 273.025,341.216 272.025,339.216 270.5,337.5C 272.54,335.823 274.54,334.156 276.5,332.5 Z"/></g>
<g><path style="opacity:1" fill="#433e36" d="M 254.5,332.5 C 258.833,332.5 263.167,332.5 267.5,332.5C 265.5,334.167 263.5,335.833 261.5,337.5C 257.5,337.5 253.5,337.5 249.5,337.5C 251.36,336.061 253.027,334.395 254.5,332.5 Z"/></g>
<g><path style="opacity:1" fill="#42413f" d="M 321.5,333.5 C 321.5,333.833 321.5,334.167 321.5,334.5C 320.379,336.954 319.546,339.621 319,342.5C 316.004,344.733 313.171,347.066 310.5,349.5C 308.11,348.109 306.443,346.109 305.5,343.5C 309.804,340.343 314.137,337.176 318.5,334C 319.448,333.517 320.448,333.351 321.5,333.5 Z"/></g>
<g><path style="opacity:1" fill="#ca9d4e" d="M 415.5,307.5 C 414.768,314.486 414.101,321.486 413.5,328.5C 413.505,330.696 413.838,332.696 414.5,334.5C 412.863,336.124 413.197,337.124 415.5,337.5C 416.713,337.253 417.38,336.586 417.5,335.5C 418.167,334.833 418.833,334.167 419.5,333.5C 419.5,334.167 419.5,334.833 419.5,335.5C 418.856,338.804 416.856,340.138 413.5,339.5C 412.883,339.389 412.383,339.056 412,338.5C 411.612,333.489 411.778,328.489 412.5,323.5C 412.694,317.88 413.694,312.547 415.5,307.5 Z"/></g>
<g><path style="opacity:1" fill="#bfc8cb" d="M 322.5,335.5 C 326.514,335.334 330.514,335.501 334.5,336C 337.36,338.36 340.36,340.527 343.5,342.5C 342.624,343.251 341.624,343.751 340.5,344C 334.843,344.499 329.176,344.666 323.5,344.5C 322.523,341.713 322.19,338.713 322.5,335.5 Z"/></g>
<g><path style="opacity:1" fill="#434b4d" d="M 414.5,334.5 C 415.791,334.263 416.791,334.596 417.5,335.5C 417.38,336.586 416.713,337.253 415.5,337.5C 413.197,337.124 412.863,336.124 414.5,334.5 Z"/></g>
<g><path style="opacity:1" fill="#383838" d="M 542.5,335.5 C 540.882,341.477 538.882,347.31 536.5,353C 528.833,353.667 521.167,353.667 513.5,353C 511.919,348.089 510.252,343.255 508.5,338.5C 508.5,337.5 508.5,336.5 508.5,335.5C 519.833,335.5 531.167,335.5 542.5,335.5 Z"/></g>
<g><path style="opacity:1" fill="#f2bd14" d="M 565.5,329.5 C 568.5,329.5 571.5,329.5 574.5,329.5C 574.491,334.158 576.825,336.491 581.5,336.5C 586.368,336.63 589.034,334.297 589.5,329.5C 592.167,329.5 594.833,329.5 597.5,329.5C 597.152,337.016 593.486,342.182 586.5,345C 574.191,346.843 567.191,341.676 565.5,329.5 Z"/></g>
<g><path style="opacity:1" fill="#6c6e68" d="M 572.5,335.5 C 574.625,336.368 574.791,337.368 573,338.5C 571.317,337.824 571.15,336.824 572.5,335.5 Z"/></g>
<g><path style="opacity:1" fill="#746f68" d="M 574.5,329.5 C 579.5,329.5 584.5,329.5 589.5,329.5C 589.034,334.297 586.368,336.63 581.5,336.5C 576.825,336.491 574.491,334.158 574.5,329.5 Z"/></g>
<g><path style="opacity:1" fill="#767265" d="M 589.5,335.5 C 590.5,335.5 591.5,335.5 592.5,335.5C 592.5,336.5 592.5,337.5 592.5,338.5C 591.5,338.5 590.5,338.5 589.5,338.5C 589.5,337.5 589.5,336.5 589.5,335.5 Z"/></g>
<g><path style="opacity:1" fill="#8b9ba8" d="M 93.5,336.5 C 121.995,335.502 150.662,335.169 179.5,335.5C 181.062,335.733 182.395,336.4 183.5,337.5C 183.783,338.289 184.283,338.956 185,339.5C 185.499,344.155 185.666,348.821 185.5,353.5C 185.539,356.089 184.539,358.089 182.5,359.5C 181.596,358.791 181.263,357.791 181.5,356.5C 177.759,355.599 175.759,356.932 175.5,360.5C 148.167,360.5 120.833,360.5 93.5,360.5C 95.1361,359.251 96.3028,357.584 97,355.5C 97.7586,350.293 97.5919,345.126 96.5,340C 96.0222,338.358 95.0222,337.191 93.5,336.5 Z"/></g>
<g><path style="opacity:1" fill="#ebe6df" d="M 301.5,339.5 C 302.5,341.167 303.833,342.5 305.5,343.5C 306.443,346.109 308.11,348.109 310.5,349.5C 312.473,350.806 314.139,352.473 315.5,354.5C 315.611,355.117 315.944,355.617 316.5,356C 314.093,358.183 311.76,360.35 309.5,362.5C 305.704,366.798 301.704,370.964 297.5,375C 295.565,374.942 293.898,374.109 292.5,372.5C 291.167,370.5 289.5,368.833 287.5,367.5C 286.5,365.833 285.167,364.5 283.5,363.5C 283.5,362.833 283.167,362.5 282.5,362.5C 280.5,360.167 278.5,357.833 276.5,355.5C 277.833,354.833 278.833,353.833 279.5,352.5C 285.018,347.481 290.351,342.315 295.5,337C 296.5,336.333 297.5,336.333 298.5,337C 299.373,338.045 300.373,338.878 301.5,339.5 Z"/></g>
<g><path style="opacity:1" fill="#a29b96" d="M 89.5,337.5 C 91.9806,337.323 93.8139,338.323 95,340.5C 97.2429,346.381 96.9096,352.048 94,357.5C 90.0567,359.251 87.7234,357.918 87,353.5C 85.8345,347.753 86.6678,342.419 89.5,337.5 Z"/></g>
<g><path style="opacity:1" fill="#e7b624" d="M 463.5,320.5 C 465.288,320.215 466.955,320.548 468.5,321.5C 467.465,323.128 467.465,324.795 468.5,326.5C 463.818,328.248 462.318,331.581 464,336.5C 467.026,339.864 470.526,340.364 474.5,338C 477.738,333.017 476.738,329.183 471.5,326.5C 471.065,324.703 471.065,322.703 471.5,320.5C 475.521,320.244 476.854,321.91 475.5,325.5C 477.347,326.83 478.847,326.497 480,324.5C 480.383,325.056 480.883,325.389 481.5,325.5C 486.937,334.667 484.771,341.667 475,346.5C 464.249,348.541 457.749,344.208 455.5,333.5C 455.718,327.624 458.385,323.29 463.5,320.5 Z"/></g>
<g><path style="opacity:1" fill="#6f6e6b" d="M 468.5,326.5 C 469.5,326.5 470.5,326.5 471.5,326.5C 476.738,329.183 477.738,333.017 474.5,338C 470.526,340.364 467.026,339.864 464,336.5C 462.318,331.581 463.818,328.248 468.5,326.5 Z"/></g>
<g><path style="opacity:1" fill="#897d5f" d="M 580.5,339.5 C 581.5,339.5 582.5,339.5 583.5,339.5C 583.5,340.5 583.5,341.5 583.5,342.5C 582.5,342.5 581.5,342.5 580.5,342.5C 580.5,341.5 580.5,340.5 580.5,339.5 Z"/></g>
<g><path style="opacity:1" fill="#433f39" d="M 232.5,332.5 C 236.833,332.5 241.167,332.5 245.5,332.5C 243.5,334.167 241.5,335.833 239.5,337.5C 230.177,335.508 225.177,339.174 224.5,348.5C 219.877,353.491 214.21,354.824 207.5,352.5C 216.497,346.485 224.831,339.819 232.5,332.5 Z"/></g>
<g><path style="opacity:1" fill="#eb9e15" d="M 288.5,332.5 C 291.5,332.5 294.5,332.5 297.5,332.5C 290.446,339.204 282.78,345.204 274.5,350.5C 274.291,351.086 273.957,351.586 273.5,352C 275.473,352.495 277.473,352.662 279.5,352.5C 278.833,353.833 277.833,354.833 276.5,355.5C 274.396,355.799 272.396,355.466 270.5,354.5C 271.423,351.553 272.089,348.553 272.5,345.5C 273.338,345.158 273.672,344.492 273.5,343.5C 278.786,340.212 283.786,336.546 288.5,332.5 Z"/></g>
<g><path style="opacity:1" fill="#a8a197" d="M 321.5,335.5 C 321.833,335.5 322.167,335.5 322.5,335.5C 322.19,338.713 322.523,341.713 323.5,344.5C 324.619,355.343 326.286,366.009 328.5,376.5C 329.182,382.009 330.182,387.342 331.5,392.5C 331.451,395.374 331.784,398.208 332.5,401C 332.065,404.063 331.232,404.23 330,401.5C 328.239,390.948 326.073,380.614 323.5,370.5C 323.5,369.833 323.167,369.5 322.5,369.5C 321.409,362.532 320.409,355.532 319.5,348.5C 320.167,344.167 320.833,339.833 321.5,335.5 Z"/></g>
<g><path style="opacity:1" fill="#c7c6c5" d="M 79.5,360.5 C 76.3484,361.041 73.8484,360.041 72,357.5C 71.5007,352.511 71.3341,347.511 71.5,342.5C 69.1667,342.5 66.8333,342.5 64.5,342.5C 66.6979,341.835 69.0312,341.168 71.5,340.5C 72.8707,338.295 74.704,336.628 77,335.5C 82.3221,337.684 84.4888,341.684 83.5,347.5C 84.1525,352.537 82.8191,356.871 79.5,360.5 Z"/></g>
<g><path style="opacity:1" fill="#a19994" d="M 75.5,337.5 C 77.3904,337.297 78.8904,337.963 80,339.5C 81.9527,345.474 81.9527,351.474 80,357.5C 78,358.833 76,358.833 74,357.5C 71.5886,350.537 72.0886,343.871 75.5,337.5 Z"/></g>
<g><path style="opacity:1" fill="#e59b1a" d="M 321.5,334.5 C 321.5,334.833 321.5,335.167 321.5,335.5C 320.833,339.833 320.167,344.167 319.5,348.5C 318.698,349.952 318.198,351.618 318,353.5C 317.329,354.252 316.496,354.586 315.5,354.5C 314.139,352.473 312.473,350.806 310.5,349.5C 313.171,347.066 316.004,344.733 319,342.5C 319.546,339.621 320.379,336.954 321.5,334.5 Z"/></g>
<g><path style="opacity:1" fill="#424240" d="M 297.5,332.5 C 301.833,332.5 306.167,332.5 310.5,332.5C 307.681,335.075 304.681,337.408 301.5,339.5C 300.373,338.878 299.373,338.045 298.5,337C 297.5,336.333 296.5,336.333 295.5,337C 290.351,342.315 285.018,347.481 279.5,352.5C 277.473,352.662 275.473,352.495 273.5,352C 273.957,351.586 274.291,351.086 274.5,350.5C 282.78,345.204 290.446,339.204 297.5,332.5 Z"/></g>
<g><path style="opacity:1" fill="#b4bdc4" d="M 295.5,370.5 C 289.758,366.265 284.425,361.432 279.5,356C 285.015,350.318 290.681,344.818 296.5,339.5C 302.319,344.818 307.985,350.318 313.5,356C 308.167,361.333 302.833,366.667 297.5,372C 296.184,372.528 295.517,372.028 295.5,370.5 Z"/></g>
<g><path style="opacity:1" fill="#edeeee" d="M 295.5,370.5 C 290.991,365.824 286.657,360.991 282.5,356C 286.636,350.697 291.303,345.863 296.5,341.5C 301.652,346.152 306.652,350.985 311.5,356C 308.984,358.683 306.317,361.183 303.5,363.5C 303.163,357.765 301.663,352.432 299,347.5C 296.861,346.231 294.695,346.231 292.5,347.5C 291.24,350.055 289.906,352.555 288.5,355C 289.211,356.255 290.044,357.421 291,358.5C 291.827,357.338 292.66,356.171 293.5,355C 291.557,348.604 293.39,347.104 299,350.5C 298.959,355.725 299.792,360.725 301.5,365.5C 300.069,367.938 298.069,369.604 295.5,370.5 Z"/></g>
<g><path style="opacity:1" fill="#efdbaa" d="M 319.5,348.5 C 320.409,355.532 321.409,362.532 322.5,369.5C 320.5,369.5 318.5,369.5 316.5,369.5C 316.841,373.16 316.175,376.493 314.5,379.5C 314.674,377.139 315.007,374.806 315.5,372.5C 316.112,369.304 316.112,366.304 315.5,363.5C 313.735,362.539 311.735,362.205 309.5,362.5C 311.76,360.35 314.093,358.183 316.5,356C 315.944,355.617 315.611,355.117 315.5,354.5C 316.496,354.586 317.329,354.252 318,353.5C 318.198,351.618 318.698,349.952 319.5,348.5 Z"/></g>
<g><path style="opacity:1" fill="#f9e5b7" d="M 272.5,345.5 C 272.089,348.553 271.423,351.553 270.5,354.5C 272.396,355.466 274.396,355.799 276.5,355.5C 278.5,357.833 280.5,360.167 282.5,362.5C 276.764,361.555 271.764,362.889 267.5,366.5C 267.337,364.143 267.503,361.81 268,359.5C 269.198,354.599 270.698,349.932 272.5,345.5 Z"/></g>
<g><path style="opacity:1" fill="#f2811c" d="M 182.5,359.5 C 182.5,361.5 182.5,363.5 182.5,365.5C 179.833,365.5 177.167,365.5 174.5,365.5C 174.366,363.708 174.699,362.042 175.5,360.5C 175.759,356.932 177.759,355.599 181.5,356.5C 181.263,357.791 181.596,358.791 182.5,359.5 Z"/></g>
<g><path style="opacity:1" fill="#cbd8e1" d="M 239.5,337.5 C 242.833,337.5 246.167,337.5 249.5,337.5C 253.5,337.5 257.5,337.5 261.5,337.5C 264.5,337.5 267.5,337.5 270.5,337.5C 272.025,339.216 273.025,341.216 273.5,343.5C 273.672,344.492 273.338,345.158 272.5,345.5C 270.698,349.932 269.198,354.599 268,359.5C 267.503,361.81 267.337,364.143 267.5,366.5C 266.434,372.549 262.768,375.215 256.5,374.5C 253.167,374.5 249.833,374.5 246.5,374.5C 242.833,374.5 239.167,374.5 235.5,374.5C 231.833,374.5 228.167,374.5 224.5,374.5C 222.065,373.73 220.731,372.063 220.5,369.5C 220.5,367.5 220.5,365.5 220.5,363.5C 223.186,359.803 224.519,355.47 224.5,350.5C 224.5,349.833 224.5,349.167 224.5,348.5C 225.177,339.174 230.177,335.508 239.5,337.5 Z"/></g>
<g><path style="opacity:1" fill="#f2e8ca" d="M 224.5,350.5 C 224.519,355.47 223.186,359.803 220.5,363.5C 220.158,362.662 219.492,362.328 218.5,362.5C 216.656,360.721 215.99,358.388 216.5,355.5C 218.527,355.662 220.527,355.495 222.5,355C 223.099,353.378 223.766,351.878 224.5,350.5 Z"/></g>
<g><path style="opacity:1" fill="#3f3f3f" d="M 212.5,355.5 C 213.833,355.5 215.167,355.5 216.5,355.5C 215.99,358.388 216.656,360.721 218.5,362.5C 214.087,367.21 209.087,371.21 203.5,374.5C 203.705,371.012 204.539,367.679 206,364.5C 207.508,362.162 209.675,361.162 212.5,361.5C 212.5,359.5 212.5,357.5 212.5,355.5 Z"/></g>
<g><path style="opacity:1" fill="#3f3f3e" d="M 315.5,363.5 C 316.112,366.304 316.112,369.304 315.5,372.5C 311.196,375.657 306.863,378.824 302.5,382C 298.5,382.667 294.5,382.667 290.5,382C 298.711,375.616 307.044,369.449 315.5,363.5 Z"/></g>
<g><path style="opacity:1" fill="#605b56" d="M 174.5,365.5 C 177.167,365.5 179.833,365.5 182.5,365.5C 183.458,367.302 184.125,369.302 184.5,371.5C 180.5,371.5 176.5,371.5 172.5,371.5C 172.595,369.214 173.262,367.214 174.5,365.5 Z"/></g>
<g><path style="opacity:1" fill="#fefdfb" d="M 187.5,381.5 C 187.167,380.167 186.833,378.833 186.5,377.5C 186.104,374.956 186.771,372.789 188.5,371C 192.375,369.48 196.375,369.146 200.5,370C 198.126,372.039 196.126,374.372 194.5,377C 192.266,378.75 189.932,380.25 187.5,381.5 Z"/></g>
<g><path style="opacity:1" fill="#fcf9f3" d="M 322.5,369.5 C 323.167,369.5 323.5,369.833 323.5,370.5C 320.188,375.113 317.354,380.113 315,385.5C 314.51,384.207 314.343,382.873 314.5,381.5C 314.5,380.833 314.5,380.167 314.5,379.5C 316.175,376.493 316.841,373.16 316.5,369.5C 318.5,369.5 320.5,369.5 322.5,369.5 Z"/></g>
<g><path style="opacity:1" fill="#fefdfb" d="M 331.5,392.5 C 330.182,387.342 329.182,382.009 328.5,376.5C 329.933,374.481 331.267,372.314 332.5,370C 335.817,369.502 339.15,369.335 342.5,369.5C 340.134,377.895 336.467,385.562 331.5,392.5 Z"/></g>
<g><path style="opacity:1" fill="#fffefb" d="M 358.5,383.5 C 355.829,385.773 354.495,388.773 354.5,392.5C 350.833,392.5 347.167,392.5 343.5,392.5C 346.042,385.09 348.875,377.757 352,370.5C 355.394,369.544 358.894,369.211 362.5,369.5C 361.779,374.332 360.445,378.998 358.5,383.5 Z"/></g>
<g><path style="opacity:1" fill="#fffefc" d="M 372.5,369.5 C 375.833,369.5 379.167,369.5 382.5,369.5C 381.428,377.33 379.762,384.997 377.5,392.5C 373.5,392.5 369.5,392.5 365.5,392.5C 366.84,384.485 369.173,376.818 372.5,369.5 Z"/></g>
<g><path style="opacity:1" fill="#fffefb" d="M 391.5,369.5 C 395.167,369.5 398.833,369.5 402.5,369.5C 401.226,377.087 400.226,384.754 399.5,392.5C 395.5,392.5 391.5,392.5 387.5,392.5C 388.576,384.788 389.909,377.121 391.5,369.5 Z"/></g>
<g><path style="opacity:1" fill="#fffefc" d="M 411.5,369.5 C 415.167,369.5 418.833,369.5 422.5,369.5C 422.404,377.179 422.07,384.846 421.5,392.5C 417.5,392.5 413.5,392.5 409.5,392.5C 410.167,384.833 410.833,377.167 411.5,369.5 Z"/></g>
<g><path style="opacity:1" fill="#fffefb" d="M 431.5,369.5 C 435.5,369.5 439.5,369.5 443.5,369.5C 443.5,377.167 443.5,384.833 443.5,392.5C 439.5,392.5 435.5,392.5 431.5,392.5C 431.5,384.833 431.5,377.167 431.5,369.5 Z"/></g>
<g><path style="opacity:1" fill="#fffefc" d="M 452.5,369.5 C 456.167,369.5 459.833,369.5 463.5,369.5C 464.167,377.167 464.833,384.833 465.5,392.5C 461.5,392.5 457.5,392.5 453.5,392.5C 452.793,384.854 452.46,377.187 452.5,369.5 Z"/></g>
<g><path style="opacity:1" fill="#fffefc" d="M 472.5,369.5 C 476.167,369.5 479.833,369.5 483.5,369.5C 484.678,377.208 486.011,384.875 487.5,392.5C 483.5,392.5 479.5,392.5 475.5,392.5C 474.593,384.816 473.593,377.15 472.5,369.5 Z"/></g>
<g><path style="opacity:1" fill="#fffefd" d="M 492.5,369.5 C 496.226,369.177 499.893,369.511 503.5,370.5C 505.819,377.777 507.819,385.11 509.5,392.5C 505.5,392.5 501.5,392.5 497.5,392.5C 496.307,384.73 494.641,377.063 492.5,369.5 Z"/></g>
<g><path style="opacity:1" fill="#fffefc" d="M 512.5,369.5 C 516.226,369.177 519.893,369.511 523.5,370.5C 526.744,377.648 529.411,384.982 531.5,392.5C 527.774,392.823 524.107,392.489 520.5,391.5C 517.616,384.175 514.949,376.841 512.5,369.5 Z"/></g>
<g><path style="opacity:1" fill="#fffefc" d="M 532.5,369.5 C 536.226,369.177 539.893,369.511 543.5,370.5C 546.897,377.626 550.563,384.626 554.5,391.5C 550.541,392.66 546.541,392.827 542.5,392C 539.057,384.488 535.724,376.988 532.5,369.5 Z"/></g>
<g><path style="opacity:1" fill="#fffefb" d="M 552.5,369.5 C 556.226,369.177 559.893,369.511 563.5,370.5C 568.084,377.332 572.417,384.332 576.5,391.5C 572.541,392.66 568.541,392.827 564.5,392C 561.961,386.416 558.794,381.249 555,376.5C 554.153,374.146 553.32,371.812 552.5,369.5 Z"/></g>
<g><path style="opacity:1" fill="#eb7d1d" d="M 172.5,371.5 C 176.5,371.5 180.5,371.5 184.5,371.5C 185.461,373.265 185.795,375.265 185.5,377.5C 180.595,378.445 175.595,378.779 170.5,378.5C 170.767,376.035 171.434,373.701 172.5,371.5 Z"/></g>
<g><path style="opacity:1" fill="#605a56" d="M 185.5,377.5 C 185.833,377.5 186.167,377.5 186.5,377.5C 186.833,378.833 187.167,380.167 187.5,381.5C 187.5,381.833 187.5,382.167 187.5,382.5C 187.5,382.833 187.5,383.167 187.5,383.5C 185.153,385.044 182.486,385.711 179.5,385.5C 176.145,385.276 172.812,384.943 169.5,384.5C 169.517,382.435 169.85,380.435 170.5,378.5C 175.595,378.779 180.595,378.445 185.5,377.5 Z"/></g>
<g><path style="opacity:1" fill="#f78011" d="M 149.5,392.5 C 145.5,392.5 141.5,392.5 137.5,392.5C 138.808,388.6 139.808,384.6 140.5,380.5C 142.604,380.201 144.604,380.534 146.5,381.5C 147.881,385.075 148.881,388.742 149.5,392.5 Z"/></g>
<g><path style="opacity:1" fill="#fffefc" d="M 192.5,390.5 C 193.949,386.528 196.449,383.194 200,380.5C 200.494,382.134 200.66,383.801 200.5,385.5C 202.527,385.338 204.527,385.505 206.5,386C 203.833,387.333 201.833,389.333 200.5,392C 197.479,392.867 194.812,392.367 192.5,390.5 Z"/></g>
<g><path style="opacity:1" fill="#e0980c" d="M 218.5,362.5 C 219.492,362.328 220.158,362.662 220.5,363.5C 220.5,365.5 220.5,367.5 220.5,369.5C 214.863,373.657 209.196,377.824 203.5,382C 212.417,384.53 219.417,382.03 224.5,374.5C 228.167,374.5 231.833,374.5 235.5,374.5C 232.068,376.752 228.734,379.252 225.5,382C 229.5,382.667 233.5,382.667 237.5,382C 240.69,379.636 243.69,377.136 246.5,374.5C 249.833,374.5 253.167,374.5 256.5,374.5C 253.571,376.982 250.571,379.482 247.5,382C 251.167,382.667 254.833,382.667 258.5,382C 266.863,375.824 275.196,369.658 283.5,363.5C 285.167,364.5 286.5,365.833 287.5,367.5C 281.043,372.117 274.71,376.951 268.5,382C 272.5,382.667 276.5,382.667 280.5,382C 284.663,379 288.663,375.833 292.5,372.5C 293.898,374.109 295.565,374.942 297.5,375C 301.704,370.964 305.704,366.798 309.5,362.5C 311.735,362.205 313.735,362.539 315.5,363.5C 307.044,369.449 298.711,375.616 290.5,382C 294.5,382.667 298.5,382.667 302.5,382C 306.863,378.824 311.196,375.657 315.5,372.5C 315.007,374.806 314.674,377.139 314.5,379.5C 314.5,380.167 314.5,380.833 314.5,381.5C 313.596,382.209 313.263,383.209 313.5,384.5C 311.167,384.5 308.833,384.5 306.5,384.5C 281.5,384.5 256.5,384.5 231.5,384.5C 224.833,384.5 218.167,384.5 211.5,384.5C 210.5,384.5 209.5,384.5 208.5,384.5C 206.167,384.5 203.833,384.5 201.5,384.5C 201.06,380.821 201.727,377.488 203.5,374.5C 209.087,371.21 214.087,367.21 218.5,362.5 Z"/></g>
<g><path style="opacity:1" fill="#373938" d="M 235.5,374.5 C 239.167,374.5 242.833,374.5 246.5,374.5C 243.69,377.136 240.69,379.636 237.5,382C 233.5,382.667 229.5,382.667 225.5,382C 228.734,379.252 232.068,376.752 235.5,374.5 Z"/></g>
<g><path style="opacity:1" fill="#3e3f3e" d="M 220.5,369.5 C 220.731,372.063 222.065,373.73 224.5,374.5C 219.417,382.03 212.417,384.53 203.5,382C 209.196,377.824 214.863,373.657 220.5,369.5 Z"/></g>
<g><path style="opacity:1" fill="#42413d" d="M 287.5,367.5 C 289.5,368.833 291.167,370.5 292.5,372.5C 288.663,375.833 284.663,379 280.5,382C 276.5,382.667 272.5,382.667 268.5,382C 274.71,376.951 281.043,372.117 287.5,367.5 Z"/></g>
<g><path style="opacity:1" fill="#3f3f3e" d="M 282.5,362.5 C 283.167,362.5 283.5,362.833 283.5,363.5C 275.196,369.658 266.863,375.824 258.5,382C 254.833,382.667 251.167,382.667 247.5,382C 250.571,379.482 253.571,376.982 256.5,374.5C 262.768,375.215 266.434,372.549 267.5,366.5C 271.764,362.889 276.764,361.555 282.5,362.5 Z"/></g>
<g><path style="opacity:1" fill="#fec526" d="M 168.5,383.5 C 167.218,384.708 167.218,386.042 168.5,387.5C 172.201,389.903 176.201,390.737 180.5,390C 183.096,388.864 185.763,388.031 188.5,387.5C 188.567,386.041 188.234,384.708 187.5,383.5C 187.5,383.167 187.5,382.833 187.5,382.5C 188.496,382.414 189.329,382.748 190,383.5C 190.698,386.004 191.531,388.337 192.5,390.5C 192.5,391.5 192.5,392.5 192.5,393.5C 182.478,393.832 172.478,393.499 162.5,392.5C 163.708,388.878 164.708,385.211 165.5,381.5C 167.179,381.285 168.179,381.952 168.5,383.5 Z"/></g>
<g><path style="opacity:1" fill="#fefefb" d="M 210.5,392.5 C 210.5,391.833 210.5,391.167 210.5,390.5C 212.25,389.258 213.917,387.758 215.5,386C 219.5,385.333 223.5,385.333 227.5,386C 225.457,387.708 223.79,389.708 222.5,392C 218.514,392.499 214.514,392.666 210.5,392.5 Z"/></g>
<g><path style="opacity:1" fill="#f38425" d="M 358.5,383.5 C 359.833,383.5 361.167,383.5 362.5,383.5C 363.167,387.167 363.833,390.833 364.5,394.5C 361.167,394.5 357.833,394.5 354.5,394.5C 354.5,393.833 354.5,393.167 354.5,392.5C 354.495,388.773 355.829,385.773 358.5,383.5 Z"/></g>
<g><path style="opacity:1" fill="#ec8218" d="M 168.5,383.5 C 168.5,384.167 168.833,384.5 169.5,384.5C 172.812,384.943 176.145,385.276 179.5,385.5C 182.486,385.711 185.153,385.044 187.5,383.5C 188.234,384.708 188.567,386.041 188.5,387.5C 185.763,388.031 183.096,388.864 180.5,390C 176.201,390.737 172.201,389.903 168.5,387.5C 167.218,386.042 167.218,384.708 168.5,383.5 Z"/></g>
<g><path style="opacity:1" fill="#cbbca0" d="M 231.5,384.5 C 256.5,384.5 281.5,384.5 306.5,384.5C 306.706,387.495 306.04,390.162 304.5,392.5C 304.318,390.409 304.652,388.409 305.5,386.5C 304.641,385.226 303.974,385.392 303.5,387C 302.895,392.372 301.895,397.539 300.5,402.5C 300.556,396.885 301.223,391.385 302.5,386C 298.848,385.501 295.182,385.335 291.5,385.5C 287.5,385.5 283.5,385.5 279.5,385.5C 276.5,385.5 273.5,385.5 270.5,385.5C 266.5,385.5 262.5,385.5 258.5,385.5C 255.167,385.5 251.833,385.5 248.5,385.5C 244.818,385.335 241.152,385.501 237.5,386C 235.771,387.789 235.104,389.956 235.5,392.5C 236.283,396.146 236.45,399.812 236,403.5C 233.772,397.363 232.272,391.029 231.5,384.5 Z"/></g>
<g><path style="opacity:1" fill="#fffefc" d="M 279.5,385.5 C 283.5,385.5 287.5,385.5 291.5,385.5C 288.789,392.44 283.789,394.44 276.5,391.5C 277.559,389.466 278.559,387.466 279.5,385.5 Z"/></g>
<g><path style="opacity:1" fill="#fffefc" d="M 258.5,385.5 C 262.5,385.5 266.5,385.5 270.5,385.5C 268.721,387.546 267.054,389.713 265.5,392C 261.5,392.667 257.5,392.667 253.5,392C 255.054,389.713 256.721,387.546 258.5,385.5 Z"/></g>
<g><path style="opacity:1" fill="#fdfdfc" d="M 248.5,385.5 C 246.302,391.682 241.969,394.015 235.5,392.5C 235.104,389.956 235.771,387.789 237.5,386C 241.152,385.501 244.818,385.335 248.5,385.5 Z"/></g>
<g><path style="opacity:1" fill="#464544" d="M 208.5,384.5 C 209.5,384.5 210.5,384.5 211.5,384.5C 211.483,386.565 211.15,388.565 210.5,390.5C 210.5,391.167 210.5,391.833 210.5,392.5C 208.92,397.947 207.754,403.614 207,409.5C 205.768,412.23 204.935,412.063 204.5,409C 205.881,400.828 207.215,392.662 208.5,384.5 Z"/></g>
<g><path style="opacity:1" fill="#635c57" d="M 354.5,394.5 C 357.833,394.5 361.167,394.5 364.5,394.5C 365.369,396.717 365.702,399.05 365.5,401.5C 361.167,401.5 356.833,401.5 352.5,401.5C 352.171,398.772 352.837,396.438 354.5,394.5 Z"/></g>
<g><path style="opacity:1" fill="#6c625a" d="M 137.5,392.5 C 141.5,392.5 145.5,392.5 149.5,392.5C 151.673,395.222 152.006,398.222 150.5,401.5C 145.167,401.5 139.833,401.5 134.5,401.5C 135.265,398.33 136.265,395.33 137.5,392.5 Z"/></g>
<g><path style="opacity:1" fill="#f17f1a" d="M 134.5,401.5 C 139.833,401.5 145.167,401.5 150.5,401.5C 152.693,403.522 153.693,406.189 153.5,409.5C 146.47,410.8 139.47,410.8 132.5,409.5C 132.56,406.659 133.226,403.993 134.5,401.5 Z"/></g>
<g><path style="opacity:1" fill="#f07d16" d="M 352.5,401.5 C 356.833,401.5 361.167,401.5 365.5,401.5C 366.924,403.515 367.59,405.848 367.5,408.5C 361.812,409.716 356.145,409.716 350.5,408.5C 350.41,405.848 351.076,403.515 352.5,401.5 Z"/></g>
<g><path style="opacity:1" fill="#1a1c26" d="M 304.5,392.5 C 303.196,398.12 302.029,403.787 301,409.5C 300.503,407.19 300.337,404.857 300.5,402.5C 301.895,397.539 302.895,392.372 303.5,387C 303.974,385.392 304.641,385.226 305.5,386.5C 304.652,388.409 304.318,390.409 304.5,392.5 Z"/></g>
<g><path style="opacity:1" fill="#575656" d="M 350.5,408.5 C 356.145,409.716 361.812,409.716 367.5,408.5C 368.219,410.764 368.552,413.097 368.5,415.5C 361.826,416.783 355.159,416.783 348.5,415.5C 348.5,414.5 348.5,413.5 348.5,412.5C 349.167,411.167 349.833,409.833 350.5,408.5 Z"/></g>
<g><path style="opacity:1" fill="#625a56" d="M 132.5,409.5 C 139.47,410.8 146.47,410.8 153.5,409.5C 154.537,410.93 155.204,412.597 155.5,414.5C 155.5,415.5 155.5,416.5 155.5,417.5C 148.118,420.697 140.451,421.197 132.5,419C 131.244,418.583 130.577,417.75 130.5,416.5C 130.5,415.833 130.5,415.167 130.5,414.5C 131.024,412.694 131.691,411.028 132.5,409.5 Z"/></g>
<g><path style="opacity:1" fill="#fdc112" d="M 130.5,414.5 C 130.5,415.167 130.5,415.833 130.5,416.5C 129.207,418.364 129.207,420.364 130.5,422.5C 138.929,426.657 147.263,426.491 155.5,422C 156.801,420.384 156.801,418.884 155.5,417.5C 155.5,416.5 155.5,415.5 155.5,414.5C 156.5,414.5 157.5,414.5 158.5,414.5C 159.975,419.4 160.975,424.4 161.5,429.5C 148.5,429.5 135.5,429.5 122.5,429.5C 123.803,424.56 124.803,419.56 125.5,414.5C 127.167,414.5 128.833,414.5 130.5,414.5 Z"/></g>
<g><path style="opacity:1" fill="#fdc322" d="M 348.5,412.5 C 348.5,413.5 348.5,414.5 348.5,415.5C 347.209,416.542 347.209,417.708 348.5,419C 354.353,421.876 360.353,422.21 366.5,420C 368.439,419.092 369.439,417.592 369.5,415.5C 369.5,414.5 369.5,413.5 369.5,412.5C 370.5,412.5 371.5,412.5 372.5,412.5C 373.646,416.754 374.313,421.087 374.5,425.5C 363.5,425.5 352.5,425.5 341.5,425.5C 342.184,421.429 343.184,417.429 344.5,413.5C 345.689,412.571 347.022,412.238 348.5,412.5 Z"/></g>
<g><path style="opacity:1" fill="#f28113" d="M 348.5,415.5 C 355.159,416.783 361.826,416.783 368.5,415.5C 368.833,415.5 369.167,415.5 369.5,415.5C 369.439,417.592 368.439,419.092 366.5,420C 360.353,422.21 354.353,421.876 348.5,419C 347.209,417.708 347.209,416.542 348.5,415.5 Z"/></g>
<g><path style="opacity:1" fill="#f4800f" d="M 130.5,416.5 C 130.577,417.75 131.244,418.583 132.5,419C 140.451,421.197 148.118,420.697 155.5,417.5C 156.801,418.884 156.801,420.384 155.5,422C 147.263,426.491 138.929,426.657 130.5,422.5C 129.207,420.364 129.207,418.364 130.5,416.5 Z"/></g>
</svg>
