<svg width="52" height="52" viewBox="0 0 52 52" fill="none" xmlns="http://www.w3.org/2000/svg">
<g id="Frame">
<g id="Group">
<path id="Vector" d="M43.3334 23.8335C43.0518 23.8335 42.7744 23.7228 42.5674 23.5161L38.5516 19.5H32.5C31.901 19.5 31.4165 19.0148 31.4165 18.4165C31.4165 17.8186 31.901 17.3335 32.5 17.3335H39C39.288 17.3335 39.5633 17.4469 39.7661 17.6509L42.25 20.1348V18.4165C42.25 17.8186 42.7344 17.3335 43.3334 17.3335H44.4165C45.0147 17.3335 45.5 16.847 45.5 16.25V3.25C45.5 2.65291 45.0148 2.16653 44.4165 2.16653H21.6665C21.0698 2.16653 20.5834 2.65302 20.5834 3.25V16.25C20.5834 16.8471 21.0698 17.3335 21.6665 17.3335H23.8334C24.4313 17.3335 24.9165 17.8186 24.9165 18.4165C24.9165 19.0147 24.4313 19.5 23.8334 19.5H21.6665C19.8749 19.5 18.4165 18.0421 18.4165 16.25V3.25C18.4165 1.45793 19.8749 0 21.6665 0H44.4165C46.2086 0 47.6665 1.45793 47.6665 3.25V16.25C47.6665 18.0421 46.2086 19.5 44.4165 19.5V22.75C44.4165 23.1876 44.1535 23.5831 43.7484 23.7509C43.614 23.806 43.4731 23.8335 43.3334 23.8335Z" fill="#EAB308"/>
<path id="Vector_2" d="M4.33347 28.1666C4.19341 28.1666 4.05255 28.1408 3.91848 28.0844C3.72063 28.0023 3.55154 27.8634 3.43256 27.6853C3.31358 27.5071 3.25006 27.2977 3.25 27.0835V23.8335C1.45793 23.8335 0 22.3751 0 20.5835V7.5835C0 5.79143 1.45793 4.3335 3.25 4.3335H15.1665C15.7647 4.3335 16.25 4.81866 16.25 5.41656C16.25 6.01476 15.7648 6.50003 15.1665 6.50003H3.25C2.65291 6.50003 2.16653 6.98651 2.16653 7.5835V20.5835C2.16653 21.1802 2.65302 21.6666 3.25 21.6666H4.33347C4.93137 21.6666 5.41653 22.1521 5.41653 22.75V24.4683L7.90085 21.9839C8.00131 21.8832 8.12066 21.8034 8.25205 21.7489C8.38344 21.6944 8.5243 21.6665 8.66653 21.6666H26C26.5979 21.6666 27.0835 21.1802 27.0835 20.5835V7.5835C27.0835 6.98641 26.5979 6.50003 26 6.50003H23.8335C23.2353 6.50003 22.75 6.01486 22.75 5.41656C22.75 4.81866 23.2352 4.3335 23.8335 4.3335H26C27.7921 4.3335 29.25 5.79143 29.25 7.5835V20.5835C29.25 22.3751 27.7921 23.8335 26 23.8335H9.11523L5.09915 27.8492C4.99864 27.9498 4.87928 28.0296 4.7479 28.0841C4.61652 28.1385 4.47569 28.1666 4.33347 28.1666ZM9.75 41.1666C6.76345 41.1666 4.33347 38.7366 4.33347 35.75V33.5835C4.33347 30.5965 6.76345 28.1666 9.75 28.1666C12.7365 28.1666 15.1665 30.5965 15.1665 33.5835V35.75C15.1665 38.7366 12.7365 41.1666 9.75 41.1666ZM9.75 30.3335C7.95793 30.3335 6.5 31.7914 6.5 33.5835V35.75C6.5 37.5421 7.95793 39 9.75 39C11.5421 39 13 37.5421 13 35.75V33.5835C13 31.7914 11.5421 30.3335 9.75 30.3335Z" fill="#E9ECEF"/>
<path id="Vector_3" d="M13.002 52H6.49797C2.84172 51.9988 0.418134 49.6176 0.317384 49.5161C0.216619 49.4156 0.136706 49.2962 0.0822388 49.1647C0.0277715 49.0332 -0.000176596 48.8923 8.39595e-07 48.75V44.9962C8.39595e-07 44.2681 0.360548 43.5945 0.96647 43.1926L6.5 39.5038V39H8.66653V40.0834C8.66653 40.4452 8.48565 40.7832 8.18452 40.9848L2.16653 44.9961V48.2549C2.81674 48.7683 4.4136 49.8322 6.49878 49.8334H13.002C15.107 49.8322 16.6888 48.7726 17.3335 48.2592V44.9961L11.3155 40.9848C11.1673 40.8857 11.0457 40.7517 10.9617 40.5944C10.8776 40.4372 10.8336 40.2617 10.8335 40.0834V39H13V39.5037L18.536 43.1935C18.8329 43.3912 19.0763 43.6592 19.2445 43.9737C19.4127 44.2883 19.5005 44.6395 19.5 44.9962V48.75C19.5 49.038 19.3862 49.3133 19.1826 49.5161C19.0819 49.6176 16.6575 51.9988 13.002 52ZM37.9165 41.1665C34.93 41.1665 32.5 38.7365 32.5 35.75V33.5834C32.5 30.5965 34.93 28.1665 37.9165 28.1665C40.9035 28.1665 43.3335 30.5965 43.3335 33.5834V35.75C43.3335 38.7365 40.9035 41.1665 37.9165 41.1665ZM37.9165 30.3334C36.125 30.3334 34.6665 31.7914 34.6665 33.5834V35.75C34.6665 37.542 36.125 39 37.9165 39C39.7086 39 41.1665 37.542 41.1665 35.75V33.5834C41.1665 31.7914 39.7086 30.3334 37.9165 30.3334Z" fill="#E9ECEF"/>
<path id="Vector_4" d="M41.1688 52H34.6646C31.0083 51.9988 28.5859 49.6176 28.4839 49.5161C28.3831 49.4156 28.3032 49.2962 28.2487 49.1647C28.1943 49.0332 28.1663 48.8923 28.1665 48.75V44.9962C28.1658 44.639 28.2538 44.2871 28.4227 43.9723C28.5916 43.6575 28.8361 43.3896 29.1341 43.1926L34.6665 39.5038V39H36.8334V40.0834C36.8334 40.4452 36.6526 40.7832 36.3514 40.9848L30.3334 44.9961V48.2549C30.9832 48.7694 32.5801 49.8322 34.6645 49.8334H41.1688C43.2735 49.8322 44.8553 48.7726 45.5 48.2592V44.9961L39.482 40.9848C39.3338 40.8857 39.2122 40.7517 39.1282 40.5944C39.0441 40.4372 39.0001 40.2617 39 40.0834V39H41.1665V39.5037L46.7013 43.1935C46.9984 43.391 47.242 43.659 47.4104 43.9736C47.5788 44.2881 47.6668 44.6394 47.6665 44.9962V48.75C47.6665 49.038 47.5531 49.3133 47.3491 49.5161C47.2476 49.6176 44.8251 51.9988 41.1688 52ZM22.75 28.1665H24.9165V30.3334H22.75V28.1665ZM18.4165 28.1665H20.5834V30.3334H18.4165V28.1665ZM27.0834 28.1665H29.25V30.3334H27.0834V28.1665Z" fill="#E9ECEF"/>
</g>
</g>
</svg>
