<svg width="52" height="52" viewBox="0 0 52 52" fill="none" xmlns="http://www.w3.org/2000/svg">
<g id="Frame" clipPath="url(#clip0_126_665)">
<g id="Group">
<path id="Vector" d="M17.6958 32.3421H14.6466C13.6967 32.3421 12.924 31.5697 12.924 30.6196V28.9199C12.924 28.8196 12.8529 28.7326 12.7478 28.7037C11.6883 28.4147 10.67 27.9917 9.71762 27.4449C9.63109 27.3953 9.52912 27.4052 9.46443 27.4699L8.25045 28.6839C8.09088 28.8443 7.90106 28.9715 7.692 29.058C7.48294 29.1446 7.25878 29.1888 7.03251 29.1881C6.57274 29.1881 6.13988 29.0092 5.81458 28.6839L3.6584 26.5277C3.49793 26.3681 3.37069 26.1783 3.28405 25.9692C3.19741 25.7602 3.15308 25.536 3.15364 25.3097C3.15364 24.8495 3.333 24.4166 3.6584 24.0917L4.87197 22.8778C4.93697 22.8131 4.94693 22.7112 4.89696 22.6247C4.35049 21.6722 3.92763 20.6539 3.6386 19.5945C3.60955 19.4893 3.52272 19.4182 3.42227 19.4182H1.72272C0.772911 19.4182 0.00012207 18.6454 0.00012207 17.6957V14.6463C0.00012207 13.6965 0.773013 12.9237 1.72262 12.9237H3.42227C3.52272 12.9237 3.60955 12.8531 3.6386 12.7476C3.92772 11.6882 4.35068 10.67 4.89726 9.7175C4.94683 9.63097 4.93687 9.529 4.87228 9.46441L3.6584 8.25033C3.49788 8.09081 3.3706 7.90101 3.28396 7.69195C3.19731 7.48288 3.15302 7.2587 3.15364 7.03239C3.15364 6.57262 3.333 6.13976 3.6584 5.81445L5.81458 3.65828C6.13988 3.33288 6.57223 3.15402 7.03251 3.15402C7.49279 3.15402 7.92555 3.33287 8.25086 3.65859L9.46453 4.87226C9.52912 4.93685 9.63068 4.94681 9.71762 4.89724C10.67 4.35061 11.6881 3.92758 12.7474 3.63838C12.8534 3.60943 12.924 3.52259 12.924 3.42215V1.7226C12.924 0.772789 13.6968 0 14.6465 0H17.6958C18.6456 0 19.4184 0.772891 19.4184 1.7225V3.42215C19.4184 3.52259 19.4891 3.60943 19.5946 3.63797C20.6539 3.92739 21.672 4.35055 22.6244 4.89724C22.7112 4.94681 22.8128 4.93685 22.8779 4.87226L24.0915 3.65828C24.7647 2.98543 25.8546 2.98492 26.5277 3.65859L26.7558 3.8868C27.468 4.59845 26.3916 5.67684 25.6788 4.96387C25.5383 4.8425 25.3582 4.54614 25.1689 4.73576L23.955 5.94943C23.4059 6.49837 22.547 6.60908 21.8662 6.21837C21.0261 5.73634 20.1281 5.36318 19.1938 5.10788C18.429 4.89968 17.8945 4.20611 17.8945 3.42174V1.7226C17.8945 1.61271 17.8053 1.52344 17.6955 1.52344H14.6461C14.5934 1.52355 14.5429 1.54456 14.5056 1.58188C14.4684 1.6192 14.4474 1.66977 14.4474 1.7225V3.42215C14.4474 4.20652 13.913 4.89958 13.1481 5.10829C12.2137 5.36338 11.3156 5.7364 10.4754 6.21837C9.79491 6.60908 8.936 6.49837 8.38695 5.94933L7.17328 4.73566C7.15492 4.717 7.133 4.70224 7.10882 4.69224C7.08463 4.68224 7.05868 4.67721 7.03251 4.67746C6.99493 4.67746 6.94009 4.68731 6.89205 4.73576L4.73547 6.89193C4.71688 6.91027 4.70214 6.93214 4.69212 6.95627C4.68211 6.98039 4.67703 7.00627 4.67718 7.03239C4.67718 7.07007 4.68743 7.12522 4.73547 7.17326L5.94945 8.38723C6.4985 8.93628 6.6092 9.79489 6.21849 10.4757C5.73646 11.3159 5.36331 12.214 5.108 13.1484C4.8998 13.9132 4.20623 14.4473 3.42227 14.4473H1.72272C1.61283 14.4473 1.52356 14.5369 1.52356 14.6463V17.6956C1.52356 17.8055 1.61283 17.8948 1.72262 17.8948H3.42227C4.20633 17.8948 4.8997 18.4288 5.10841 19.1938C5.36232 20.1264 5.73607 21.0255 6.21849 21.8665C6.6092 22.5473 6.4985 23.4058 5.94945 23.9548L4.73578 25.1688C4.71708 25.1872 4.70229 25.2091 4.69229 25.2333C4.68229 25.2575 4.67729 25.2835 4.67758 25.3097C4.67758 25.347 4.68784 25.4021 4.73588 25.4505L6.89205 27.6063C6.96985 27.6841 7.09599 27.6845 7.17379 27.6063L8.38736 26.3927C8.9364 25.8437 9.79532 25.733 10.4761 26.1238C11.3162 26.6059 12.2142 26.979 13.1485 27.2342C13.9134 27.4425 14.4478 28.1361 14.4478 28.9203V30.6195C14.4478 30.7294 14.5371 30.8186 14.6466 30.8186H17.6958C17.8057 30.8186 17.8949 30.7294 17.8949 30.6196V28.9203C17.8949 28.136 18.4293 27.4426 19.1942 27.2342C20.1674 26.9692 20.5665 28.4391 19.595 28.7038C19.4894 28.7326 19.4184 28.8196 19.4184 28.9203V30.6195C19.4184 31.5693 18.6455 32.3421 17.6959 32.3421H17.6958Z" fill="#EAB308"/>
<path id="Vector_2" d="M8.99194 16.1711C8.99194 11.1342 14.0566 7.68148 18.7237 9.45963C19.6643 9.81866 19.1236 11.2425 18.181 10.8835C14.4977 9.47944 10.5151 12.2137 10.5151 16.1711C10.5151 19.3901 13.2263 22.0093 16.5088 21.8169C17.5125 21.7562 17.6065 23.2784 16.5985 23.3379C12.4594 23.5816 8.99194 20.2808 8.99194 16.1711Z" fill="#EAB308"/>
<path id="Vector_3" d="M42.1526 33.8254L34.4346 32.3246V30.4176C36.6019 28.9389 37.7754 26.845 38.0309 24.4933C39.156 24.404 40.0439 23.4602 40.0439 22.3128V20.7473C41.878 19.95 41.6304 17.2732 39.69 16.8217V16.2174C39.69 10.7851 35.286 6.3811 29.8539 6.3811H29.0292C23.5967 6.3811 19.1931 10.7851 19.1931 16.2171V16.8217C17.2535 17.2728 17.0043 19.9499 18.8392 20.7473V22.3128C18.8392 23.4602 19.727 24.404 20.8521 24.4934C21.0752 26.5451 22.0369 28.4232 23.5539 29.7293C23.8389 29.9754 24.1376 30.2052 24.4486 30.4176V32.3246L16.7305 33.8255C12.6586 34.6174 9.48474 36.9128 9.48474 41.1483V48.8961C9.48474 50.6102 10.8744 52 12.5887 52H46.2943C48.0087 52 49.3984 50.6103 49.3984 48.896V41.1483C49.3984 36.9267 46.244 34.6209 42.1525 33.8255L42.1526 33.8254ZM35.8124 34.1444C35.043 35.2631 34.2724 36.381 33.5007 37.498C33.1286 38.0372 32.4608 38.1058 32.1998 37.9495L30.9965 37.2279C32.17 36.5348 33.7938 35.3446 34.2866 33.8478L35.8124 34.1444ZM29.4414 36.3396C28.2846 35.7571 25.9783 34.3182 25.972 32.9583V31.2586C27.0675 31.732 28.2482 31.9762 29.4416 31.9762C30.6349 31.9762 31.8157 31.732 32.9111 31.2586V32.9523C32.9111 34.3146 30.5994 35.7567 29.4414 36.3396ZM20.7165 16.217C20.7165 13.0925 22.4494 10.365 25.0047 8.94546V9.90035C25.0047 10.9073 26.5282 10.9089 26.5282 9.90035V8.28885C27.2255 8.06856 27.949 7.94185 28.6796 7.91206V11.6785C28.6796 12.6854 30.2031 12.687 30.2031 11.6785V7.91196C30.9339 7.94179 31.6575 8.06853 32.3549 8.28885V9.90035C32.3549 10.9073 33.8783 10.9089 33.8783 9.90035V8.94546C36.4336 10.365 38.1666 13.0925 38.1666 16.2171V16.7678H20.7165V16.217ZM19.6635 18.2912H39.2195C39.9495 18.2912 39.9487 19.3945 39.2195 19.3945H19.6636C18.9332 19.3945 18.934 18.2912 19.6636 18.2912H19.6635ZM22.3272 23.722C22.323 23.5228 22.2408 23.3332 22.0985 23.1938C21.9561 23.0545 21.7647 22.9765 21.5655 22.9765C21.4385 22.9452 20.3622 23.1746 20.3622 22.3128V20.9184H38.5205V22.3128C38.5205 23.173 37.4155 22.9523 37.3172 22.9765C37.118 22.9766 36.9268 23.0547 36.7844 23.194C36.6421 23.3333 36.5599 23.5228 36.5555 23.722C36.5146 25.6263 35.7053 27.3949 34.3354 28.5748C31.4262 31.0798 27.4569 31.0802 24.5478 28.5748C23.1774 27.3949 22.368 25.6263 22.3272 23.722ZM24.5961 33.8478C25.0892 35.3446 26.7127 36.5348 27.8865 37.2278C26.6805 37.8737 26.7658 38.067 26.2179 38.0023C25.8771 37.9614 25.5712 37.7717 25.376 37.4893C24.6066 36.3749 23.838 35.26 23.0702 34.1444L24.5961 33.8478ZM15.8073 50.4766H12.5882C11.7155 50.4766 11.0077 49.7688 11.0077 48.896V41.1483C11.0077 38.8656 12.0446 37.2874 14.3196 36.1971C14.4115 36.6026 15.8073 40.3909 15.8073 45.6845V50.4766ZM28.6795 50.4766H17.3307V45.6845C17.3307 39.949 15.8827 36.2558 15.7403 35.6306C16.6297 35.335 15.9691 35.5627 21.4397 34.4615C23.0119 36.7463 25.946 41.009 27.6758 43.4676C28.3328 44.4011 28.6795 45.4977 28.6795 46.6391V50.4766ZM29.4413 43.4533C29.2886 43.1541 29.1151 42.8661 28.922 42.5912C28.3372 41.7604 27.5783 40.6702 26.7863 39.5272C27.0263 39.474 27.256 39.3824 27.4668 39.256L29.4412 38.0717L31.4161 39.256C31.6269 39.3825 31.8567 39.4741 32.0966 39.5272C31.3046 40.6695 30.5458 41.7596 29.961 42.5912C29.7676 42.866 29.5939 43.1541 29.4413 43.4533ZM47.8749 48.8961C47.8749 49.7688 47.1675 50.4766 46.2942 50.4766H43.0752V47.6027C43.0752 46.5958 41.5518 46.5942 41.5518 47.6027V50.4766H30.2031V46.6391C30.2031 45.4977 30.5502 44.4011 31.2068 43.468C32.1907 42.0695 36.2417 36.2237 37.4434 34.4614C42.9111 35.5623 42.2518 35.3346 43.1424 35.6306C43.0317 36.0991 41.7499 39.5828 41.5729 44.5244C41.5363 45.5338 43.0591 45.5833 43.0951 44.5793C43.2666 39.7971 44.4397 36.7201 44.563 36.1971C46.8379 37.2874 47.875 38.8656 47.875 41.1479L47.8749 48.8961Z" fill="#E9ECEF"/>
</g>
</g>
<defs>
<clipPath id="clip0_126_665">
<rect width="52" height="52" fill="white"/>
</clipPath>
</defs>
</svg>
