<svg width="80" height="80" viewBox="0 0 80 80" fill="none" xmlns="http://www.w3.org/2000/svg">
<g id="Frame">
<g id="Group">
<path id="Vector" d="M39.9976 2.49927C39.7082 2.4988 39.4276 2.59901 39.2039 2.78274C39.2039 2.78274 31.2526 9.37815 31.2526 20.0036C31.2526 20.6272 31.2715 21.2319 31.3046 21.8178C30.3822 22.5042 29.5888 23.3488 28.9612 24.3123C27.5675 26.4005 26.2493 29.7927 26.2493 35.0038C26.2493 36.3267 28.0305 36.7425 28.621 35.5613C28.621 35.5613 30.0667 32.6416 33.6763 31.6117C34.5125 33.4589 35.2542 34.5078 35.2542 34.5078C35.4905 34.8196 35.859 35.0038 36.2464 35.0038H43.7489C44.141 35.0038 44.5095 34.8149 44.7458 34.503C44.7458 34.503 45.4875 33.4589 46.3285 31.6069C49.938 32.6369 51.3837 35.5613 51.3837 35.5613C51.979 36.7425 53.7554 36.322 53.7554 35.0038C53.7554 29.7974 52.4373 26.4005 51.0435 24.3123C50.4154 23.3451 49.6203 22.4973 48.6955 21.8083C48.7285 21.2225 48.7521 20.6225 48.7521 19.9988C48.7521 9.37342 40.8008 2.78746 40.8008 2.78746C40.5769 2.60408 40.2965 2.50392 40.0071 2.50399H40.0024L39.9976 2.49927ZM39.9976 5.48516C40.4937 5.93871 41.5567 7.07731 42.6623 8.74506H37.333C38.4433 7.08204 39.5063 5.94343 39.9976 5.48516ZM16.3657 49.9994H4.99853V13.7483C4.99853 13.0302 5.54185 12.501 6.25525 12.501H28.7439C30.4494 12.5388 30.4494 9.99705 28.7439 9.99705H6.25525C5.26106 10.0008 4.30859 10.397 3.60515 11.0996C2.90171 11.8022 2.50424 12.7541 2.49927 13.7483V58.7492C2.49927 60.8044 4.20009 62.4957 6.25525 62.4957H73.7542C74.7463 62.4908 75.6964 62.0944 76.3979 61.3929C77.0995 60.6914 77.4958 59.7413 77.5007 58.7492V13.7483C77.4958 12.7562 77.0995 11.8061 76.3979 11.1046C75.6964 10.4031 74.7463 10.0067 73.7542 10.0018H51.2514C49.5506 9.96398 49.5506 12.501 51.2514 12.501H73.7542C74.4676 12.501 74.9968 13.0302 74.9968 13.7483V49.9994H63.6391C63.4437 48.8656 62.9907 47.7918 62.315 46.8607C61.6392 45.9296 60.7587 45.166 59.7414 44.6288C58.724 44.0916 57.5969 43.7951 56.4469 43.7621C55.2968 43.7292 54.1546 43.9606 53.1081 44.4387C52.6793 43.487 52.0578 42.6345 51.2828 41.9352C50.5079 41.2358 49.5963 40.7048 48.6057 40.3756C48.4599 40.3257 48.3061 40.3033 48.1521 40.3095C46.749 40.3614 46.4844 42.3268 47.8214 42.752C49.5081 43.3095 50.8215 44.7411 51.1664 46.5789C51.2071 46.7896 51.3014 46.9864 51.4401 47.1502C51.5788 47.314 51.7573 47.4395 51.9584 47.5144C52.1596 47.5894 52.3766 47.6114 52.5887 47.5782C52.8008 47.5451 53.0008 47.4581 53.1696 47.3254C53.8194 46.8068 54.589 46.4597 55.4079 46.3159C56.2267 46.1722 57.0686 46.2363 57.8562 46.5024C58.6438 46.7686 59.352 47.2282 59.9158 47.8392C60.4796 48.4502 60.881 49.193 61.0831 49.9994H18.9216C19.1234 49.1922 19.5248 48.4486 20.0889 47.8369C20.653 47.2253 21.3618 46.7652 22.1502 46.499C22.9385 46.2328 23.7811 46.1689 24.6006 46.3133C25.42 46.4577 26.19 46.8057 26.8399 47.3254C27.009 47.4581 27.2093 47.5451 27.4217 47.5779C27.6341 47.6108 27.8514 47.5884 28.0527 47.5129C28.2539 47.4374 28.4324 47.3114 28.5708 47.147C28.7092 46.9826 28.803 46.7853 28.8431 46.5742C29.188 44.741 30.4967 43.3095 32.188 42.7473C33.5251 42.3268 33.2558 40.3614 31.8573 40.3095C31.7034 40.3043 31.5498 40.3267 31.4038 40.3756C30.4123 40.7042 29.4998 41.235 28.724 41.9344C27.9482 42.6337 27.3259 43.4865 26.8966 44.4387C25.8499 43.9597 24.7072 43.7275 23.5566 43.76C22.406 43.7925 21.2782 44.0888 20.2602 44.6261C19.2423 45.1634 18.3613 45.9273 17.6852 46.859C17.0092 47.7906 16.5608 48.865 16.3657 49.9994ZM35.9062 11.249H44.0843C45.4755 13.9544 46.2149 16.9475 46.2434 19.9894C46.2434 27.7612 43.4513 31.8668 43.0024 32.4951H36.9929C36.5488 31.8715 33.7566 27.7659 33.7566 19.9941C33.7566 16.5736 34.7298 13.6207 35.9157 11.249H35.9062ZM39.9929 16.2476C39.0004 16.2513 38.0497 16.6472 37.3479 17.349C36.646 18.0508 36.2501 19.0016 36.2464 19.9941C36.2464 22.054 37.933 23.7501 39.9929 23.7501C40.9872 23.7439 41.9389 23.3462 42.6419 22.6431C43.345 21.9401 43.7427 20.9883 43.7489 19.9941C43.7415 19.0011 43.343 18.0511 42.64 17.3498C41.937 16.6485 40.9859 16.2525 39.9929 16.2476ZM39.9929 18.7516C40.1574 18.7484 40.3209 18.7783 40.4736 18.8395C40.6263 18.9007 40.7651 18.9919 40.8819 19.1078C40.9987 19.2237 41.091 19.3619 41.1534 19.5141C41.2157 19.6664 41.2468 19.8296 41.2449 19.9941C41.2449 20.7028 40.6969 21.2508 39.9929 21.2508C39.8276 21.2534 39.6635 21.2226 39.5104 21.1602C39.3572 21.0979 39.2183 21.0053 39.1018 20.8879C38.9854 20.7706 38.8938 20.6309 38.8326 20.4773C38.7714 20.3237 38.7418 20.1594 38.7457 19.9941C38.7457 19.2902 39.2842 18.7516 39.9929 18.7516ZM48.3411 24.8887C48.5395 25.1249 48.738 25.3659 48.9553 25.6919C49.7112 26.8257 50.486 28.4746 50.9727 31.2809C49.8631 30.3829 48.5934 29.7032 47.2309 29.2778C47.6608 28.0116 48.0624 26.5706 48.3411 24.8887ZM31.6447 24.8887C31.9282 26.5706 32.3251 28.0116 32.755 29.2825C31.2337 29.7549 29.9675 30.5108 29.0226 31.2809C29.5045 28.4746 30.2841 26.821 31.0353 25.6919C31.2526 25.3659 31.4463 25.1249 31.6447 24.8887ZM36.2464 37.4984C35.6228 37.4984 34.9991 37.9141 34.9991 38.7457C34.9991 44.4387 39.2984 47.2923 39.2984 47.2923C39.5046 47.4304 39.7471 47.5041 39.9953 47.5041C40.2434 47.5041 40.486 47.4304 40.6921 47.2923C40.6921 47.2923 44.9914 44.4387 44.9914 38.7457C44.9914 37.9141 44.3678 37.4984 43.7442 37.4984C43.1205 37.4984 42.4922 37.9141 42.4922 38.7457C42.4922 42.1662 40.5126 44.0843 39.9976 44.604C39.4779 44.0843 37.4984 42.1662 37.4984 38.7457C37.4984 37.9141 36.8747 37.4984 36.2464 37.4984ZM4.99381 52.5034H74.992V58.7492C74.9966 58.9138 74.9676 59.0777 74.9068 59.2307C74.846 59.3838 74.7547 59.5229 74.6385 59.6395C74.5223 59.7562 74.3835 59.848 74.2307 59.9094C74.0778 59.9707 73.9141 60.0004 73.7495 59.9965H6.25525C6.08961 60.0017 5.92466 59.973 5.77046 59.9123C5.61627 59.8516 5.47608 59.76 5.35846 59.6433C5.24084 59.5266 5.14825 59.3871 5.08637 59.2333C5.02448 59.0796 4.99459 58.9149 4.99853 58.7492L4.99381 52.5034ZM42.563 55.0027H37.437C35.8448 55.1917 35.9535 57.45 37.4984 57.4925H42.5016C44.2166 57.6484 44.3584 55.0357 42.5678 55.0027H42.563ZM32.9818 64.9005C32.7364 64.8955 32.495 64.9627 32.2875 65.0937C32.0801 65.2247 31.9157 65.4138 31.8148 65.6375C31.2148 66.9273 30.1376 68.4344 28.2714 69.9982H26.2446C25.2521 70.0057 24.3025 70.4043 23.602 71.1074C22.9015 71.8106 22.5065 72.7617 22.5028 73.7542V76.244C22.4981 76.9338 23.0556 77.496 23.7454 77.5007H56.2452C56.41 77.5007 56.5732 77.4682 56.7254 77.405C56.8776 77.3418 57.0159 77.2491 57.1322 77.1324C57.2485 77.0156 57.3406 76.877 57.4033 76.7246C57.4659 76.5722 57.4978 76.4088 57.4972 76.244V73.7542C57.491 72.7608 57.094 71.8097 56.3919 71.1068C55.6899 70.4039 54.7394 70.0057 53.7459 69.9982H51.7144C49.8577 68.4392 48.7758 66.9273 48.171 65.6375C48.109 65.4776 48.0148 65.3321 47.8943 65.2101C47.7737 65.088 47.6293 64.9921 47.4701 64.9282C47.311 64.8643 47.1403 64.8337 46.9688 64.8385C46.7974 64.8433 46.6287 64.8832 46.4733 64.9559C46.3179 65.0286 46.1791 65.1324 46.0655 65.2609C45.9519 65.3895 45.866 65.54 45.813 65.7031C45.7599 65.8663 45.741 66.0386 45.7574 66.2093C45.7737 66.3801 45.825 66.5457 45.908 66.6958C46.3946 67.7352 47.1364 68.8596 48.1427 69.9982H31.8526C32.8542 68.8644 33.6007 67.7399 34.0873 66.6911C34.1783 66.5023 34.2204 66.2937 34.2099 66.0843C34.1993 65.875 34.1364 65.6717 34.0268 65.493C33.9172 65.3144 33.7646 65.1661 33.5828 65.0617C33.4011 64.9573 33.196 64.9003 32.9865 64.8958L32.9818 64.9005ZM26.2446 72.4975H53.7412C53.9073 72.4936 54.0725 72.5235 54.2267 72.5853C54.3809 72.647 54.521 72.7395 54.6385 72.8569C54.756 72.9744 54.8484 73.1145 54.9102 73.2687C54.972 73.423 55.0018 73.5881 54.9979 73.7542V75.0015H24.9973V73.7542C24.9973 73.0408 25.5312 72.4975 26.2446 72.4975Z" fill="#0E3466"/>
</g>
</g>
</svg>
