<svg width="80" height="80" viewBox="0 0 80 80" fill="none" xmlns="http://www.w3.org/2000/svg">
<g id="Frame" clipPath="url(#clip0_144_5300)">
<g id="Group">
<path id="Vector" d="M35 65H6.25C4.59301 64.998 3.00445 64.3389 1.83277 63.1672C0.661102 61.9956 0.00198482 60.407 0 58.75L0 6.25C0.00198482 4.59301 0.661102 3.00445 1.83277 1.83277C3.00445 0.661102 4.59301 0.00198482 6.25 0L8.75 0V2.5H6.25C5.25544 2.5 4.30161 2.89509 3.59835 3.59835C2.89509 4.30161 2.5 5.25544 2.5 6.25V58.75C2.5 59.7446 2.89509 60.6984 3.59835 61.4016C4.30161 62.1049 5.25544 62.5 6.25 62.5H35V65ZM11.25 0H13.7513V2.5H11.25V0ZM73.75 65V62.5C74.7446 62.5 75.6984 62.1049 76.4016 61.4016C77.1049 60.6984 77.5 59.7446 77.5 58.75V6.25C77.5 5.25544 77.1049 4.30161 76.4016 3.59835C75.6984 2.89509 74.7446 2.5 73.75 2.5H16.25V0H73.75C75.407 0.00198482 76.9956 0.661102 78.1672 1.83277C79.3389 3.00445 79.998 4.59301 80 6.25V58.75C79.998 60.407 79.3389 61.9956 78.1672 63.1672C76.9956 64.3389 75.407 64.998 73.75 65Z" fill="#0E3466"/>
<path id="Vector_2" d="M23.7875 68.4725L25.04 63.4725L27.465 64.0813L26.2125 69.0813L23.7875 68.4725Z" fill="#0E3466"/>
<path id="Vector_3" d="M35 75H22.5C22.1685 75 21.8505 74.8683 21.6161 74.6339C21.3817 74.3995 21.25 74.0815 21.25 73.75V71.25C21.25 70.2554 21.6451 69.3016 22.3483 68.5984C23.0516 67.8951 24.0054 67.5 25 67.5H35V70H25C24.6685 70 24.3505 70.1317 24.1161 70.3661C23.8817 70.6005 23.75 70.9185 23.75 71.25V72.5H35V75ZM1.25 52.5H35V55H1.25V52.5ZM5 57.5H7.5V60H5V57.5ZM10 57.5H17.5V60H10V57.5ZM68.75 80H43.75C42.093 79.998 40.5044 79.3389 39.3328 78.1672C38.1611 76.9956 37.502 75.407 37.5 73.75V23.75C37.502 22.093 38.1611 20.5044 39.3328 19.3328C40.5044 18.1611 42.093 17.502 43.75 17.5H68.75C70.407 17.502 71.9956 18.1611 73.1672 19.3328C74.3389 20.5044 74.998 22.093 75 23.75V73.75C74.998 75.407 74.3389 76.9956 73.1672 78.1672C71.9956 79.3389 70.407 79.998 68.75 80ZM43.75 20C42.7554 20 41.8016 20.3951 41.0984 21.0983C40.3951 21.8016 40 22.7554 40 23.75V73.75C40 74.7446 40.3951 75.6984 41.0984 76.4016C41.8016 77.1049 42.7554 77.5 43.75 77.5H68.75C69.7446 77.5 70.6984 77.1049 71.4016 76.4016C72.1049 75.6984 72.5 74.7446 72.5 73.75V23.75C72.5 22.7554 72.1049 21.8016 71.4016 21.0983C70.6984 20.3951 69.7446 20 68.75 20H43.75Z" fill="#0E3466"/>
<path id="Vector_4" d="M62.5 30H50C47.6575 30 46.6762 27.96 46.3662 26.25H38.75V23.75H47.5C47.8315 23.75 48.1495 23.8817 48.3839 24.1161C48.6183 24.3505 48.75 24.6685 48.75 25C48.75 25.0213 48.82 27.5 50 27.5H62.5C63.68 27.5 63.75 25.0213 63.75 25C63.75 24.6685 63.8817 24.3505 64.1161 24.1161C64.3505 23.8817 64.6685 23.75 65 23.75H73.75V26.25H66.1338C65.8238 27.96 64.8425 30 62.5 30Z" fill="#0E3466"/>
<path id="Vector_5" d="M51.25 22.5H61.25V25H51.25V22.5ZM51.25 73.75H61.25V76.25H51.25V73.75ZM38.75 70H73.75V72.5H38.75V70ZM22.5 35H17.5C17.1685 35 16.8505 34.8683 16.6161 34.6339C16.3817 34.3995 16.25 34.0815 16.25 33.75V31.9175C15.552 31.6976 14.8748 31.4165 14.2262 31.0775L12.9288 32.375C12.6943 32.6093 12.3765 32.741 12.045 32.741C11.7135 32.741 11.3957 32.6093 11.1613 32.375L7.625 28.8387C7.39066 28.6043 7.25902 28.2865 7.25902 27.955C7.25902 27.6235 7.39066 27.3057 7.625 27.0712L8.92125 25.7738C8.58263 25.1252 8.30196 24.448 8.0825 23.75H6.25C5.91848 23.75 5.60054 23.6183 5.36612 23.3839C5.1317 23.1495 5 22.8315 5 22.5V17.5C5 17.1685 5.1317 16.8505 5.36612 16.6161C5.60054 16.3817 5.91848 16.25 6.25 16.25H8.0825C8.30236 15.552 8.58345 14.8748 8.9225 14.2262L7.625 12.9288C7.39066 12.6943 7.25902 12.3765 7.25902 12.045C7.25902 11.7135 7.39066 11.3957 7.625 11.1613L11.1613 7.625C11.3957 7.39066 11.7135 7.25902 12.045 7.25902C12.3765 7.25902 12.6943 7.39066 12.9288 7.625L14.2262 8.92125C14.8748 8.58263 15.552 8.30196 16.25 8.0825V6.25C16.25 5.91848 16.3817 5.60054 16.6161 5.36612C16.8505 5.1317 17.1685 5 17.5 5H22.5C22.8315 5 23.1495 5.1317 23.3839 5.36612C23.6183 5.60054 23.75 5.91848 23.75 6.25V8.0825C24.448 8.30236 25.1252 8.58345 25.7738 8.9225L27.0712 7.625C27.3057 7.39066 27.6235 7.25902 27.955 7.25902C28.2865 7.25902 28.6043 7.39066 28.8387 7.625L32.375 11.1613C32.6093 11.3957 32.741 11.7135 32.741 12.045C32.741 12.3765 32.6093 12.6943 32.375 12.9288L31.0788 14.2262C31.4174 14.8748 31.698 15.552 31.9175 16.25H33.75C34.0815 16.25 34.3995 16.3817 34.6339 16.6161C34.8683 16.8505 35 17.1685 35 17.5V22.5C35 22.8315 34.8683 23.1495 34.6339 23.3839C34.3995 23.6183 34.0815 23.75 33.75 23.75H31.9175C31.6976 24.448 31.4165 25.1252 31.0775 25.7738L32.375 27.0712C32.6093 27.3057 32.741 27.6235 32.741 27.955C32.741 28.2865 32.6093 28.6043 32.375 28.8387L28.8387 32.375C28.6043 32.6093 28.2865 32.741 27.955 32.741C27.6235 32.741 27.3057 32.6093 27.0712 32.375L25.7738 31.0788C25.1252 31.4174 24.448 31.698 23.75 31.9175V33.75C23.75 34.0815 23.6183 34.3995 23.3839 34.6339C23.1495 34.8683 22.8315 35 22.5 35ZM18.75 32.5H21.25V30.9625C21.2497 30.679 21.3458 30.4038 21.5225 30.1822C21.6993 29.9605 21.9461 29.8054 22.2225 29.7425C23.3183 29.4932 24.3637 29.0591 25.3137 28.4587C25.5537 28.3074 25.8379 28.2422 26.1198 28.2737C26.4017 28.3053 26.6645 28.4318 26.865 28.6325L27.955 29.7225L29.7225 27.955L28.6325 26.865C28.4318 26.6645 28.3053 26.4017 28.2737 26.1198C28.2422 25.8379 28.3074 25.5537 28.4587 25.3137C29.0591 24.3637 29.4932 23.3183 29.7425 22.2225C29.8054 21.9461 29.9605 21.6993 30.1822 21.5225C30.4038 21.3458 30.679 21.2497 30.9625 21.25H32.5V18.75H30.9625C30.679 18.7503 30.4038 18.6542 30.1822 18.4775C29.9605 18.3007 29.8054 18.0539 29.7425 17.7775C29.4932 16.6817 29.0591 15.6363 28.4587 14.6862C28.3074 14.4463 28.2422 14.1621 28.2737 13.8802C28.3053 13.5983 28.4318 13.3355 28.6325 13.135L29.7225 12.045L27.955 10.2775L26.865 11.3675C26.6645 11.5682 26.4017 11.6947 26.1198 11.7263C25.8379 11.7578 25.5537 11.6926 25.3137 11.5412C24.3637 10.9409 23.3183 10.5068 22.2225 10.2575C21.9461 10.1946 21.6993 10.0395 21.5225 9.81785C21.3458 9.59617 21.2497 9.321 21.25 9.0375V7.5H18.75V9.0375C18.7503 9.321 18.6542 9.59617 18.4775 9.81785C18.3007 10.0395 18.0539 10.1946 17.7775 10.2575C16.6817 10.5068 15.6363 10.9409 14.6862 11.5412C14.4463 11.6926 14.1621 11.7578 13.8802 11.7263C13.5983 11.6947 13.3355 11.5682 13.135 11.3675L12.045 10.2775L10.2775 12.045L11.3675 13.135C11.5682 13.3355 11.6947 13.5983 11.7263 13.8802C11.7578 14.1621 11.6926 14.4463 11.5412 14.6862C10.9409 15.6363 10.5068 16.6817 10.2575 17.7775C10.1946 18.0539 10.0395 18.3007 9.81785 18.4775C9.59617 18.6542 9.321 18.7503 9.0375 18.75H7.5V21.25H9.0375C9.321 21.2497 9.59617 21.3458 9.81785 21.5225C10.0395 21.6993 10.1946 21.9461 10.2575 22.2225C10.5068 23.3183 10.9409 24.3637 11.5412 25.3137C11.6926 25.5537 11.7578 25.8379 11.7263 26.1198C11.6947 26.4017 11.5682 26.6645 11.3675 26.865L10.2775 27.955L12.045 29.7225L13.135 28.6325C13.3355 28.4318 13.5983 28.3053 13.8802 28.2737C14.1621 28.2422 14.4463 28.3074 14.6862 28.4587C15.6363 29.0591 16.6817 29.4932 17.7775 29.7425C18.0539 29.8054 18.3007 29.9605 18.4775 30.1822C18.6542 30.4038 18.7503 30.679 18.75 30.9625V32.5Z" fill="#0E3466"/>
<path id="Vector_6" d="M20 26.25C18.7639 26.25 17.5555 25.8834 16.5277 25.1967C15.4999 24.5099 14.6988 23.5338 14.2258 22.3918C13.7527 21.2497 13.6289 19.9931 13.8701 18.7807C14.1113 17.5683 14.7065 16.4547 15.5806 15.5806C16.4547 14.7065 17.5683 14.1113 18.7807 13.8701C19.9931 13.6289 21.2497 13.7527 22.3918 14.2258C23.5338 14.6988 24.5099 15.4999 25.1967 16.5277C25.8834 17.5555 26.25 18.7639 26.25 20C26.248 21.657 25.5889 23.2456 24.4172 24.4172C23.2456 25.5889 21.657 26.248 20 26.25ZM20 16.25C19.2583 16.25 18.5333 16.4699 17.9166 16.882C17.2999 17.294 16.8193 17.8797 16.5355 18.5649C16.2516 19.2502 16.1774 20.0042 16.3221 20.7316C16.4668 21.459 16.8239 22.1272 17.3484 22.6517C17.8728 23.1761 18.541 23.5333 19.2684 23.6779C19.9958 23.8226 20.7498 23.7484 21.4351 23.4646C22.1203 23.1807 22.706 22.7001 23.118 22.0834C23.5301 21.4667 23.75 20.7417 23.75 20C23.75 19.0054 23.3549 18.0516 22.6517 17.3484C21.9484 16.6451 20.9946 16.25 20 16.25ZM21.25 51.25H18.75V46.25C18.75 45.9185 18.8817 45.6005 19.1161 45.3661C19.3505 45.1317 19.6685 45 20 45H21.8325C22.0524 44.302 22.3335 43.6248 22.6725 42.9763L21.375 41.6788C21.1407 41.4443 21.009 41.1265 21.009 40.795C21.009 40.4635 21.1407 40.1457 21.375 39.9113L24.9113 36.375C25.1457 36.1407 25.4635 36.009 25.795 36.009C26.1265 36.009 26.4443 36.1407 26.6788 36.375L27.9763 37.6713C28.6248 37.3326 29.302 37.052 30 36.8325V35C30 34.6685 30.1317 34.3505 30.3661 34.1161C30.6005 33.8817 30.9185 33.75 31.25 33.75H36.25V36.25H32.5V37.7875C32.5003 38.071 32.4042 38.3462 32.2275 38.5679C32.0507 38.7895 31.8039 38.9446 31.5275 39.0075C30.4317 39.2568 29.3863 39.6909 28.4363 40.2913C28.1963 40.4426 27.9121 40.5079 27.6302 40.4763C27.3483 40.4447 27.0855 40.3182 26.885 40.1175L25.795 39.0275L24.0275 40.795L25.1175 41.885C25.3182 42.0855 25.4447 42.3483 25.4763 42.6302C25.5079 42.9121 25.4426 43.1963 25.2913 43.4363C24.6909 44.3863 24.2568 45.4317 24.0075 46.5275C23.9446 46.8039 23.7895 47.0507 23.5679 47.2275C23.3462 47.4042 23.071 47.5003 22.7875 47.5H21.25V51.25ZM30 48.75H27.5C27.502 47.093 28.1611 45.5045 29.3328 44.3328C30.5044 43.1611 32.093 42.502 33.75 42.5V45C32.7554 45 31.8016 45.3951 31.0984 46.0984C30.3951 46.8016 30 47.7554 30 48.75ZM56.25 62.5C53.5305 62.5 50.8721 61.6936 48.6109 60.1827C46.3497 58.6718 44.5874 56.5244 43.5467 54.0119C42.506 51.4994 42.2337 48.7347 42.7642 46.0675C43.2948 43.4003 44.6043 40.9503 46.5273 39.0273C48.4503 37.1043 50.9003 35.7948 53.5675 35.2642C56.2347 34.7337 58.9994 35.006 61.5119 36.0467C64.0244 37.0874 66.1718 38.8497 67.6827 41.1109C69.1936 43.3721 70 46.0305 70 48.75C69.9957 52.3954 68.5457 55.8903 65.968 58.468C63.3903 61.0457 59.8954 62.4957 56.25 62.5ZM56.25 37.5C54.025 37.5 51.8499 38.1598 49.9998 39.396C48.1498 40.6321 46.7078 42.3891 45.8564 44.4448C45.0049 46.5005 44.7821 48.7625 45.2162 50.9448C45.6503 53.1271 46.7217 55.1316 48.2951 56.705C49.8684 58.2783 51.873 59.3498 54.0552 59.7838C56.2375 60.2179 58.4995 59.9951 60.5552 59.1436C62.6109 58.2922 64.3679 56.8502 65.604 55.0002C66.8402 53.1501 67.5 50.975 67.5 48.75C67.4964 45.7674 66.3099 42.9081 64.2009 40.7991C62.0919 38.6901 59.2326 37.5036 56.25 37.5Z" fill="#0E3466"/>
<path id="Vector_7" d="M53.75 57.5C53.4185 57.4999 53.1006 57.3682 52.8662 57.1338L46.6162 50.8838C46.3819 50.6493 46.2502 50.3315 46.2502 50C46.2502 49.6685 46.3819 49.3507 46.6162 49.1162L50.3662 45.3662C50.6006 45.1319 50.9185 45.0003 51.25 45.0003C51.5814 45.0003 51.8993 45.1319 52.1337 45.3662L53.75 46.9825L60.3662 40.3662C60.6006 40.1319 60.9185 40.0003 61.25 40.0003C61.5814 40.0003 61.8993 40.1319 62.1337 40.3662L65.8837 44.1162C66.1181 44.3507 66.2497 44.6685 66.2497 45C66.2497 45.3315 66.1181 45.6493 65.8837 45.8838L54.6337 57.1338C54.3994 57.3682 54.0815 57.4999 53.75 57.5ZM49.2675 50L53.75 54.4825L63.2325 45L61.25 43.0175L54.6337 49.6338C54.3993 49.8681 54.0814 49.9997 53.75 49.9997C53.4185 49.9997 53.1006 49.8681 52.8662 49.6338L51.25 48.0175L49.2675 50ZM71.25 5H73.75V7.5H71.25V5ZM52.5 5H68.75V7.5H52.5V5Z" fill="#0E3466"/>
</g>
</g>
<defs>
<clipPath id="clip0_144_5300">
<rect width="80" height="80" fill="white"/>
</clipPath>
</defs>
</svg>
