<svg width="52" height="52" viewBox="0 0 52 52" fill="none" xmlns="http://www.w3.org/2000/svg">
<g id="Frame">
<g id="Group">
<path id="Vector" d="M22.75 36.5625H2.4375C2.22201 36.5625 2.01535 36.4769 1.86298 36.3245C1.7106 36.1722 1.625 35.9655 1.625 35.75V17.875C1.625 17.6595 1.7106 17.4528 1.86298 17.3005C2.01535 17.1481 2.22201 17.0625 2.4375 17.0625H36.5625C36.778 17.0625 36.9847 17.1481 37.137 17.3005C37.2894 17.4528 37.375 17.6595 37.375 17.875V23.5625C37.375 23.778 37.2894 23.9847 37.137 24.137C36.9847 24.2894 36.778 24.375 36.5625 24.375C36.347 24.375 36.1403 24.2894 35.988 24.137C35.8356 23.9847 35.75 23.778 35.75 23.5625V18.6875H3.25V34.9375H22.75C22.9655 34.9375 23.1722 35.0231 23.3245 35.1755C23.4769 35.3278 23.5625 35.5345 23.5625 35.75C23.5625 35.9655 23.4769 36.1722 23.3245 36.3245C23.1722 36.4769 22.9655 36.5625 22.75 36.5625Z" fill="#E9ECEF"/>
<path id="Vector_2" d="M22.75 34.125H7.3125C7.09701 34.125 6.89035 34.0394 6.73798 33.887C6.5856 33.7347 6.5 33.528 6.5 33.3125C6.5 32.8815 6.3288 32.4682 6.02405 32.1635C5.7193 31.8587 5.30598 31.6875 4.875 31.6875C4.65951 31.6875 4.45285 31.6019 4.30048 31.4495C4.1481 31.2972 4.0625 31.0905 4.0625 30.875V22.75C4.0625 22.5345 4.1481 22.3278 4.30048 22.1755C4.45285 22.0231 4.65951 21.9375 4.875 21.9375C5.30598 21.9375 5.7193 21.7663 6.02405 21.4615C6.3288 21.1568 6.5 20.7435 6.5 20.3125C6.5 20.097 6.5856 19.8903 6.73798 19.738C6.89035 19.5856 7.09701 19.5 7.3125 19.5H31.6875C31.903 19.5 32.1097 19.5856 32.262 19.738C32.4144 19.8903 32.5 20.097 32.5 20.3125C32.5 20.7435 32.6712 21.1568 32.976 21.4615C33.2807 21.7663 33.694 21.9375 34.125 21.9375C34.3405 21.9375 34.5472 22.0231 34.6995 22.1755C34.8519 22.3278 34.9375 22.5345 34.9375 22.75V24.375C34.9375 24.5905 34.8519 24.7972 34.6995 24.9495C34.5472 25.1019 34.3405 25.1875 34.125 25.1875C33.9095 25.1875 33.7028 25.1019 33.5505 24.9495C33.3981 24.7972 33.3125 24.5905 33.3125 24.375V23.4593C32.7509 23.3131 32.2385 23.0197 31.8282 22.6093C31.4178 22.199 31.1244 21.6866 30.9782 21.125H8.02181C7.87558 21.6866 7.58216 22.199 7.17182 22.6093C6.76148 23.0197 6.24908 23.3131 5.6875 23.4593V30.1657C6.24908 30.3119 6.76148 30.6053 7.17182 31.0157C7.58216 31.426 7.87558 31.9384 8.02181 32.5H22.75C22.9655 32.5 23.1722 32.5856 23.3245 32.738C23.4769 32.8903 23.5625 33.097 23.5625 33.3125C23.5625 33.528 23.4769 33.7347 23.3245 33.887C23.1722 34.0394 22.9655 34.125 22.75 34.125Z" fill="#E9ECEF"/>
<path id="Vector_3" d="M19.5 27.625C19.0179 27.625 18.5466 27.482 18.1458 27.2142C17.745 26.9464 17.4325 26.5657 17.248 26.1203C17.0636 25.6749 17.0153 25.1848 17.1093 24.712C17.2034 24.2391 17.4355 23.8048 17.7764 23.4639C18.1173 23.123 18.5516 22.8909 19.0245 22.7968C19.4973 22.7028 19.9874 22.7511 20.4328 22.9355C20.8782 23.12 21.2589 23.4325 21.5267 23.8333C21.7945 24.2341 21.9375 24.7054 21.9375 25.1875C21.9375 25.403 21.8519 25.6097 21.6995 25.762C21.5472 25.9144 21.3405 26 21.125 26C20.9095 26 20.7028 25.9144 20.5505 25.762C20.3981 25.6097 20.3125 25.403 20.3125 25.1875C20.3125 25.0268 20.2648 24.8697 20.1756 24.7361C20.0863 24.6025 19.9594 24.4983 19.8109 24.4368C19.6625 24.3754 19.4991 24.3593 19.3415 24.3906C19.1839 24.422 19.0391 24.4993 18.9255 24.613C18.8118 24.7266 18.7345 24.8714 18.7031 25.029C18.6718 25.1866 18.6879 25.35 18.7493 25.4984C18.8108 25.6469 18.915 25.7738 19.0486 25.8631C19.1822 25.9523 19.3393 26 19.5 26C19.7155 26 19.9222 26.0856 20.0745 26.238C20.2269 26.3903 20.3125 26.597 20.3125 26.8125C20.3125 27.028 20.2269 27.2347 20.0745 27.387C19.9222 27.5394 19.7155 27.625 19.5 27.625Z" fill="#E9ECEF"/>
<path id="Vector_4" d="M19.5 30.875C18.8535 30.875 18.2335 30.6182 17.7764 30.1611C17.3193 29.704 17.0625 29.084 17.0625 28.4375C17.0625 28.222 17.1481 28.0153 17.3005 27.863C17.4528 27.7106 17.6595 27.625 17.875 27.625C18.0905 27.625 18.2972 27.7106 18.4495 27.863C18.6019 28.0153 18.6875 28.222 18.6875 28.4375C18.6875 28.5982 18.7352 28.7553 18.8244 28.8889C18.9137 29.0225 19.0406 29.1267 19.1891 29.1882C19.3375 29.2496 19.5009 29.2657 19.6585 29.2344C19.8161 29.203 19.9609 29.1257 20.0745 29.012C20.1882 28.8984 20.2655 28.7536 20.2969 28.596C20.3282 28.4384 20.3121 28.275 20.2507 28.1266C20.1892 27.9781 20.085 27.8512 19.9514 27.7619C19.8178 27.6727 19.6607 27.625 19.5 27.625C19.2845 27.625 19.0778 27.5394 18.9255 27.387C18.7731 27.2347 18.6875 27.028 18.6875 26.8125C18.6875 26.597 18.7731 26.3903 18.9255 26.238C19.0778 26.0856 19.2845 26 19.5 26C20.1465 26 20.7665 26.2568 21.2236 26.7139C21.6807 27.171 21.9375 27.791 21.9375 28.4375C21.9375 29.084 21.6807 29.704 21.2236 30.1611C20.7665 30.6182 20.1465 30.875 19.5 30.875ZM19.5 24.375C19.2845 24.375 19.0778 24.2894 18.9255 24.137C18.7731 23.9847 18.6875 23.778 18.6875 23.5625V22.75C18.6875 22.5345 18.7731 22.3278 18.9255 22.1755C19.0778 22.0231 19.2845 21.9375 19.5 21.9375C19.7155 21.9375 19.9222 22.0231 20.0745 22.1755C20.2269 22.3278 20.3125 22.5345 20.3125 22.75V23.5625C20.3125 23.778 20.2269 23.9847 20.0745 24.137C19.9222 24.2894 19.7155 24.375 19.5 24.375Z" fill="#E9ECEF"/>
<path id="Vector_5" d="M19.5 31.6875C19.2845 31.6875 19.0778 31.6019 18.9255 31.4495C18.7731 31.2972 18.6875 31.0905 18.6875 30.875V30.0625C18.6875 29.847 18.7731 29.6403 18.9255 29.488C19.0778 29.3356 19.2845 29.25 19.5 29.25C19.7155 29.25 19.9222 29.3356 20.0745 29.488C20.2269 29.6403 20.3125 29.847 20.3125 30.0625V30.875C20.3125 31.0905 20.2269 31.2972 20.0745 31.4495C19.9222 31.6019 19.7155 31.6875 19.5 31.6875ZM29.25 27.625H27.625C27.4095 27.625 27.2028 27.5394 27.0505 27.387C26.8981 27.2347 26.8125 27.028 26.8125 26.8125C26.8125 26.597 26.8981 26.3903 27.0505 26.238C27.2028 26.0856 27.4095 26 27.625 26H29.25C29.4655 26 29.6722 26.0856 29.8245 26.238C29.9769 26.3903 30.0625 26.597 30.0625 26.8125C30.0625 27.028 29.9769 27.2347 29.8245 27.387C29.6722 27.5394 29.4655 27.625 29.25 27.625ZM11.375 27.625H9.75C9.53451 27.625 9.32785 27.5394 9.17548 27.387C9.0231 27.2347 8.9375 27.028 8.9375 26.8125C8.9375 26.597 9.0231 26.3903 9.17548 26.238C9.32785 26.0856 9.53451 26 9.75 26H11.375C11.5905 26 11.7972 26.0856 11.9495 26.238C12.1019 26.3903 12.1875 26.597 12.1875 26.8125C12.1875 27.028 12.1019 27.2347 11.9495 27.387C11.7972 27.5394 11.5905 27.625 11.375 27.625ZM42.25 39C38.337 39 34.125 37.9827 34.125 35.75C34.125 35.5345 34.2106 35.3278 34.363 35.1755C34.5153 35.0231 34.722 34.9375 34.9375 34.9375C35.153 34.9375 35.3597 35.0231 35.512 35.1755C35.6644 35.3278 35.75 35.5345 35.75 35.75C35.75 36.1676 37.9852 37.375 42.25 37.375C46.5148 37.375 48.75 36.1676 48.75 35.75C48.75 35.5345 48.8356 35.3278 48.988 35.1755C49.1403 35.0231 49.347 34.9375 49.5625 34.9375C49.778 34.9375 49.9847 35.0231 50.137 35.1755C50.2894 35.3278 50.375 35.5345 50.375 35.75C50.375 37.9827 46.163 39 42.25 39Z" fill="#E9ECEF"/>
<path id="Vector_6" d="M42.25 43.0625C38.337 43.0625 34.125 42.0452 34.125 39.8125V35.75C34.125 35.5345 34.2106 35.3278 34.363 35.1755C34.5153 35.0231 34.722 34.9375 34.9375 34.9375C35.153 34.9375 35.3597 35.0231 35.512 35.1755C35.6644 35.3278 35.75 35.5345 35.75 35.75V39.8125C35.75 40.2301 37.9852 41.4375 42.25 41.4375C46.5148 41.4375 48.75 40.2301 48.75 39.8125V35.75C48.75 35.5345 48.8356 35.3278 48.988 35.1755C49.1403 35.0231 49.347 34.9375 49.5625 34.9375C49.778 34.9375 49.9847 35.0231 50.137 35.1755C50.2894 35.3278 50.375 35.5345 50.375 35.75V39.8125C50.375 42.0452 46.163 43.0625 42.25 43.0625Z" fill="#E9ECEF"/>
<path id="Vector_7" d="M42.25 34.9375C38.337 34.9375 34.125 33.9202 34.125 31.6875C34.125 31.472 34.2106 31.2653 34.363 31.113C34.5153 30.9606 34.722 30.875 34.9375 30.875C35.153 30.875 35.3597 30.9606 35.512 31.113C35.6644 31.2653 35.75 31.472 35.75 31.6875C35.75 32.1051 37.9852 33.3125 42.25 33.3125C46.5148 33.3125 48.75 32.1051 48.75 31.6875C48.75 31.472 48.8356 31.2653 48.988 31.113C49.1403 30.9606 49.347 30.875 49.5625 30.875C49.778 30.875 49.9847 30.9606 50.137 31.113C50.2894 31.2653 50.375 31.472 50.375 31.6875C50.375 33.9202 46.163 34.9375 42.25 34.9375Z" fill="#E9ECEF"/>
<path id="Vector_8" d="M42.25 39C38.337 39 34.125 37.9827 34.125 35.75V31.6875C34.125 31.472 34.2106 31.2653 34.363 31.113C34.5153 30.9606 34.722 30.875 34.9375 30.875C35.153 30.875 35.3597 30.9606 35.512 31.113C35.6644 31.2653 35.75 31.472 35.75 31.6875V35.75C35.75 36.1676 37.9852 37.375 42.25 37.375C46.5148 37.375 48.75 36.1676 48.75 35.75V31.6875C48.75 31.472 48.8356 31.2653 48.988 31.113C49.1403 30.9606 49.347 30.875 49.5625 30.875C49.778 30.875 49.9847 30.9606 50.137 31.113C50.2894 31.2653 50.375 31.472 50.375 31.6875V35.75C50.375 37.9827 46.163 39 42.25 39Z" fill="#E9ECEF"/>
<path id="Vector_9" d="M42.25 30.875C38.337 30.875 34.125 29.8577 34.125 27.625C34.125 25.3923 38.337 24.375 42.25 24.375C46.163 24.375 50.375 25.3923 50.375 27.625C50.375 29.8577 46.163 30.875 42.25 30.875ZM42.25 26C37.9852 26 35.75 27.2074 35.75 27.625C35.75 28.0426 37.9852 29.25 42.25 29.25C46.5148 29.25 48.75 28.0426 48.75 27.625C48.75 27.2074 46.5148 26 42.25 26Z" fill="#E9ECEF"/>
<path id="Vector_10" d="M42.25 34.9375C38.337 34.9375 34.125 33.9202 34.125 31.6875V27.625C34.125 27.4095 34.2106 27.2028 34.363 27.0505C34.5153 26.8981 34.722 26.8125 34.9375 26.8125C35.153 26.8125 35.3597 26.8981 35.512 27.0505C35.6644 27.2028 35.75 27.4095 35.75 27.625V31.6875C35.75 32.1051 37.9852 33.3125 42.25 33.3125C46.5148 33.3125 48.75 32.1051 48.75 31.6875V27.625C48.75 27.4095 48.8356 27.2028 48.988 27.0505C49.1403 26.8981 49.347 26.8125 49.5625 26.8125C49.778 26.8125 49.9847 26.8981 50.137 27.0505C50.2894 27.2028 50.375 27.4095 50.375 27.625V31.6875C50.375 33.9202 46.163 34.9375 42.25 34.9375ZM32.5 38.1875C28.587 38.1875 24.375 37.1702 24.375 34.9375C24.375 34.722 24.4606 34.5153 24.613 34.363C24.7653 34.2106 24.972 34.125 25.1875 34.125C25.403 34.125 25.6097 34.2106 25.762 34.363C25.9144 34.5153 26 34.722 26 34.9375C26 35.3551 28.2352 36.5625 32.5 36.5625C32.7155 36.5625 32.9222 36.6481 33.0745 36.8005C33.2269 36.9528 33.3125 37.1595 33.3125 37.375C33.3125 37.5905 33.2269 37.7972 33.0745 37.9495C32.9222 38.1019 32.7155 38.1875 32.5 38.1875Z" fill="#E9ECEF"/>
<path id="Vector_11" d="M32.5 42.25C28.587 42.25 24.375 41.2327 24.375 39V34.9375C24.375 34.722 24.4606 34.5153 24.613 34.363C24.7653 34.2106 24.972 34.125 25.1875 34.125C25.403 34.125 25.6097 34.2106 25.762 34.363C25.9144 34.5153 26 34.722 26 34.9375V39C26 39.4176 28.2352 40.625 32.5 40.625C32.7155 40.625 32.9222 40.7106 33.0745 40.863C33.2269 41.0153 33.3125 41.222 33.3125 41.4375C33.3125 41.653 33.2269 41.8597 33.0745 42.012C32.9222 42.1644 32.7155 42.25 32.5 42.25ZM32.5 34.125C28.587 34.125 24.375 33.1077 24.375 30.875C24.375 28.6423 28.587 27.625 32.5 27.625C32.7155 27.625 32.9222 27.7106 33.0745 27.863C33.2269 28.0153 33.3125 28.222 33.3125 28.4375C33.3125 28.653 33.2269 28.8597 33.0745 29.012C32.9222 29.1644 32.7155 29.25 32.5 29.25C28.2352 29.25 26 30.4574 26 30.875C26 31.2926 28.2352 32.5 32.5 32.5C32.7155 32.5 32.9222 32.5856 33.0745 32.738C33.2269 32.8903 33.3125 33.097 33.3125 33.3125C33.3125 33.528 33.2269 33.7347 33.0745 33.887C32.9222 34.0394 32.7155 34.125 32.5 34.125Z" fill="#EAB308"/>
<path id="Vector_12" d="M32.5 38.1875C28.587 38.1875 24.375 37.1702 24.375 34.9375V30.875C24.375 30.6595 24.4606 30.4528 24.613 30.3005C24.7653 30.1481 24.972 30.0625 25.1875 30.0625C25.403 30.0625 25.6097 30.1481 25.762 30.3005C25.9144 30.4528 26 30.6595 26 30.875V34.9375C26 35.3551 28.2352 36.5625 32.5 36.5625C32.7155 36.5625 32.9222 36.6481 33.0745 36.8005C33.2269 36.9528 33.3125 37.1595 33.3125 37.375C33.3125 37.5905 33.2269 37.7972 33.0745 37.9495C32.9222 38.1019 32.7155 38.1875 32.5 38.1875Z" fill="#EAB308"/>
</g>
</g>
</svg>
