<svg width="80" height="80" viewBox="0 0 80 80" fill="none" xmlns="http://www.w3.org/2000/svg">
<g id="Frame">
<g id="Group">
<path id="Vector" d="M53.0783 54.0224H40.0569L39.2841 51.7617C38.6766 49.9985 37.4764 49.7351 36.815 49.7351H26.4472C25.0522 49.7351 23.9172 50.8073 23.9172 52.1251V72.6395C23.9172 74.296 25.267 75.6437 26.9259 75.6437H53.0781C54.7372 75.6437 56.087 74.296 56.087 72.6395V57.0312C56.0872 55.3723 54.7373 54.0224 53.0783 54.0224ZM53.8553 72.6395C53.8553 73.0581 53.4995 73.4118 53.0783 73.4118H26.9261C26.4977 73.4118 26.1492 73.0654 26.1492 72.6395V52.125C26.1492 52.0856 26.2548 51.9668 26.4473 51.9668H36.8152C36.9711 51.9668 37.107 52.2937 37.1733 52.4859L37.6986 54.0223H28.5706C28.4241 54.0223 28.279 54.0512 28.1436 54.1072C28.0082 54.1633 27.8852 54.2455 27.7815 54.3491C27.6779 54.4528 27.5957 54.5758 27.5396 54.7112C27.4836 54.8466 27.4547 54.9917 27.4547 55.1382C27.4547 55.2848 27.4836 55.4299 27.5396 55.5653C27.5957 55.7007 27.6779 55.8237 27.7815 55.9273C27.8852 56.0309 28.0082 56.1131 28.1436 56.1692C28.279 56.2253 28.4241 56.2542 28.5706 56.2542H53.0784C53.2844 56.2544 53.4819 56.3363 53.6276 56.4819C53.7733 56.6276 53.8552 56.8251 53.8555 57.031L53.8553 72.6395ZM26.2892 39.9457H38.8841V46.3385L37.4781 44.9307C37.3746 44.827 37.2517 44.7447 37.1163 44.6885C36.981 44.6323 36.8359 44.6033 36.6894 44.6032C36.5428 44.6031 36.3977 44.6319 36.2623 44.6879C36.1269 44.7439 36.0038 44.8261 35.9002 44.9296C35.7965 45.0332 35.7142 45.1561 35.658 45.2914C35.6018 45.4268 35.5728 45.5719 35.5727 45.7184C35.5726 45.8649 35.6014 46.01 35.6574 46.1455C35.7134 46.2809 35.7955 46.4039 35.8991 46.5076L39.2105 49.8235C39.3141 49.9273 39.4371 50.0096 39.5725 50.0658C39.7079 50.122 39.8531 50.151 39.9997 50.151H40C40.2959 50.151 40.5797 50.0334 40.7891 49.8242L44.105 46.5082C44.3116 46.2984 44.4268 46.0154 44.4257 45.721C44.4245 45.4266 44.307 45.1445 44.0988 44.9363C43.8906 44.7281 43.6086 44.6106 43.3141 44.6095C43.0197 44.6083 42.7367 44.7236 42.5269 44.9301L41.1159 46.341V39.9457H53.7108C54.0067 39.9457 54.2906 39.8282 54.4999 39.6189C54.7091 39.4096 54.8267 39.1258 54.8267 38.8298V11.8192C54.8267 11.5231 54.7091 11.2395 54.4998 11.0301L48.1528 4.68308C47.9435 4.47387 47.6597 4.3563 47.3637 4.3562H26.2892C25.9933 4.3562 25.7094 4.47377 25.5001 4.68305C25.2909 4.89233 25.1733 5.17617 25.1733 5.47214V38.8298C25.1733 38.9763 25.2021 39.1215 25.2582 39.2569C25.3143 39.3923 25.3965 39.5153 25.5001 39.6189C25.6037 39.7226 25.7267 39.8048 25.8621 39.8608C25.9975 39.9169 26.1427 39.9458 26.2892 39.9457ZM27.4052 6.58808H46.9016L52.595 12.2815V37.714H27.4052V6.58808ZM30.0569 23.032C29.7609 23.032 29.4771 22.9144 29.2678 22.7051C29.0585 22.4959 28.9409 22.212 28.9409 21.916C28.9409 21.6201 29.0585 21.3362 29.2678 21.127C29.4771 20.9177 29.7609 20.8001 30.0569 20.8001H30.6486V17.114C30.6486 16.818 30.7662 16.5342 30.9754 16.3249C31.1847 16.1156 31.4686 15.9981 31.7645 15.9981C32.0605 15.9981 32.3443 16.1156 32.5536 16.3249C32.7629 16.5342 32.8805 16.818 32.8805 17.114V20.8003H33.942V13.1248C33.942 12.9782 33.9709 12.8331 34.027 12.6977C34.0831 12.5624 34.1653 12.4393 34.2689 12.3357C34.3725 12.2321 34.4955 12.1499 34.6309 12.0938C34.7663 12.0377 34.9114 12.0089 35.058 12.0089C35.2045 12.0089 35.3496 12.0377 35.485 12.0938C35.6204 12.1499 35.7434 12.2321 35.8471 12.3357C35.9507 12.4393 36.0329 12.5624 36.089 12.6977C36.145 12.8331 36.1739 12.9782 36.1739 13.1248V20.8001H37.2353V8.96417C37.2353 8.6682 37.3529 8.38436 37.5622 8.17508C37.7714 7.9658 38.0553 7.84823 38.3512 7.84823C38.6472 7.84823 38.9311 7.9658 39.1403 8.17508C39.3496 8.38436 39.4672 8.6682 39.4672 8.96417V20.8003H40.5333V16.0071C40.5333 15.7112 40.6509 15.4273 40.8601 15.2181C41.0694 15.0088 41.3533 14.8912 41.6492 14.8912C41.9452 14.8912 42.229 15.0088 42.4383 15.2181C42.6476 15.4273 42.7652 15.7112 42.7652 16.0071V20.8003H43.8266V11.7606C43.8266 11.4646 43.9441 11.1808 44.1534 10.9715C44.3627 10.7622 44.6465 10.6446 44.9425 10.6446C45.2385 10.6446 45.5223 10.7622 45.7316 10.9715C45.9409 11.1808 46.0584 11.4646 46.0584 11.7606V20.8001H47.1245V16.3007C47.1245 16.1542 47.1534 16.0091 47.2095 15.8737C47.2656 15.7383 47.3478 15.6153 47.4514 15.5116C47.555 15.408 47.678 15.3258 47.8134 15.2697C47.9488 15.2137 48.0939 15.1848 48.2405 15.1848C48.387 15.1848 48.5321 15.2137 48.6675 15.2697C48.8029 15.3258 48.9259 15.408 49.0296 15.5116C49.1332 15.6153 49.2154 15.7383 49.2715 15.8737C49.3275 16.0091 49.3564 16.1542 49.3564 16.3007V20.8001H49.9436C50.2396 20.8001 50.5234 20.9177 50.7327 21.127C50.942 21.3362 51.0595 21.6201 51.0595 21.916C51.0595 22.212 50.942 22.4959 50.7327 22.7051C50.5234 22.9144 50.2396 23.032 49.9436 23.032H30.0569ZM31.3353 26.691C31.3353 26.987 31.2177 27.2709 31.0085 27.4801C30.7992 27.6894 30.5153 27.807 30.2194 27.807H30.0567C29.9102 27.807 29.7651 27.7781 29.6297 27.722C29.4943 27.666 29.3713 27.5838 29.2676 27.4801C29.164 27.3765 29.0818 27.2535 29.0257 27.1181C28.9696 26.9827 28.9408 26.8376 28.9408 26.691C28.9408 26.5445 28.9696 26.3994 29.0257 26.264C29.0818 26.1286 29.164 26.0056 29.2676 25.902C29.3713 25.7983 29.4943 25.7161 29.6297 25.6601C29.7651 25.604 29.9102 25.5751 30.0567 25.5751H30.2194C30.5153 25.5751 30.7992 25.6927 31.0085 25.902C31.2177 26.1112 31.3353 26.3951 31.3353 26.691ZM31.3353 30.3007C31.3353 30.5967 31.2177 30.8805 31.0085 31.0898C30.7992 31.2991 30.5153 31.4167 30.2194 31.4167H30.0567C29.9102 31.4167 29.7651 31.3878 29.6297 31.3317C29.4943 31.2756 29.3713 31.1934 29.2676 31.0898C29.164 30.9862 29.0818 30.8632 29.0257 30.7278C28.9696 30.5924 28.9408 30.4473 28.9408 30.3007C28.9408 30.1542 28.9696 30.0091 29.0257 29.8737C29.0818 29.7383 29.164 29.6153 29.2676 29.5116C29.3713 29.408 29.4943 29.3258 29.6297 29.2697C29.7651 29.2137 29.9102 29.1848 30.0567 29.1848H30.2194C30.3659 29.1848 30.511 29.2136 30.6465 29.2697C30.7819 29.3258 30.9049 29.408 31.0085 29.5116C31.1121 29.6152 31.1943 29.7383 31.2504 29.8737C31.3065 30.0091 31.3353 30.1542 31.3353 30.3007ZM51.0591 26.691C51.0591 26.987 50.9415 27.2709 50.7322 27.4801C50.5229 27.6894 50.2391 27.807 49.9431 27.807H34.7055C34.5589 27.807 34.4138 27.7781 34.2784 27.722C34.143 27.666 34.02 27.5838 33.9164 27.4801C33.8128 27.3765 33.7306 27.2535 33.6745 27.1181C33.6184 26.9827 33.5895 26.8376 33.5895 26.691C33.5895 26.5445 33.6184 26.3994 33.6745 26.264C33.7306 26.1286 33.8128 26.0056 33.9164 25.902C34.02 25.7983 34.143 25.7161 34.2784 25.6601C34.4138 25.604 34.5589 25.5751 34.7055 25.5751H49.9431C50.2391 25.5751 50.5229 25.6927 50.7322 25.902C50.9415 26.1112 51.0591 26.3951 51.0591 26.691ZM51.0591 30.3007C51.0591 30.5967 50.9415 30.8805 50.7322 31.0898C50.5229 31.2991 50.2391 31.4167 49.9431 31.4167H34.7055C34.5589 31.4167 34.4138 31.3878 34.2784 31.3317C34.143 31.2756 34.02 31.1934 33.9164 31.0898C33.8128 30.9862 33.7306 30.8632 33.6745 30.7278C33.6184 30.5924 33.5895 30.4473 33.5895 30.3007C33.5895 30.1542 33.6184 30.0091 33.6745 29.8737C33.7306 29.7383 33.8128 29.6153 33.9164 29.5116C34.02 29.408 34.143 29.3258 34.2784 29.2697C34.4138 29.2137 34.5589 29.1848 34.7055 29.1848H49.9431C50.0897 29.1848 50.2348 29.2136 50.3702 29.2697C50.5056 29.3258 50.6286 29.408 50.7323 29.5116C50.8359 29.6152 50.9181 29.7383 50.9742 29.8737C51.0302 30.0091 51.0591 30.1542 51.0591 30.3007ZM49.9431 35.026H34.7055C34.4095 35.026 34.1257 34.9085 33.9164 34.6992C33.7071 34.4899 33.5895 34.2061 33.5895 33.9101C33.5895 33.6141 33.7071 33.3303 33.9164 33.121C34.1257 32.9117 34.4095 32.7942 34.7055 32.7942H49.9431C50.2391 32.7942 50.5229 32.9117 50.7322 33.121C50.9415 33.3303 51.0591 33.6141 51.0591 33.9101C51.0591 34.2061 50.9415 34.4899 50.7322 34.6992C50.5229 34.9085 50.2391 35.026 49.9431 35.026ZM31.3353 33.9103C31.3353 34.2062 31.2177 34.4901 31.0085 34.6994C30.7992 34.9086 30.5153 35.0262 30.2194 35.0262H30.0567C29.9102 35.0262 29.7651 34.9973 29.6297 34.9413C29.4943 34.8852 29.3713 34.803 29.2676 34.6994C29.164 34.5957 29.0818 34.4727 29.0257 34.3373C28.9696 34.2019 28.9408 34.0568 28.9408 33.9103C28.9408 33.7637 28.9696 33.6186 29.0257 33.4832C29.0818 33.3478 29.164 33.2248 29.2676 33.1212C29.3713 33.0176 29.4943 32.9354 29.6297 32.8793C29.7651 32.8232 29.9102 32.7943 30.0567 32.7943H30.2194C30.3659 32.7943 30.511 32.8232 30.6465 32.8792C30.7819 32.9353 30.9049 33.0175 31.0085 33.1211C31.1121 33.2248 31.1943 33.3478 31.2504 33.4832C31.3065 33.6186 31.3353 33.7637 31.3353 33.9103ZM17.108 18.7056C16.8987 18.4964 16.6148 18.3788 16.3189 18.3787H1.19406C0.898098 18.3787 0.614254 18.4963 0.404976 18.7056C0.195697 18.9148 0.078125 19.1987 0.078125 19.4946V43.4287C0.078125 43.7247 0.195697 44.0085 0.404976 44.2178C0.614254 44.4271 0.898098 44.5446 1.19406 44.5446H20.8727C21.1686 44.5446 21.4525 44.4271 21.6617 44.2178C21.871 44.0085 21.9886 43.7247 21.9886 43.4287V24.0484C21.9886 23.7523 21.8709 23.4687 21.6617 23.2593L17.108 18.7056ZM19.7567 42.3129H2.31V20.6106H15.8567L19.7567 24.5106V42.3129ZM5.72062 25.6565H16.3414C16.6374 25.6565 16.9212 25.7741 17.1305 25.9834C17.3398 26.1926 17.4573 26.4765 17.4573 26.7724C17.4573 27.0684 17.3398 27.3523 17.1305 27.5615C16.9212 27.7708 16.6374 27.8884 16.3414 27.8884H5.72062C5.42466 27.8884 5.14082 27.7708 4.93154 27.5615C4.72226 27.3523 4.60469 27.0684 4.60469 26.7724C4.60469 26.4765 4.72226 26.1926 4.93154 25.9834C5.14082 25.7741 5.42466 25.6565 5.72062 25.6565ZM17.4573 31.4618C17.4573 31.7578 17.3398 32.0416 17.1305 32.2509C16.9212 32.4602 16.6374 32.5778 16.3414 32.5778H5.72062C5.57408 32.5778 5.42897 32.5489 5.29357 32.4928C5.15818 32.4367 5.03516 32.3545 4.93154 32.2509C4.82791 32.1473 4.74571 32.0243 4.68963 31.8889C4.63355 31.7535 4.60469 31.6084 4.60469 31.4618C4.60469 31.3153 4.63355 31.1702 4.68963 31.0348C4.74571 30.8994 4.82791 30.7764 4.93154 30.6727C5.03516 30.5691 5.15818 30.4869 5.29357 30.4308C5.42897 30.3748 5.57408 30.3459 5.72062 30.3459H16.3414C16.488 30.3459 16.6331 30.3747 16.7685 30.4308C16.9039 30.4869 17.0269 30.5691 17.1305 30.6727C17.2342 30.7763 17.3164 30.8994 17.3724 31.0348C17.4285 31.1702 17.4574 31.3153 17.4573 31.4618ZM17.4573 36.1509C17.4573 36.4469 17.3398 36.7307 17.1305 36.94C16.9212 37.1493 16.6374 37.2668 16.3414 37.2668H5.72062C5.42466 37.2668 5.14082 37.1493 4.93154 36.94C4.72226 36.7307 4.60469 36.4469 4.60469 36.1509C4.60469 35.8549 4.72226 35.5711 4.93154 35.3618C5.14082 35.1525 5.42466 35.035 5.72062 35.035H16.3414C16.488 35.0349 16.6331 35.0638 16.7685 35.1199C16.9039 35.1759 17.0269 35.2581 17.1305 35.3618C17.2342 35.4654 17.3164 35.5884 17.3724 35.7238C17.4285 35.8592 17.4574 36.0043 17.4573 36.1509ZM79.595 23.2593L75.0413 18.7056C74.8319 18.4964 74.5481 18.3788 74.2522 18.3787H59.1319C58.8359 18.3787 58.5521 18.4963 58.3428 18.7056C58.1335 18.9148 58.0159 19.1987 58.0159 19.4946V43.4287C58.0159 43.7247 58.1335 44.0085 58.3428 44.2178C58.5521 44.4271 58.8359 44.5446 59.1319 44.5446H78.8059C79.1019 44.5446 79.3857 44.4271 79.595 44.2178C79.8043 44.0085 79.9219 43.7247 79.9219 43.4287V24.0484C79.9219 23.7525 79.8042 23.4687 79.595 23.2593ZM77.69 42.3129H60.2478V20.6106H73.79L77.69 24.5106V42.3129ZM63.6584 25.6565H74.2792C74.5752 25.6565 74.859 25.7741 75.0683 25.9834C75.2776 26.1926 75.3952 26.4765 75.3952 26.7724C75.3952 27.0684 75.2776 27.3523 75.0683 27.5615C74.859 27.7708 74.5752 27.8884 74.2792 27.8884H63.6584C63.3625 27.8884 63.0786 27.7708 62.8693 27.5615C62.6601 27.3523 62.5425 27.0684 62.5425 26.7724C62.5425 26.4765 62.6601 26.1926 62.8693 25.9834C63.0786 25.7741 63.3625 25.6565 63.6584 25.6565ZM75.3953 31.4618C75.3953 31.7578 75.2777 32.0416 75.0685 32.2509C74.8592 32.4602 74.5753 32.5778 74.2794 32.5778H63.6586C63.512 32.5778 63.3669 32.5489 63.2315 32.4928C63.0962 32.4367 62.9731 32.3545 62.8695 32.2509C62.7659 32.1473 62.6837 32.0243 62.6276 31.8889C62.5715 31.7535 62.5427 31.6084 62.5427 31.4618C62.5427 31.3153 62.5715 31.1702 62.6276 31.0348C62.6837 30.8994 62.7659 30.7764 62.8695 30.6727C62.9731 30.5691 63.0962 30.4869 63.2315 30.4308C63.3669 30.3748 63.512 30.3459 63.6586 30.3459H74.2794C74.5753 30.3459 74.8592 30.4635 75.0685 30.6727C75.2777 30.882 75.3953 31.1659 75.3953 31.4618ZM75.3953 36.1509C75.3953 36.4469 75.2777 36.7307 75.0685 36.94C74.8592 37.1493 74.5753 37.2668 74.2794 37.2668H63.6586C63.3626 37.2668 63.0788 37.1493 62.8695 36.94C62.6602 36.7307 62.5427 36.4469 62.5427 36.1509C62.5427 35.8549 62.6602 35.5711 62.8695 35.3618C63.0788 35.1525 63.3626 35.035 63.6586 35.035H74.2794C74.5753 35.035 74.8592 35.1525 75.0685 35.3618C75.2777 35.5711 75.3953 35.8549 75.3953 36.1509ZM21.1742 65.2915C21.3832 65.5008 21.5006 65.7846 21.5005 66.0804C21.5004 66.3762 21.3829 66.6598 21.1737 66.869L17.8623 70.1803C17.7588 70.284 17.6358 70.3663 17.5004 70.4224C17.365 70.4785 17.2198 70.5073 17.0733 70.5071C16.8526 70.5071 16.6368 70.4417 16.4533 70.3191C16.2698 70.1964 16.1268 70.0221 16.0423 69.8182C15.9579 69.6143 15.9358 69.39 15.9788 69.1735C16.0219 68.957 16.1282 68.7582 16.2842 68.6021L17.6906 67.1959H11.0333C10.7373 67.1959 10.4535 67.0783 10.2442 66.869C10.0349 66.6598 9.91734 66.3759 9.91734 66.0799V47.1015C9.91734 46.8055 10.0349 46.5217 10.2442 46.3124C10.4535 46.1031 10.7373 45.9856 11.0333 45.9856C11.3292 45.9856 11.6131 46.1031 11.8224 46.3124C12.0316 46.5217 12.1492 46.8055 12.1492 47.1015V64.964H17.6934L16.2838 63.5524C16.1802 63.4488 16.0981 63.3257 16.0421 63.1903C15.9861 63.0549 15.9573 62.9098 15.9574 62.7632C15.9575 62.6167 15.9865 62.4716 16.0427 62.3363C16.0988 62.201 16.1811 62.078 16.2848 61.9745C16.3885 61.8709 16.5116 61.7888 16.647 61.7328C16.7824 61.6768 16.9275 61.648 17.0741 61.6481C17.2206 61.6482 17.3657 61.6772 17.501 61.7334C17.6364 61.7895 17.7593 61.8719 17.8628 61.9756L21.1742 65.2915ZM70.0872 47.1015V66.0799C70.0872 66.3759 69.9696 66.6598 69.7603 66.869C69.5511 67.0783 69.2672 67.1959 68.9712 67.1959H62.3119L63.7195 68.6017C63.8759 68.7576 63.9824 68.9564 64.0257 69.173C64.0689 69.3895 64.0469 69.614 63.9625 69.8181C63.8781 70.0221 63.735 70.1965 63.5514 70.3192C63.3678 70.4418 63.1519 70.5072 62.9311 70.5071C62.7847 70.5073 62.6396 70.4786 62.5043 70.4226C62.369 70.3666 62.2461 70.2844 62.1427 70.1807L58.8267 66.8695C58.723 66.7659 58.6407 66.6429 58.5846 66.5075C58.5284 66.3721 58.4995 66.2269 58.4994 66.0803C58.4994 65.9337 58.5282 65.7886 58.5842 65.6531C58.6403 65.5177 58.7225 65.3946 58.8261 65.2909L62.142 61.975C62.3519 61.7684 62.6348 61.6531 62.9293 61.6543C63.2237 61.6555 63.5058 61.7729 63.714 61.9811C63.9222 62.1893 64.0396 62.4714 64.0408 62.7658C64.042 63.0603 63.9267 63.3432 63.7202 63.5531L62.3091 64.964H67.8552V47.1015C67.8552 46.4853 68.3547 45.9856 68.9711 45.9856C69.5875 45.9856 70.0872 46.4851 70.0872 47.1015Z" fill="#0E3466"/>
</g>
</g>
</svg>
