<svg width="80" height="80" viewBox="0 0 80 80" fill="none" xmlns="http://www.w3.org/2000/svg">
<g id="Frame" clipPath="url(#clip0_144_5343)">
<g id="Group">
<path id="Vector" d="M77.3333 66.6666H74.6667V19.9999C74.6667 18.9391 74.2452 17.9217 73.4951 17.1715C72.7449 16.4214 71.7275 15.9999 70.6667 15.9999H57.2653C56.936 11.646 54.9739 7.57721 51.7721 4.60845C48.5702 1.63968 44.3651 -0.0098877 39.9987 -0.0098877C35.6323 -0.0098877 31.4271 1.63968 28.2253 4.60845C25.0234 7.57721 23.0614 11.646 22.732 15.9999H9.33333C8.27247 15.9999 7.25505 16.4214 6.50491 17.1715C5.75476 17.9217 5.33333 18.9391 5.33333 19.9999V66.6666H2.66667C1.95942 66.6666 1.28115 66.9476 0.781049 67.4477C0.280952 67.9478 0 68.626 0 69.3333C0.00317614 72.1613 1.128 74.8725 3.1277 76.8722C5.1274 78.8719 7.83867 79.9968 10.6667 79.9999H69.3333C72.1613 79.9968 74.8726 78.8719 76.8723 76.8722C78.872 74.8725 79.9968 72.1613 80 69.3333C80 68.626 79.7191 67.9478 79.219 67.4477C78.7189 66.9476 78.0406 66.6666 77.3333 66.6666ZM52 30.7239V30.4213C52.427 30.5792 52.8781 30.6622 53.3333 30.6666H54.6667V31.4666C54.667 31.8021 54.5905 32.1333 54.4432 32.4347C54.2958 32.7362 54.0815 32.9999 53.8166 33.2058C53.5516 33.4116 53.2431 33.5542 52.9146 33.6225C52.5861 33.6908 52.2464 33.6831 51.9213 33.5999L51.4707 33.4879C51.817 32.6074 51.9965 31.6701 52 30.7239ZM56 21.3333V26.6666C56 27.0202 55.8595 27.3594 55.6095 27.6094C55.3594 27.8595 55.0203 27.9999 54.6667 27.9999H53.3333C52.9797 27.9999 52.6406 27.8595 52.3905 27.6094C52.1405 27.3594 52 27.0202 52 26.6666V21.3333C52 20.9797 52.1405 20.6405 52.3905 20.3905C52.6406 20.1404 52.9797 19.9999 53.3333 19.9999H54.6667C55.0203 19.9999 55.3594 20.1404 55.6095 20.3905C55.8595 20.6405 56 20.9797 56 21.3333ZM49.3333 18.6226C42.1107 18.1799 39.9467 14.2373 39.8667 14.0706C39.7554 13.8479 39.584 13.6609 39.372 13.5306C39.1599 13.4003 38.9156 13.3319 38.6667 13.3333C35.7584 13.286 32.9351 14.3145 30.7387 16.2213C31.0324 13.8683 32.2108 11.7153 34.0344 10.1996C35.8581 8.68398 38.1902 7.91927 40.5573 8.06082C42.9243 8.20237 45.1487 9.23958 46.7787 10.9618C48.4087 12.684 49.3221 14.962 49.3333 17.3333V18.6226ZM30.6667 20.3559C31.4458 19.1036 32.5146 18.0569 33.783 17.3041C35.0513 16.5513 36.4821 16.1146 37.9547 16.0306C39.0707 17.5706 42.2907 20.9199 49.3333 21.3013V30.7306C49.3262 31.4613 49.1583 32.1815 48.8413 32.8399L45.4827 31.9999L45.4973 31.9373C45.58 31.5998 45.5951 31.2493 45.5415 30.906C45.488 30.5628 45.3669 30.2335 45.1853 29.9373C45.0023 29.6356 44.7612 29.3732 44.476 29.1654C44.1908 28.9576 43.8672 28.8085 43.524 28.7266L39.6573 27.8026C39.345 27.7234 39.0235 27.6858 38.7013 27.6906C37.7258 27.6962 36.786 28.058 36.0586 28.708C35.3312 29.3581 34.8665 30.2515 34.7518 31.2203C34.6371 32.1891 34.8804 33.1663 35.4359 33.9682C35.9914 34.7702 36.8208 35.3414 37.768 35.5746L41.6613 36.5079C41.8662 36.5565 42.0761 36.5811 42.2867 36.5813C42.8754 36.5786 43.4469 36.3822 43.913 36.0224C44.379 35.6627 44.7137 35.1595 44.8653 34.5906L46.9987 35.1239L44.908 37.2146C43.9728 38.1433 42.7087 38.6651 41.3907 38.6666H38.6093C37.2928 38.663 36.0308 38.1403 35.0973 37.2119L32.1213 34.2359C31.193 33.3024 30.6703 32.0405 30.6667 30.7239V20.3493V20.3559ZM40 46.6226C37.1698 45.7546 34.5515 44.3065 32.312 42.3706L33.7147 39.5706C35.0919 40.709 36.8225 41.3323 38.6093 41.3333H41.3907C43.1798 41.327 44.9107 40.6971 46.2853 39.5519L47.688 42.3519C45.4489 44.2897 42.8306 45.7397 40 46.6093V46.6226ZM49.4667 44.3679L51.628 45.8093C50.2224 48.4836 47.9043 50.5652 45.0947 51.6759C44.7517 50.416 44.0766 49.2712 43.14 48.3613C45.4365 47.348 47.5689 45.9976 49.4667 44.3546V44.3679ZM36.876 48.3559C35.9399 49.2658 35.2649 50.4099 34.9213 51.6693C32.1161 50.5514 29.8002 48.4718 28.388 45.8026L30.5333 44.3546C32.4356 45.9919 34.5715 47.3361 36.8707 48.3426L36.876 48.3559ZM42.908 31.3373L42.2907 33.9306L38.388 32.9973C38.0771 32.9142 37.8067 32.7215 37.6267 32.4547C37.4468 32.1879 37.3694 31.865 37.4089 31.5456C37.4484 31.2262 37.602 30.9318 37.8415 30.7169C38.081 30.5019 38.3902 30.3808 38.712 30.3759C38.8143 30.3721 38.9166 30.3824 39.016 30.4066L42.908 31.3373ZM28 26.6666C28 27.0202 27.8595 27.3594 27.6095 27.6094C27.3594 27.8595 27.0203 27.9999 26.6667 27.9999H25.3333C24.9797 27.9999 24.6406 27.8595 24.3905 27.6094C24.1405 27.3594 24 27.0202 24 26.6666V21.3333C24 20.9797 24.1405 20.6405 24.3905 20.3905C24.6406 20.1404 24.9797 19.9999 25.3333 19.9999H26.6667C27.0203 19.9999 27.3594 20.1404 27.6095 20.3905C27.8595 20.6405 28 20.9797 28 21.3333V26.6666ZM25.3333 30.6666H26.6667C27.1219 30.6622 27.573 30.5792 28 30.4213V30.7239C28.0058 32.7472 28.8092 34.6866 30.236 36.1213L31.7107 37.5999L29.6333 41.7573L26.18 44.0599L23.172 44.4893C21.1861 44.7827 19.371 45.7776 18.0554 47.2938C16.7398 48.81 16.0106 50.7472 16 52.7546V61.3333H13.3333V23.9999H21.3333V26.6666C21.3333 27.7275 21.7548 28.7449 22.5049 29.495C23.2551 30.2452 24.2725 30.6666 25.3333 30.6666ZM18.6667 52.7546C18.6723 51.3874 19.1681 50.0676 20.064 49.0349C20.96 48.0022 22.1966 47.3251 23.5493 47.1266L25.8867 46.7919C26.8504 48.7433 28.2324 50.4582 29.9343 51.8147C31.6362 53.1711 33.6162 54.1358 35.7333 54.6399C35.821 54.6582 35.9104 54.6671 36 54.6666C36.3509 54.6639 36.6869 54.524 36.936 54.2768C37.1852 54.0297 37.3278 53.6948 37.3333 53.3439C37.3804 52.5145 37.6539 51.7138 38.124 51.0288C38.5941 50.3439 39.243 49.8008 40 49.4586C40.7555 49.8 41.4033 50.3414 41.8733 51.0243C42.3433 51.7072 42.6177 52.5057 42.6667 53.3333C42.6666 53.531 42.7106 53.7263 42.7953 53.9049C42.8801 54.0836 43.0035 54.2412 43.1566 54.3663C43.3098 54.4913 43.4888 54.5808 43.6808 54.6281C43.8728 54.6755 44.0729 54.6795 44.2667 54.6399C46.3848 54.1365 48.3658 53.1722 50.0687 51.8157C51.7716 50.4592 53.1544 48.7439 54.1187 46.7919L56.456 47.1266C57.8077 47.3263 59.0431 48.0039 59.938 49.0365C60.8328 50.0691 61.3279 51.3882 61.3333 52.7546V61.3333H18.6667V52.7546ZM56.828 44.4879L53.82 44.0586L50.3667 41.7559L48.2893 37.5999L49.764 36.1253C49.8453 36.0439 49.9173 35.9559 49.9933 35.8706L51.2773 36.1906C51.6697 36.2894 52.0727 36.3396 52.4773 36.3399C53.7674 36.3371 55.0035 35.8222 55.914 34.9084C56.8246 33.9946 57.3351 32.7566 57.3333 31.4666V29.6266C57.7511 29.2546 58.0858 28.7988 58.3155 28.2887C58.5453 27.7787 58.6649 27.226 58.6667 26.6666V23.9999H66.6667V61.3333H64V52.7546C63.9903 50.7465 63.2616 48.8084 61.9459 47.2913C60.6302 45.7743 58.8145 44.7788 56.828 44.4853V44.4879ZM40 2.66661C43.8884 2.6712 47.6163 4.2179 50.3658 6.96744C53.1154 9.71698 54.6621 13.4448 54.6667 17.3333H53.3333C52.8781 17.3377 52.427 17.4207 52 17.5786V17.3333C52 14.1507 50.7357 11.0984 48.4853 8.84799C46.2348 6.59756 43.1826 5.33328 40 5.33328C36.8174 5.33328 33.7652 6.59756 31.5147 8.84799C29.2643 11.0984 28 14.1507 28 17.3333V17.5786C27.573 17.4207 27.1219 17.3377 26.6667 17.3333H25.3333C25.3379 13.4448 26.8846 9.71698 29.6342 6.96744C32.3837 4.2179 36.1116 2.6712 40 2.66661ZM8 19.9999C8 19.6463 8.14048 19.3072 8.39052 19.0571C8.64057 18.8071 8.97971 18.6666 9.33333 18.6666H22.3733C21.7075 19.3955 21.3368 20.3461 21.3333 21.3333H13.3333C12.6261 21.3333 11.9478 21.6142 11.4477 22.1143C10.9476 22.6144 10.6667 23.2927 10.6667 23.9999V61.3333C10.6667 62.0405 10.9476 62.7188 11.4477 63.2189C11.9478 63.719 12.6261 63.9999 13.3333 63.9999H66.6667C67.3739 63.9999 68.0522 63.719 68.5523 63.2189C69.0524 62.7188 69.3333 62.0405 69.3333 61.3333V23.9999C69.3333 23.2927 69.0524 22.6144 68.5523 22.1143C68.0522 21.6142 67.3739 21.3333 66.6667 21.3333H58.6667C58.6632 20.3461 58.2925 19.3955 57.6267 18.6666H70.6667C71.0203 18.6666 71.3594 18.8071 71.6095 19.0571C71.8595 19.3072 72 19.6463 72 19.9999V66.6666H8V19.9999ZM52 69.3333C52 70.0405 51.7191 70.7188 51.219 71.2189C50.7189 71.719 50.0406 71.9999 49.3333 71.9999H30.6667C29.9594 71.9999 29.2811 71.719 28.781 71.2189C28.281 70.7188 28 70.0405 28 69.3333H52ZM69.3333 77.3333H10.6667C8.54558 77.3312 6.51198 76.4876 5.01215 74.9878C3.51232 73.488 2.66878 71.4544 2.66667 69.3333H25.3333C25.3333 70.7478 25.8952 72.1043 26.8954 73.1045C27.8956 74.1047 29.2522 74.6666 30.6667 74.6666H49.3333C50.7478 74.6666 52.1044 74.1047 53.1046 73.1045C54.1048 72.1043 54.6667 70.7478 54.6667 69.3333H77.3333C77.3312 71.4544 76.4877 73.488 74.9879 74.9878C73.488 76.4876 71.4544 77.3312 69.3333 77.3333Z" fill="#0E3466"/>
</g>
</g>
<defs>
<clipPath id="clip0_144_5343">
<rect width="80" height="80" fill="white"/>
</clipPath>
</defs>
</svg>
