<svg width="52" height="52" viewBox="0 0 52 52" fill="none" xmlns="http://www.w3.org/2000/svg">
<g id="Frame">
<g id="Group">
<path id="Vector" d="M1.69 35.4316C1.70389 35.6057 1.77351 35.7707 1.88854 35.9021C2.00358 36.0335 2.15789 36.1244 2.32862 36.1612L5.16019 36.7722C5.26012 37.2548 5.38687 37.731 5.54044 38.1957L3.39706 40.1376C3.26766 40.2549 3.17951 40.4109 3.14571 40.5822C3.1119 40.7536 3.13422 40.9313 3.20938 41.089C3.58029 41.8768 4.01394 42.6335 4.50612 43.3518C4.60536 43.4953 4.74814 43.603 4.91334 43.6591C5.07854 43.7151 5.25739 43.7165 5.42344 43.663L8.17537 42.7766C8.50444 43.1455 8.85463 43.4956 9.2235 43.8247L8.33706 46.5766C8.28358 46.7427 8.28497 46.9215 8.34101 47.0868C8.39705 47.2519 8.50478 47.3947 8.64825 47.494C9.36655 47.9861 10.1233 48.4198 10.9111 48.7907C11.0688 48.8659 11.2465 48.8882 11.4179 48.8544C11.5892 48.8206 11.7452 48.7324 11.8625 48.603L13.8044 46.4596C14.2699 46.6124 14.7461 46.74 15.2287 46.8399L15.8397 49.6715C15.9153 50.0216 16.2118 50.2808 16.5685 50.3101C17.0008 50.3442 17.4338 50.3751 17.875 50.3751C18.3162 50.3751 18.7493 50.3442 19.1815 50.3101C19.3556 50.2962 19.5206 50.2266 19.652 50.1115C19.7834 49.9965 19.8743 49.8422 19.9111 49.6715L20.5221 46.8399C21.0038 46.7405 21.4793 46.6135 21.9464 46.4596L23.8883 48.603C24.0056 48.7325 24.1615 48.8208 24.3329 48.8546C24.5043 48.8884 24.6821 48.866 24.8398 48.7907C25.6274 48.4195 26.3841 47.9859 27.1026 47.494C27.246 47.3947 27.3538 47.2519 27.4098 47.0868C27.4658 46.9215 27.4672 46.7427 27.4138 46.5766L26.5273 43.8247C26.8962 43.4956 27.2464 43.1455 27.5754 42.7774L30.3274 43.6638C30.4934 43.7174 30.6723 43.7161 30.8375 43.6601C31.0028 43.604 31.1455 43.4962 31.2447 43.3526C31.7369 42.6343 32.1705 41.8776 32.5414 41.0898C32.6166 40.9321 32.6389 40.7544 32.6051 40.583C32.5713 40.4117 32.4832 40.2557 32.3538 40.1384L30.2104 38.1965C30.3631 37.731 30.4907 37.2548 30.5906 36.7722L33.4222 36.1612C33.7724 36.0856 34.0316 35.7891 34.0608 35.4324C34.0941 34.9993 34.125 34.5663 34.125 34.1251C34.125 33.6839 34.0941 33.2508 34.06 32.8186C34.0461 32.6445 33.9765 32.4795 33.8615 32.3481C33.7464 32.2166 33.5921 32.1258 33.4214 32.089L30.5898 31.478C30.4904 30.9963 30.3635 30.5208 30.2096 30.0536L32.3529 28.1118C32.4823 27.9944 32.5705 27.8385 32.6043 27.6671C32.6381 27.4957 32.6158 27.318 32.5406 27.1603C32.1694 26.3727 31.7358 25.616 31.2439 24.8975C31.1447 24.754 31.002 24.6461 30.8367 24.5901C30.6715 24.534 30.4926 24.5327 30.3266 24.5863L27.5746 25.4728C27.2454 25.1038 26.8955 24.7538 26.5265 24.4246L27.4129 21.6727C27.4664 21.5067 27.465 21.3278 27.409 21.1626C27.3529 20.9974 27.2452 20.8546 27.1017 20.7554C26.3834 20.2632 25.6267 19.8296 24.8389 19.4586C24.6813 19.3832 24.5035 19.3608 24.3321 19.3946C24.1606 19.4284 24.0047 19.5167 23.8875 19.6463L21.9456 21.7897C21.4784 21.6363 21.0029 21.5093 20.5213 21.4095L19.9103 18.5779C19.8734 18.4074 19.7826 18.2532 19.6514 18.1382C19.5202 18.0232 19.3554 17.9535 19.1815 17.9393C18.3116 17.8702 17.4376 17.8702 16.5677 17.9393C16.3936 17.9532 16.2286 18.0228 16.0972 18.1378C15.9657 18.2528 15.8749 18.4072 15.8381 18.5779L15.2271 21.4095C14.7444 21.5094 14.2683 21.6361 13.8036 21.7897L11.8617 19.6463C11.7443 19.5169 11.5884 19.4288 11.417 19.395C11.2457 19.3612 11.0679 19.3835 10.9103 19.4586C10.1224 19.8296 9.36574 20.2632 8.64744 20.7554C8.50396 20.8546 8.39624 20.9974 8.3402 21.1626C8.28416 21.3278 8.28277 21.5067 8.33625 21.6727L9.22269 24.4246C8.85381 24.7537 8.50362 25.1039 8.17456 25.4728L5.42344 24.5863C5.25741 24.5326 5.07847 24.5338 4.91321 24.5899C4.74795 24.646 4.60518 24.7538 4.50612 24.8975C4.01394 25.6158 3.58029 26.3725 3.20938 27.1603C3.13422 27.318 3.1119 27.4957 3.14571 27.6671C3.17951 27.8385 3.26766 27.9944 3.39706 28.1118L5.54044 30.0536C5.38701 30.5209 5.26006 30.9964 5.16019 31.478L2.32862 32.089C1.97844 32.1645 1.71925 32.4611 1.69 32.8178C1.65587 33.2508 1.625 33.6839 1.625 34.1251C1.625 34.5663 1.65587 34.9993 1.69 35.4316ZM3.26706 33.549L6.03119 32.9518C6.19082 32.9174 6.33636 32.8356 6.44883 32.7172C6.5613 32.5988 6.63548 32.4492 6.66169 32.288C6.78356 31.5389 6.98019 30.8036 7.24588 30.1016C7.30375 29.9489 7.31424 29.7824 7.27597 29.6236C7.2377 29.4649 7.15246 29.3214 7.03138 29.2119L4.94406 27.3204C5.12606 26.9718 5.31619 26.6379 5.51281 26.3218L8.19081 27.1847C8.50769 27.2863 8.85706 27.1847 9.06912 26.9263C9.55008 26.3385 10.0885 25.8002 10.6763 25.3192C10.9346 25.108 11.0378 24.7594 10.9346 24.4409L10.0717 21.7629C10.3878 21.5655 10.7209 21.3753 11.0703 21.1941L12.9618 23.2823C13.1869 23.5301 13.5411 23.6154 13.8523 23.4968C14.5594 23.2292 15.2916 23.0335 16.0379 22.9126C16.1991 22.8864 16.3487 22.8122 16.4671 22.6997C16.5855 22.5873 16.6673 22.4417 16.7017 22.2821L17.2981 19.518C17.6808 19.4976 18.07 19.4968 18.4511 19.518L19.0483 22.2821C19.0827 22.4417 19.1645 22.5873 19.2829 22.6997C19.4013 22.8122 19.5509 22.8864 19.7121 22.9126C20.4612 23.0345 21.1965 23.2311 21.8985 23.4968C22.0512 23.5548 22.2178 23.5653 22.3765 23.527C22.5352 23.4888 22.6787 23.4035 22.7882 23.2823L24.6797 21.195C25.0282 21.377 25.3622 21.5671 25.6782 21.7637L24.8154 24.4417C24.713 24.7602 24.8154 25.108 25.0737 25.32C25.6616 25.801 26.1999 26.3393 26.6809 26.9271C26.7841 27.0539 26.9232 27.1464 27.08 27.1925C27.2368 27.2386 27.4038 27.2362 27.5592 27.1855L30.2372 26.3226C30.4346 26.6387 30.6248 26.9718 30.8059 27.3204L28.7178 29.2119C28.5967 29.3215 28.5114 29.4652 28.4731 29.624C28.4349 29.7829 28.4454 29.9496 28.5033 30.1024C28.769 30.8028 28.9656 31.5381 29.0875 32.288C29.1137 32.4492 29.1879 32.5988 29.3004 32.7172C29.4128 32.8356 29.5584 32.9174 29.718 32.9518L32.4821 33.5482C32.4927 33.7391 32.5 33.9317 32.5 34.1251C32.5 34.3185 32.4935 34.511 32.4829 34.7011L29.7188 35.2983C29.5592 35.3328 29.4136 35.4146 29.3012 35.533C29.1887 35.6514 29.1145 35.801 29.0883 35.9622C28.9671 36.7086 28.7714 37.4411 28.5041 38.1486C28.4463 38.3013 28.4358 38.4678 28.474 38.6265C28.5123 38.7853 28.5975 38.9288 28.7186 39.0383L30.8059 40.9298C30.6239 41.2783 30.4338 41.6123 30.2372 41.9283L27.5592 41.0655C27.4038 41.0147 27.2367 41.0122 27.0799 41.0583C26.9231 41.1045 26.784 41.197 26.6809 41.3238C26.1997 41.9114 25.6614 42.4498 25.0737 42.931C24.8154 43.1422 24.713 43.4908 24.8154 43.8085L25.6782 46.4865C25.3622 46.6839 25.0291 46.874 24.6805 47.0552L22.789 44.9671C22.6791 44.8463 22.5355 44.7613 22.3767 44.7231C22.2179 44.6848 22.0513 44.6951 21.8985 44.7526C21.1981 45.0183 20.4628 45.2149 19.7129 45.3368C19.5517 45.363 19.4021 45.4372 19.2837 45.5496C19.1653 45.6621 19.0835 45.8076 19.0491 45.9673L18.4527 48.7314C18.07 48.7517 17.6808 48.7525 17.2997 48.7314L16.7026 45.9673C16.6681 45.8076 16.5863 45.6621 16.4679 45.5496C16.3495 45.4372 16.1999 45.363 16.0387 45.3368C15.2923 45.2155 14.5598 45.0198 13.8523 44.7526C13.6997 44.6946 13.5331 44.6841 13.3743 44.7223C13.2156 44.7606 13.0721 44.8459 12.9626 44.9671L11.0711 47.0544C10.7313 46.8774 10.3982 46.6877 10.0726 46.4856L10.9354 43.8076C11.0378 43.4891 10.9354 43.1414 10.6771 42.9293C10.0893 42.4484 9.55089 41.91 9.06994 41.3222C8.96653 41.1958 8.82738 41.1035 8.67069 41.0574C8.51399 41.0113 8.34702 41.0135 8.19162 41.0638L5.51362 41.9267C5.31082 41.6016 5.12108 41.2684 4.94488 40.9282L7.033 39.0366C7.15415 38.927 7.23943 38.7834 7.2777 38.6245C7.31596 38.4656 7.30544 38.2989 7.2475 38.1461C6.97997 37.439 6.78426 36.7068 6.66331 35.9605C6.6371 35.7993 6.56293 35.6498 6.45046 35.5314C6.33799 35.4129 6.19245 35.3312 6.03281 35.2967L3.26706 34.702C3.25731 34.511 3.25 34.3185 3.25 34.1251C3.25 33.9317 3.2565 33.7391 3.26706 33.549ZM44.0529 13.191C44.2026 13.1439 44.3354 13.0544 44.4353 12.9335C44.5352 12.8125 44.598 12.6652 44.616 12.5093C44.6647 12.099 44.6875 11.7277 44.6875 11.3751C44.6875 11.0225 44.6647 10.6511 44.6168 10.2408C44.5988 10.085 44.536 9.93766 44.4361 9.8167C44.3362 9.69573 44.2034 9.60628 44.0537 9.55915L41.8007 8.85146C41.7335 8.66751 41.6587 8.48643 41.5764 8.30871L42.6684 6.21652C42.7408 6.07744 42.7715 5.92042 42.7568 5.76433C42.7421 5.60823 42.6826 5.4597 42.5856 5.33658C42.1135 4.74025 41.574 4.20067 40.9776 3.72865C40.8546 3.63144 40.7061 3.57183 40.55 3.55699C40.3939 3.54214 40.2368 3.57269 40.0977 3.64496L38.0039 4.73696C37.826 4.65532 37.6449 4.58078 37.4611 4.51352L36.7534 2.26046C36.7063 2.11081 36.6169 1.978 36.4959 1.87809C36.3749 1.77817 36.2276 1.71541 36.0718 1.6974C35.3184 1.60152 34.5558 1.60152 33.8024 1.6974C33.6466 1.71541 33.4993 1.77817 33.3783 1.87809C33.2573 1.978 33.1679 2.11081 33.1208 2.26046L32.4131 4.51352C32.2286 4.58096 32.0474 4.65571 31.8703 4.73777L29.7781 3.64577C29.639 3.57359 29.482 3.54302 29.326 3.55771C29.1699 3.57241 29.0214 3.63176 28.8982 3.72865C28.3019 4.20067 27.7623 4.74025 27.2903 5.33658C27.1929 5.45953 27.1331 5.60804 27.1183 5.76418C27.1034 5.92032 27.1341 6.07742 27.2066 6.21652L28.2977 8.30871C28.2165 8.48583 28.1418 8.66702 28.0743 8.85146L25.8213 9.55915C25.6716 9.60628 25.5388 9.69573 25.4389 9.8167C25.339 9.93766 25.2762 10.085 25.2582 10.2408C25.2103 10.6511 25.1875 11.0225 25.1875 11.3751C25.1875 11.7277 25.2103 12.099 25.2582 12.5093C25.2762 12.6652 25.339 12.8125 25.4389 12.9335C25.5388 13.0544 25.6716 13.1439 25.8213 13.191L28.0743 13.8987C28.1418 14.0831 28.2165 14.2643 28.2986 14.4415L27.2066 16.5336C27.0587 16.8172 27.0912 17.1617 27.2894 17.4136C27.7615 18.0099 28.301 18.5495 28.8974 19.0215C29.1484 19.2206 29.4937 19.2523 29.7773 19.1052L31.8695 18.014C32.0466 18.0953 32.2278 18.17 32.4122 18.2375L33.1199 20.4905C33.1671 20.6402 33.2565 20.773 33.3775 20.8729C33.4985 20.9728 33.6458 21.0356 33.8016 21.0536C34.2136 21.1023 34.5849 21.1251 34.9375 21.1251C35.2901 21.1251 35.6614 21.1023 36.0718 21.0544C36.2276 21.0364 36.3749 20.9736 36.4959 20.8737C36.6169 20.7738 36.7063 20.641 36.7534 20.4913L37.4611 18.2383C37.6456 18.1708 37.8267 18.0961 38.0039 18.014L40.0961 19.106C40.2351 19.1786 40.3921 19.2094 40.5483 19.1947C40.7044 19.18 40.853 19.1204 40.976 19.0231C41.5723 18.5511 42.1119 18.0115 42.5839 17.4152C42.6813 17.2923 42.7411 17.1438 42.7559 16.9876C42.7708 16.8315 42.7401 16.6744 42.6676 16.5353L41.5756 14.4431C41.6577 14.266 41.7324 14.0848 41.7999 13.9003L44.0529 13.191ZM40.9167 12.4728C40.6599 12.554 40.4601 12.7563 40.3821 13.0147C40.2727 13.3787 40.1274 13.7309 39.9482 14.0661C39.8852 14.1828 39.8518 14.3131 39.851 14.4457C39.8501 14.5783 39.8818 14.7091 39.9433 14.8266L40.9744 16.8026C40.7818 17.0163 40.5779 17.2202 40.365 17.412L38.389 16.3809C38.2715 16.3196 38.1407 16.288 38.0081 16.2889C37.8756 16.2897 37.7452 16.323 37.6285 16.3858C37.2933 16.565 36.9411 16.7103 36.5771 16.8196C36.4501 16.8579 36.3343 16.9266 36.2399 17.0198C36.1455 17.113 36.0752 17.2278 36.0352 17.3543L35.3657 19.4863C35.0805 19.5041 34.7945 19.5041 34.5093 19.4863L33.8398 17.3543C33.7998 17.2278 33.7295 17.113 33.6351 17.0198C33.5407 16.9266 33.4249 16.8579 33.2979 16.8196C32.934 16.7107 32.582 16.5654 32.2473 16.3858C32.1305 16.3228 32 16.2895 31.8673 16.2886C31.7345 16.2878 31.6036 16.3195 31.486 16.3809L29.51 17.412C29.2964 17.2195 29.0931 17.0161 28.9006 16.8026L29.9317 14.8266C29.993 14.709 30.0246 14.5783 30.0237 14.4457C30.0229 14.3132 29.9896 14.1828 29.9268 14.0661C29.7476 13.7309 29.6023 13.3787 29.4929 13.0147C29.4547 12.8877 29.386 12.7719 29.2928 12.6775C29.1996 12.583 29.0848 12.5128 28.9583 12.4728L26.8263 11.8033C26.8076 11.5181 26.8076 11.232 26.8263 10.9469L28.9583 10.2774C29.2151 10.1961 29.4149 9.99383 29.4929 9.73546C29.6034 9.3674 29.7497 9.01396 29.9268 8.6849C29.9897 8.56805 30.0231 8.43756 30.0239 8.30485C30.0248 8.17213 29.9931 8.04123 29.9317 7.92358L28.9006 5.94758C29.0932 5.7339 29.2971 5.52996 29.51 5.33821L31.486 6.36927C31.7241 6.49358 32.0101 6.49115 32.2465 6.3644C32.5817 6.18522 32.9339 6.03987 33.2979 5.93052C33.5554 5.85333 33.7586 5.65265 33.8398 5.3959L34.5093 3.2639C34.7945 3.24602 35.0805 3.24602 35.3657 3.2639L36.0352 5.3959C36.1164 5.65265 36.3188 5.85252 36.5771 5.93052C36.9452 6.04102 37.2986 6.18727 37.6277 6.3644C37.7445 6.42733 37.875 6.46067 38.0077 6.46152C38.1405 6.46237 38.2714 6.4307 38.389 6.36927L40.365 5.33821C40.5787 5.53077 40.7826 5.73471 40.9744 5.94758L39.9433 7.92358C39.882 8.04113 39.8504 8.17188 39.8513 8.30444C39.8521 8.437 39.8854 8.56734 39.9482 8.68408C40.1253 9.01477 40.2716 9.36821 40.3821 9.73546C40.4593 9.99302 40.6599 10.1961 40.9167 10.2774L43.0487 10.9469C43.0674 11.232 43.0674 11.5181 43.0487 11.8033L40.9167 12.4728ZM49.7754 28.4083L48.3795 27.9127C48.3004 27.6866 48.209 27.465 48.1057 27.2489L48.7402 25.9123C48.8051 25.7762 48.8307 25.6247 48.814 25.4748C48.7974 25.3249 48.7392 25.1827 48.646 25.0641C48.2386 24.5435 47.7696 24.0743 47.2493 23.6666C47.1305 23.5736 46.9881 23.5155 46.8382 23.4989C46.6882 23.4822 46.5366 23.5077 46.4003 23.5723L45.0629 24.2069C44.8471 24.1037 44.6257 24.0126 44.3999 23.9339L43.9034 22.538C43.8527 22.3957 43.7633 22.2703 43.6454 22.1759C43.5274 22.0815 43.3855 22.0218 43.2356 22.0034C42.5811 21.9165 41.9181 21.9165 41.2636 22.0034C41.1136 22.0215 40.9715 22.0811 40.8535 22.1756C40.7355 22.27 40.6463 22.3956 40.5957 22.538L40.1001 23.9339C39.8734 24.0135 39.6516 24.1045 39.4363 24.2077L38.0997 23.5731C37.9635 23.5086 37.8121 23.4833 37.6623 23.4999C37.5125 23.5166 37.3702 23.5746 37.2515 23.6674C36.7323 24.0736 36.2619 24.5433 35.854 25.0641C35.7612 25.183 35.7032 25.3253 35.6866 25.4753C35.6699 25.6252 35.6953 25.7768 35.7598 25.9131L36.3943 27.2505C36.2912 27.4663 36.2 27.6877 36.1213 27.9135L34.7254 28.41C34.5831 28.4607 34.4577 28.5501 34.3633 28.668C34.2689 28.786 34.2092 28.9279 34.1908 29.0778C34.1461 29.4378 34.125 29.7603 34.125 30.0626C34.125 30.3648 34.1461 30.6866 34.19 31.0481C34.2266 31.3536 34.4338 31.6128 34.7246 31.716L36.1205 32.2116C36.2001 32.4383 36.2911 32.6601 36.3943 32.8755L35.7598 34.212C35.6949 34.3482 35.6693 34.4997 35.686 34.6496C35.7026 34.7995 35.7608 34.9417 35.854 35.0603C36.2603 35.5795 36.7299 36.0499 37.2507 36.4578C37.4928 36.6471 37.8227 36.6836 38.0997 36.552L39.4371 35.9175C39.6516 36.0198 39.8734 36.1116 40.1001 36.1905L40.5966 37.5863C40.6997 37.8764 40.9589 38.0836 41.2644 38.121C41.626 38.1665 41.9478 38.1876 42.25 38.1876C42.5522 38.1876 42.874 38.1665 43.2356 38.1226C43.3856 38.1045 43.5277 38.0449 43.6456 37.9504C43.7636 37.8559 43.8529 37.7304 43.9034 37.588L44.3991 36.1921C44.6258 36.1125 44.8476 36.0215 45.0629 35.9183L46.3994 36.5528C46.5355 36.6179 46.6871 36.6436 46.837 36.6269C46.9869 36.6103 47.1292 36.5519 47.2477 36.4586C47.7669 36.0523 48.2373 35.5827 48.6452 35.0619C48.8345 34.8198 48.8711 34.4907 48.7394 34.2128L48.1049 32.8755C48.2073 32.661 48.2991 32.4391 48.3779 32.2125L49.7738 31.716C50.0638 31.6128 50.271 31.3536 50.3084 31.0481C50.3539 30.6866 50.375 30.3648 50.375 30.0626C50.375 29.7603 50.3539 29.4386 50.31 29.077C50.292 28.9268 50.2324 28.7847 50.1379 28.6665C50.0435 28.5484 49.9179 28.459 49.7754 28.4083ZM48.7419 30.3591L47.4541 30.8166C47.3311 30.8602 47.2205 30.9329 47.1315 31.0283C47.0425 31.1238 46.9779 31.2393 46.943 31.365C46.8381 31.7469 46.6866 32.1145 46.4921 32.4595C46.3621 32.6894 46.3523 32.9689 46.4652 33.2078L47.0486 34.4371C46.9137 34.585 46.7724 34.7263 46.6253 34.8604L45.396 34.277C45.2782 34.2213 45.1488 34.1947 45.0186 34.1994C44.8884 34.2041 44.7612 34.2399 44.6477 34.3038C44.3064 34.4972 43.9384 34.6483 43.5541 34.7548C43.4283 34.7898 43.3128 34.8545 43.2172 34.9434C43.1216 35.0323 43.0488 35.1429 43.0048 35.2658L42.5474 36.5536C42.3498 36.5642 42.1518 36.5642 41.9543 36.5536L41.4968 35.2658C41.4532 35.1429 41.3805 35.0322 41.2851 34.9433C41.1896 34.8543 41.0741 34.7897 40.9484 34.7548C40.5665 34.6499 40.1989 34.4984 39.8539 34.3038C39.7403 34.2402 39.6132 34.2046 39.483 34.1999C39.3529 34.1952 39.2235 34.2217 39.1056 34.277L37.8763 34.8604C37.7288 34.7259 37.5875 34.5846 37.453 34.4371L38.0364 33.2078C38.0922 33.09 38.119 32.9606 38.1143 32.8303C38.1096 32.7001 38.0737 32.5729 38.0096 32.4595C37.8151 32.1147 37.6636 31.7475 37.5586 31.3658C37.5236 31.2401 37.4589 31.1245 37.37 31.029C37.2811 30.9334 37.1705 30.8606 37.0476 30.8166L35.7598 30.3591C35.7461 30.1617 35.7456 29.9635 35.7581 29.766L37.0459 29.3078C37.1689 29.2642 37.2795 29.1916 37.3683 29.0961C37.4572 29.0007 37.5216 28.8851 37.5562 28.7593C37.6616 28.3775 37.8133 28.0099 38.0079 27.6649C38.1379 27.435 38.1477 27.1555 38.0348 26.9166L37.4514 25.6873C37.5863 25.5394 37.7276 25.398 37.8747 25.264L39.104 25.8473C39.3429 25.9611 39.6224 25.9513 39.8523 25.8205C40.1936 25.6271 40.5616 25.476 40.9459 25.3696C41.2011 25.2989 41.4058 25.108 41.4952 24.8585L41.9526 23.5707C42.1493 23.5601 42.3491 23.5601 42.5457 23.5707L43.0032 24.8585C43.0468 24.9815 43.1195 25.0921 43.2149 25.1811C43.3104 25.27 43.4259 25.3347 43.5516 25.3696C43.9335 25.4745 44.3011 25.6259 44.6461 25.8205C44.7594 25.8849 44.8867 25.9209 45.0169 25.9256C45.1472 25.9302 45.2767 25.9034 45.3944 25.8473L46.6237 25.264C46.7716 25.3988 46.9129 25.5402 47.047 25.6873L46.4636 26.9166C46.4078 27.0343 46.381 27.1638 46.3857 27.294C46.3904 27.4243 46.4263 27.5515 46.4904 27.6649C46.6838 28.0061 46.8349 28.3742 46.9414 28.7585C47.0121 29.0136 47.203 29.2184 47.4524 29.3078L48.7402 29.7652C48.7538 29.9629 48.7543 30.1613 48.7419 30.3591Z" fill="#E9ECEF"/>
<path id="Vector_2" d="M17.8749 43.0626C22.8028 43.0626 26.8124 39.0529 26.8124 34.1251C26.8124 29.1973 22.8028 25.1876 17.8749 25.1876C12.9471 25.1876 8.93745 29.1973 8.93745 34.1251C8.93745 39.0529 12.9471 43.0626 17.8749 43.0626ZM17.8749 26.8126C21.9066 26.8126 25.1874 30.0935 25.1874 34.1251C25.1874 38.1567 21.9066 41.4376 17.8749 41.4376C13.8433 41.4376 10.5624 38.1567 10.5624 34.1251C10.5624 30.0935 13.8433 26.8126 17.8749 26.8126ZM1.64282 20.6043L2.89082 21.6451C4.71912 19.4458 7.00971 17.6765 9.59959 16.4632C12.1895 15.2498 15.0149 14.6223 17.8749 14.6251C18.2885 14.6251 18.7013 14.6487 19.114 14.6747L18.113 15.6757L19.2619 16.8246L21.6994 14.3871C21.7749 14.3117 21.8348 14.2221 21.8757 14.1236C21.9166 14.025 21.9376 13.9193 21.9376 13.8126C21.9376 13.7059 21.9166 13.6003 21.8757 13.5017C21.8348 13.4031 21.7749 13.3136 21.6994 13.2382L19.2619 10.8007L18.113 11.9496L19.2172 13.0537C18.7705 13.0217 18.3228 13.0038 17.8749 13.0001C14.7768 12.997 11.716 13.6768 8.91045 14.9911C6.10489 16.3054 3.62349 18.222 1.64282 20.6043ZM34.9374 7.31262C32.6974 7.31262 30.8749 9.13506 30.8749 11.3751C30.8749 13.6152 32.6974 15.4376 34.9374 15.4376C37.1775 15.4376 38.9999 13.6152 38.9999 11.3751C38.9999 9.13506 37.1775 7.31262 34.9374 7.31262ZM34.9374 13.8126C33.5936 13.8126 32.4999 12.719 32.4999 11.3751C32.4999 10.0312 33.5936 8.93762 34.9374 8.93762C36.2813 8.93762 37.3749 10.0312 37.3749 11.3751C37.3749 12.719 36.2813 13.8126 34.9374 13.8126ZM42.2499 26.8126C40.4576 26.8126 38.9999 28.2702 38.9999 30.0626C38.9999 31.855 40.4576 33.3126 42.2499 33.3126C44.0423 33.3126 45.4999 31.855 45.4999 30.0626C45.4999 28.2702 44.0423 26.8126 42.2499 26.8126ZM42.2499 31.6876C41.3538 31.6876 40.6249 30.9588 40.6249 30.0626C40.6249 29.1664 41.3538 28.4376 42.2499 28.4376C43.1461 28.4376 43.8749 29.1664 43.8749 30.0626C43.8749 30.9588 43.1461 31.6876 42.2499 31.6876ZM49.7217 4.07887L45.6592 3.26637C45.5546 3.24519 45.4468 3.24487 45.342 3.26544C45.2373 3.28601 45.1376 3.32707 45.0487 3.38625C44.9599 3.44544 44.8836 3.52159 44.8242 3.61033C44.7649 3.69907 44.7237 3.79865 44.7029 3.90337L43.8904 7.96587L45.4837 8.28519L45.9216 6.09794C46.7131 7.74462 47.1243 9.54812 47.1249 11.3751C47.1356 14.1459 46.1916 16.8358 44.4518 18.9923L45.7201 20.0087C47.6788 17.5571 48.7471 14.5131 48.7499 11.3751C48.7499 9.24719 48.2584 7.14931 47.3232 5.25619L49.4032 5.67219L49.7217 4.07887Z" fill="#EAB308"/>
</g>
</g>
</svg>
