<svg width="52" height="52" viewBox="0 0 52 52" fill="none" xmlns="http://www.w3.org/2000/svg">
<g id="Frame" clipPath="url(#clip0_126_702)">
<g id="Group">
<g id="Group_2">
<path id="Vector" d="M33.7999 14.7338C33.7999 10.426 30.3078 6.93384 25.9999 6.93384C21.6921 6.93384 18.2 10.426 18.2 14.7338C18.2 19.0417 21.6921 22.5338 25.9999 22.5338C30.3058 22.529 33.7952 19.0396 33.7999 14.7338ZM19.9333 14.7338C19.9333 11.3833 22.6495 8.66723 25.9999 8.66723C29.3504 8.66723 32.0665 11.3834 32.0665 14.7338C32.0665 18.0843 29.3504 20.8004 25.9999 20.8004C22.6513 20.7961 19.9377 18.0825 19.9333 14.7338Z" fill="#EAB308"/>
<path id="Vector_2" d="M26 43.3334C26.4786 43.3334 26.8666 42.9454 26.8666 42.4668C26.8666 41.9881 26.4786 41.6001 26 41.6001C25.5213 41.6001 25.1333 41.9881 25.1333 42.4668C25.1333 42.9454 25.5213 43.3334 26 43.3334Z" fill="#EAB308"/>
<path id="Vector_3" d="M7.80025 43.3334C8.27889 43.3334 8.6669 42.9454 8.6669 42.4668C8.6669 41.9881 8.27889 41.6001 7.80025 41.6001C7.32161 41.6001 6.93359 41.9881 6.93359 42.4668C6.93359 42.9454 7.32161 43.3334 7.80025 43.3334Z" fill="#E9ECEF"/>
<path id="Vector_4" d="M44.1999 43.3334C44.6785 43.3334 45.0666 42.9454 45.0666 42.4668C45.0666 41.9881 44.6785 41.6001 44.1999 41.6001C43.7213 41.6001 43.3333 41.9881 43.3333 42.4668C43.3333 42.9454 43.7213 43.3334 44.1999 43.3334Z" fill="#E9ECEF"/>
<path id="Vector_5" d="M9.53356 32.0669C8.09767 32.0669 6.9336 33.231 6.9336 34.6668V37.6533L0.407599 41.7319C0.311081 41.7922 0.227389 41.8709 0.161303 41.9636C0.0952172 42.0563 0.0480307 42.161 0.0224381 42.2719C-0.00315444 42.3828 -0.00665179 42.4977 0.0121458 42.6099C0.0309433 42.7222 0.0716677 42.8296 0.131993 42.9262C0.210449 43.0492 0.31929 43.15 0.44802 43.2188C0.57675 43.2875 0.721027 43.322 0.86694 43.3188V49.4001C0.86694 50.836 2.03101 52.0001 3.4669 52.0001H12.1335C13.5694 52.0001 14.7335 50.836 14.7335 49.4001V43.3336C14.9217 43.3336 15.1048 43.2723 15.2551 43.1591C15.4054 43.0458 15.5147 42.8867 15.5666 42.7058C15.6185 42.5249 15.6101 42.3321 15.5426 42.1564C15.4752 41.9807 15.3524 41.8317 15.1928 41.732L8.66691 37.6534V34.6669C8.66691 34.1883 9.0549 33.8003 9.53356 33.8003H25.1334V37.6534L18.6075 41.732C18.511 41.7923 18.4273 41.871 18.3612 41.9637C18.2951 42.0563 18.2479 42.1611 18.2223 42.272C18.1967 42.3829 18.1932 42.4978 18.212 42.61C18.2308 42.7223 18.2716 42.8297 18.3319 42.9262C18.4107 43.049 18.5196 43.1495 18.6483 43.2182C18.7769 43.2869 18.921 43.3216 19.0668 43.3189V49.4002C19.0668 50.8361 20.2309 52.0002 21.6668 52.0002H30.3334C31.7693 52.0002 32.9334 50.8361 32.9334 49.4002V43.3336C33.1216 43.3337 33.3047 43.2724 33.455 43.1592C33.6053 43.0459 33.7146 42.8868 33.7665 42.7059C33.8184 42.525 33.81 42.3321 33.7425 42.1564C33.6751 41.9807 33.5523 41.8318 33.3927 41.732L26.8668 37.6535V33.8004H42.4667C42.9453 33.8004 43.3333 34.1884 43.3333 34.667V37.6535L36.8074 41.732C36.7109 41.7924 36.6272 41.8711 36.5611 41.9638C36.495 42.0564 36.4478 42.1612 36.4222 42.2721C36.3966 42.383 36.3932 42.4979 36.4119 42.6101C36.4307 42.7224 36.4715 42.8298 36.5318 42.9263C36.6104 43.0492 36.7193 43.1499 36.848 43.2186C36.9767 43.2874 37.1209 43.3219 37.2667 43.319V49.4003C37.2667 50.8362 38.4308 52.0003 39.8667 52.0003H48.5333C49.9692 52.0003 51.1333 50.8362 51.1333 49.4003V43.3337C51.3215 43.3337 51.5046 43.2725 51.6549 43.1592C51.8052 43.046 51.9145 42.8869 51.9664 42.706C52.0183 42.5251 52.0099 42.3322 51.9425 42.1565C51.875 41.9808 51.7522 41.8319 51.5926 41.7321L45.0667 37.6536V34.6671C45.0667 33.2312 43.9026 32.0671 42.4668 32.0671H26.8667V29.434C27.0401 29.4219 27.2134 29.4106 27.3972 29.3925C27.7688 29.3471 28.1156 29.1821 28.3851 28.9222C28.6547 28.6624 28.8323 28.3219 28.8913 27.9521L29.1374 26.4545C30.1629 26.1786 31.1478 25.7692 32.0667 25.2369L33.3043 26.1234C33.6112 26.3455 33.9825 26.461 34.3613 26.4521C34.7401 26.4432 35.1055 26.3104 35.4016 26.0741C35.7977 25.7396 36.121 25.4449 36.4165 25.1494C36.7518 24.8167 37.0699 24.4673 37.3698 24.1024C37.596 23.8071 37.7208 23.4466 37.7256 23.0747C37.7304 22.7027 37.6151 22.3391 37.3966 22.038L36.5031 20.8005C37.0353 19.8824 37.4446 18.8984 37.7208 17.8737L39.2157 17.6284C39.5876 17.5681 39.9297 17.3883 40.1902 17.1162C40.4507 16.8441 40.6155 16.4945 40.6596 16.1204C40.7584 15.1949 40.7584 14.2614 40.6596 13.3359C40.6142 12.9642 40.4492 12.6174 40.1893 12.3479C39.9295 12.0784 39.589 11.9007 39.2192 11.8418L37.7216 11.5956C37.4453 10.5703 37.0357 9.58577 36.5031 8.66715L37.3897 7.42958C37.6105 7.12523 37.7264 6.75732 37.7198 6.38135C37.7133 6.00538 37.5846 5.64175 37.3533 5.34529C37.0613 4.9866 36.7497 4.64433 36.4199 4.32005C36.0873 3.98477 35.7379 3.6666 35.373 3.36677C35.078 3.13966 34.7175 3.01428 34.3453 3.00943C33.9731 3.00459 33.6093 3.12054 33.3086 3.3399L32.0666 4.23085C31.1477 3.69853 30.1628 3.28915 29.1373 3.01321L28.892 1.51824C28.8327 1.14644 28.6535 0.804204 28.3818 0.543576C28.11 0.282949 27.7606 0.118192 27.3867 0.0743613C26.4611 -0.0244616 25.5277 -0.0244616 24.6021 0.0743613C24.2305 0.119722 23.8837 0.284793 23.6142 0.544639C23.3446 0.804486 23.167 1.14499 23.108 1.51472L22.8627 3.01321C21.8372 3.28915 20.8524 3.69853 19.9334 4.23085L18.6984 3.34427C18.3934 3.12343 18.0247 3.00795 17.6481 3.01529C17.2716 3.02264 16.9077 3.15241 16.6115 3.38497C16.2726 3.66229 15.9277 3.97688 15.5949 4.31052C15.2576 4.64052 14.9393 4.98947 14.6416 5.35568C14.4121 5.651 14.2846 6.01285 14.2783 6.38685C14.2721 6.76084 14.3874 7.12675 14.6069 7.42958L15.497 8.66715C14.9649 9.58526 14.5555 10.5692 14.2794 11.5939L12.7844 11.8391C12.4122 11.8986 12.0697 12.0782 11.809 12.3504C11.5483 12.6227 11.3838 12.9727 11.3405 13.3471C11.2412 14.2735 11.2412 15.2079 11.3405 16.1342C11.3864 16.5053 11.5516 16.8514 11.8112 17.1204C12.0708 17.3894 12.4109 17.5668 12.78 17.6258L14.2777 17.8719C14.5542 18.8972 14.9642 19.8818 15.497 20.8004L14.6174 22.0284C14.3941 22.3339 14.2766 22.704 14.2827 23.0823C14.2888 23.4607 14.4182 23.8268 14.6512 24.1249C14.9286 24.4638 15.2431 24.8087 15.5846 25.1501C15.8818 25.4474 16.2051 25.742 16.6316 26.1034C16.9266 26.3303 17.2871 26.4555 17.6593 26.4603C18.0314 26.4652 18.3951 26.3494 18.6959 26.1303L19.9335 25.2368C20.8516 25.7689 21.8356 26.1783 22.8602 26.4544L23.1055 27.9494C23.165 28.3216 23.3446 28.6641 23.6169 28.9248C23.8891 29.1855 24.2391 29.35 24.6135 29.3933C24.7929 29.4115 24.9602 29.4227 25.1335 29.434V32.0669H9.53356ZM6.9336 50.2668V46.8002H8.66691V50.2668H6.9336ZM12.1335 50.2668H10.4002V46.8002C10.4002 45.8428 9.62414 45.0669 8.66691 45.0669H6.9336C5.97628 45.0669 5.2003 45.8429 5.2003 46.8002V50.2668H3.4669C2.98824 50.2668 2.60025 49.8788 2.60025 49.4001V42.4053L7.80017 39.1562L13.0001 42.4053V49.4001C13.0002 49.8787 12.6122 50.2668 12.1335 50.2668ZM25.1334 50.2668V46.8002H26.8667V50.2668H25.1334ZM30.3333 50.2668H28.6V46.8002C28.6 45.8428 27.824 45.0669 26.8667 45.0669H25.1334C24.1761 45.0669 23.4001 45.8429 23.4001 46.8002V50.2668H21.6668C21.1881 50.2668 20.8001 49.8788 20.8001 49.4001V42.4053L26.0001 39.1562L31.2 42.4053V49.4001C31.2 49.8787 30.812 50.2668 30.3333 50.2668ZM43.3332 50.2668V46.8002H45.0665V50.2668H43.3332ZM48.5331 50.2668H46.7998V46.8002C46.7998 45.8428 46.0238 45.0669 45.0665 45.0669H43.3332C42.3759 45.0669 41.5999 45.8429 41.5999 46.8002V50.2668H39.8666C39.388 50.2668 39 49.8788 39 49.4001V42.4053L44.1999 39.1562L49.3998 42.4053V49.4001C49.3999 49.8787 49.0118 50.2668 48.5331 50.2668ZM24.4799 25.6085C24.4519 25.4374 24.3731 25.2785 24.2539 25.1526C24.1346 25.0267 23.9803 24.9395 23.8109 24.9022C22.5861 24.6355 21.4194 24.1502 20.3667 23.4696C20.2207 23.3751 20.0497 23.3267 19.8758 23.3307C19.7019 23.3347 19.5332 23.391 19.3917 23.4921L17.7156 24.7488C17.4053 24.4888 17.1028 24.2175 16.8073 23.9219C16.5274 23.6452 16.2632 23.353 16.016 23.0466L17.2389 21.3393C17.3399 21.1984 17.3963 21.0303 17.4008 20.857C17.4053 20.6836 17.3577 20.5129 17.2641 20.3669C16.5837 19.3151 16.0985 18.1493 15.8315 16.9253C15.7942 16.7559 15.707 16.6016 15.5811 16.4823C15.4552 16.3631 15.2963 16.2843 15.1252 16.2562L13.0651 15.9468C13.0226 15.5438 13.0009 15.1388 13.0001 14.7335C13.0005 14.3389 13.0213 13.9446 13.0625 13.5522L15.1252 13.2133C15.2963 13.1853 15.4552 13.1065 15.5811 12.9873C15.707 12.868 15.7943 12.7137 15.8315 12.5442C16.0982 11.3195 16.5835 10.1528 17.2641 9.10013C17.3586 8.95412 17.407 8.78305 17.403 8.60916C17.399 8.43527 17.3427 8.26662 17.2416 8.12512L15.9936 6.43947C16.2502 6.12695 16.5239 5.82894 16.8135 5.5468C17.0902 5.26688 17.3825 5.00271 17.6888 4.75553L19.3961 5.97841C19.5375 6.07812 19.7055 6.13322 19.8785 6.13662C20.0515 6.14002 20.2215 6.09155 20.3667 5.99747C21.4185 5.31714 22.5843 4.83188 23.8082 4.56492C23.9776 4.52764 24.1319 4.4404 24.2512 4.31447C24.3705 4.18855 24.4492 4.02973 24.4773 3.85857L24.7867 1.79848C25.5824 1.71357 26.3848 1.71357 27.1805 1.79848L27.5193 3.86114C27.5474 4.03231 27.6261 4.19113 27.7454 4.31706C27.8647 4.44299 28.019 4.53023 28.1884 4.5675C29.4133 4.83331 30.5803 5.31771 31.6334 5.99747C31.7794 6.09199 31.9505 6.1404 32.1244 6.13638C32.2983 6.13237 32.4669 6.07613 32.6084 5.97497L34.2941 4.72702C34.6099 4.98728 34.9124 5.26323 35.2006 5.55384C35.4784 5.82613 35.739 6.11558 35.9806 6.42049L34.7577 8.12778C34.6572 8.26911 34.6015 8.43732 34.5976 8.61068C34.5938 8.78403 34.642 8.95456 34.7361 9.10022C35.4164 10.1521 35.9016 11.3179 36.1686 12.5418C36.2059 12.7112 36.2931 12.8655 36.4191 12.9848C36.545 13.104 36.7038 13.1828 36.875 13.2109L38.9351 13.5185C38.9776 13.9221 38.9994 14.3277 39 14.7336C38.9996 15.1281 38.9788 15.5224 38.9376 15.9148L36.875 16.2537C36.7038 16.2817 36.545 16.3605 36.4191 16.4798C36.2931 16.599 36.2059 16.7534 36.1686 16.9228C35.9019 18.1475 35.4166 19.3142 34.7361 20.3669C34.6415 20.5129 34.5931 20.684 34.5972 20.8579C34.6012 21.0317 34.6574 21.2004 34.7586 21.3419L36.0065 23.0276C35.7673 23.3205 35.4917 23.6221 35.1884 23.9263C34.885 24.2305 34.5921 24.4896 34.313 24.7176L32.6058 23.4947C32.4648 23.3937 32.2968 23.3373 32.1234 23.3328C31.95 23.3283 31.7793 23.376 31.6333 23.4696C30.5815 24.1499 29.4157 24.6352 28.1918 24.9021C28.0224 24.9394 27.8681 25.0266 27.7488 25.1525C27.6295 25.2785 27.5507 25.4373 27.5227 25.6085L27.2133 27.6685C26.4176 27.7535 25.6152 27.7535 24.8195 27.6685L24.4799 25.6085Z" fill="#E9ECEF"/>
</g>
</g>
</g>
<defs>
<clipPath id="clip0_126_702">
<rect width="52" height="52" fill="white"/>
</clipPath>
</defs>
</svg>
