<svg width="80" height="80" viewBox="0 0 80 80" fill="none" xmlns="http://www.w3.org/2000/svg">
<g id="Frame">
<g id="Group">
<path id="Vector" d="M57.5 71.25C57.5 72.2446 57.1049 73.1984 56.4016 73.9016C55.6984 74.6049 54.7446 75 53.75 75H8.75C7.75544 75 6.80161 74.6049 6.09835 73.9016C5.39509 73.1984 5 72.2446 5 71.25V8.75C5 7.75544 5.39509 6.80161 6.09835 6.09835C6.80161 5.39509 7.75544 5 8.75 5H47.5V11.25C47.5 12.2446 47.8951 13.1984 48.5984 13.9017C49.3016 14.6049 50.2554 15 51.25 15H57.5V41.25H60V13.75C59.9999 13.4185 59.8682 13.1006 59.6338 12.8663L49.6338 2.86625C49.3994 2.63181 49.0815 2.50007 48.75 2.5H8.75C7.09301 2.50198 5.50445 3.1611 4.33277 4.33277C3.1611 5.50445 2.50198 7.09301 2.5 8.75V71.25C2.50198 72.907 3.1611 74.4956 4.33277 75.6672C5.50445 76.8389 7.09301 77.498 8.75 77.5H53.75C55.407 77.498 56.9956 76.8389 58.1672 75.6672C59.3389 74.4956 59.998 72.907 60 71.25V66.25H57.5V71.25ZM50 11.25V6.7675L55.7325 12.5H51.25C50.9185 12.5 50.6005 12.3683 50.3661 12.1339C50.1317 11.8995 50 11.5815 50 11.25Z" fill="#0E3466"/>
<path id="Vector_2" d="M10 10H12.5V12.5H10V10ZM15 10H22.5V12.5H15V10ZM10 15H22.5V17.5H10V15ZM76.0875 36.4125C74.9145 35.2423 73.3251 34.5851 71.6682 34.5851C70.0112 34.5851 68.4219 35.2423 67.2488 36.4125L45.1513 58.51C44.9772 58.6842 44.8585 58.906 44.81 59.1475L44 63.1963L41.6163 65.58C41.2634 65.9271 40.9827 66.3407 40.7904 66.7969C40.5981 67.253 40.498 67.7427 40.496 68.2378C40.4939 68.7328 40.5899 69.2233 40.7783 69.6811C40.9668 70.1388 41.244 70.5547 41.594 70.9048C41.944 71.2549 42.3598 71.5322 42.8175 71.7208C43.2752 71.9093 43.7657 72.0054 44.2608 72.0034C44.7558 72.0015 45.2455 71.9015 45.7017 71.7094C46.1579 71.5172 46.5716 71.2366 46.9188 70.8838L49.3038 68.5L53.3525 67.69C53.5942 67.6412 53.816 67.522 53.99 67.3475L76.0875 45.25C77.2574 44.077 77.9144 42.4879 77.9144 40.8313C77.9144 39.1746 77.2574 37.5855 76.0875 36.4125ZM46.5088 63.4025L47.0975 60.455L52.0438 65.4012L49.0975 65.9912L46.5088 63.4025ZM48.6863 58.51L63.7125 43.4825L65.4813 45.25L50.455 60.2775L48.6863 58.51ZM52.2225 62.045L67.25 47.0188L69.0175 48.7875L53.99 63.8125L52.2225 62.045ZM65.4813 41.715L66.365 40.8313L71.6688 46.135L70.7838 47.02L65.4813 41.715ZM45.15 69.1162C44.9121 69.3434 44.5959 69.4702 44.2669 69.4702C43.938 69.4702 43.6217 69.3434 43.3838 69.1162C43.2676 69.0002 43.1754 68.8623 43.1125 68.7106C43.0496 68.5588 43.0172 68.3961 43.0172 68.2319C43.0172 68.0676 43.0496 67.9049 43.1125 67.7532C43.1754 67.6015 43.2676 67.4636 43.3838 67.3475L45.1513 65.58L46.92 67.3488L45.15 69.1162ZM74.32 43.4837L73.4363 44.3675L68.1325 39.0637L69.0163 38.18C69.3645 37.8318 69.778 37.5555 70.233 37.367C70.688 37.1786 71.1757 37.0816 71.6682 37.0816C72.1607 37.0816 72.6483 37.1786 73.1033 37.367C73.5584 37.5555 73.9718 37.8318 74.32 38.18C74.6683 38.5282 74.9445 38.9417 75.133 39.3967C75.3215 39.8517 75.4185 40.3394 75.4185 40.8319C75.4185 41.3244 75.3215 41.812 75.133 42.2671C74.9445 42.7221 74.6683 43.1355 74.32 43.4837ZM53.8625 38.2625C54.0967 38.0265 54.2281 37.7075 54.2281 37.375C54.2281 37.0425 54.0967 36.7235 53.8625 36.4875L41.4875 24.1125C41.2483 23.8895 40.9334 23.7655 40.6063 23.7655C40.2792 23.7655 39.9643 23.8895 39.725 24.1125L36.45 27.3875L34.5375 27.7625L30.8875 24.1125C30.6492 23.8823 30.3314 23.7525 30 23.75H25.2125L22.05 20.575C21.814 20.3408 21.495 20.2094 21.1625 20.2094C20.83 20.2094 20.511 20.3408 20.275 20.575L7.90003 32.95C7.66584 33.186 7.53442 33.505 7.53442 33.8375C7.53442 34.17 7.66584 34.489 7.90003 34.725L16.9 43.725C16.6304 44.2798 16.5031 44.8929 16.5296 45.5091C16.5561 46.1254 16.7356 46.7253 17.0518 47.2549C17.3681 47.7844 17.8111 48.227 18.3411 48.5425C18.8711 48.8581 19.4713 49.0368 20.0875 49.0625C20.1211 49.9862 20.5055 50.8623 21.1625 51.5125C21.8148 52.1681 22.6888 52.556 23.6125 52.6C23.6588 53.5232 24.0463 54.3964 24.7 55.05C25.3536 55.7037 26.2268 56.0912 27.15 56.1375C27.1905 56.8592 27.4387 57.5538 27.8647 58.1377C28.2906 58.7217 28.8763 59.17 29.5512 59.4289C30.2261 59.6877 30.9614 59.746 31.6686 59.5968C32.3758 59.4475 33.0248 59.097 33.5375 58.5875L34.8625 59.9125C35.2102 60.2611 35.6232 60.5377 36.078 60.7264C36.5327 60.9152 37.0202 61.0123 37.5125 61.0123C38.0049 61.0123 38.4924 60.9152 38.9471 60.7264C39.4018 60.5377 39.8149 60.2611 40.1625 59.9125C40.822 59.2589 41.2066 58.3779 41.2375 57.45C42.1624 57.415 43.0401 57.0327 43.6957 56.3794C44.3513 55.7261 44.7367 54.8497 44.775 53.925C45.7002 53.8843 46.5765 53.4986 47.2313 52.8438C47.8861 52.189 48.2719 51.3126 48.3125 50.3875C49.0371 50.353 49.736 50.1086 50.3242 49.684C50.9124 49.2595 51.3645 48.6731 51.6254 47.9963C51.8864 47.3194 51.9449 46.5813 51.7939 45.8718C51.6429 45.1623 51.2889 44.512 50.775 44L49.45 42.675L53.8625 38.2625ZM10.55 33.8375L21.1625 23.2375L22.925 25L12.325 35.6125L10.55 33.8375ZM14.0875 37.375L25.2125 26.25H29.4875L39.275 36.05C39.3937 36.1641 39.4881 36.3009 39.5525 36.4524C39.617 36.6038 39.6502 36.7667 39.6502 36.9312C39.6502 37.0958 39.617 37.2587 39.5525 37.4101C39.4881 37.5616 39.3937 37.6984 39.275 37.8125C39.0387 38.0412 38.7227 38.169 38.3938 38.169C38.0649 38.169 37.7489 38.0412 37.5125 37.8125L32.2125 32.5125C31.9722 32.2867 31.6548 32.161 31.325 32.161C30.9953 32.161 30.6779 32.2867 30.4375 32.5125C29.7242 33.1952 28.7749 33.5763 27.7875 33.5763C26.8001 33.5763 25.8508 33.1952 25.1375 32.5125L23.375 34.275C23.8289 34.7208 24.3472 35.0958 24.9125 35.3875L18.5125 41.8L14.0875 37.375ZM33.0875 52.8375C32.6282 53.3047 32.2988 53.8838 32.1322 54.5174C31.9656 55.1511 31.9674 55.8173 32.1375 56.45L31.7625 56.8125C31.6469 56.93 31.5086 57.0227 31.356 57.085C31.2035 57.1473 31.0398 57.1779 30.875 57.175C30.7121 57.1778 30.5504 57.147 30.3999 57.0847C30.2493 57.0223 30.1133 56.9297 30 56.8125C29.7672 56.5816 29.6352 56.268 29.6329 55.9401C29.6306 55.6122 29.758 55.2967 29.9875 55.0625C29.9908 55.0625 29.994 55.0612 29.9964 55.0588C29.9987 55.0565 30 55.0533 30 55.05L33.5375 51.525V51.5125L31.7625 49.75L28.225 53.2875C28.2125 53.2875 28.2125 53.2875 28.2125 53.3C27.9727 53.5183 27.6594 53.6382 27.3351 53.6359C27.0108 53.6336 26.6992 53.5092 26.4625 53.2875C26.2301 53.0505 26.1 52.7319 26.1 52.4C26.1 52.0681 26.2301 51.7495 26.4625 51.5125L30 47.975L28.2375 46.2125L24.7 49.75C24.5835 49.8665 24.4451 49.959 24.2928 50.0221C24.1406 50.0851 23.9774 50.1176 23.8125 50.1176C23.6477 50.1176 23.4845 50.0851 23.3322 50.0221C23.1799 49.959 23.0416 49.8665 22.925 49.75C22.8085 49.6334 22.716 49.4951 22.653 49.3428C22.5899 49.1905 22.5574 49.0273 22.5574 48.8625C22.5574 48.6977 22.5899 48.5345 22.653 48.3822C22.716 48.2299 22.8085 48.0915 22.925 47.975L26.4625 44.45L24.7 42.675L21.1625 46.2125C20.9236 46.4411 20.6057 46.5687 20.275 46.5687C19.9444 46.5687 19.6264 46.4411 19.3875 46.2125C19.1547 45.9783 19.024 45.6615 19.024 45.3312C19.024 45.001 19.1547 44.6842 19.3875 44.45L27.725 36.1C27.75 36.1 27.7625 36.1125 27.7875 36.1125C29.015 36.1166 30.2159 35.7554 31.2375 35.075L35.75 39.5875C36.4647 40.2677 37.4135 40.647 38.4 40.647C39.3866 40.647 40.3354 40.2677 41.05 39.5875C41.7398 38.8975 42.1335 37.9658 42.1475 36.9902C42.1615 36.0147 41.7947 35.072 41.125 34.3625L47.6875 40.9125L47.3125 41.275C46.6787 41.1063 46.0119 41.1064 45.3781 41.2753C44.7444 41.4441 44.1659 41.7759 43.7 42.2375C43.043 42.8877 42.6586 43.7638 42.625 44.6875C41.6935 44.7282 40.8116 45.1191 40.1558 45.7819C39.5 46.4447 39.1184 47.3306 39.0875 48.2625C38.1633 48.2864 37.2829 48.6617 36.6256 49.3119C35.9684 49.9622 35.5838 50.8386 35.55 51.7625C34.6258 51.8097 33.7505 52.1918 33.0875 52.8375ZM38.4 58.15C38.1597 58.3758 37.8423 58.5015 37.5125 58.5015C37.1828 58.5015 36.8654 58.3758 36.625 58.15L34.8625 56.375C34.7317 56.2629 34.6254 56.125 34.5504 55.97C34.4753 55.8149 34.4332 55.646 34.4265 55.4738C34.4199 55.3017 34.4489 55.13 34.5117 54.9696C34.5746 54.8092 34.6699 54.6635 34.7917 54.5417C34.9135 54.4199 35.0592 54.3245 35.2196 54.2617C35.38 54.1989 35.5517 54.1699 35.7238 54.1765C35.896 54.1832 36.0649 54.2253 36.22 54.3003C36.3751 54.3754 36.513 54.4816 36.625 54.6125L38.4 56.375C38.6342 56.611 38.7656 56.93 38.7656 57.2625C38.7656 57.595 38.6342 57.914 38.4 58.15ZM41.9375 54.6125C41.7015 54.8467 41.3825 54.9781 41.05 54.9781C40.7175 54.9781 40.3985 54.8467 40.1625 54.6125L38.4 52.8375C38.1672 52.6033 38.0365 52.2865 38.0365 51.9562C38.0365 51.626 38.1672 51.3092 38.4 51.075C38.6342 50.8422 38.951 50.7115 39.2813 50.7115C39.6115 50.7115 39.9283 50.8422 40.1625 51.075L41.9375 52.8375C42.1699 53.0745 42.3001 53.3931 42.3001 53.725C42.3001 54.0569 42.1699 54.3755 41.9375 54.6125ZM45.4625 51.075C45.2262 51.3037 44.9102 51.4315 44.5813 51.4315C44.2524 51.4315 43.9364 51.3037 43.7 51.075L41.9375 49.3C41.8186 49.1874 41.724 49.0518 41.6596 48.9013C41.5951 48.7508 41.562 48.5887 41.5625 48.425C41.5648 48.0942 41.6973 47.7776 41.9312 47.5436C42.1651 47.3097 42.4817 47.1773 42.8125 47.175C43.1442 47.1763 43.4623 47.3063 43.7 47.5375L45.4625 49.3125C45.6953 49.5467 45.826 49.8635 45.826 50.1937C45.826 50.524 45.6953 50.8408 45.4625 51.075ZM49 47.5375C48.7658 47.7703 48.449 47.901 48.1188 47.901C47.7886 47.901 47.4717 47.7703 47.2375 47.5375L45.4625 45.775C45.2283 45.539 45.0969 45.22 45.0969 44.8875C45.0969 44.555 45.2283 44.236 45.4625 44C45.7015 43.7707 46.0189 43.6411 46.35 43.6375C46.6817 43.6388 46.9998 43.7688 47.2375 44L49 45.775C49.1187 45.8891 49.2131 46.0259 49.2775 46.1773C49.342 46.3288 49.3752 46.4917 49.3752 46.6562C49.3752 46.8208 49.342 46.9837 49.2775 47.1351C49.2131 47.2866 49.1187 47.4234 49 47.5375ZM38.8375 28.5375L40.6125 26.7625L51.2125 37.375L49.45 39.1375L38.8375 28.5375ZM26.25 67.5H38.75V70H26.25V67.5ZM10 55H20V57.5H10V55ZM10 60H22.5V62.5H10V60ZM10 50H17.5V52.5H10V50Z" fill="#0E3466"/>
</g>
</g>
</svg>
