<svg width="52" height="52" viewBox="0 0 52 52" fill="none" xmlns="http://www.w3.org/2000/svg">
<g id="Frame" clipPath="url(#clip0_126_732)">
<g id="Group">
<path id="Vector" d="M51.2572 17.1131L27.0105 0.317124C26.714 0.112053 26.3621 0.00219727 26.0017 0.00219727C25.6412 0.00219727 25.2893 0.112053 24.9929 0.317124L17.3333 5.62112V5.19992C17.3333 4.51036 17.0594 3.84904 16.5718 3.36145C16.0842 2.87385 15.4228 2.59992 14.7333 2.59992H12.1333C11.4437 2.59992 10.7824 2.87385 10.2948 3.36145C9.80721 3.84904 9.53328 4.51036 9.53328 5.19992V11.0239L0.74268 17.1131C0.556026 17.2425 0.396719 17.4073 0.273886 17.5983C0.151052 17.7893 0.0671048 18.0027 0.0268518 18.2262C-0.0134012 18.4496 -0.009169 18.6789 0.0393061 18.9007C0.0877812 19.1226 0.179547 19.3327 0.309347 19.519L1.41521 21.1041C1.68667 21.4923 2.10071 21.7573 2.56691 21.8413C3.03311 21.9252 3.51359 21.8213 3.90341 21.5522L4.33675 21.2549V42.4666C4.33812 43.6154 4.79511 44.7168 5.60747 45.5292C6.41983 46.3416 7.52123 46.7985 8.67008 46.7999V48.5333C8.67008 49.4527 9.03532 50.3344 9.68544 50.9846C10.3356 51.6347 11.2173 51.9999 12.1367 51.9999H39.8666C40.786 51.9999 41.6678 51.6347 42.3179 50.9846C42.968 50.3344 43.3333 49.4527 43.3333 48.5333V46.7999C44.4821 46.7985 45.5835 46.3416 46.3959 45.5292C47.2083 44.7168 47.6652 43.6154 47.6666 42.4666V21.2549L48.1 21.5522C48.4898 21.8211 48.9703 21.9249 49.4364 21.8409C49.9025 21.757 50.3165 21.4921 50.5882 21.1041L51.694 19.5181C51.8238 19.3319 51.9155 19.1218 51.964 18.9001C52.0125 18.6783 52.0167 18.4491 51.9764 18.2257C51.9362 18.0023 51.8522 17.789 51.7294 17.5981C51.6066 17.4072 51.4473 17.2424 51.2607 17.1131H51.2572ZM11.2666 5.19992C11.2666 4.97007 11.3579 4.74963 11.5205 4.5871C11.683 4.42457 11.9034 4.33326 12.1333 4.33326H14.7333C14.9631 4.33326 15.1836 4.42457 15.3461 4.5871C15.5086 4.74963 15.5999 4.97007 15.5999 5.19992V6.82232L11.2666 9.82359V5.19992ZM41.6 48.5333C41.6 48.993 41.4173 49.4338 41.0923 49.7589C40.7672 50.084 40.3263 50.2666 39.8666 50.2666H12.1333C11.6736 50.2666 11.2327 50.084 10.9076 49.7589C10.5826 49.4338 10.3999 48.993 10.3999 48.5333V36.3999C10.3999 35.9402 10.5826 35.4993 10.9076 35.1743C11.2327 34.8492 11.6736 34.6666 12.1333 34.6666H39.8666C40.3263 34.6666 40.7672 34.8492 41.0923 35.1743C41.4173 35.4993 41.6 35.9402 41.6 36.3999V48.5333ZM25.9999 29.4666C25.6571 29.4666 25.322 29.3649 25.037 29.1745C24.7519 28.984 24.5297 28.7133 24.3986 28.3966C24.2674 28.0798 24.233 27.7313 24.2999 27.3951C24.3668 27.0589 24.5319 26.75 24.7743 26.5076C25.0167 26.2652 25.3256 26.1001 25.6618 26.0332C25.998 25.9663 26.3465 26.0007 26.6633 26.1319C26.98 26.2631 27.2507 26.4852 27.4412 26.7703C27.6316 27.0553 27.7333 27.3904 27.7333 27.7333C27.7333 28.193 27.5507 28.6338 27.2256 28.9589C26.9005 29.284 26.4597 29.4666 25.9999 29.4666ZM23.7657 30.3619C24.3846 30.9022 25.1784 31.1999 25.9999 31.1999C26.8215 31.1999 27.6153 30.9022 28.2342 30.3619L32.9809 32.9333H19.0189L23.7657 30.3619ZM45.9333 42.4666C45.9333 43.1562 45.6594 43.8175 45.1718 44.3051C44.6842 44.7927 44.0228 45.0666 43.3333 45.0666V36.3999C43.3333 35.4805 42.968 34.5987 42.3179 33.9486C41.6678 33.2985 40.786 32.9333 39.8666 32.9333H36.6192L29.2395 28.9353C29.4395 28.4104 29.5089 27.8449 29.4418 27.2872C29.3747 26.7296 29.1731 26.1966 28.8544 25.7341C28.5357 25.2716 28.1093 24.8935 27.6121 24.6323C27.1149 24.3711 26.5616 24.2347 25.9999 24.2347C25.4383 24.2347 24.885 24.3711 24.3878 24.6323C23.8906 24.8935 23.4642 25.2716 23.1455 25.7341C22.8268 26.1966 22.6252 26.7296 22.5581 27.2872C22.491 27.8449 22.5604 28.4104 22.7603 28.9353L15.3807 32.9333H12.1333C11.2139 32.9333 10.3321 33.2985 9.68198 33.9486C9.03185 34.5987 8.66661 35.4805 8.66661 36.3999V45.0666C7.97705 45.0666 7.31573 44.7927 6.82814 44.3051C6.34054 43.8175 6.06661 43.1562 6.06661 42.4666V20.0572L26.0207 6.26939L45.9333 20.0546V42.4666ZM49.0836 20.1274L27.0105 4.84546C26.714 4.64039 26.3621 4.53053 26.0017 4.53053C25.6412 4.53053 25.2893 4.64039 24.9929 4.84546L2.91628 20.1274C2.91018 20.1318 2.90324 20.135 2.89589 20.1367C2.88854 20.1384 2.88091 20.1386 2.87348 20.1373C2.86604 20.1361 2.85894 20.1333 2.85259 20.1292C2.84625 20.1251 2.84079 20.1198 2.83655 20.1135L1.73328 18.5388L26.0207 1.74106L50.2666 18.5275L49.0836 20.1274Z" fill="#E9ECEF"/>
<path id="Vector_2" d="M15.6 38.1333H13.8667C13.6368 38.1333 13.4164 38.2246 13.2538 38.3871C13.0913 38.5496 13 38.7701 13 38.9999V45.9333C13 46.1631 13.0913 46.3836 13.2538 46.5461C13.4164 46.7086 13.6368 46.7999 13.8667 46.7999C14.0965 46.7999 14.317 46.7086 14.4795 46.5461C14.642 46.3836 14.7333 46.1631 14.7333 45.9333V43.3333H15.6C15.8299 43.3333 16.0503 43.4246 16.2128 43.5871C16.3754 43.7496 16.4667 43.9701 16.4667 44.1999V45.9333C16.4667 46.1631 16.558 46.3836 16.7205 46.5461C16.883 46.7086 17.1035 46.7999 17.3333 46.7999C17.5632 46.7999 17.7836 46.7086 17.9462 46.5461C18.1087 46.3836 18.2 46.1631 18.2 45.9333V44.1999C18.1977 43.5583 17.9568 42.9404 17.524 42.4666C17.8629 42.0951 18.0863 41.6329 18.1668 41.1365C18.2473 40.6402 18.1815 40.1311 17.9775 39.6715C17.7734 39.2119 17.4399 38.8217 17.0177 38.5485C16.5955 38.2753 16.1029 38.1311 15.6 38.1333ZM14.7333 41.5999V39.8666H15.6C15.8299 39.8666 16.0503 39.9579 16.2128 40.1205C16.3754 40.283 16.4667 40.5034 16.4667 40.7333C16.4667 40.9631 16.3754 41.1836 16.2128 41.3461C16.0503 41.5086 15.8299 41.5999 15.6 41.5999H14.7333ZM38.1333 38.1333H34.6667C34.4368 38.1333 34.2164 38.2246 34.0538 38.3871C33.8913 38.5496 33.8 38.7701 33.8 38.9999C33.8 39.2298 33.8913 39.4502 34.0538 39.6128C34.2164 39.7753 34.4368 39.8666 34.6667 39.8666H35.5333V45.9333C35.5333 46.1631 35.6246 46.3836 35.7872 46.5461C35.9497 46.7086 36.1701 46.7999 36.4 46.7999C36.6299 46.7999 36.8503 46.7086 37.0128 46.5461C37.1754 46.3836 37.2667 46.1631 37.2667 45.9333V39.8666H38.1333C38.3632 39.8666 38.5836 39.7753 38.7462 39.6128C38.9087 39.4502 39 39.2298 39 38.9999C39 38.7701 38.9087 38.5496 38.7462 38.3871C38.5836 38.2246 38.3632 38.1333 38.1333 38.1333ZM24.2667 39.8666C24.4965 39.8666 24.717 39.7753 24.8795 39.6128C25.042 39.4502 25.1333 39.2298 25.1333 38.9999C25.1333 38.7701 25.042 38.5496 24.8795 38.3871C24.717 38.2246 24.4965 38.1333 24.2667 38.1333H20.8C20.5701 38.1333 20.3497 38.2246 20.1872 38.3871C20.0246 38.5496 19.9333 38.7701 19.9333 38.9999V45.9333C19.9333 46.1631 20.0246 46.3836 20.1872 46.5461C20.3497 46.7086 20.5701 46.7999 20.8 46.7999H24.2667C24.4965 46.7999 24.717 46.7086 24.8795 46.5461C25.042 46.3836 25.1333 46.1631 25.1333 45.9333C25.1333 45.7034 25.042 45.483 24.8795 45.3205C24.717 45.1579 24.4965 45.0666 24.2667 45.0666H21.6667V43.3333H22.5333C22.7632 43.3333 22.9836 43.242 23.1462 43.0794C23.3087 42.9169 23.4 42.6965 23.4 42.4666C23.4 42.2368 23.3087 42.0163 23.1462 41.8538C22.9836 41.6913 22.7632 41.5999 22.5333 41.5999H21.6667V39.8666H24.2667ZM31.2 38.1333C30.9701 38.1333 30.7497 38.2246 30.5872 38.3871C30.4246 38.5496 30.3333 38.7701 30.3333 38.9999V42.2621L28.5133 38.6125C28.4275 38.4352 28.2838 38.2924 28.1059 38.2077C27.928 38.123 27.7266 38.1014 27.5348 38.1466C27.343 38.1917 27.1723 38.3008 27.0509 38.4559C26.9294 38.6111 26.8645 38.8029 26.8667 38.9999V45.9333C26.8667 46.1631 26.958 46.3836 27.1205 46.5461C27.283 46.7086 27.5035 46.7999 27.7333 46.7999C27.9632 46.7999 28.1836 46.7086 28.3462 46.5461C28.5087 46.3836 28.6 46.1631 28.6 45.9333V42.6711L30.42 46.3207C30.4923 46.4654 30.6037 46.587 30.7416 46.6717C30.8794 46.7564 31.0382 46.8008 31.2 46.7999C31.2668 46.7997 31.3333 46.7922 31.3985 46.7774C31.5887 46.7327 31.7582 46.6249 31.8795 46.4717C32.0008 46.3184 32.0668 46.1287 32.0667 45.9333V38.9999C32.0667 38.7701 31.9754 38.5496 31.8128 38.3871C31.6503 38.2246 31.4299 38.1333 31.2 38.1333Z" fill="#EAB308"/>
</g>
</g>
<defs>
<clipPath id="clip0_126_732">
<rect width="52" height="52" fill="white"/>
</clipPath>
</defs>
</svg>
