<svg width="52" height="52" viewBox="0 0 52 52" fill="none" xmlns="http://www.w3.org/2000/svg">
<g id="Frame">
<g id="Group">
<path id="Vector" d="M1.5296 34.851C1.5296 31.4053 4.33284 28.6021 7.77851 28.6021H9.70958V27.8373C9.70958 23.9635 12.8612 20.8119 16.735 20.8119C17.1778 20.8119 17.6266 20.8551 18.0691 20.9401L18.1992 20.9651C18.7513 21.0849 21.443 21.8178 22.7458 24.9122L24.1555 24.3186C22.7969 21.092 20.2086 19.9592 18.9903 19.5928C19.0753 18.2495 19.5362 16.9763 20.3384 15.8866L19.1066 14.9798C18.165 16.2589 17.6078 17.745 17.4758 19.3148C17.2294 19.2933 16.9823 19.2824 16.735 19.2823C12.2755 19.2823 8.60195 22.7121 8.21394 27.0725H7.77851C3.48932 27.0725 0 30.5619 0 34.851C0 39.1401 3.48942 42.6295 7.77851 42.6295H32.1183V41.0999H7.77851C4.33284 41.0999 1.5296 38.2966 1.5296 34.851ZM44.2214 27.0724H43.9545C43.869 26.1288 43.6279 25.2058 43.241 24.341L44.2698 23.3122L42.7088 21.7512C42.827 21.5062 42.9314 21.2549 43.0216 20.9983H45.2283V16.1036H43.0216C42.9313 15.8471 42.8269 15.5957 42.7088 15.3507L44.2698 13.7896L40.8088 10.3286L39.2477 11.8896C39.0028 11.7714 38.7515 11.667 38.4949 11.5768V9.37012H33.6002V11.5768C33.3436 11.6671 33.0923 11.7715 32.8473 11.8896L31.2862 10.3286L29.4133 12.2014C28.3359 11.7342 27.1742 11.4927 25.9999 11.4919C23.8695 11.4919 21.8282 12.2799 20.2518 13.7106L21.2799 14.8432C22.5715 13.6694 24.2546 13.0198 25.9999 13.0214C26.7712 13.0214 27.5184 13.1427 28.2322 13.3825L27.8252 13.7894L29.3862 15.3505C29.2681 15.5955 29.1637 15.8468 29.0735 16.1034H26.8668V20.9981H29.0735C29.1637 21.2547 29.2681 21.506 29.3862 21.751L27.8252 23.312L31.2862 26.7731L32.8473 25.2121C33.0922 25.3302 33.3436 25.4347 33.6002 25.5248V27.7315H38.4949V25.5248C38.7514 25.4346 39.0028 25.3302 39.2477 25.2121L40.8088 26.7731L42.066 25.5159C42.326 26.2621 42.459 27.0467 42.4594 27.837V28.6017H44.2215C47.6672 28.6017 50.4704 31.405 50.4704 34.8507C50.4704 38.2963 47.6672 41.0996 44.2215 41.0996H33.648V42.6292H44.2214C48.5106 42.6292 51.9999 39.1398 51.9999 34.8507C51.9999 30.5616 48.5106 27.0724 44.2214 27.0724ZM42.1067 23.3123L40.8088 24.6102L39.5117 23.3132L39.0022 23.6115C38.5437 23.8804 38.0504 24.0853 37.5363 24.2204L36.9652 24.3699V26.2022H35.1297V24.3699L34.5585 24.2204C34.0444 24.0853 33.5512 23.8804 33.0926 23.6115L32.5831 23.3132L31.2861 24.6102L29.9882 23.3123L31.2851 22.0154L30.9868 21.5058C30.7179 21.0473 30.5131 20.5541 30.3779 20.04L30.2284 19.4689H28.3961V17.6334H30.2284L30.3779 17.0624C30.513 16.5482 30.7178 16.055 30.9868 15.5965L31.2851 15.0869L29.9882 13.7899L31.2861 12.492L32.5831 13.789L33.0926 13.4908C33.5512 13.2218 34.0444 13.017 34.5585 12.8819L35.1297 12.7324V10.9H36.9652V12.7324L37.5363 12.8819C38.0504 13.017 38.5437 13.2218 39.0022 13.4908L39.5117 13.789L40.8088 12.492L42.1067 13.7899L40.8098 15.0869L41.108 15.5965C41.3769 16.0551 41.5817 16.5483 41.7169 17.0624L41.8664 17.6334H43.6988V19.4689H41.8664L41.7169 20.04C41.5819 20.5541 41.377 21.0473 41.108 21.5058L40.8098 22.0154L42.1067 23.3123Z" fill="#E9ECEF"/>
<path id="Vector_2" d="M12.3825 37.8661C11.4505 37.8661 10.55 37.4862 9.9734 36.85L8.99109 37.7403C9.81473 38.649 11.0826 39.1916 12.3825 39.1916C13.928 39.1916 15.2739 38.1813 15.5131 36.8415C15.7881 35.3012 14.568 34.2661 13.3347 33.8111C12.2502 33.4111 11.2453 32.974 11.0072 32.8693C10.7123 32.6573 10.5687 32.3156 10.6218 31.946C10.6872 31.4908 11.0336 31.1266 11.5486 30.9714C12.9321 30.5542 14.1754 31.5606 14.1878 31.5709L15.0385 30.5541C14.9663 30.4933 13.247 29.075 11.1662 29.7021C10.1595 30.0054 9.44803 30.7929 9.30965 31.7576C9.18096 32.6536 9.56897 33.5153 10.3221 34.0064L10.3662 34.0351L10.4141 34.0565C10.4618 34.0777 11.5969 34.583 12.8762 35.0549C13.8358 35.4088 14.3214 35.975 14.2082 36.6084C14.0992 37.2182 13.4224 37.8661 12.3825 37.8661ZM40.1203 37.8661C39.1883 37.8661 38.2878 37.4862 37.7112 36.85L36.7289 37.7403C37.5526 38.649 38.8204 39.1916 40.1203 39.1916C41.6658 39.1916 43.0117 38.1813 43.2509 36.8415C43.5259 35.3012 42.3058 34.2661 41.0726 33.8111C39.988 33.4111 38.9831 32.974 38.745 32.8693C38.4501 32.6573 38.3065 32.3156 38.3597 31.946C38.425 31.4908 38.7714 31.1266 39.2864 30.9714C40.6701 30.5542 41.9132 31.5606 41.9257 31.5709L42.7763 30.5541C42.7041 30.4933 40.9848 29.075 38.904 29.7021C37.8973 30.0054 37.1859 30.7929 37.0475 31.7576C36.9188 32.6536 37.3068 33.5153 38.06 34.0064L38.104 34.0351L38.152 34.0565C38.1997 34.0777 39.3347 34.583 40.614 35.0549C41.5737 35.4088 42.0593 35.975 41.9461 36.6084C41.8371 37.2182 41.1604 37.8661 40.1203 37.8661ZM24.9208 38.5875V31.8859H23.3912V32.2313C22.7554 31.7648 21.9871 31.5136 21.1985 31.5143C19.146 31.5143 17.4762 33.1841 17.4762 35.2366C17.4762 37.2891 19.146 38.9589 21.1985 38.9589C21.9871 38.9596 22.7554 38.7084 23.3912 38.242V38.5874L24.9208 38.5875ZM21.1985 37.4294C19.9895 37.4294 19.0058 36.4458 19.0058 35.2367C19.0058 34.0276 19.9894 33.044 21.1985 33.044C22.4076 33.044 23.3912 34.0276 23.3912 35.2367C23.3912 36.4458 22.4075 37.4294 21.1985 37.4294ZM34.63 38.5875V31.8859H33.1004V32.2313C32.4645 31.7648 31.6963 31.5136 30.9077 31.5143C28.8552 31.5143 27.1853 33.1841 27.1853 35.2366C27.1853 37.2891 28.8552 38.9589 30.9077 38.9589C31.6963 38.9596 32.4645 38.7084 33.1004 38.242V38.5874L34.63 38.5875ZM30.9077 37.4294C29.6987 37.4294 28.7149 36.4458 28.7149 35.2367C28.7149 34.0276 29.6986 33.044 30.9077 33.044C32.1168 33.044 33.1004 34.0276 33.1004 35.2367C33.1004 36.4458 32.1167 37.4294 30.9077 37.4294ZM36.0475 15.3267C34.2695 15.3267 32.823 16.7731 32.823 18.5512C32.823 20.3292 34.2696 21.7756 36.0475 21.7756C37.8254 21.7756 39.272 20.3292 39.272 18.5512C39.272 16.7731 37.8255 15.3267 36.0475 15.3267ZM36.0475 20.2461C35.1129 20.2461 34.3526 19.4857 34.3526 18.5512C34.3526 17.6166 35.1129 16.8563 36.0475 16.8563C36.9821 16.8563 37.7424 17.6166 37.7424 18.5512C37.7424 19.4857 36.9821 20.2461 36.0475 20.2461Z" fill="#EAB308"/>
</g>
</g>
</svg>
