<svg width="52" height="52" viewBox="0 0 52 52" fill="none" xmlns="http://www.w3.org/2000/svg">
<g id="Frame" clipPath="url(#clip0_126_695)">
<g id="Group">
<path id="Vector" d="M12.7733 15.6306C5.74317 15.6306 0.0236816 21.3501 0.0236816 28.3803C0.0236816 32.7451 2.10003 37.4381 6.19513 42.329C6.77336 43.0186 7.37252 43.6903 7.99177 44.3434C5.34769 45.0651 3.76017 46.3617 3.76017 47.8751C3.76017 50.5542 8.40381 51.9998 12.7729 51.9998C17.1421 51.9998 21.7857 50.5541 21.7857 47.8751C21.7857 46.3629 20.1987 45.066 17.5563 44.344C18.612 43.2295 19.7478 41.9183 20.8256 40.4558C20.8863 40.3753 20.9304 40.2836 20.9554 40.1859C20.9803 40.0882 20.9857 39.9865 20.9711 39.8868C20.9566 39.787 20.9224 39.6911 20.8705 39.6047C20.8186 39.5182 20.7501 39.4429 20.6689 39.3831C20.5878 39.3233 20.4956 39.2802 20.3976 39.2562C20.2997 39.2323 20.198 39.228 20.0983 39.2437C19.9987 39.2593 19.9032 39.2945 19.8173 39.3473C19.7314 39.4001 19.6569 39.4694 19.5979 39.5512C18.2967 41.3171 16.8882 42.869 15.6592 44.1016C15.5165 44.174 15.4002 44.2894 15.3267 44.4316C14.2258 45.5135 13.2993 46.3162 12.7736 46.7547C12.2537 46.3205 11.3414 45.5287 10.2546 44.4609C10.1776 44.292 10.0417 44.157 9.8724 44.0811C6.41856 40.6072 1.54864 34.6052 1.54864 28.3805C1.54864 22.1912 6.58401 17.1559 12.7732 17.1559C18.9624 17.1559 23.9978 22.1912 23.9978 28.3805C23.9978 31.0834 23.0768 34.0023 21.2605 37.0561C21.2093 37.1422 21.1756 37.2375 21.1612 37.3366C21.1469 37.4357 21.1522 37.5367 21.1768 37.6337C21.2015 37.7308 21.245 37.822 21.305 37.9023C21.3649 37.9825 21.44 38.0501 21.5261 38.1013C21.6122 38.1525 21.7075 38.1862 21.8066 38.2006C21.9057 38.215 22.0066 38.2097 22.1037 38.185C22.2007 38.1603 22.292 38.1168 22.3722 38.0569C22.4524 37.9969 22.5201 37.9218 22.5713 37.8357C24.5298 34.5427 25.5229 31.3615 25.5229 28.3805C25.523 21.3501 19.8035 15.6306 12.7733 15.6306ZM12.3067 48.3408C12.4402 48.4442 12.6044 48.5003 12.7733 48.5002C12.9423 48.5003 13.1065 48.4442 13.24 48.3408C13.3335 48.2683 14.6078 47.2746 16.3062 45.614C18.8779 46.1385 20.2608 47.1483 20.2608 47.8752C20.2608 48.418 19.5168 49.0585 18.319 49.5465C16.85 50.1452 14.8804 50.475 12.773 50.475C8.2021 50.475 5.28523 48.9351 5.28523 47.8752C5.28523 47.1473 6.66851 46.138 9.2417 45.6135C10.9496 47.284 12.2256 48.278 12.3067 48.3408Z" fill="#E9ECEF"/>
<path id="Vector_2" d="M12.7734 22.8367C11.5673 22.8367 10.4205 23.2175 9.45684 23.9379C9.2949 24.059 9.1877 24.2395 9.15878 24.4396C9.12987 24.6398 9.18163 24.8432 9.30267 25.0052C9.42381 25.1671 9.60428 25.2743 9.80442 25.3032C10.0046 25.3321 10.208 25.2804 10.37 25.1594C11.0678 24.6376 11.8989 24.3618 12.7733 24.3618C14.9891 24.3618 16.7917 26.1644 16.7917 28.3803C16.7917 30.5961 14.9891 32.3987 12.7733 32.3987C10.5575 32.3987 8.75484 30.596 8.75484 28.3803C8.75484 28.0022 8.80715 27.6283 8.91023 27.2694C8.96603 27.0751 8.94234 26.8665 8.84436 26.6896C8.74639 26.5127 8.58216 26.3819 8.38779 26.3261C8.19341 26.2705 7.98489 26.2942 7.80802 26.3922C7.63115 26.4902 7.5004 26.6544 7.44448 26.8487C7.30187 27.3467 7.22967 27.8623 7.22998 28.3803C7.22998 31.4369 9.71674 33.9238 12.7735 33.9238C15.8301 33.9238 18.317 31.437 18.317 28.3803C18.3168 25.3236 15.83 22.8367 12.7734 22.8367ZM46.0036 22.1529C46.4116 21.7157 46.8078 21.2677 47.192 20.8093C50.3666 17.0177 51.9763 13.3727 51.9763 9.97537C51.9763 4.47505 47.5013 0 42.0009 0C37.9828 0 34.375 2.39139 32.8098 6.09233C32.7708 6.18454 32.7503 6.28354 32.7496 6.38366C32.7488 6.48379 32.7678 6.58308 32.8054 6.67587C32.843 6.76867 32.8986 6.85314 32.9688 6.92447C33.0391 6.9958 33.1227 7.05259 33.215 7.0916C33.4012 7.17034 33.6111 7.1719 33.7985 7.09592C33.9859 7.01995 34.1354 6.87267 34.2142 6.68647C35.5404 3.55103 38.5969 1.52496 42.0009 1.52496C46.6605 1.52496 50.4513 5.31588 50.4513 9.97547C50.4513 16.2767 43.8358 22.3137 42.0006 23.8667C41.5962 23.5249 40.9596 22.9655 40.2132 22.2339C40.1393 22.088 40.0204 21.9699 39.8741 21.8969C37.2413 19.246 33.5505 14.6892 33.5505 9.97547C33.5505 9.77323 33.4702 9.57928 33.3272 9.43628C33.1842 9.29327 32.9902 9.21294 32.788 9.21294C32.5857 9.21294 32.3918 9.29327 32.2488 9.43628C32.1058 9.57928 32.0255 9.77323 32.0255 9.97547C32.0255 13.3727 33.6351 17.0177 36.8099 20.8094C37.1939 21.2675 37.5899 21.7153 37.9976 22.1524C36.032 22.743 34.8972 23.7483 34.8972 24.9588C34.8972 25.9797 35.7254 26.8794 37.2293 27.4922C38.5161 28.0165 40.2107 28.3054 42.0008 28.3054C43.7909 28.3054 45.4854 28.0165 46.7723 27.4922C48.276 26.8793 49.1041 25.9796 49.1041 24.9587C49.104 23.7504 47.9684 22.7442 46.0036 22.1529ZM42.0007 26.7802C38.3913 26.7802 36.4223 25.5769 36.4223 24.9586C36.4223 24.5558 37.318 23.8186 39.2306 23.412C40.5175 24.6642 41.4727 25.4082 41.5343 25.456C41.6679 25.5595 41.8321 25.6156 42.001 25.6155C42.17 25.6156 42.3341 25.5595 42.4677 25.456C42.5294 25.4084 43.4843 24.6642 44.7712 23.4122C45.6234 23.5939 46.3615 23.8601 46.8781 24.1745C47.3171 24.442 47.5792 24.7351 47.5792 24.9586C47.579 25.5769 45.6101 26.7802 42.0007 26.7802Z" fill="#EAB308"/>
<path id="Vector_3" d="M42.0009 5.53833C39.5544 5.53833 37.5639 7.52875 37.5639 9.97549C37.5639 12.422 39.5543 14.4125 42.0009 14.4125C44.4476 14.4125 46.438 12.4221 46.438 9.97549C46.438 7.52885 44.4476 5.53833 42.0009 5.53833ZM42.001 12.8874C40.3951 12.8874 39.0889 11.5811 39.0889 9.97539C39.0889 8.36969 40.3952 7.06329 42.001 7.06329C43.6067 7.06329 44.9131 8.36959 44.9131 9.97539C44.913 11.5811 43.6067 12.8874 42.001 12.8874ZM32.1097 24.1961H31.7616C31.5081 24.1961 31.2534 24.2128 31.0041 24.246C30.8052 24.2746 30.6256 24.3804 30.5043 24.5406C30.3831 24.7008 30.3299 24.9024 30.3564 25.1016C30.3829 25.3007 30.4869 25.4814 30.6459 25.6043C30.8049 25.7272 31.0059 25.7824 31.2053 25.7579C31.3898 25.7335 31.5756 25.7213 31.7617 25.7213H32.1097V25.7212C32.5309 25.7212 32.8723 25.38 32.8723 24.9587C32.8723 24.5374 32.5309 24.1961 32.1097 24.1961ZM29.5889 47.0737H29.5853L28.5782 47.0783C28.376 47.0787 28.1822 47.1595 28.0395 47.3028C27.8968 47.4461 27.8169 47.6403 27.8174 47.8425C27.8178 48.0447 27.8986 48.2385 28.0419 48.3812C28.1852 48.5239 28.3793 48.6038 28.5816 48.6034H28.5851L29.5922 48.5988C29.7944 48.5978 29.988 48.5166 30.1303 48.373C30.2727 48.2293 30.3522 48.035 30.3513 47.8328C30.3504 47.6312 30.2697 47.4381 30.1268 47.2958C29.9839 47.1536 29.7905 47.0737 29.5889 47.0737ZM33.0146 34.073H32.0075C31.8052 34.073 31.6113 34.1534 31.4683 34.2964C31.3253 34.4394 31.2449 34.6333 31.2449 34.8356C31.2449 35.0378 31.3253 35.2317 31.4683 35.3747C31.6113 35.5177 31.8052 35.5981 32.0075 35.5981H33.0146C33.1147 35.5981 33.2139 35.5784 33.3064 35.5401C33.3989 35.5018 33.483 35.4456 33.5538 35.3748C33.6246 35.304 33.6808 35.2199 33.7191 35.1274C33.7574 35.0349 33.7771 34.9357 33.7771 34.8356C33.7771 34.7354 33.7574 34.6363 33.7191 34.5437C33.6808 34.4512 33.6246 34.3671 33.5538 34.2963C33.483 34.2255 33.3989 34.1694 33.3064 34.131C33.2139 34.0927 33.1147 34.073 33.0146 34.073ZM28.9742 25.7497C28.8371 25.6011 28.6465 25.513 28.4445 25.5049C28.2424 25.4967 28.0454 25.5691 27.8967 25.7062C27.6118 25.969 27.3544 26.26 27.1282 26.5748C27.0152 26.7392 26.9711 26.9414 27.0054 27.138C27.0397 27.3346 27.1497 27.5099 27.3118 27.6263C27.4739 27.7428 27.6752 27.791 27.8724 27.7607C28.0697 27.7305 28.2472 27.6241 28.367 27.4645C28.5329 27.2335 28.7218 27.02 28.9307 26.8272C29.0794 26.69 29.1675 26.4995 29.1756 26.2974C29.1838 26.0954 29.1113 25.8983 28.9742 25.7497ZM33.6174 47.0553H33.6139L32.6069 47.0598C32.4068 47.0635 32.2162 47.1457 32.0761 47.2886C31.9361 47.4316 31.8578 47.6239 31.8583 47.824C31.8587 48.0241 31.9378 48.2161 32.0785 48.3584C32.2191 48.5007 32.4101 48.5821 32.6102 48.5849H32.6138L33.6208 48.5803C33.8209 48.5766 34.0115 48.4945 34.1516 48.3515C34.2916 48.2085 34.3699 48.0163 34.3694 47.8161C34.369 47.616 34.2899 47.4241 34.1492 47.2817C34.0085 47.1394 33.8175 47.058 33.6174 47.0553ZM25.5604 47.0919H25.5568L24.5497 47.0965C24.3475 47.0975 24.154 47.1787 24.0116 47.3223C23.8693 47.466 23.7898 47.6602 23.7907 47.8625C23.7915 48.0641 23.8723 48.2572 24.0151 48.3994C24.158 48.5417 24.3515 48.6215 24.5531 48.6215H24.5566L25.5637 48.617C25.766 48.616 25.9595 48.5348 26.1019 48.3911C26.2442 48.2475 26.3237 48.0532 26.3228 47.851C26.322 47.6494 26.2412 47.4563 26.0983 47.314C25.9555 47.1717 25.762 47.0919 25.5604 47.0919ZM29.5374 33.4321C29.297 33.2803 29.0727 33.1047 28.8678 32.9077C28.722 32.7675 28.5265 32.691 28.3243 32.6949C28.1222 32.6989 27.9298 32.7829 27.7896 32.9286C27.7202 33.0008 27.6656 33.0859 27.6291 33.1791C27.5926 33.2724 27.5748 33.3719 27.5767 33.472C27.5787 33.5721 27.6003 33.6709 27.6404 33.7626C27.6805 33.8543 27.7383 33.9373 27.8105 34.0067C28.0899 34.2754 28.3959 34.515 28.7236 34.7219C28.8083 34.7754 28.9027 34.8117 29.0015 34.8287C29.1002 34.8457 29.2013 34.8431 29.299 34.821C29.3967 34.7988 29.4891 34.7577 29.5708 34.6998C29.6526 34.6419 29.7222 34.5685 29.7755 34.4837C29.829 34.3991 29.8652 34.3047 29.8821 34.206C29.8991 34.1073 29.8964 34.0062 29.8743 33.9086C29.8522 33.8109 29.811 33.7186 29.7532 33.6368C29.6954 33.555 29.6221 33.4855 29.5374 33.4321ZM27.6629 30.7009C27.6115 30.4361 27.5857 30.167 27.5857 29.8972L27.5859 29.8548C27.5871 29.7547 27.5686 29.6553 27.5313 29.5624C27.4941 29.4694 27.4389 29.3847 27.3689 29.3131C27.2989 29.2415 27.2155 29.1843 27.1235 29.1449C27.0314 29.1056 26.9325 29.0847 26.8324 29.0836L26.8233 29.0835C26.6226 29.0835 26.4301 29.1627 26.2874 29.3037C26.1446 29.4448 26.0633 29.6365 26.061 29.8372L26.0607 29.8973C26.0607 30.2655 26.0961 30.6341 26.166 30.9927C26.1852 31.091 26.2235 31.1846 26.2788 31.2681C26.3341 31.3515 26.4053 31.4233 26.4884 31.4792C26.5714 31.5352 26.6647 31.5743 26.7628 31.5942C26.861 31.6141 26.9621 31.6145 27.0604 31.5953C27.1586 31.5761 27.2522 31.5378 27.3357 31.4825C27.4192 31.4272 27.4909 31.356 27.5469 31.2729C27.6028 31.1899 27.6419 31.0966 27.6618 30.9985C27.6817 30.9003 27.6821 30.7992 27.6629 30.7009ZM37.0432 34.073H36.0361C35.8339 34.073 35.64 34.1534 35.497 34.2964C35.354 34.4394 35.2736 34.6333 35.2736 34.8356C35.2736 35.0378 35.354 35.2317 35.497 35.3747C35.64 35.5177 35.8339 35.5981 36.0361 35.5981H37.0432C37.2455 35.5981 37.4394 35.5177 37.5824 35.3747C37.7254 35.2317 37.8058 35.0378 37.8058 34.8356C37.8058 34.6333 37.7254 34.4394 37.5824 34.2964C37.4394 34.1534 37.2455 34.073 37.0432 34.073ZM49.2857 35.6255C48.9911 35.3931 48.679 35.1839 48.3521 34.9997C47.9856 34.7929 47.5203 34.9228 47.3135 35.2897C47.2644 35.377 47.2329 35.473 47.2209 35.5725C47.2088 35.6719 47.2165 35.7727 47.2435 35.8691C47.2704 35.9656 47.3161 36.0557 47.3779 36.1345C47.4397 36.2133 47.5164 36.2792 47.6036 36.3283C47.8616 36.4738 48.1079 36.6391 48.3404 36.8225C48.4748 36.929 48.6411 36.9868 48.8125 36.9866C48.971 36.9868 49.1256 36.9376 49.2549 36.8458C49.3841 36.754 49.4815 36.6242 49.5336 36.4745C49.5856 36.3248 49.5897 36.1626 49.5453 36.0104C49.5009 35.8582 49.4101 35.7237 49.2857 35.6255ZM46.4552 47.6017C46.3974 47.1845 46.0118 46.8925 45.5955 46.9506C45.3458 46.9852 45.09 47.0033 44.835 47.0044L44.6923 47.0051C44.4931 47.0101 44.3038 47.0929 44.1649 47.2357C44.0259 47.3786 43.9484 47.5701 43.9489 47.7693C43.9493 47.9686 44.0278 48.1598 44.1674 48.3019C44.307 48.4441 44.4967 48.526 44.6959 48.5301H44.6996L44.842 48.5294C45.1639 48.528 45.4853 48.5053 45.8042 48.4614C45.9034 48.4477 45.999 48.4146 46.0854 48.364C46.1718 48.3133 46.2473 48.2462 46.3078 48.1664C46.3682 48.0865 46.4124 47.9956 46.4377 47.8987C46.463 47.8018 46.4689 47.7009 46.4552 47.6017ZM49.8205 45.4574C49.7515 45.3848 49.6688 45.3266 49.5773 45.286C49.4857 45.2455 49.3871 45.2233 49.287 45.2209C49.1868 45.2185 49.0872 45.2358 48.9938 45.2719C48.9004 45.3079 48.815 45.3621 48.7425 45.4312C48.5278 45.6356 48.2977 45.8231 48.0541 45.9921C47.888 46.1074 47.7744 46.2839 47.7383 46.4829C47.7023 46.6819 47.7467 46.8871 47.8619 47.0533C47.9321 47.1547 48.0258 47.2375 48.1351 47.2947C48.2444 47.3519 48.3659 47.3816 48.4892 47.3815C48.6443 47.3815 48.7957 47.3341 48.923 47.2456C49.2313 47.0316 49.5226 46.7942 49.7944 46.5355C49.8669 46.4664 49.9251 46.3837 49.9657 46.2921C50.0062 46.2006 50.0283 46.1019 50.0307 46.0018C50.0332 45.9017 50.0159 45.8021 49.9798 45.7087C49.9437 45.6153 49.8896 45.5299 49.8205 45.4574ZM51.3045 41.7541C51.1058 41.7167 50.9004 41.7598 50.7335 41.8739C50.5665 41.9879 50.4516 42.1636 50.4141 42.3623C50.3593 42.6531 50.2818 42.9393 50.1826 43.2182C50.1172 43.4081 50.1294 43.6161 50.2165 43.797C50.3035 43.978 50.4585 44.1173 50.6476 44.1847C50.8367 44.2522 51.0449 44.2423 51.2268 44.1572C51.4087 44.0722 51.5497 43.9188 51.6192 43.7304C51.7452 43.3766 51.8434 43.0135 51.913 42.6445C51.9503 42.4457 51.9072 42.2403 51.7931 42.0733C51.679 41.9063 51.5033 41.7915 51.3045 41.7541ZM51.7575 39.303C51.6537 38.9417 51.5217 38.5891 51.3628 38.2484C51.2754 38.0682 51.1206 37.9297 50.9319 37.8627C50.7432 37.7957 50.5358 37.8056 50.3543 37.8902C50.1728 37.9749 50.032 38.1275 49.9621 38.3152C49.8922 38.5028 49.8989 38.7104 49.9808 38.8932C50.1059 39.1615 50.2099 39.4391 50.2917 39.7237C50.3373 39.8827 50.4335 40.0226 50.5656 40.1223C50.6978 40.2219 50.8587 40.2759 51.0242 40.2761C51.1424 40.2761 51.2589 40.2486 51.3646 40.1959C51.4704 40.1432 51.5624 40.0667 51.6335 39.9724C51.7046 39.878 51.7528 39.7684 51.7743 39.6523C51.7958 39.5361 51.7901 39.4165 51.7575 39.303ZM41.0718 34.073H40.0647C39.8625 34.073 39.6685 34.1534 39.5255 34.2964C39.3825 34.4394 39.3022 34.6333 39.3022 34.8356C39.3022 35.0378 39.3825 35.2317 39.5255 35.3747C39.6685 35.5177 39.8625 35.5981 40.0647 35.5981H41.0718C41.2741 35.5981 41.468 35.5177 41.611 35.3747C41.754 35.2317 41.8344 35.0378 41.8344 34.8356C41.8344 34.6333 41.754 34.4394 41.611 34.2964C41.468 34.1534 41.2741 34.073 41.0718 34.073ZM37.646 47.037H37.6425L36.6354 47.0415C36.4353 47.0452 36.2446 47.1274 36.1046 47.2704C35.9645 47.4133 35.8863 47.6056 35.8867 47.8057C35.8872 48.0058 35.9663 48.1978 36.1069 48.3401C36.2476 48.4825 36.4386 48.5638 36.6387 48.5666H36.6423L37.6494 48.562C37.8516 48.5616 38.0454 48.4808 38.1881 48.3375C38.3308 48.1942 38.4107 48.0001 38.4102 47.7978C38.4098 47.5956 38.329 47.4018 38.1857 47.2591C38.0424 47.1164 37.8483 47.0365 37.646 47.037ZM45.1339 34.0803C45.0258 34.0755 44.9176 34.0731 44.8093 34.0731H44.0932C43.891 34.0731 43.697 34.1535 43.554 34.2965C43.411 34.4395 43.3307 34.6334 43.3307 34.8357C43.3307 35.0379 43.411 35.2318 43.554 35.3748C43.697 35.5178 43.891 35.5982 44.0932 35.5982H44.8093V35.5981C44.8955 35.5981 44.9813 35.6 45.0665 35.6038C45.1665 35.6082 45.2664 35.5929 45.3605 35.5587C45.4546 35.5246 45.5411 35.4722 45.615 35.4046C45.6888 35.337 45.7487 35.2555 45.791 35.1648C45.8334 35.0741 45.8575 34.9759 45.8619 34.8759C45.8664 34.7758 45.8511 34.6759 45.8169 34.5818C45.7827 34.4877 45.7303 34.4012 45.6627 34.3273C45.5951 34.2534 45.5136 34.1936 45.4229 34.1512C45.3321 34.1088 45.234 34.0848 45.1339 34.0803ZM41.6745 47.0188H41.6709L40.6638 47.0234C40.4637 47.027 40.2731 47.1092 40.1331 47.2522C39.993 47.3951 39.9148 47.5874 39.9152 47.7875C39.9157 47.9877 39.9947 48.1796 40.1354 48.3219C40.2761 48.4643 40.4671 48.5456 40.6672 48.5484H40.6707L41.6778 48.5439C41.8801 48.5429 42.0736 48.4617 42.216 48.318C42.3583 48.1744 42.4378 47.9801 42.4369 47.7779C42.4361 47.5762 42.3554 47.3831 42.2125 47.2409C42.0696 47.0986 41.8761 47.0188 41.6745 47.0188Z" fill="#E9ECEF"/>
</g>
</g>
<defs>
<clipPath id="clip0_126_695">
<rect width="52" height="52" fill="white"/>
</clipPath>
</defs>
</svg>
