<svg width="464" height="244" viewBox="0 0 464 244" fill="none" xmlns="http://www.w3.org/2000/svg">
<rect width="464" height="244" rx="10" fill="url(#paint0_linear_172_469)"/>
<path d="M207.566 190.337C200.898 187.135 195.425 194.376 195.425 194.376C195.425 194.376 199.615 178.618 193.115 177.567C186.614 176.507 177.245 182.745 177.245 182.745C177.245 182.745 178.623 170.038 173.302 171.01C167.98 171.982 166.865 183.231 166.865 183.231C166.865 183.231 163.678 180.339 161.718 182.769C159.758 185.207 163.104 187.541 163.104 187.541C163.104 187.541 158.133 188.999 159.4 191.747C160.666 194.504 160.666 194.504 160.666 194.504C160.666 194.504 155.647 188.186 152.931 189.82C150.214 191.453 150.788 195.42 150.788 195.42C150.788 195.42 145.617 190.114 142.494 193.508C140.814 195.332 143.49 202.024 143.49 202.024L207.104 202.176C207.096 202.184 214.226 193.54 207.566 190.337ZM319.227 190.337C312.559 187.135 307.086 194.376 307.086 194.376C307.086 194.376 311.276 178.618 304.775 177.567C298.275 176.507 288.906 182.745 288.906 182.745C288.906 182.745 290.284 170.038 284.962 171.01C279.641 171.982 278.525 183.231 278.525 183.231C278.525 183.231 275.339 180.339 273.379 182.769C271.419 185.207 274.765 187.541 274.765 187.541C274.765 187.541 269.794 188.999 271.061 191.747C272.327 194.504 272.327 194.504 272.327 194.504C272.327 194.504 267.308 188.186 264.592 189.82C261.875 191.453 262.449 195.42 262.449 195.42C262.449 195.42 257.278 190.114 254.155 193.508C252.474 195.332 255.151 202.024 255.151 202.024L318.765 202.176C318.757 202.184 325.895 193.54 319.227 190.337ZM147.482 87.8223C150.844 90.2681 155.942 92.0367 159.87 89.7263C162.284 88.4676 162.929 81.2657 159.105 82.7395C158.229 83.7832 159.726 85.0658 160.818 84.6595C162.005 84.4524 162.809 83.1698 163.511 82.4528C161.583 87.5196 155.902 84.1019 159.408 81.9349C163.439 81.3773 162.993 87.7108 160.897 89.6626C157.121 92.9369 150.565 91.1444 147.482 87.8223ZM304.401 87.2009C304.425 87.1849 304.6 87.424 304.871 87.878C305.134 88.3401 305.492 89.0173 305.859 89.8936C306.225 90.77 306.616 91.8295 306.919 93.0564C307.221 94.2753 307.444 95.6535 307.46 97.1114C307.476 98.5693 307.261 99.9635 306.879 101.166C306.496 102.377 305.947 103.389 305.397 104.17C305.126 104.56 304.855 104.895 304.6 105.182C304.536 105.253 304.473 105.317 304.417 105.389C304.353 105.453 304.297 105.508 304.242 105.572C304.186 105.628 304.13 105.684 304.082 105.739C304.027 105.787 303.979 105.835 303.931 105.883C303.835 105.97 303.748 106.05 303.668 106.122C303.588 106.185 303.525 106.241 303.469 106.281C303.357 106.369 303.294 106.409 303.286 106.393C303.278 106.385 303.318 106.321 303.413 106.217C303.461 106.162 303.517 106.098 303.588 106.026C303.66 105.954 303.732 105.859 303.819 105.763C303.859 105.715 303.907 105.66 303.955 105.612C304.003 105.556 304.051 105.5 304.098 105.437C304.146 105.373 304.202 105.309 304.258 105.245C304.313 105.174 304.369 105.11 304.425 105.03C304.656 104.743 304.903 104.401 305.15 104.003C305.652 103.222 306.154 102.226 306.504 101.055C306.855 99.8838 307.054 98.5374 307.038 97.1194C307.022 95.7013 306.823 94.355 306.544 93.152C306.265 91.949 305.915 90.8895 305.588 90.0131C305.261 89.1368 304.951 88.4437 304.736 87.9657C304.497 87.4797 304.369 87.2168 304.401 87.2009ZM170.195 88.4835C169.486 88.2365 168.928 87.6709 168.689 86.9539C168.641 86.8265 168.466 86.8265 168.426 86.9539C168.179 87.6709 167.621 88.2365 166.912 88.4835C166.785 88.5313 166.785 88.7066 166.912 88.7544C167.621 89.0014 168.179 89.567 168.426 90.284C168.474 90.4115 168.649 90.4115 168.689 90.284C168.936 89.567 169.494 89.0014 170.195 88.7544C170.322 88.7066 170.322 88.5313 170.195 88.4835ZM154.158 69.4034C153.576 69.1962 153.114 68.7262 152.907 68.1366C152.867 68.0251 152.724 68.0251 152.684 68.1366C152.485 68.7262 152.023 69.1962 151.433 69.4034C151.33 69.4432 151.33 69.5866 151.433 69.6264C152.015 69.8336 152.477 70.3036 152.684 70.8931C152.724 71.0047 152.867 71.0047 152.907 70.8931C153.106 70.3036 153.568 69.8336 154.158 69.6264C154.261 69.5866 154.261 69.4352 154.158 69.4034ZM294.315 68.2084C293.519 67.9295 292.889 67.2922 292.618 66.4875C292.571 66.3362 292.371 66.3362 292.316 66.4875C292.045 67.2922 291.407 67.9295 290.619 68.2084C290.475 68.2562 290.475 68.4633 290.619 68.5111C291.415 68.7899 292.045 69.4273 292.316 70.2399C292.363 70.3912 292.563 70.3912 292.618 70.2399C292.889 69.4352 293.519 68.7899 294.315 68.5111C294.459 68.4553 294.459 68.2562 294.315 68.2084ZM306.831 76.9478C306.417 76.8044 306.098 76.4778 305.955 76.0555C305.931 75.9759 305.827 75.9759 305.803 76.0555C305.66 76.4698 305.333 76.8044 304.927 76.9478C304.855 76.9717 304.855 77.0753 304.927 77.1071C305.341 77.2505 305.66 77.5851 305.803 77.9994C305.827 78.0791 305.931 78.0791 305.955 77.9994C306.098 77.5851 306.425 77.2505 306.831 77.1071C306.911 77.0832 306.911 76.9797 306.831 76.9478Z" fill="#DADAEF"/>
<path d="M152.604 208.613C163.216 211.561 192.9 214.277 192.557 217.081C192.215 219.886 170.84 217.018 163.001 214.341C155.154 211.672 149.441 207.737 152.604 208.613ZM318.932 206.685C305.501 218.261 289.201 220.196 264.767 217.759C240.333 215.321 245.926 212.612 226.009 215.321C206.092 218.03 208.212 214.652 187.395 212.556C166.586 210.461 150.644 206.358 144.207 202.996C137.77 199.634 177.62 198.71 237.401 198.097C297.183 197.491 327.807 199.037 318.932 206.685Z" fill="#EDEDF7"/>
<path d="M269.34 40.4206V190.943C269.34 197.619 263.931 203.028 257.27 203.028H187.156C180.48 203.028 175.07 197.619 175.07 190.943V40.4206C175.07 33.7604 180.48 28.3511 187.156 28.3511H257.27C263.931 28.3511 269.34 33.7604 269.34 40.4206Z" fill="#CACAEA"/>
<path d="M263.301 40.4206V190.927C263.301 193.707 261.429 196.041 258.872 196.743C258.354 196.886 257.82 196.966 257.262 196.966H187.148C186.909 196.966 186.686 196.95 186.447 196.926C183.451 196.583 181.101 194.026 181.101 190.927V40.4206C181.101 37.3375 183.451 34.7642 186.447 34.4217C186.686 34.3978 186.909 34.3818 187.148 34.3818H257.262C257.82 34.3818 258.354 34.4615 258.872 34.6049C261.429 35.306 263.301 37.6561 263.301 40.4206Z" fill="white"/>
<path d="M214.457 102.425H192.581C191.657 102.425 190.908 103.174 190.908 104.098V119.561C190.908 120.486 191.657 121.234 192.581 121.234H214.457C215.381 121.234 216.13 120.486 216.13 119.561V104.098C216.13 103.174 215.381 102.425 214.457 102.425Z" fill="#DADAEF"/>
<path opacity="0.25" d="M201.456 111.882C201.456 112.901 200.635 113.722 199.615 113.722C198.596 113.722 197.775 112.901 197.775 111.882C197.775 110.862 198.596 110.041 199.615 110.041C200.635 110.041 201.456 110.862 201.456 111.882ZM197.855 108.281C198.126 108.273 198.532 108.249 198.89 108.177C198.675 108.145 198.46 108.097 198.293 108.042C197.871 107.898 197.624 107.532 197.48 107.133C197.441 107.03 197.409 106.775 197.321 106.711C197.289 106.687 197.122 106.719 197.05 106.727C196.636 106.791 196.23 106.926 195.815 106.99C195.385 107.062 194.923 107.03 194.501 106.918C193.545 106.671 193.234 105.899 192.915 105.07C192.804 104.775 192.676 104.481 192.366 104.353C192.007 104.202 191.569 104.202 191.187 104.218C191.091 104.226 190.996 104.234 190.9 104.242V108.289C192.286 108.289 193.664 108.305 195.051 108.305C195.991 108.297 196.923 108.305 197.855 108.281ZM209.048 111.093C208.777 111.085 208.371 111.061 208.012 110.989C208.227 110.957 208.443 110.91 208.61 110.854C209.032 110.711 209.279 110.344 209.422 109.946C209.462 109.842 209.494 109.587 209.582 109.523C209.614 109.5 209.781 109.531 209.853 109.539C210.267 109.603 210.673 109.739 211.087 109.802C211.518 109.874 211.98 109.842 212.402 109.731C213.358 109.484 213.669 108.711 213.987 107.882C214.099 107.588 214.226 107.293 214.537 107.165C214.896 107.014 215.334 107.014 215.716 107.03C215.812 107.038 215.907 107.046 216.003 107.054V111.101C214.617 111.101 213.23 111.117 211.852 111.117C210.912 111.109 209.98 111.117 209.048 111.093Z" fill="white"/>
<path d="M210.586 115.729C210.697 115.626 210.729 115.498 210.729 115.387L210.761 112.296H211.127C211.191 112.296 211.239 112.248 211.239 112.184L211.247 110.973C211.247 110.91 211.199 110.862 211.135 110.862V110.623C211.199 110.623 211.247 110.575 211.247 110.511V110.368C211.247 110.304 211.199 110.256 211.135 110.256V110.105C211.199 110.105 211.717 110.041 211.717 109.985L211.271 108.169C211.279 107.006 210.347 106.05 209.183 106.042C208.857 106.042 208.538 106.177 208.315 106.416L208.02 106.735H207.917C207.765 106.735 207.622 106.815 207.55 106.942L207.367 107.253H207.001C206.475 107.245 206.037 107.675 206.037 108.201C206.037 108.408 206.196 108.575 206.403 108.575H206.507V108.623C206.507 108.687 206.554 108.735 206.618 108.735C206.682 108.735 206.73 108.687 206.73 108.623V108.575H207.017C207.144 108.575 207.248 108.679 207.248 108.814C207.248 108.942 207.144 109.045 207.009 109.045H206.722V108.982C206.722 108.918 206.674 108.87 206.61 108.87C206.547 108.87 206.499 108.918 206.499 108.982V109.053C206.371 109.069 206.268 109.173 206.268 109.3V109.46C206.268 109.683 206.443 109.858 206.666 109.866L207.391 109.874C207.327 110.001 207.287 110.137 207.287 110.28V110.687C207.009 110.75 206.754 110.878 206.546 111.085C206.507 111.125 206.499 111.196 206.539 111.236C206.921 111.658 207.271 112.121 207.263 112.686V113.061L207.24 115.355C207.192 115.443 207.192 115.53 207.248 115.61C206.746 115.602 206.244 115.594 205.75 115.594V114.821H206.3V114.287C203.718 113.738 202.619 114.566 202.619 114.566C201.942 114.391 201.288 114.311 200.667 114.295L200.571 113.156C200.571 113.156 201.408 113.244 201.432 112.909C201.456 112.567 201.408 111.866 201.225 111.913C201.042 111.961 195.489 111.658 195.218 112.081C194.947 112.503 196.214 112.981 196.214 112.981V114.821C194.413 114.789 193.672 115.706 193.672 115.706V116.263V119.028H213.326V115.953C212.434 115.865 211.51 115.785 210.586 115.729ZM199.862 113.077L199.918 114.303C199.655 114.311 199.4 114.335 199.161 114.359V113.077H199.862ZM198.205 113.077V114.511C197.879 114.574 197.6 114.646 197.393 114.71V113.077H198.205Z" fill="#EDEDF7"/>
<path d="M205.176 108.982L205.63 108.99C205.694 108.99 205.742 108.942 205.742 108.878C205.742 108.814 205.694 108.767 205.63 108.767L204.913 108.759C203.63 108.751 202.491 109.571 202.085 110.758L203.559 110.774C203.814 109.707 204.459 108.974 205.176 108.982Z" fill="white"/>
<path d="M226.041 104.855H222.52C221.874 104.855 221.269 105.301 221.165 105.938C221.03 106.751 221.659 107.46 222.448 107.46H226.033C226.75 107.46 227.332 106.879 227.332 106.162C227.348 105.437 226.758 104.855 226.041 104.855Z" fill="#DADAEF"/>
<path opacity="0.5" d="M251.048 104.855H230.407C229.69 104.855 229.108 105.437 229.108 106.154C229.108 106.871 229.69 107.452 230.407 107.452H251.12C251.909 107.452 252.538 106.751 252.403 105.93C252.299 105.293 251.694 104.855 251.048 104.855ZM233.848 111.236H222.52C221.874 111.236 221.269 111.682 221.165 112.32C221.03 113.132 221.659 113.841 222.448 113.841H233.84C234.557 113.841 235.139 113.26 235.139 112.543C235.155 111.818 234.573 111.236 233.848 111.236Z" fill="#DADAEF"/>
<path d="M233.848 117.626H222.52C221.874 117.626 221.269 118.072 221.165 118.709C221.03 119.522 221.659 120.231 222.448 120.231H233.84C234.557 120.231 235.139 119.649 235.139 118.932C235.155 118.207 234.573 117.626 233.848 117.626ZM251.048 111.236H238.222C237.505 111.236 236.923 111.818 236.923 112.535C236.923 113.252 237.505 113.833 238.222 113.833H251.12C251.909 113.833 252.538 113.132 252.403 112.312C252.299 111.682 251.694 111.236 251.048 111.236Z" fill="#DADAEF"/>
<path opacity="0.5" d="M237.919 177.615H206.897C204.3 177.615 202.188 179.726 202.188 182.323C202.188 184.92 204.3 187.031 206.897 187.031H237.919C240.516 187.031 242.627 184.92 242.627 182.323C242.627 179.726 240.516 177.615 237.919 177.615Z" fill="#DADAEF"/>
<path d="M211.589 183.908H210.41V180.745H211.541C212.211 180.745 212.545 181.112 212.545 181.55C212.545 181.948 212.298 182.179 211.987 182.283C212.33 182.339 212.617 182.673 212.617 183.064C212.617 183.534 212.242 183.908 211.589 183.908ZM211.509 181.088H210.824V182.116H211.517C211.9 182.116 212.123 181.925 212.123 181.606C212.123 181.287 211.908 181.088 211.509 181.088ZM211.541 182.45H210.824V183.566H211.557C211.964 183.566 212.211 183.359 212.211 183.016C212.203 182.665 211.94 182.45 211.541 182.45ZM214.624 183.94C213.732 183.94 213.039 183.271 213.039 182.323C213.039 181.375 213.74 180.706 214.624 180.706C215.517 180.706 216.21 181.375 216.21 182.323C216.21 183.271 215.517 183.94 214.624 183.94ZM214.624 183.582C215.294 183.582 215.788 183.096 215.788 182.323C215.788 181.55 215.286 181.064 214.624 181.064C213.955 181.064 213.461 181.542 213.461 182.323C213.461 183.096 213.955 183.582 214.624 183.582ZM218.194 183.94C217.301 183.94 216.608 183.271 216.608 182.323C216.608 181.375 217.309 180.706 218.194 180.706C219.086 180.706 219.779 181.375 219.779 182.323C219.779 183.271 219.086 183.94 218.194 183.94ZM218.194 183.582C218.863 183.582 219.357 183.096 219.357 182.323C219.357 181.55 218.855 181.064 218.194 181.064C217.524 181.064 217.03 181.542 217.03 182.323C217.022 183.096 217.524 183.582 218.194 183.582ZM220.735 182.466V183.908H220.321V180.745H220.735V182.211L222.041 180.745H222.567L221.133 182.331L222.583 183.908H222.041L220.735 182.466ZM226.742 180.737V183.908H226.327L224.662 181.391V183.908H224.248V180.737H224.662L226.327 183.255V180.737H226.742ZM228.877 183.94C227.985 183.94 227.291 183.271 227.291 182.323C227.291 181.375 227.993 180.706 228.877 180.706C229.769 180.706 230.462 181.375 230.462 182.323C230.47 183.271 229.777 183.94 228.877 183.94ZM228.877 183.582C229.546 183.582 230.04 183.096 230.04 182.323C230.04 181.55 229.538 181.064 228.877 181.064C228.208 181.064 227.714 181.542 227.714 182.323C227.714 183.096 228.208 183.582 228.877 183.582ZM230.765 180.745H231.203L231.896 183.43L232.661 180.745H233.123L233.848 183.422L234.541 180.745H234.987L234.071 183.908H233.609L232.876 181.359L232.111 183.908L231.649 183.916L230.765 180.745ZM208.785 152.049H192.708C191.943 152.049 191.314 152.671 191.314 153.444V166.318C191.314 167.083 191.935 167.712 192.708 167.712H208.785C209.55 167.712 210.179 167.091 210.179 166.318V153.444C210.179 152.671 209.55 152.049 208.785 152.049Z" fill="#DADAEF"/>
<path opacity="0.5" d="M252.108 152.049H214.258C213.494 152.049 212.864 152.671 212.864 153.444V166.318C212.864 167.083 213.486 167.712 214.258 167.712H252.108C252.873 167.712 253.502 167.091 253.502 166.318V153.444C253.494 152.671 252.873 152.049 252.108 152.049Z" fill="#DADAEF"/>
<path d="M249.248 88.2764H194.764C192.636 88.2764 190.908 90.0051 190.908 92.1322C190.908 94.2593 192.636 95.9881 194.764 95.9881H249.455C251.797 95.9881 253.653 93.9008 253.263 91.479C252.952 89.5829 251.176 88.2764 249.248 88.2764Z" fill="#DADAEF"/>
<path opacity="0.5" d="M198.572 91.9012C199.122 91.1125 198.93 90.037 198.15 89.4873C197.361 88.9376 196.285 89.1288 195.736 89.9175C195.234 90.6345 195.361 91.5905 195.983 92.172L195.704 92.5704C195.568 92.5704 195.433 92.6261 195.345 92.7456L194.182 94.4107C194.047 94.6019 194.095 94.8727 194.286 95.0082C194.477 95.1436 194.748 95.0958 194.883 94.9046L196.046 93.2396C196.134 93.1201 196.134 92.9687 196.086 92.8412L196.365 92.4429C197.122 92.8333 198.07 92.6182 198.572 91.9012ZM196.15 90.2122C196.532 89.6625 197.297 89.5271 197.847 89.9095C198.397 90.2919 198.532 91.0487 198.142 91.6064C197.759 92.1561 197.002 92.2915 196.453 91.9091C195.903 91.5188 195.768 90.7619 196.15 90.2122Z" fill="white"/>
<path d="M205.718 129.337H192.684C192.039 129.337 191.434 129.783 191.33 130.42C191.195 131.233 191.824 131.942 192.613 131.942H205.71C206.427 131.942 207.008 131.36 207.008 130.643C207.016 129.918 206.435 129.337 205.718 129.337Z" fill="#DADAEF"/>
<path opacity="0.5" d="M232.048 129.337H210.084C209.367 129.337 208.785 129.918 208.785 130.635C208.785 131.352 209.367 131.934 210.084 131.934H232.12C232.908 131.934 233.538 131.233 233.402 130.412C233.299 129.775 232.701 129.337 232.048 129.337Z" fill="#DADAEF"/>
<path d="M217.07 135.718H192.692C192.047 135.718 191.441 136.164 191.338 136.801C191.202 137.614 191.832 138.323 192.62 138.323H217.07C217.787 138.323 218.369 137.741 218.369 137.024C218.369 136.299 217.787 135.718 217.07 135.718Z" fill="#DADAEF"/>
<path opacity="0.5" d="M217.07 142.107H192.692C192.047 142.107 191.441 142.553 191.338 143.191C191.202 144.003 191.832 144.712 192.62 144.712H217.07C217.787 144.712 218.369 144.131 218.369 143.414C218.369 142.689 217.787 142.107 217.07 142.107ZM232.047 135.718H221.436C220.719 135.718 220.137 136.299 220.137 137.016C220.137 137.733 220.719 138.315 221.436 138.315H232.119C232.908 138.315 233.537 137.614 233.402 136.793C233.298 136.164 232.701 135.718 232.047 135.718Z" fill="#DADAEF"/>
<path d="M251.319 132.643H251.247C250.785 129.623 248.18 127.297 245.033 127.297C241.879 127.297 239.274 129.623 238.819 132.643H238.74L238.796 132.81C238.772 133.065 238.74 133.32 238.74 133.583C238.74 135.75 240.309 138.665 241.879 141.032C243.456 143.398 245.033 145.23 245.033 145.23C245.033 145.23 251.311 137.933 251.311 133.591C251.311 133.328 251.295 133.073 251.263 132.818L251.319 132.643ZM245.033 136.992C243.297 136.992 241.895 135.598 241.895 133.862C241.895 132.133 243.297 130.723 245.033 130.723C246.762 130.723 248.164 132.133 248.164 133.862C248.172 135.59 246.77 136.992 245.033 136.992Z" fill="#DADAEF"/>
<path d="M248.172 133.854C248.172 135.59 246.77 136.985 245.041 136.985C243.304 136.985 241.902 135.59 241.902 133.854C241.902 132.125 243.304 130.715 245.041 130.715C246.77 130.715 248.172 132.125 248.172 133.854Z" fill="white"/>
<path opacity="0.25" d="M175.07 73.2911V79.7759L252.482 78.6606L250.642 76.2467L175.07 73.2911Z" fill="#9797CC"/>
<path d="M233.299 46.5071V74.5657C233.299 76.0953 232.056 77.3381 230.526 77.3381H164.204C164.172 77.2106 164.148 77.0593 164.148 76.9079C164.148 75.9201 164.961 75.442 165.67 75.0118C166.339 74.6135 166.92 74.271 166.92 73.6018C166.92 72.9326 166.339 72.59 165.67 72.1917C164.953 71.7614 164.148 71.2835 164.148 70.2956C164.148 69.3077 164.961 68.8217 165.67 68.3995C166.339 68.0012 166.92 67.6507 166.92 66.9894C166.92 66.3202 166.339 65.9776 165.67 65.5793C164.953 65.1491 164.148 64.6711 164.148 63.6833C164.148 62.6954 164.961 62.2174 165.67 61.7872C166.339 61.3888 166.92 61.0463 166.92 60.3771C166.92 59.7158 166.339 59.3733 165.67 58.967C164.953 58.5368 164.148 58.0588 164.148 57.0709C164.148 56.083 164.961 55.605 165.67 55.1748C166.339 54.7765 166.92 54.4339 166.92 53.7647C166.92 53.0955 166.339 52.753 165.67 52.3546C164.953 51.9244 164.148 51.4464 164.148 50.4586C164.148 49.4707 164.961 48.9927 165.67 48.5625C166.339 48.1642 166.92 47.8216 166.92 47.1524C166.92 46.4912 166.339 46.1406 165.67 45.7423C164.953 45.3201 164.148 44.8341 164.148 43.8542C164.148 43.8064 164.148 43.7666 164.156 43.7267H230.534C232.056 43.7347 233.299 44.9775 233.299 46.5071ZM251.399 57.0789C251.399 57.7401 251.98 58.0906 252.65 58.489C253.367 58.9112 254.171 59.3972 254.171 60.3771C254.171 61.365 253.359 61.8429 252.65 62.2731C251.972 62.6715 251.399 63.022 251.399 63.6833C251.399 64.3524 251.98 64.695 252.65 65.0933C253.367 65.5235 254.171 66.0016 254.171 66.9894C254.171 67.9773 253.359 68.4553 252.65 68.8855C251.972 69.2838 251.399 69.6264 251.399 70.2956C251.399 70.9568 251.98 71.3073 252.65 71.7057C253.367 72.1279 254.171 72.6139 254.171 73.6018C254.171 74.5896 253.359 75.0676 252.65 75.4898C251.972 75.8882 251.399 76.2387 251.399 76.8999C251.399 77.0593 251.431 77.2027 251.494 77.3302H236.071C234.533 77.3302 233.299 76.0874 233.299 74.5578V46.5071C233.299 44.9775 234.533 43.7347 236.071 43.7347H251.399C251.391 43.7745 251.391 43.8223 251.391 43.8622C251.391 44.5234 251.973 44.866 252.642 45.2723C253.359 45.7025 254.163 46.1805 254.163 47.1683C254.163 48.1562 253.351 48.6342 252.642 49.0644C251.965 49.4627 251.391 49.8053 251.391 50.4745C251.391 51.1357 251.973 51.4863 252.642 51.8846C253.359 52.3068 254.163 52.7928 254.163 53.7807C254.163 54.7685 253.351 55.2465 252.642 55.6688C251.98 56.0671 251.399 56.4097 251.399 57.0789Z" fill="#FFCD5C"/>
<path d="M233.514 48.0765H233.083V50.8728H233.514V48.0765Z" fill="#DB9B1D"/>
<path d="M233.514 51.8049H233.083V54.6012H233.514V51.8049Z" fill="#DB9B1D"/>
<path d="M233.514 55.5333H233.083V58.3296H233.514V55.5333Z" fill="#DB9B1D"/>
<path d="M233.514 59.2538H233.083V62.0501H233.514V59.2538Z" fill="#DB9B1D"/>
<path d="M233.514 62.9822H233.083V65.7785H233.514V62.9822Z" fill="#DB9B1D"/>
<path d="M233.514 66.7026H233.083V69.4989H233.514V66.7026Z" fill="#DB9B1D"/>
<path d="M233.514 70.431H233.083V73.2273H233.514V70.431Z" fill="#DB9B1D"/>
<path d="M198.038 53.462L196.947 53.3107C195.513 53.1035 194.047 53.4302 192.82 54.2029L188.629 56.8558L183.324 55.8122C182.392 55.6289 181.436 55.7166 180.559 56.0751L179.683 56.4256L184.885 59.2458L177.779 63.7549L175.341 62.6794L174.042 63.1415L175.652 65.8582C176.417 67.1408 178.058 67.579 179.356 66.854L186.885 62.6237L187.18 67.2683C187.18 67.2683 187.761 67.9295 188.43 66.5353C189.37 64.5994 190.685 61.8748 191.617 59.9628L198.532 56.083C199.719 55.4218 199.376 53.6452 198.038 53.462ZM190.494 57.4852L189.713 57.1585L194.78 54.1551C195.521 54.0117 196.142 54.3065 196.142 54.3065L190.494 57.4852ZM240.819 71.7535V68.4951H241.44V69.7379H245.48V70.5027H241.44V71.7535H240.819ZM240.811 67.8259C240.532 67.8259 240.317 67.6108 240.317 67.332C240.317 67.0611 240.532 66.846 240.811 66.846C241.09 66.846 241.305 67.0611 241.305 67.332C241.297 67.6108 241.082 67.8259 240.811 67.8259ZM241.791 67.7303V66.9576H245.488V67.7223H241.791V67.7303ZM241.727 64.3923C241.727 63.4841 242.173 62.8946 242.954 62.6874V63.5159C242.596 63.6434 242.373 63.9382 242.373 64.3923C242.373 65.0137 242.827 65.42 243.631 65.42C244.444 65.42 244.898 65.0137 244.898 64.3923C244.898 63.9382 244.699 63.6514 244.316 63.5159V62.6874C245.041 62.8946 245.543 63.4841 245.543 64.3923C245.543 65.4518 244.794 66.2087 243.631 66.2087C242.476 66.2087 241.727 65.4598 241.727 64.3923ZM240.516 61.9226V61.1578H243.4L241.783 59.8114V58.7519L243.639 60.4568L245.488 58.7519V59.7875L243.894 61.1578H245.488V61.9226H240.516ZM245.551 56.6168C245.551 57.6764 244.802 58.4651 243.639 58.4651C242.476 58.4651 241.735 57.7162 241.735 56.6168C241.735 55.5652 242.468 54.8163 243.552 54.8163C243.679 54.8163 243.799 54.8243 243.926 54.8403V57.6684C244.54 57.6127 244.906 57.1745 244.906 56.6168C244.906 56.1468 244.675 55.8839 244.388 55.7405V54.9119C245.033 55.127 245.551 55.7086 245.551 56.6168ZM243.305 57.6604V55.613C242.731 55.6289 242.373 56.0751 242.373 56.6487C242.373 57.1665 242.723 57.5808 243.305 57.6604ZM242.412 53.94V54.3782H241.791V53.94H240.875V53.1673H241.791V52.267H242.412V53.1673H244.46C244.739 53.1673 244.85 53.0637 244.85 52.737V52.267H245.488V52.8725C245.488 53.5337 245.209 53.94 244.46 53.94H242.412ZM245.551 50.2196C245.551 51.1039 245.025 51.7332 244.356 51.7651V50.9764C244.659 50.9525 244.906 50.6577 244.906 50.2355C244.906 49.7894 244.715 49.5583 244.46 49.5583C243.735 49.5583 244.149 51.7093 242.795 51.7093C242.205 51.7093 241.727 51.1597 241.727 50.2833C241.727 49.4468 242.173 48.8971 242.914 48.8493V49.6141C242.596 49.638 242.373 49.8929 242.373 50.3072C242.373 50.7135 242.54 50.9286 242.787 50.9286C243.536 50.9286 243.113 48.8413 244.452 48.8015C245.081 48.8015 245.551 49.3512 245.551 50.2196Z" fill="#DB9B1D"/>
<path d="M211.661 50.8729H206.395V53.3186H211.661V50.8729Z" fill="#DB9B1D"/>
<path opacity="0.5" d="M226.933 50.8729H217.086V53.3186H226.933V50.8729Z" fill="#DB9B1D"/>
<path d="M226.925 59.3494H206.395V61.7951H226.925V59.3494Z" fill="#DB9B1D"/>
<path opacity="0.5" d="M226.925 63.5797H206.395V66.0255H226.925V63.5797Z" fill="#DB9B1D"/>
<path d="M221.213 67.8737H212.107V70.3195H221.213V67.8737Z" fill="#DB9B1D"/>
<path d="M196.492 157.045H194.134C194.095 157.045 194.055 157.013 194.055 156.965V154.471C194.055 154.432 194.087 154.392 194.134 154.392H196.492C196.532 154.392 196.572 154.424 196.572 154.471V156.965C196.572 157.005 196.54 157.045 196.492 157.045ZM200.125 157.045H197.767C197.727 157.045 197.687 157.013 197.687 156.965V154.471C197.687 154.432 197.719 154.392 197.767 154.392H200.125C200.165 154.392 200.205 154.424 200.205 154.471V156.965C200.205 157.005 200.173 157.045 200.125 157.045Z" fill="white"/>
<path opacity="0.5" d="M203.758 157.045H201.408C201.368 157.045 201.328 157.013 201.328 156.965V154.471C201.328 154.432 201.36 154.392 201.408 154.392H203.766C203.806 154.392 203.846 154.424 203.846 154.471V156.965C203.838 157.005 203.806 157.045 203.758 157.045ZM207.391 157.045H205.033C204.993 157.045 204.953 157.013 204.953 156.965V154.471C204.953 154.432 204.985 154.392 205.033 154.392H207.391C207.431 154.392 207.47 154.424 207.47 154.471V156.965C207.47 157.005 207.439 157.045 207.391 157.045Z" fill="white"/>
<path d="M196.492 160.988H194.134C194.095 160.988 194.055 160.956 194.055 160.908V158.415C194.055 158.375 194.087 158.335 194.134 158.335H196.492C196.532 158.335 196.572 158.367 196.572 158.415V160.908C196.572 160.956 196.54 160.988 196.492 160.988ZM200.125 160.988H197.767C197.727 160.988 197.687 160.956 197.687 160.908V158.415C197.687 158.375 197.719 158.335 197.767 158.335H200.125C200.165 158.335 200.205 158.367 200.205 158.415V160.908C200.205 160.956 200.173 160.988 200.125 160.988ZM207.391 160.988H205.033C204.993 160.988 204.953 160.956 204.953 160.908V158.415C204.953 158.375 204.985 158.335 205.033 158.335H207.391C207.431 158.335 207.471 158.367 207.471 158.415V160.908C207.471 160.956 207.439 160.988 207.391 160.988ZM196.492 164.94H194.134C194.095 164.94 194.055 164.908 194.055 164.86V162.366C194.055 162.327 194.087 162.287 194.134 162.287H196.492C196.532 162.287 196.572 162.319 196.572 162.366V164.86C196.572 164.9 196.54 164.94 196.492 164.94Z" fill="white"/>
<path opacity="0.5" d="M200.125 164.94H197.767C197.727 164.94 197.688 164.908 197.688 164.86V162.366C197.688 162.327 197.719 162.287 197.767 162.287H200.125C200.165 162.287 200.205 162.319 200.205 162.366V164.86C200.205 164.9 200.173 164.94 200.125 164.94ZM203.758 164.94H201.408C201.368 164.94 201.328 164.908 201.328 164.86V162.366C201.328 162.327 201.36 162.287 201.408 162.287H203.766C203.806 162.287 203.846 162.319 203.846 162.366V164.86C203.838 164.9 203.806 164.94 203.758 164.94Z" fill="white"/>
<path d="M207.391 164.94H205.033C204.993 164.94 204.953 164.908 204.953 164.86V162.366C204.953 162.327 204.985 162.287 205.033 162.287H207.391C207.431 162.287 207.471 162.319 207.471 162.366V164.86C207.471 164.9 207.439 164.94 207.391 164.94Z" fill="white"/>
<path opacity="0.5" d="M195.321 160.207C195.305 160.207 195.29 160.207 195.266 160.199C195.194 160.184 195.138 160.144 195.098 160.088L194.708 159.49C194.628 159.371 194.668 159.204 194.788 159.132C194.907 159.052 195.074 159.092 195.146 159.212L195.385 159.586L196.636 158.75C196.755 158.67 196.923 158.702 197.002 158.821C197.082 158.941 197.05 159.1 196.931 159.188L195.457 160.176C195.425 160.199 195.369 160.207 195.321 160.207ZM198.787 160.207C198.771 160.207 198.755 160.207 198.731 160.199C198.659 160.184 198.604 160.144 198.564 160.088L198.173 159.49C198.094 159.371 198.134 159.204 198.253 159.132C198.373 159.052 198.54 159.092 198.612 159.212L198.851 159.586L200.101 158.75C200.221 158.67 200.388 158.702 200.468 158.821C200.548 158.941 200.516 159.1 200.396 159.188L198.938 160.168C198.89 160.199 198.843 160.207 198.787 160.207Z" fill="#DADAEF"/>
<path d="M203.368 160.988H201.806C201.543 160.988 201.328 160.773 201.328 160.51V158.813C201.328 158.55 201.543 158.335 201.806 158.335H203.368C203.63 158.335 203.846 158.55 203.846 158.813V160.51C203.838 160.773 203.623 160.988 203.368 160.988Z" fill="white"/>
<path opacity="0.5" d="M202.26 160.207C202.244 160.207 202.228 160.207 202.205 160.199C202.133 160.184 202.077 160.144 202.037 160.088L201.647 159.49C201.567 159.371 201.607 159.204 201.727 159.132C201.846 159.052 202.013 159.092 202.085 159.212L202.324 159.586L203.575 158.75C203.694 158.67 203.862 158.702 203.941 158.821C204.021 158.941 203.989 159.1 203.87 159.188L202.396 160.176C202.356 160.199 202.308 160.207 202.26 160.207Z" fill="#DADAEF"/>
<path d="M200.125 157.045H197.767C197.727 157.045 197.688 157.013 197.688 156.965V154.471C197.688 154.432 197.719 154.392 197.767 154.392H200.125C200.165 154.392 200.205 154.424 200.205 154.471V156.965C200.205 157.005 200.173 157.045 200.125 157.045Z" fill="white"/>
<path d="M269.691 79.0669C265.914 89.2881 261.804 107.707 271.507 113.26C281.21 118.813 288.651 120.557 291.471 111.053C294.292 101.549 292.34 78.5172 288.078 77.2824C283.823 76.0555 270.71 76.3104 269.691 79.0669Z" fill="#0F2442"/>
<path d="M279.402 75.936C279.402 74.9561 279.402 72.5741 278.749 72.1598C278.095 71.7455 274.208 71.9527 273.698 72.829C273.196 73.7053 271.929 76.2467 272.678 76.3503C273.427 76.4538 274.032 76.3503 274.032 76.3503C274.032 76.3503 274.622 73.9204 274.837 73.8647C275.06 73.8169 277.434 74.1037 277.434 74.1037L278.024 76.3901L279.402 75.936Z" fill="#0F2442"/>
<path d="M265.046 78.1906C260.959 89.2483 256.513 109.173 267.013 115.18C277.513 121.187 285.56 123.067 288.611 112.79C291.662 102.513 289.551 77.5931 284.938 76.2626C280.326 74.9322 266.145 75.211 265.046 78.1906Z" fill="#1C3663"/>
<path d="M300.434 100.202C300.426 93.6698 292.563 88.0055 292.563 88.0055L285.847 94.2115L293.702 101.7C293.71 101.7 300.442 103.939 300.434 100.202Z" fill="#FFB598"/>
<path d="M282.78 76.6131L295.662 88.4675L286.62 96.3944L279.155 90.3955L281.226 75.8005L282.78 76.6131Z" fill="#6469D4"/>
<path d="M243.902 96.6254L256.705 82.8829L264.05 91.4551L251.957 100.832L243.902 96.6254Z" fill="#FFB598"/>
<path d="M259.366 77.5931L249.224 88.5473L257.517 98.8402L269.157 89.5112L262.21 76.1671L259.366 77.5931Z" fill="#6469D4"/>
<path d="M245.424 102.808C248.515 105.405 253.781 99.0473 253.781 99.0473L236.254 82.15L233.147 85.5677C233.147 85.5677 240.883 98.9835 245.424 102.808Z" fill="#FFB598"/>
<path d="M247.447 92.9688C248.993 93.3432 249.973 96.498 248.507 97.3504C248.794 95.3986 248.116 94.6258 247.447 92.9688Z" fill="#ED987E"/>
<path d="M234.199 75.5217C233.832 75.4819 233.617 75.7368 233.593 76.175C233.554 77.1151 233.609 78.0472 233.617 79.0111C232.303 77.7126 230.861 76.3503 229.554 75.0517C229.355 75.1871 229.315 75.4421 229.355 75.6333C229.395 75.8245 229.499 75.9997 229.602 76.167C230.008 76.8283 230.455 77.4576 230.94 78.0631C229.913 77.2824 229.196 76.6928 228.192 75.9997C228.065 76.1352 227.985 76.3981 228.041 76.5733C228.104 76.7486 228.319 77.0195 228.447 77.1629C228.997 77.8161 229.443 78.3419 229.984 78.9952C229.236 78.5013 228.399 78.0631 227.65 77.5692C227.531 77.6488 227.467 77.8958 227.499 78.0392C227.531 78.1826 227.61 78.3101 227.706 78.4136C228.192 78.9713 228.893 79.6246 229.299 80.0548C228.766 79.7759 228.176 79.5369 227.642 79.2581C227.316 79.7202 227.993 80.007 228.296 80.3495C229.554 81.7835 230.877 83.2972 232.135 84.7312C232.135 84.7312 233.091 85.8147 233.88 86.5635C233.92 86.5157 237.083 83.584 237.362 83.3609C237.003 82.9785 236.262 82.142 236.262 82.142C236.517 79.6644 235.418 78.9235 234.199 75.5217Z" fill="#FFB598"/>
<path d="M231.331 78.4137C231.164 78.6208 230.439 77.9516 230.638 77.7684C230.805 77.5612 231.522 78.2304 231.331 78.4137ZM230.463 79.4573C230.295 79.6644 229.57 78.9952 229.77 78.812C229.937 78.6049 230.654 79.2741 230.463 79.4573ZM229.738 80.5089C229.57 80.716 228.845 80.0468 229.045 79.8636C229.212 79.6565 229.937 80.3177 229.738 80.5089ZM230.327 81.0347C230.096 80.8913 231.921 78.9952 232.072 79.2183C232.303 79.3617 230.479 81.2578 230.327 81.0347ZM233.705 81.672C232.622 81.4251 232.669 79.2342 233.625 78.8678C233.283 79.7919 233.163 80.7718 233.705 81.672ZM236.007 82.3412C235.976 83.3689 234.311 84.8348 233.339 84.8029C233.594 84.6197 235.577 82.9069 236.007 82.3412Z" fill="#ED987E"/>
<path d="M269.985 194.066C270.001 194.368 269.985 200.726 269.985 200.726C269.985 200.726 266.002 201.722 265.659 201.084C265.317 200.447 264.727 194.376 264.727 194.376L269.985 194.066Z" fill="#FFB598"/>
<path d="M270.041 199.356C270.606 198.933 270.511 205.657 270.041 205.832C269.571 206.016 257.565 206.326 256.458 205.832C255.35 205.339 255.279 203.108 257.127 202.725C258.975 202.343 262.855 201.674 264.026 200.192C264.026 200.192 264.823 197.675 265.125 197.483C265.428 197.3 265.548 199.348 265.548 199.348C265.548 199.348 268.678 200.367 270.041 199.356Z" fill="#283889"/>
<path d="M270.431 204.741C270.447 204.98 270.447 206.024 270.025 206.103C269.603 206.183 256.043 206.287 255.956 206.103C255.868 205.92 255.836 205.227 255.797 205.092C255.749 204.956 270.431 204.741 270.431 204.741ZM264.305 199.403C264.305 199.403 263.341 200.622 261.955 201.355C261.995 201.26 262.034 201.156 262.074 201.037C262.154 200.798 262.242 200.503 262.281 200.152C262.297 199.977 262.313 199.794 262.25 199.579C262.218 199.475 262.13 199.348 261.995 199.292C261.859 199.236 261.732 199.252 261.62 199.284C261.509 199.316 261.389 199.379 261.309 199.467C261.23 199.555 261.182 199.658 261.142 199.754C261.078 199.953 261.07 200.144 261.078 200.32C261.094 200.67 261.166 200.973 261.246 201.212C261.294 201.371 261.349 201.499 261.397 201.618C261.357 201.634 261.309 201.658 261.27 201.674C261.238 201.546 261.198 201.403 261.134 201.22C261.047 200.981 260.927 200.702 260.72 200.423C260.616 200.288 260.481 200.136 260.266 200.057C260.162 200.017 260.035 200.009 259.915 200.041C259.796 200.073 259.7 200.128 259.613 200.208C259.517 200.288 259.445 200.423 259.445 200.551C259.445 200.678 259.485 200.79 259.525 200.877C259.621 201.06 259.74 201.196 259.867 201.315C260.114 201.554 260.361 201.73 260.569 201.865C260.584 201.873 260.592 201.881 260.608 201.889C259.74 202.136 258.872 202.24 257.987 202.51C257.414 202.686 258.473 203.14 259.907 203.004C261.341 202.877 263.492 202.287 264.313 201.045C264.966 200.057 264.305 199.403 264.305 199.403ZM261.445 201.164C261.397 200.925 261.349 200.63 261.349 200.312C261.349 200.009 261.413 199.626 261.7 199.563C261.772 199.539 261.843 199.539 261.883 199.555C261.923 199.571 261.955 199.611 261.979 199.674C262.026 199.802 262.026 199.977 262.018 200.128C261.995 200.447 261.931 200.734 261.875 200.981C261.827 201.18 261.795 201.331 261.764 201.459C261.684 201.499 261.612 201.523 261.533 201.562C261.509 201.443 261.477 201.315 261.445 201.164ZM260.688 201.69C260.497 201.538 260.274 201.355 260.059 201.124C259.955 201.013 259.852 200.885 259.78 200.75C259.748 200.686 259.724 200.614 259.732 200.559C259.732 200.503 259.756 200.463 259.804 200.415C259.852 200.375 259.923 200.335 259.987 200.312C260.051 200.296 260.106 200.296 260.17 200.32C260.298 200.359 260.409 200.471 260.505 200.582C260.696 200.821 260.831 201.076 260.935 201.291C261.015 201.459 261.078 201.594 261.126 201.706C261.031 201.738 260.935 201.777 260.839 201.809C260.8 201.777 260.752 201.738 260.688 201.69Z" fill="#FFCD5C"/>
<path d="M277.354 116.208L270.606 196.591L263.524 197.021L255.677 115.267L277.354 116.208Z" fill="#283889"/>
<path d="M288.603 194.018C288.603 194.321 289.185 198.886 289.105 200.12C288.548 200.726 285.098 200.925 284.795 200.264C284.795 199.236 283.465 194.018 283.465 194.018H288.603Z" fill="#FFB598"/>
<path d="M289.328 205.848C288.874 206.048 279.139 205.848 278.183 205.848C277.227 205.848 277.593 202.399 280.557 202.335L284.054 199.515C284.214 198.822 284.421 198.057 284.612 197.746C284.954 197.189 286.396 197.125 287.321 197.746C287.751 198.033 287.942 198.639 287.998 199.244C288.946 199.268 289.647 199.372 289.711 199.897C289.782 200.622 289.782 205.641 289.328 205.848Z" fill="#323E96"/>
<path d="M289.583 204.972C289.583 204.964 285.289 205.171 282.891 205.155C282.62 205.155 282.405 204.462 279.999 204.43C278.334 204.383 277.768 204.908 277.713 204.972C277.601 205.084 277.394 206.119 277.864 206.199C278.334 206.279 289.145 206.382 289.328 206.199C289.695 205.832 289.583 204.972 289.583 204.972ZM286.635 201.53C286.619 201.411 286.572 201.291 286.5 201.204C286.42 201.108 286.333 201.045 286.237 200.997C286.046 200.901 285.863 200.869 285.687 200.853C285.337 200.821 285.034 200.853 284.779 200.885C285.257 200.312 285.703 199.746 285.56 199.698C285.353 199.626 284.588 200.216 283.879 200.79C283.807 200.678 283.72 200.543 283.6 200.391C283.441 200.2 283.242 199.969 282.955 199.77C282.811 199.674 282.636 199.579 282.405 199.571C282.294 199.571 282.166 199.603 282.07 199.666C281.967 199.73 281.895 199.818 281.831 199.921C281.768 200.025 281.744 200.176 281.784 200.304C281.824 200.431 281.895 200.519 281.967 200.59C282.118 200.734 282.278 200.821 282.429 200.901C282.74 201.052 283.026 201.132 283.273 201.196C283.313 201.204 283.345 201.212 283.377 201.22C282.955 201.562 282.62 201.825 282.541 201.825C281.481 201.841 280.573 202.351 280.573 202.351C282.891 202.08 285.114 203.546 285.225 203.881C285.225 203.881 285.472 202.757 283.831 202.16C283.767 202.136 284.014 201.825 284.333 201.443C284.453 201.523 284.628 201.626 284.851 201.746C285.082 201.857 285.353 201.985 285.695 202.08C285.863 202.12 286.046 202.168 286.269 202.128C286.38 202.112 286.516 202.04 286.588 201.913C286.651 201.769 286.651 201.642 286.635 201.53ZM283.321 200.981C283.09 200.901 282.819 200.798 282.541 200.646C282.405 200.574 282.262 200.487 282.158 200.375C282.11 200.32 282.063 200.264 282.047 200.208C282.031 200.152 282.039 200.104 282.07 200.049C282.102 199.993 282.158 199.929 282.206 199.897C282.262 199.865 282.317 199.85 282.381 199.842C282.509 199.842 282.66 199.905 282.787 199.985C283.042 200.144 283.258 200.351 283.425 200.519C283.56 200.662 283.672 200.774 283.759 200.869C283.68 200.933 283.608 200.989 283.536 201.052C283.473 201.029 283.401 201.005 283.321 200.981ZM286.325 201.746C286.301 201.785 286.261 201.809 286.197 201.825C286.062 201.849 285.894 201.833 285.743 201.793C285.432 201.722 285.154 201.618 284.923 201.53C284.699 201.443 284.524 201.371 284.397 201.323C284.46 201.244 284.524 201.172 284.596 201.084C284.66 201.076 284.723 201.076 284.803 201.068C285.05 201.052 285.345 201.052 285.655 201.092C285.958 201.132 286.325 201.26 286.349 201.546C286.357 201.634 286.349 201.714 286.325 201.746Z" fill="#FFCD5C"/>
<path d="M273.172 116.534L286.532 114.837L290.181 196.201L282.565 196.344L270.2 132.898L265.166 117.171L273.172 116.534Z" fill="#323E96"/>
<path d="M257.828 116.606C257.828 117.753 259.716 118.884 261.907 119.952C271.061 124.405 280.119 119.984 283.513 116.542C277.785 100.641 281.019 85.8784 276.279 74.4223C274.765 73.6496 267.46 73.2273 265.373 75.1473C262.72 82.5005 262.385 104.162 257.828 116.606Z" fill="#FFCD5C"/>
<path d="M283.513 116.542C280.119 119.992 271.061 124.413 261.907 119.96C259.716 118.892 257.828 117.761 257.828 116.614C262.377 104.17 262.712 82.5005 265.373 75.1553C265.755 74.8047 266.313 74.5339 266.974 74.3267C267.508 76.5016 268.28 81.2179 267.715 88.9057C266.894 99.9953 263.508 112.909 267.006 115.196C270.503 117.474 273.483 114.941 272.495 113.419C271.515 111.898 267.149 104.026 269.236 103.389C271.061 102.831 274.391 91.3276 275.426 74.1594C275.793 74.2471 276.08 74.3347 276.279 74.4383C281.027 85.8784 277.785 100.641 283.513 116.542Z" fill="#EFBB54"/>
<path d="M266.87 74.3506C266.87 74.3506 263.134 75.6173 261.206 76.7645C259.636 83.353 259.652 90.037 259.238 94.825C258.792 99.8998 253.884 118.327 253.884 118.327C253.884 118.327 257.605 121.792 261.612 122.119C263.006 119.601 267.515 86.2449 266.87 74.3506Z" fill="#6469D4"/>
<path d="M257.844 102.353C257.828 102.345 257.836 102.282 257.86 102.162C257.876 102.106 257.892 102.027 257.915 101.947C257.939 101.859 257.963 101.764 257.987 101.652C258.099 101.206 258.25 100.561 258.385 99.7563C258.672 98.1391 258.927 95.8845 259.15 93.383C259.365 90.8814 259.517 88.603 259.636 86.9618C259.756 85.3127 259.843 84.301 259.915 84.301C259.987 84.301 260.035 85.3287 260.019 86.9778C259.995 88.6348 259.907 90.9133 259.692 93.4308C259.469 95.9482 259.15 98.2187 258.76 99.836C258.569 100.649 258.362 101.294 258.186 101.724C258.139 101.836 258.107 101.931 258.059 102.011C258.019 102.091 257.979 102.162 257.947 102.21C257.9 102.314 257.86 102.361 257.844 102.353Z" fill="#323E96"/>
<path d="M276.279 74.4223C277.067 79.8078 274.566 86.1253 274.295 98.3143C273.976 112.487 274.821 122.923 274.821 122.923C274.821 122.923 286.396 125.536 288.802 120.095C284.5 106.401 283.003 79.1067 281.226 75.7926C281.226 75.8005 280.581 75.7209 276.279 74.4223Z" fill="#6469D4"/>
<path d="M277.785 110.352C277.785 110.352 289.058 109.014 290.181 107.588L290.045 108.83C290.045 108.83 284.62 112.599 278.079 111.897L277.785 110.352Z" fill="#0F2442"/>
<path d="M285.496 102.178C285.504 102.298 282.676 86.7229 282.827 86.699C282.971 86.6751 285.225 95.2552 285.496 102.178Z" fill="#323E96"/>
<path d="M260.879 112.838C260.688 113.029 260.409 113.148 260.298 113.395C260.083 113.825 260.473 114.447 260.123 114.781C259.995 114.901 259.772 114.957 259.716 115.132C259.684 115.259 259.756 115.395 259.796 115.522C259.9 115.825 259.804 116.184 259.565 116.399C259.35 116.654 259.063 116.853 258.744 116.948C258.266 117.251 257.605 117.251 257.111 116.964C257.024 116.909 256.936 116.853 256.856 116.781C256.554 116.646 256.299 116.415 256.115 116.136C255.908 115.897 255.853 115.522 255.996 115.244C256.052 115.124 256.147 114.997 256.123 114.861C256.092 114.686 255.884 114.598 255.765 114.455C255.462 114.088 255.916 113.515 255.757 113.061C255.685 112.861 255.526 112.734 255.375 112.591C255.51 112.057 255.653 111.499 255.789 110.926C255.988 110.973 256.131 111.149 256.219 111.34C256.307 111.523 256.354 111.738 256.466 111.913C256.633 112.168 256.928 112.328 257.175 112.519C257.247 112.399 257.302 112.272 257.318 112.129C257.342 111.81 257.143 111.515 257.055 111.212C256.92 110.695 257.191 110.097 257.677 109.858C257.892 109.747 258.179 109.707 258.378 109.85C258.577 109.986 258.641 110.256 258.641 110.503C258.641 110.75 258.593 110.997 258.633 111.236C258.713 111.698 259.103 112.081 259.23 112.519C259.414 112.423 259.581 112.32 259.716 112.168C259.852 112.009 259.923 111.81 260.035 111.635C260.147 111.459 260.314 111.284 260.521 111.268C260.728 111.252 260.919 111.404 261.031 111.587C261.27 111.961 261.206 112.519 260.879 112.838Z" fill="#323E96"/>
<path opacity="0.5" d="M262.839 95.7013C262.64 95.8925 262.369 96.012 262.25 96.2589C262.042 96.6891 262.425 97.3105 262.074 97.6451C261.939 97.7726 261.724 97.8284 261.668 97.9957C261.628 98.1231 261.7 98.2586 261.748 98.386C261.843 98.6888 261.756 99.0473 261.517 99.2624C261.301 99.5253 261.015 99.7165 260.696 99.8121C260.218 100.107 259.557 100.115 259.063 99.82C258.975 99.7643 258.888 99.7085 258.816 99.6368C258.696 99.581 258.577 99.5173 258.465 99.4217C258.585 98.864 258.688 98.3223 258.784 97.8204L257.884 98.5374C257.86 98.386 257.884 98.2347 257.948 98.0913C258.003 97.9718 258.091 97.8443 258.067 97.7168C258.035 97.5336 257.828 97.4539 257.709 97.3105C257.406 96.9361 257.86 96.3625 257.701 95.9164C257.621 95.6535 257.358 95.5021 257.183 95.295C256.896 94.9365 256.904 94.3788 257.191 94.0283C257.326 93.8689 257.533 93.7415 257.74 93.7813C257.94 93.8211 258.091 94.0044 258.171 94.1956C258.25 94.3788 258.306 94.5939 258.418 94.7692C258.585 95.0241 258.888 95.1834 259.127 95.3746C259.198 95.2551 259.254 95.1277 259.27 94.9843C259.302 94.6656 259.095 94.3788 259.015 94.0681C258.88 93.5503 259.15 92.9448 259.628 92.7058C259.852 92.5943 260.13 92.5544 260.33 92.6978C260.529 92.8333 260.592 93.1041 260.592 93.3511C260.592 93.5981 260.545 93.845 260.584 94.084C260.664 94.5541 261.055 94.9365 261.182 95.3667C261.357 95.2711 261.533 95.1675 261.668 95.0161C261.803 94.8568 261.875 94.6497 261.987 94.4744C262.09 94.2991 262.257 94.1318 262.465 94.1159C262.68 94.1 262.863 94.2513 262.974 94.4266C263.229 94.8249 263.166 95.3746 262.839 95.7013ZM256.458 88.0214C256.362 88.348 256.171 88.6348 255.908 88.842C255.581 89.2961 254.976 89.5669 254.41 89.4873C254.299 89.4713 254.203 89.4474 254.108 89.4156C253.781 89.4076 253.446 89.2961 253.175 89.1128C252.889 88.9615 252.697 88.6508 252.713 88.3321C252.721 88.1967 252.761 88.0533 252.682 87.9417C252.586 87.7824 252.363 87.7904 252.196 87.7027C251.773 87.4797 251.973 86.7706 251.654 86.4121C251.574 86.3325 251.479 86.2687 251.375 86.2289L252.283 85.257C252.443 85.2968 252.61 85.3287 252.769 85.3685C252.785 85.2251 252.785 85.0817 252.753 84.9542C252.737 84.9064 252.721 84.8586 252.697 84.8188L253.709 83.7274C253.964 84.054 254.41 84.2532 254.673 84.5718C254.801 84.4125 254.92 84.2532 254.984 84.062C255.048 83.8628 255.04 83.6477 255.064 83.4406C255.095 83.2334 255.183 83.0183 255.366 82.9227C255.558 82.8271 255.789 82.8909 255.964 83.0104C256.338 83.2733 256.49 83.807 256.314 84.2293C256.211 84.4762 255.996 84.6993 255.988 84.9702C255.964 85.4561 256.553 85.8784 256.362 86.3165C256.29 86.4838 256.107 86.6193 256.123 86.8025C256.139 86.9379 256.259 87.0256 256.346 87.1291C256.545 87.3681 256.593 87.7266 256.458 88.0214Z" fill="#323E96"/>
<path d="M265.747 77.7763C265.532 77.9436 265.245 78.0312 265.101 78.2623C264.854 78.6686 265.157 79.3298 264.783 79.6166C264.631 79.7281 264.416 79.76 264.337 79.9353C264.289 80.0548 264.345 80.1982 264.376 80.3256C264.448 80.6363 264.305 80.9789 264.05 81.1701C263.811 81.4011 263.5 81.5684 263.173 81.6242C262.664 81.8632 262.01 81.7995 261.548 81.4649C261.469 81.4011 261.389 81.3294 261.317 81.2498C261.03 81.0904 260.799 80.8355 260.648 80.5328C260.465 80.2699 260.449 79.8954 260.616 79.6246C260.688 79.5051 260.791 79.4015 260.783 79.2661C260.776 79.0828 260.568 78.9793 260.465 78.8199C260.202 78.4136 260.712 77.9038 260.616 77.4337C260.584 77.2903 260.497 77.1708 260.401 77.0593L261.524 76.4937C261.676 76.7088 261.899 76.8601 262.082 77.0434C262.162 76.9318 262.241 76.8044 262.265 76.6689C262.297 76.5096 262.273 76.3503 262.225 76.1989C262.695 75.9679 263.205 75.7448 263.707 75.5377C263.683 75.6651 263.659 75.8006 263.675 75.928C263.699 76.3981 264.042 76.8203 264.129 77.2664C264.313 77.1868 264.504 77.1071 264.647 76.9717C264.799 76.8203 264.894 76.6291 265.022 76.4698C265.141 76.3025 265.324 76.1511 265.532 76.1591C265.747 76.167 265.914 76.3343 266.01 76.5255C266.225 76.9478 266.105 77.4895 265.747 77.7763Z" fill="#323E96"/>
<path opacity="0.5" d="M259.158 107.046C259.238 107.165 259.365 107.269 259.509 107.261C259.652 107.253 259.764 107.133 259.835 107.014C259.907 106.894 259.963 106.751 260.051 106.639C260.138 106.536 260.258 106.464 260.385 106.4C260.473 106.695 260.744 106.966 260.799 107.285C260.823 107.452 260.791 107.619 260.791 107.787C260.791 107.954 260.839 108.137 260.975 108.241C261.11 108.336 261.309 108.312 261.461 108.241C261.795 108.073 261.978 107.659 261.883 107.301C261.827 107.086 261.684 106.886 261.708 106.671C261.716 106.576 261.755 106.488 261.803 106.4C261.971 106.536 262.178 106.64 262.289 106.815C262.369 106.934 262.401 107.078 262.456 107.205C262.512 107.333 262.616 107.468 262.751 107.492C262.895 107.516 263.038 107.436 263.126 107.325C263.325 107.078 263.325 106.695 263.134 106.448C263.014 106.305 262.839 106.193 262.775 106.018C262.672 105.707 262.982 105.317 262.775 105.054C262.695 104.959 262.552 104.903 262.528 104.775C262.512 104.688 262.576 104.6 262.616 104.52C262.711 104.321 262.672 104.066 262.528 103.899C262.401 103.708 262.225 103.548 262.018 103.461C261.963 103.413 261.907 103.373 261.843 103.333C261.5 103.134 261.046 103.134 260.72 103.341C260.505 103.405 260.305 103.54 260.154 103.716C259.995 103.867 259.923 104.114 259.995 104.321C260.027 104.409 260.074 104.496 260.051 104.584C260.019 104.704 259.867 104.743 259.772 104.831C259.533 105.062 259.796 105.484 259.652 105.787C259.573 105.954 259.381 106.042 259.246 106.169C259.039 106.4 258.991 106.783 259.158 107.046Z" fill="#323E96"/>
<path d="M265.938 91.3595C265.89 91.4391 265.851 91.5347 265.843 91.6224C265.827 91.8454 265.962 92.0366 266.018 92.2597C266.026 92.2677 266.026 92.2836 266.026 92.2916C266.058 92.4429 266.042 92.6102 265.986 92.7536C265.914 92.9369 265.771 93.1042 265.596 93.1918C265.444 93.2715 265.253 93.2954 265.11 93.1998C264.974 93.1042 264.926 92.913 264.926 92.7457C264.926 92.5784 264.958 92.4031 264.934 92.2358C264.879 91.9171 264.616 91.6542 264.528 91.3515C264.409 91.4232 264.281 91.4869 264.193 91.5905C264.098 91.702 264.05 91.8375 263.978 91.9649C263.907 92.0844 263.795 92.2039 263.652 92.2119C263.508 92.2199 263.373 92.1163 263.301 91.9968C263.126 91.7339 263.174 91.3515 263.397 91.1284C263.532 90.993 263.723 90.9133 263.803 90.746C263.947 90.4513 263.684 90.0211 263.923 89.798C264.01 89.7104 264.162 89.6705 264.201 89.551C264.225 89.4634 264.178 89.3678 264.146 89.2802C264.074 89.073 264.138 88.8261 264.305 88.6827C264.456 88.5074 264.656 88.364 264.871 88.3003C265.197 88.0931 265.651 88.0852 265.994 88.2923C266.058 88.3321 266.113 88.372 266.169 88.4198C266.241 88.4516 266.305 88.4915 266.368 88.5393C266.289 89.5032 266.209 90.4911 266.113 91.479C266.042 91.4391 265.986 91.4073 265.938 91.3595Z" fill="#323E96"/>
<path opacity="0.5" d="M284.54 116.271C284.357 116.486 284.07 116.638 283.967 116.909C283.775 117.387 284.238 118.008 283.895 118.39C283.767 118.534 283.544 118.605 283.497 118.797C283.473 118.932 283.56 119.068 283.608 119.203C283.744 119.514 283.672 119.896 283.433 120.143C283.234 120.43 282.939 120.669 282.62 120.788C282.142 121.147 281.441 121.203 280.899 120.94C280.804 120.892 280.7 120.836 280.613 120.772C280.286 120.661 279.991 120.438 279.776 120.151C279.537 119.912 279.45 119.53 279.569 119.219C279.625 119.083 279.704 118.948 279.673 118.805C279.625 118.621 279.394 118.55 279.258 118.406C278.908 118.04 279.338 117.403 279.139 116.94C279.051 116.741 278.868 116.614 278.701 116.47C278.804 115.897 278.9 115.291 279.003 114.678C279.219 114.71 279.386 114.885 279.489 115.084C279.601 115.275 279.665 115.491 279.8 115.666C279.999 115.921 280.326 116.064 280.597 116.247C280.668 116.112 280.708 115.969 280.716 115.825C280.716 115.483 280.477 115.196 280.366 114.877C280.182 114.335 280.421 113.69 280.907 113.395C281.123 113.26 281.425 113.196 281.648 113.332C281.871 113.459 281.959 113.738 281.983 114.001C282.007 114.264 281.975 114.527 282.031 114.774C282.15 115.252 282.596 115.626 282.764 116.08C282.947 115.961 283.122 115.841 283.242 115.666C283.377 115.491 283.433 115.267 283.528 115.076C283.624 114.885 283.791 114.686 284.006 114.654C284.222 114.622 284.437 114.766 284.572 114.941C284.883 115.315 284.867 115.905 284.54 116.271Z" fill="#323E96"/>
<path d="M283.282 95.4225C283.09 95.6376 282.811 95.7889 282.708 96.0598C282.525 96.5298 282.979 97.1592 282.644 97.5416C282.517 97.685 282.286 97.7647 282.246 97.9479C282.214 98.0833 282.302 98.2188 282.357 98.3542C282.485 98.6649 282.421 99.0473 282.182 99.2943C281.975 99.589 281.688 99.8201 281.362 99.9475C280.884 100.298 280.19 100.362 279.641 100.091C279.545 100.043 279.45 99.9874 279.362 99.9157C279.226 99.8679 279.099 99.8041 278.98 99.7245C279.059 99.119 279.131 98.5454 279.187 98.0037L278.294 98.8402C278.255 98.6888 278.27 98.5215 278.326 98.3701C278.374 98.2347 278.454 98.0993 278.422 97.9638C278.374 97.7726 278.143 97.7089 278.008 97.5655C277.657 97.199 278.087 96.5537 277.888 96.0917C277.777 95.8208 277.49 95.6854 277.291 95.4782C276.956 95.1197 276.916 94.5382 277.195 94.1398C277.322 93.9566 277.53 93.8132 277.753 93.8371C277.968 93.861 278.143 94.0442 278.247 94.2434C278.35 94.4346 278.422 94.6497 278.557 94.825C278.756 95.0799 279.083 95.2233 279.354 95.4065C279.418 95.2711 279.465 95.1277 279.473 94.9843C279.481 94.6417 279.234 94.3629 279.131 94.0363C278.94 93.4945 279.179 92.8413 279.665 92.5465C279.888 92.4111 280.183 92.3473 280.406 92.4828C280.629 92.6102 280.716 92.8891 280.74 93.152C280.764 93.4149 280.732 93.6778 280.788 93.9247C280.907 94.4107 281.354 94.7851 281.529 95.2313C281.704 95.1118 281.887 94.9923 282.007 94.825C282.134 94.6417 282.198 94.4266 282.294 94.2275C282.389 94.0283 282.549 93.8451 282.764 93.8052C282.987 93.7734 283.194 93.9088 283.329 94.092C283.616 94.4665 283.592 95.056 283.282 95.4225ZM278.804 85.5836C278.725 85.9342 278.549 86.2608 278.294 86.4918C277.984 87.0017 277.37 87.3363 276.765 87.2965C276.653 87.2885 276.542 87.2726 276.438 87.2407C276.088 87.2646 275.729 87.169 275.426 87.0017C275.363 86.9698 275.299 86.938 275.243 86.8902C275.506 84.9383 275.785 83.2096 276 81.6242C276.223 81.7596 276.446 81.8951 276.621 82.0703C276.741 81.8951 276.86 81.7118 276.908 81.5127C276.956 81.2976 276.932 81.0745 276.948 80.8514C276.956 80.6284 277.036 80.3973 277.219 80.2778C277.418 80.1663 277.665 80.2061 277.856 80.3256C278.271 80.5726 278.478 81.1223 278.326 81.5844C278.239 81.8632 278.031 82.1022 278.039 82.389C278.055 82.8989 278.709 83.2972 278.549 83.7832C278.486 83.9664 278.302 84.1178 278.334 84.309C278.366 84.4444 278.494 84.532 278.597 84.6356C278.836 84.8826 278.916 85.2729 278.804 85.5836Z" fill="#323E96"/>
<path opacity="0.5" d="M286.596 80.1264C286.548 80.2061 286.484 80.2778 286.42 80.3415C286.189 80.6044 285.871 80.8116 285.536 80.8992C285.026 81.2019 284.317 81.186 283.807 80.8673C283.712 80.8036 283.624 80.7319 283.545 80.6602C283.226 80.5088 282.963 80.2619 282.78 79.9592C282.565 79.6963 282.525 79.3138 282.676 79.0111C282.748 78.8757 282.835 78.7562 282.828 78.6208C282.796 78.4216 282.581 78.3339 282.461 78.1746C282.15 77.7683 282.644 77.1867 282.501 76.7008C282.461 76.5653 282.373 76.4618 282.278 76.3582L282.796 76.6291L286.596 80.1264Z" fill="#323E96"/>
<path d="M285.592 107.715C285.719 108.082 285.56 108.528 285.225 108.735C285.074 108.83 284.867 108.87 284.716 108.783C284.564 108.687 284.5 108.496 284.485 108.321C284.469 108.145 284.492 107.962 284.453 107.787C284.373 107.46 284.062 107.205 283.943 106.894C283.815 106.982 283.696 107.062 283.616 107.181C283.529 107.301 283.481 107.452 283.417 107.588C283.353 107.723 283.242 107.85 283.09 107.874C282.939 107.89 282.788 107.803 282.7 107.675C282.501 107.404 282.517 106.998 282.732 106.751C282.867 106.6 283.058 106.496 283.13 106.313C283.258 105.986 282.947 105.556 283.178 105.293C283.266 105.198 283.425 105.142 283.457 105.014C283.473 104.919 283.409 104.831 283.377 104.736C283.282 104.52 283.337 104.25 283.497 104.082C283.632 103.883 283.839 103.724 284.054 103.636C284.389 103.397 284.867 103.349 285.241 103.533C285.289 103.556 285.337 103.588 285.393 103.62C285.568 104.791 285.751 105.954 285.942 107.102C285.807 106.958 285.616 106.879 285.448 106.759C285.401 106.855 285.369 106.95 285.361 107.046C285.353 107.301 285.52 107.492 285.592 107.715ZM287.05 90.4353C287.185 90.507 287.36 90.523 287.488 90.4353C287.615 90.3477 287.655 90.1804 287.655 90.029C287.655 89.8777 287.623 89.7263 287.647 89.5749C287.671 89.4315 287.743 89.3041 287.815 89.1766C288.062 89.3997 288.444 89.4953 288.667 89.7502C288.787 89.8856 288.842 90.0609 288.938 90.2123C289.033 90.3636 289.169 90.5071 289.352 90.523C289.535 90.5389 289.695 90.4114 289.79 90.2601C289.997 89.9255 289.942 89.4554 289.663 89.1766C289.496 89.0093 289.257 88.9137 289.161 88.6986C289.113 88.611 289.105 88.5074 289.105 88.4038C289.328 88.4357 289.575 88.4198 289.774 88.5154C289.91 88.5791 290.021 88.6906 290.141 88.7783C290.268 88.8659 290.428 88.9296 290.571 88.8739C290.714 88.8181 290.794 88.6667 290.818 88.5154C290.866 88.1887 290.659 87.8382 290.348 87.7187C290.165 87.647 289.942 87.655 289.79 87.5195C289.527 87.2965 289.591 86.7707 289.265 86.6512C289.137 86.6034 288.978 86.6352 288.89 86.5317C288.826 86.46 288.834 86.3484 288.826 86.2528C288.802 86.0218 288.635 85.8147 288.412 85.735C288.197 85.6235 287.942 85.5836 287.703 85.6155C287.631 85.5996 287.552 85.5916 287.472 85.5916C287.058 85.5916 286.644 85.8465 286.46 86.213C286.293 86.3883 286.189 86.6193 286.15 86.8663C286.086 87.0893 286.158 87.3522 286.333 87.5036C286.404 87.5673 286.5 87.6231 286.524 87.7187C286.556 87.8462 286.444 87.9657 286.404 88.0931C286.317 88.4277 286.787 88.6747 286.819 89.0252C286.835 89.2244 286.707 89.3997 286.659 89.5909C286.588 89.9175 286.755 90.284 287.05 90.4353Z" fill="#323E96"/>
<path d="M279.402 75.3385L281.075 75.689C281.075 75.689 275.514 97.7726 279.402 115.267C281.186 123.314 281.513 125.664 281.513 125.664L277.386 125.138C277.386 125.13 272.622 92.0207 279.402 75.3385Z" fill="#1C3663"/>
<path d="M277.864 89.2642C277.816 89.0172 277.593 88.8499 277.37 88.9057L268.352 90.9372C268.129 90.985 267.986 91.232 268.041 91.479L271.101 107.014C271.148 107.261 271.371 107.428 271.594 107.372L280.613 105.341C280.836 105.293 280.979 105.046 280.923 104.799L277.864 89.2642Z" fill="#9797CC"/>
<path d="M281.019 105.835L279.115 90.0927C279.083 89.8378 278.852 89.6625 278.605 89.6864L268.36 90.9213C268.105 90.9531 267.93 91.1842 267.954 91.4311L269.858 107.173C269.89 107.428 270.121 107.603 270.368 107.58L280.613 106.345C280.868 106.313 281.051 106.09 281.019 105.835Z" fill="#DADAEF"/>
<path d="M270.407 94.7851L270.2 93.0484L270.599 93.0006C270.734 92.9846 270.83 93.0165 270.893 93.0882C270.949 93.1679 270.997 93.2874 271.013 93.4467L271.021 93.4865C271.045 93.6618 271.037 93.7893 270.997 93.8849C270.957 93.9805 270.869 94.0362 270.742 94.0522L270.599 94.0681L270.678 94.7532L270.407 94.7851ZM270.567 93.853L270.654 93.845C270.71 93.8371 270.742 93.8132 270.758 93.7654C270.766 93.7176 270.766 93.6379 270.75 93.5184L270.742 93.4865C270.726 93.383 270.71 93.3113 270.686 93.2714C270.662 93.2316 270.622 93.2077 270.575 93.2157L270.479 93.2236L270.567 93.853ZM271.236 94.6895L271.276 92.9209L271.626 92.8811L272.096 94.5859L271.849 94.6178L271.77 94.3151L271.491 94.3469V94.6656L271.236 94.6895ZM271.714 94.1L271.491 93.2396V94.1239L271.714 94.1ZM272.184 94.0761L272.168 93.9247L272.423 93.8928L272.447 94.0681C272.455 94.1637 272.479 94.2354 272.495 94.2673C272.518 94.3071 272.55 94.323 272.598 94.3151C272.646 94.3071 272.67 94.2912 272.686 94.2593C272.694 94.2274 272.694 94.1717 272.686 94.1C272.678 94.0283 272.654 93.9645 272.622 93.9167C272.59 93.8689 272.542 93.8132 272.479 93.7574L272.335 93.6379C272.272 93.5821 272.216 93.5264 272.168 93.4626C272.128 93.3989 272.104 93.3272 272.088 93.2316C272.072 93.0882 272.088 92.9767 272.136 92.905C272.184 92.8253 272.272 92.7855 272.407 92.7695C272.542 92.7536 272.638 92.7855 272.694 92.8572C272.75 92.9289 272.789 93.0484 272.805 93.2077L272.821 93.3192L272.574 93.3511L272.558 93.2236C272.55 93.136 272.534 93.0802 272.518 93.0484C272.503 93.0165 272.471 93.0006 272.431 93.0006C272.391 93.0085 272.359 93.0245 272.343 93.0563C272.327 93.0882 272.327 93.128 272.327 93.1838C272.335 93.2396 272.351 93.2794 272.367 93.3113C272.391 93.3431 272.431 93.383 272.479 93.4228L272.638 93.5582C272.718 93.6299 272.781 93.7016 272.829 93.7733C272.877 93.845 272.901 93.9327 272.917 94.0283C272.933 94.1876 272.925 94.3151 272.877 94.4027C272.829 94.4903 272.742 94.5381 272.606 94.5541C272.471 94.57 272.367 94.5381 272.303 94.4585C272.248 94.3708 272.208 94.2434 272.184 94.0761ZM273.076 93.9725L273.06 93.8211L273.315 93.7893L273.339 93.9645C273.347 94.0601 273.371 94.1318 273.387 94.1637C273.411 94.2035 273.443 94.2195 273.49 94.2115C273.538 94.2035 273.562 94.1876 273.578 94.1557C273.586 94.1239 273.594 94.0681 273.578 93.9964C273.57 93.9247 273.546 93.861 273.514 93.8132C273.482 93.7654 273.435 93.7096 273.371 93.6618L273.228 93.5423C273.164 93.4865 273.108 93.4308 273.06 93.367C273.02 93.3033 272.996 93.2316 272.981 93.136C272.965 92.9926 272.981 92.8811 273.028 92.8094C273.076 92.7297 273.164 92.6899 273.299 92.6739C273.435 92.658 273.53 92.6899 273.586 92.7616C273.642 92.8412 273.682 92.9528 273.698 93.1121L273.713 93.2236L273.467 93.2555L273.451 93.128C273.443 93.0404 273.427 92.9846 273.411 92.9528C273.395 92.9209 273.363 92.905 273.323 92.905C273.283 92.9129 273.251 92.9289 273.235 92.9607C273.22 92.9926 273.22 93.0324 273.22 93.0882C273.228 93.144 273.243 93.1838 273.259 93.2157C273.283 93.2475 273.323 93.2874 273.371 93.3272L273.53 93.4626C273.61 93.5343 273.674 93.606 273.721 93.6777C273.769 93.7494 273.793 93.8371 273.809 93.9327C273.825 94.092 273.817 94.2195 273.769 94.3071C273.721 94.3947 273.634 94.4425 273.498 94.4585C273.363 94.4744 273.259 94.4425 273.196 94.3629C273.14 94.2593 273.1 94.1398 273.076 93.9725ZM274.064 94.3469L273.857 92.6102L274.255 92.5624C274.391 92.5465 274.486 92.5783 274.55 92.65C274.606 92.7297 274.654 92.8492 274.669 93.0085L274.677 93.0484C274.701 93.2236 274.693 93.3511 274.654 93.4467C274.614 93.5423 274.526 93.5981 274.399 93.614L274.255 93.6299L274.335 94.3151L274.064 94.3469ZM274.223 93.4069L274.311 93.3989C274.367 93.3909 274.399 93.367 274.415 93.3192C274.423 93.2714 274.423 93.1918 274.407 93.0723L274.399 93.0404C274.383 92.9368 274.367 92.8651 274.343 92.8253C274.319 92.7855 274.279 92.7616 274.231 92.7695L274.136 92.7775L274.223 93.4069ZM275.641 94.0522C275.594 94.1398 275.498 94.1956 275.363 94.2115C275.227 94.2274 275.124 94.1956 275.052 94.1239C274.98 94.0442 274.932 93.9247 274.916 93.7574L274.821 92.9607C274.781 92.6421 274.893 92.4668 275.155 92.4349C275.291 92.419 275.394 92.4509 275.458 92.5226C275.53 92.5943 275.57 92.7138 275.594 92.8651L275.689 93.6618C275.705 93.8291 275.697 93.9566 275.641 94.0522ZM275.235 93.9327C275.259 93.9725 275.291 93.9884 275.339 93.9805C275.386 93.9725 275.418 93.9486 275.426 93.9088C275.434 93.8689 275.434 93.7972 275.426 93.6937L275.331 92.8811C275.323 92.8014 275.307 92.7377 275.283 92.7058C275.259 92.666 275.227 92.658 275.187 92.658C275.14 92.666 275.116 92.6899 275.1 92.7297C275.084 92.7695 275.084 92.8333 275.092 92.9129L275.187 93.7255C275.195 93.8211 275.219 93.8928 275.235 93.9327ZM276.239 93.2555L276.151 93.2635L276.247 94.084L275.984 94.1159L275.777 92.3792L276.215 92.3234C276.303 92.3154 276.374 92.3234 276.422 92.3553C276.47 92.3871 276.51 92.4349 276.526 92.4987C276.55 92.5624 276.566 92.65 276.582 92.7536C276.597 92.8572 276.589 92.9448 276.574 93.0006C276.558 93.0563 276.518 93.1041 276.462 93.128C276.526 93.128 276.574 93.1679 276.605 93.2316C276.637 93.2953 276.669 93.4467 276.693 93.6698C276.717 93.8928 276.741 94.0123 276.749 94.0283L276.486 94.0601C276.478 94.0442 276.446 93.8371 276.398 93.4387C276.39 93.3591 276.374 93.3113 276.35 93.2874C276.335 93.2555 276.295 93.2475 276.239 93.2555ZM276.127 93.0563L276.231 93.0404C276.263 93.0324 276.287 93.0245 276.303 93.0085C276.319 92.9926 276.327 92.9607 276.327 92.9289C276.327 92.889 276.327 92.8333 276.319 92.7616V92.7536C276.311 92.658 276.295 92.6022 276.271 92.5704C276.255 92.5465 276.215 92.5305 276.159 92.5385L276.072 92.5465L276.127 93.0563ZM277.075 93.9805L276.892 92.4668L276.685 92.4907L276.661 92.2597L277.322 92.18L277.346 92.411L277.147 92.4349L277.33 93.9486L277.075 93.9805ZM274.191 96.1793C272.447 96.3864 271.212 98.0594 271.427 99.8917C271.65 101.732 273.251 103.054 274.996 102.839C276.741 102.632 277.976 100.959 277.761 99.1269C277.537 97.2946 275.936 95.9721 274.191 96.1793ZM273.618 96.6254C273.387 96.8724 273.092 97.3026 272.925 97.9797C272.534 97.9001 272.319 97.7806 272.232 97.7168C272.566 97.2149 273.044 96.8325 273.618 96.6254ZM272.08 97.9718C272.208 98.0594 272.455 98.1869 272.869 98.2665C272.813 98.633 272.789 99.0712 272.837 99.5731L271.714 99.7085C271.666 99.0791 271.801 98.4816 272.08 97.9718ZM271.746 100.003L272.877 99.8678C272.917 100.099 273.02 100.577 273.22 101.079C272.845 101.27 272.606 101.469 272.495 101.581C272.12 101.15 271.849 100.617 271.746 100.003ZM272.702 101.796C272.797 101.708 273.004 101.533 273.331 101.358C273.538 101.812 273.833 102.25 274.239 102.545C273.666 102.457 273.132 102.194 272.702 101.796ZM274.797 102.497C274.239 102.306 273.857 101.78 273.602 101.23C273.873 101.111 274.207 101.007 274.606 100.943L274.797 102.497ZM274.574 100.641C274.144 100.712 273.785 100.824 273.49 100.951C273.307 100.489 273.22 100.051 273.172 99.836L274.454 99.6846L274.574 100.641ZM274.423 99.3819L273.132 99.5412C273.084 99.0712 273.1 98.6649 273.156 98.3223C273.459 98.3621 273.833 98.3701 274.287 98.3223L274.423 99.3819ZM274.255 98.0275C273.841 98.0674 273.498 98.0594 273.22 98.0275C273.467 97.0237 274.032 96.6413 274.072 96.6254L274.255 98.0275ZM276.605 97.3504C277.028 97.7885 277.33 98.3621 277.442 99.0234L276.247 99.1668C276.175 98.6728 276.056 98.2665 275.912 97.924C276.311 97.7168 276.51 97.4938 276.605 97.3504ZM276.382 97.1432C276.343 97.2229 276.199 97.446 275.793 97.6531C275.458 96.9998 275.044 96.6493 274.765 96.4661C275.363 96.5059 275.928 96.7529 276.382 97.1432ZM274.399 96.6015C274.566 96.6732 275.1 96.968 275.514 97.7646C275.267 97.8523 274.956 97.9319 274.566 97.9877L274.399 96.6015ZM274.598 98.2825C275.028 98.2267 275.363 98.1391 275.633 98.0355C275.769 98.3542 275.88 98.7366 275.944 99.1986L274.725 99.35L274.598 98.2825ZM274.765 99.6448L275.984 99.5014C276 99.7244 276.008 100.163 275.944 100.641C275.649 100.593 275.291 100.569 274.885 100.609L274.765 99.6448ZM275.1 102.425L274.916 100.896C275.299 100.864 275.625 100.88 275.896 100.927C275.785 101.509 275.562 102.091 275.1 102.425ZM275.562 102.401C275.904 102.019 276.088 101.501 276.191 100.991C276.629 101.119 276.876 101.302 276.924 101.342C276.589 101.828 276.119 102.202 275.562 102.401ZM277.083 101.095C276.972 101.015 276.693 100.824 276.239 100.704C276.311 100.171 276.295 99.6926 276.279 99.4615L277.474 99.3181C277.522 99.9555 277.378 100.577 277.083 101.095Z" fill="#9797CC"/>
<path d="M299.167 102.513C302.649 100.76 297.893 93.9327 297.893 93.9327L273.77 99.8678L274.965 104.305C274.965 104.305 293.423 105.405 299.167 102.513Z" fill="#FFB598"/>
<path d="M284.158 97.0556C284.365 97.0078 294.737 94.108 294.921 94.7851C295 95.0958 284.158 97.0556 284.158 97.0556Z" fill="#ED987E"/>
<path d="M268.145 104.974C267.906 104.807 267.818 104.345 267.906 104.178C267.993 104.026 268.137 103.907 268.137 103.907C268.137 103.907 267.786 103.883 267.651 103.732C267.539 103.612 267.5 102.855 267.563 102.744C267.675 102.561 268.009 102.465 268.009 102.465C268.009 102.465 267.587 102.417 267.452 102.266C267.34 102.146 267.324 101.23 267.404 101.103C267.555 100.848 268.033 100.792 268.033 100.792C268.033 100.792 267.396 100.617 267.292 100.505C267.141 100.338 267.627 99.3739 267.627 99.3739C267.627 99.3739 270.543 99.103 271.005 99.1269C271.483 98.5693 271.499 98.3542 271.897 97.9797C273.22 98.3303 273.785 99.2703 273.992 99.8121C274.885 99.7643 276.239 99.7722 276.239 99.7722L276.279 104.146L274.271 104.353L270.32 105.15C270.32 105.15 268.583 105.277 268.145 104.974Z" fill="#FFB598"/>
<path d="M271.777 99.119C271.793 99.2225 270.989 99.2305 270.997 99.1269C270.981 99.0234 271.793 99.0154 271.777 99.119ZM268.71 100.792C268.726 100.896 268.089 100.904 268.105 100.8C268.089 100.696 268.718 100.688 268.71 100.792ZM268.822 102.457C268.838 102.561 268.105 102.569 268.113 102.465C268.105 102.361 268.838 102.353 268.822 102.457ZM268.901 103.859C268.925 103.963 268.24 104.042 268.24 103.939C268.216 103.835 268.901 103.756 268.901 103.859Z" fill="#ED987E"/>
<path d="M267.276 60.1221C267.276 60.1221 274.908 61.8828 275.219 63.3725C275.538 64.8623 275.602 70.0247 273.347 70.0247C271.1 70.0247 267.189 61.9146 267.276 60.1221Z" fill="#0F2442"/>
<path d="M264.902 60.2815C264.902 60.2815 266.424 54.434 272.399 56.3778C276.725 57.7879 276.725 61.6518 276.151 63.0858C275.633 64.3684 275.386 64.464 275.386 64.464C275.386 64.464 274.16 63.3168 272.08 62.4006C269.491 61.2534 265.866 60.2815 264.902 60.2815Z" fill="#323E96"/>
<path d="M266.416 59.6999C266.981 59.7876 267.531 59.9469 268.089 60.0744C268.599 60.1939 269.117 60.2735 269.618 60.409C270.67 60.6878 271.666 61.1499 272.614 61.6677C273.586 62.2015 274.51 62.8388 275.442 63.4363C275.585 63.5319 275.729 63.6275 275.864 63.739C275.546 64.4082 275.386 64.464 275.386 64.464C275.386 64.464 274.159 63.3168 272.08 62.4006C269.491 61.2534 265.866 60.2815 264.91 60.2815C264.91 60.2815 264.99 59.9788 265.181 59.5406C265.579 59.6362 266.018 59.6362 266.416 59.6999Z" fill="#FFCD5C"/>
<path d="M273.339 68.3677L274.287 73.9125C274.287 73.9125 273.507 75.9758 271.188 76.4379C270.79 76.5176 270.439 76.4777 270.137 76.3503C268.695 75.7607 268.376 73.9045 268.376 73.9045L268.48 71.6021C268.44 71.6101 268.4 71.626 268.36 71.634C267.81 71.7854 265.532 72.2952 264.321 70.678C263.859 70.0566 263.724 68.774 263.755 67.34C263.763 67.0133 263.779 66.6787 263.795 66.3441C263.963 63.7629 264.496 61.0861 264.496 61.0861C264.496 61.0861 266.679 60.1779 269.061 60.9666C270.814 61.5562 273.284 64.8384 273.284 64.8384C273.284 64.8384 274.168 63.7709 274.98 64.8703C275.554 65.651 275.1 67.3878 274.088 67.4993C273.427 67.579 273.339 68.3677 273.339 68.3677Z" fill="#FFB598"/>
<path opacity="0.5" d="M270.137 76.3503C268.695 75.7607 268.376 73.9045 268.376 73.9045L268.48 71.6021L271.14 70.7816C271.14 70.7816 268.488 73.8647 270.137 76.3503Z" fill="#ED987E"/>
<path d="M274.446 65.1013C274.144 65.3483 273.594 66.1689 273.984 66.7743C273.984 66.7743 273.968 66.36 274.183 66.1051L274.725 65.8343L274.175 65.8103L274.446 65.1013Z" fill="#0F2442"/>
<path d="M272.08 62.4006C272.08 62.4006 269.619 61.5004 268.344 61.3809C267.069 61.2614 264.496 61.0861 264.496 61.0861C264.496 61.0861 261.262 59.4689 262.01 58.8873C262.759 58.3058 266.217 58.4492 267.667 59.0228C269.109 59.6043 272.08 62.4006 272.08 62.4006Z" fill="#6469D4"/>
<path opacity="0.5" d="M269.539 66.4796C269.579 66.7744 269.252 67.0612 268.814 67.1329C268.368 67.1966 267.978 67.0134 267.93 66.7186C267.89 66.4238 268.217 66.137 268.655 66.0653C269.101 66.0016 269.491 66.1848 269.539 66.4796ZM263.755 67.332C263.883 67.3639 264.026 67.3719 264.17 67.348C264.616 67.2842 264.942 66.9895 264.895 66.6947C264.855 66.3999 264.456 66.2167 264.01 66.2804C263.931 66.2964 263.859 66.3123 263.787 66.3362C263.771 66.6708 263.755 67.0054 263.755 67.332Z" fill="#ED987E"/>
<path d="M264.902 69.0927C264.902 69.0927 265.946 69.021 266.982 69.0449C266.982 69.0449 265.5 71.0764 264.902 69.0927Z" fill="#0F2442"/>
<path d="M264.902 69.0926C264.902 69.0926 264.958 69.3635 265.006 69.3794C265.054 69.3954 266.432 69.3874 266.83 69.2281L266.982 69.0448C266.982 69.0448 265.986 68.9174 264.902 69.0926Z" fill="white"/>
<path d="M265.301 69.8176C265.301 69.8176 265.532 69.5945 265.803 69.6025C266.074 69.6105 266.289 69.7379 266.289 69.7379C266.289 69.7379 265.795 70.2319 265.301 69.8176Z" fill="#DE5D36"/>
<path d="M265.619 63.6434C265.619 63.6434 263.691 63.8028 263.476 63.6434C263.261 63.4841 263.803 63.0061 264.679 63.1017C265.548 63.1973 265.834 63.6036 265.619 63.6434ZM263.986 64.711C263.986 65.0217 264.201 65.2766 264.464 65.2766C264.727 65.2766 264.942 65.0217 264.942 64.711C264.942 64.4003 264.727 64.1453 264.464 64.1453C264.393 64.1453 264.321 64.1613 264.257 64.2011C264.353 64.233 264.416 64.3286 264.416 64.4481C264.416 64.5915 264.321 64.703 264.201 64.703C264.114 64.703 264.034 64.6393 264.002 64.5516C263.994 64.5994 263.986 64.6552 263.986 64.711Z" fill="#0F2442"/>
<path d="M267.794 63.6434C267.794 63.6434 269.722 63.8028 269.937 63.6434C270.152 63.4841 269.611 63.0061 268.734 63.1017C267.866 63.1973 267.571 63.6036 267.794 63.6434ZM268.288 64.711C268.288 65.0217 268.503 65.2766 268.766 65.2766C269.029 65.2766 269.244 65.0217 269.244 64.711C269.244 64.4003 269.029 64.1453 268.766 64.1453C268.694 64.1453 268.623 64.1613 268.559 64.2011C268.655 64.233 268.718 64.3286 268.718 64.4481C268.718 64.5915 268.623 64.703 268.503 64.703C268.416 64.703 268.336 64.6393 268.304 64.5516C268.296 64.5994 268.288 64.6552 268.288 64.711Z" fill="#0F2442"/>
<path d="M265.914 66.846C265.954 66.846 265.986 66.8301 266.002 66.7903C266.033 66.7425 266.018 66.6787 265.962 66.6469C265.723 66.5035 265.683 66.4238 265.683 66.384C265.675 66.3043 265.81 66.2007 265.954 66.0812C266.041 66.0095 266.137 65.9299 266.233 65.8422C266.671 65.4041 266.551 64.233 266.543 64.1852C266.535 64.1294 266.488 64.0816 266.424 64.0896C266.368 64.0975 266.32 64.1453 266.328 64.2091C266.36 64.5198 266.376 65.3961 266.073 65.6988C265.986 65.7865 265.898 65.8582 265.81 65.9299C265.619 66.0892 265.452 66.2246 265.468 66.4158C265.476 66.5592 265.595 66.6947 265.85 66.846C265.882 66.846 265.898 66.846 265.914 66.846Z" fill="#0F2442"/>
<path d="M291.371 165.609H293.331V142.314H291.371V165.609Z" fill="#9797CC"/>
<path d="M282.242 165.609H284.202V142.315H282.242V165.609Z" fill="#9797CC"/>
<path d="M281.768 143.828H293.821C294.506 143.828 295.056 143.151 295.056 142.314C295.056 141.478 294.498 140.801 293.821 140.801H281.768C281.082 140.801 280.533 141.478 280.533 142.314C280.525 143.151 281.082 143.828 281.768 143.828Z" fill="#DADAEF"/>
<path d="M298.705 154.503H276.757C272.009 154.503 268.153 158.351 268.153 163.107V199.443C268.153 204.191 272.001 208.047 276.757 208.047H298.705C303.453 208.047 307.309 204.199 307.309 199.443V163.107C307.309 158.351 303.461 154.503 298.705 154.503Z" fill="#CACAEA"/>
<path d="M298.41 158.192H277.052C273.626 158.192 270.854 160.964 270.854 164.39V198.153C270.854 201.578 273.626 204.351 277.052 204.351H298.41C301.836 204.351 304.608 201.578 304.608 198.153V164.39C304.616 160.964 301.836 158.192 298.41 158.192ZM281.258 154.503H293.997V150.958C293.997 150.855 293.909 150.767 293.805 150.767H281.441C281.338 150.767 281.25 150.855 281.25 150.958L281.258 154.503Z" fill="#EDEDF7"/>
<path d="M278.302 163.506C277.562 163.506 276.956 164.103 276.948 164.852L276.876 196.615C276.876 197.356 277.474 197.961 278.223 197.969C278.964 197.969 279.569 197.372 279.577 196.623L279.649 164.86C279.649 164.119 279.051 163.514 278.302 163.506ZM284.636 163.522C283.895 163.522 283.29 164.119 283.282 164.868L283.21 196.631C283.21 197.372 283.807 197.977 284.556 197.985C285.297 197.985 285.903 197.388 285.911 196.639L285.982 164.876C285.982 164.127 285.377 163.53 284.636 163.522ZM290.962 163.537C290.221 163.537 289.615 164.135 289.607 164.884L289.535 196.647C289.535 197.388 290.133 197.993 290.882 198.001C291.623 198.001 292.228 197.404 292.236 196.655L292.308 164.892C292.308 164.143 291.71 163.537 290.962 163.537ZM297.295 163.553C296.554 163.553 295.949 164.151 295.941 164.9L295.869 196.663C295.869 197.404 296.467 198.009 297.215 198.017C297.956 198.017 298.562 197.42 298.57 196.671L298.641 164.908C298.641 164.159 298.036 163.553 297.295 163.553Z" fill="#DADAEF"/>
<path fillRule="evenodd" clipRule="evenodd" d="M127.967 91.0994L135.623 97.163L132.351 99.5047L127.967 91.0994Z" fill="#A4D0FC"/>
<path fillRule="evenodd" clipRule="evenodd" d="M137.253 96.0784L128.226 91.1979L139.97 95.5362L137.253 96.0784Z" fill="#A4D0FC"/>
<path fillRule="evenodd" clipRule="evenodd" d="M137.253 96.0785L135.883 99.9977L135.623 97.163L127.967 91.0994L128.226 91.198L137.253 96.0785Z" fill="#71AFED"/>
<path fillRule="evenodd" clipRule="evenodd" d="M135.883 99.9977L134.166 98.1983L135.623 97.163L135.883 99.9977Z" fill="#4F8ECC"/>
<path fillRule="evenodd" clipRule="evenodd" d="M137.179 99.0979C136.969 98.9747 137.154 98.7036 137.327 98.8022C137.426 98.8515 137.525 98.9131 137.624 98.9624C137.809 99.0733 137.648 99.3568 137.463 99.2458C137.377 99.1965 137.278 99.1472 137.179 99.0979ZM163.322 103.917C163.47 103.732 163.717 103.966 163.581 104.114L163.371 104.385C163.223 104.558 162.976 104.336 163.112 104.176L163.322 103.917ZM162.482 104.915C162.643 104.755 162.865 105.001 162.717 105.137C162.643 105.223 162.556 105.297 162.482 105.383C162.334 105.531 162.099 105.31 162.247 105.149C162.334 105.063 162.408 104.989 162.482 104.915ZM161.531 105.802C161.704 105.667 161.914 105.913 161.741 106.061C161.655 106.135 161.568 106.209 161.482 106.271C161.321 106.406 161.099 106.16 161.284 106.012C161.371 105.938 161.445 105.876 161.531 105.802ZM160.482 106.579C160.691 106.456 160.827 106.764 160.667 106.862C160.568 106.924 160.482 106.986 160.383 107.035C160.185 107.146 160.025 106.85 160.21 106.751C160.296 106.69 160.395 106.641 160.482 106.579ZM159.345 107.22C159.555 107.134 159.679 107.442 159.494 107.516C159.395 107.565 159.296 107.614 159.185 107.651C158.975 107.737 158.851 107.429 159.049 107.343C159.148 107.306 159.247 107.257 159.345 107.22ZM158.135 107.713C158.32 107.639 158.456 107.947 158.234 108.021C158.123 108.058 158.024 108.095 157.913 108.119C157.678 108.181 157.629 107.848 157.814 107.799C157.938 107.774 158.036 107.737 158.135 107.713ZM156.888 108.058C157.086 108.009 157.184 108.329 156.962 108.378C156.851 108.403 156.74 108.428 156.629 108.44C156.394 108.465 156.382 108.144 156.567 108.119C156.666 108.095 156.777 108.07 156.888 108.058ZM155.591 108.255C155.801 108.23 155.851 108.551 155.628 108.588C155.517 108.6 155.406 108.612 155.295 108.612C155.097 108.637 155.036 108.317 155.27 108.28L155.591 108.255ZM154.282 108.317C154.492 108.317 154.505 108.649 154.282 108.649C154.171 108.649 154.06 108.649 153.949 108.649C153.739 108.649 153.727 108.317 153.961 108.317C154.072 108.317 154.184 108.317 154.282 108.317ZM152.986 108.243C153.208 108.267 153.159 108.6 152.949 108.576C152.837 108.563 152.726 108.551 152.615 108.539C152.405 108.514 152.442 108.181 152.665 108.206C152.763 108.218 152.875 108.23 152.986 108.243ZM151.689 108.046C151.911 108.107 151.813 108.415 151.615 108.366C151.504 108.341 151.393 108.317 151.294 108.292C151.084 108.243 151.158 107.922 151.368 107.972C151.479 107.996 151.59 108.021 151.689 108.046ZM150.429 107.7C150.652 107.787 150.516 108.083 150.331 108.009C150.219 107.972 150.121 107.935 150.01 107.898C149.8 107.824 149.923 107.516 150.121 107.59C150.22 107.639 150.331 107.676 150.429 107.7ZM149.207 107.232C149.392 107.318 149.281 107.627 149.071 107.528C148.972 107.479 148.873 107.429 148.762 107.38C148.664 107.331 148.651 107.244 148.688 107.171L148.639 107.183C148.404 107.207 148.392 106.887 148.577 106.862C148.688 106.838 148.787 106.813 148.886 106.788C149.096 106.739 149.182 107.06 148.96 107.109L149.207 107.232ZM148.058 106.628C148.231 106.727 148.083 107.023 147.886 106.912C147.787 106.85 147.7 106.788 147.602 106.727C147.416 106.591 147.614 106.332 147.787 106.456C147.886 106.505 147.972 106.567 148.058 106.628ZM147.021 105.852C147.182 105.987 146.984 106.246 146.799 106.098C146.712 106.024 146.638 105.95 146.552 105.864C146.391 105.704 146.626 105.482 146.786 105.63C146.861 105.704 146.947 105.778 147.021 105.852ZM146.169 104.903C146.293 105.075 146.033 105.273 145.897 105.088C145.836 104.989 145.774 104.89 145.712 104.792C145.601 104.607 145.897 104.434 145.996 104.632C146.046 104.718 146.107 104.817 146.169 104.903ZM145.638 103.769C145.687 103.966 145.366 104.065 145.317 103.843C145.292 103.732 145.268 103.621 145.255 103.498C145.23 103.288 145.552 103.239 145.589 103.461C145.601 103.559 145.626 103.658 145.638 103.769ZM145.663 102.536C145.613 102.734 145.292 102.672 145.342 102.438C145.379 102.327 145.403 102.216 145.453 102.105C145.539 101.908 145.848 102.031 145.762 102.241C145.724 102.339 145.687 102.438 145.663 102.536ZM146.243 101.415C146.095 101.588 145.86 101.39 145.971 101.218C146.033 101.131 146.107 101.033 146.181 100.947C146.33 100.774 146.577 100.996 146.441 101.156C146.367 101.242 146.305 101.329 146.243 101.415ZM147.108 100.491C146.947 100.626 146.725 100.38 146.91 100.232C146.996 100.158 147.095 100.096 147.194 100.035C147.404 99.9114 147.54 100.219 147.379 100.306C147.28 100.367 147.194 100.429 147.108 100.491ZM148.219 99.9237C147.997 99.973 147.923 99.6526 148.133 99.6033C148.244 99.5786 148.367 99.554 148.478 99.5293C148.701 99.5047 148.738 99.8251 148.528 99.8621C148.417 99.8744 148.318 99.8867 148.219 99.9237ZM149.454 99.8867C149.232 99.8251 149.33 99.517 149.528 99.5663C149.639 99.5909 149.75 99.6156 149.861 99.6526C150.059 99.7265 149.985 100.022 149.763 99.9607C149.664 99.9237 149.553 99.899 149.454 99.8867ZM150.602 100.367C150.417 100.232 150.615 99.973 150.788 100.096C150.886 100.158 150.973 100.232 151.072 100.293C151.244 100.441 151.022 100.688 150.862 100.552C150.788 100.491 150.689 100.429 150.602 100.367ZM151.528 101.23C151.393 101.07 151.64 100.848 151.788 101.033C151.862 101.119 151.924 101.218 151.985 101.316C152.109 101.526 151.8 101.661 151.714 101.501C151.664 101.403 151.603 101.316 151.528 101.23ZM152.146 102.339C152.072 102.142 152.381 102.019 152.455 102.228C152.492 102.339 152.529 102.45 152.553 102.561C152.603 102.771 152.282 102.857 152.232 102.647C152.208 102.536 152.183 102.438 152.146 102.339ZM152.344 103.572C152.344 103.375 152.677 103.35 152.677 103.584C152.677 103.695 152.665 103.818 152.64 103.929C152.615 104.126 152.282 104.102 152.319 103.88C152.331 103.781 152.344 103.683 152.344 103.572ZM152.022 104.767C152.134 104.57 152.418 104.743 152.319 104.927C152.269 105.026 152.208 105.137 152.134 105.223C152.01 105.396 151.738 105.211 151.862 105.026C151.911 104.952 151.973 104.853 152.022 104.767ZM151.207 105.716C151.368 105.581 151.59 105.827 151.417 105.975C151.331 106.049 151.232 106.111 151.146 106.172C150.948 106.283 150.788 106.024 150.96 105.901C151.047 105.852 151.133 105.79 151.207 105.716ZM150.108 106.369C150.318 106.283 150.442 106.591 150.244 106.678C150.145 106.727 150.034 106.764 149.935 106.813C149.726 106.887 149.614 106.591 149.812 106.505C149.911 106.456 150.01 106.406 150.108 106.369ZM147.614 106.973C147.503 106.973 147.404 106.973 147.293 106.961C147.095 106.936 147.033 107.257 147.268 107.294C147.379 107.306 147.49 107.306 147.614 107.306C147.836 107.306 147.836 106.973 147.614 106.973ZM146.354 106.813C146.552 106.862 146.49 107.183 146.268 107.134C146.157 107.109 146.046 107.072 145.947 107.035C145.737 106.961 145.86 106.653 146.058 106.727C146.144 106.751 146.255 106.788 146.354 106.813ZM145.181 106.308C145.366 106.419 145.206 106.702 145.021 106.591C144.922 106.542 144.823 106.48 144.724 106.419C144.551 106.32 144.699 106.024 144.909 106.148C144.996 106.197 145.082 106.258 145.181 106.308ZM144.119 105.556C144.28 105.692 144.07 105.95 143.909 105.802C143.823 105.729 143.736 105.655 143.65 105.581C143.489 105.445 143.687 105.186 143.872 105.334C143.959 105.42 144.045 105.494 144.119 105.556ZM143.181 104.669C143.329 104.817 143.106 105.063 142.946 104.903L142.711 104.656C142.563 104.471 142.822 104.287 142.958 104.434C143.02 104.508 143.094 104.582 143.181 104.669ZM142.291 103.683C142.427 103.855 142.18 104.065 142.044 103.892L141.835 103.646C141.699 103.473 141.946 103.264 142.094 103.436L142.291 103.683ZM141.452 102.672C141.588 102.832 141.341 103.054 141.192 102.882L140.982 102.623C140.847 102.463 141.094 102.241 141.242 102.413L141.452 102.672ZM140.6 101.649C140.748 101.822 140.488 102.031 140.353 101.859L140.143 101.612C139.995 101.44 140.254 101.23 140.39 101.39L140.6 101.649ZM139.71 100.663C139.859 100.811 139.636 101.058 139.476 100.897L139.241 100.663C139.081 100.503 139.315 100.281 139.476 100.429L139.71 100.663ZM138.735 99.7512C138.908 99.8867 138.686 100.146 138.525 100.01C138.439 99.936 138.352 99.8744 138.278 99.8128C138.093 99.6649 138.327 99.4184 138.476 99.554C138.562 99.6033 138.648 99.6772 138.735 99.7512Z" fill="#71AFED"/>
<defs>
<linearGradient id="paint0_linear_172_469" x1="232" y1="0" x2="232" y2="244" gradientUnits="userSpaceOnUse">
<stop stop-color="#6469D4"/>
<stop offset="1" stop-color="#6469D4" stop-opacity="0"/>
</linearGradient>
</defs>
</svg>
