<svg width="464" height="244" viewBox="0 0 464 244" fill="none" xmlns="http://www.w3.org/2000/svg">
<rect width="464" height="244" rx="10" fill="url(#paint0_linear_172_770)"/>
<path d="M153.939 212.815C192.779 212.319 204.735 197.709 254.489 206.036C281.603 210.575 308.176 206.672 321.794 197.733C333.775 189.868 349.382 187.226 351.171 182.012H100.864C100.864 182.012 107.836 213.403 153.939 212.815Z" fill="#7A8DB0"/>
<path d="M326.742 61.0062C324.914 59.6577 323.007 58.4207 321.031 57.3017C308.406 50.157 293.644 48.3956 279.696 54.3838C239.402 71.6861 217.671 47.2613 175.979 43.1096C132.621 38.7955 115.485 67.2655 108.951 94.9053C101.641 125.821 107.913 158.012 124.157 182.012H322.935C369.63 134.827 356.095 82.6294 326.742 61.0062Z" fill="#F4F4F4"/>
<path d="M136.595 147.421C138.464 142.898 138.442 137.694 136.42 133.062L136.136 132.412C134.003 127.523 129.88 123.873 124.971 122.31C122.804 121.619 120.544 119.933 118.945 116.271L117.065 111.727C111.71 103.516 99.9044 107.62 99.9044 107.62C91.9737 111.082 97.3457 121.258 101.023 129.68L103.712 135.838C104.89 138.536 104.481 141.504 102.892 143.597C101.449 145.498 101.213 148.14 102.214 150.431L103.631 153.677C104.374 155.385 105.479 156.913 106.871 158.154C108.263 159.396 109.908 160.322 111.693 160.869C113.764 161.497 115.593 163.051 116.561 165.267L118.568 169.864C120.787 174.946 126.464 177.372 131.25 175.285L133.98 174.093C138.765 172.004 140.845 166.195 138.627 161.11C135.035 155.033 135.321 150.497 136.595 147.421Z" fill="#2E6857"/>
<path d="M116.918 177.12C113.892 175.098 112.999 172.915 112.89 171.189C112.805 169.91 112.467 168.661 111.895 167.516C111.324 166.371 110.532 165.353 109.565 164.523L109.288 164.284C108.274 163.409 107.088 162.761 105.807 162.386C104.527 162.01 103.182 161.914 101.862 162.105C100.708 162.276 99.2868 162.002 97.7227 160.656L95.8291 158.957C94.4019 157.728 92.3217 157.832 91.1819 159.189C88.3114 162.609 88.9 167.893 92.4976 170.99L95.1266 173.255C96.2794 174.247 96.761 175.727 96.5026 177.064C96.2679 178.28 96.7564 179.568 97.7349 180.41L99.1209 181.604C99.8488 182.233 100.703 182.695 101.625 182.958C102.546 183.221 103.513 183.28 104.459 183.129C105.034 183.041 105.621 183.08 106.18 183.244C106.739 183.407 107.256 183.691 107.695 184.076L109.658 185.767C111.828 187.635 114.992 187.477 116.723 185.413L117.712 184.236C119.443 182.177 119.088 178.988 116.918 177.12Z" fill="#6FC183"/>
<path d="M142.479 155.916C131.625 152.395 141.855 166.381 141.855 166.381C141.855 166.381 122.602 145.282 115.535 147.184C109.057 148.927 115.535 162.006 115.535 162.006C115.535 162.006 107.641 151.573 99.3923 154.764C83.401 160.949 115.027 181.094 115.816 182.472L170.344 182.301C167.594 178.727 152.312 159.107 142.479 155.916Z" fill="#40947E"/>
<path d="M108.414 133.729C108.349 133.708 108.323 133.806 108.386 133.832C111.498 135.009 113.302 138.22 115.004 140.89C122.848 153.19 128.563 167.463 131.837 181.979L132.613 181.971C129.353 167.758 123.438 153.373 115.607 141.087C113.784 138.231 111.819 134.844 108.414 133.729ZM97.8592 149.231C97.7323 149.134 97.5619 149.356 97.6888 149.454C109.72 158.73 120.349 169.696 129.248 182.012L130.05 182.006C120.957 169.583 110.114 158.544 97.8592 149.231Z" fill="#255144"/>
<path d="M112.05 132.116C111.57 132.681 111.301 134.389 111.686 135.619C111.954 136.774 112.756 137.542 112.867 137.667C112.814 137.514 112.638 136.431 112.917 135.55C113.146 134.531 113.917 133.755 114.119 133.458C114.525 132.781 114.903 131.944 114.605 131.328C114.324 130.708 112.878 130.835 112.05 132.116ZM112.878 137.684C112.884 137.684 112.878 137.684 112.867 137.667C112.872 137.682 112.876 137.688 112.878 137.684ZM116.437 143.084C116.441 143.084 116.437 143.078 116.42 143.072C116.434 143.085 116.44 143.09 116.437 143.084ZM110.861 142.364C109.601 143.218 109.501 144.669 110.125 144.938C110.745 145.224 111.577 144.829 112.242 144.409C112.535 144.201 113.294 143.412 114.305 143.164C115.18 142.869 116.265 143.023 116.418 143.072C116.291 142.961 115.509 142.176 114.35 141.928C113.115 141.569 111.416 141.873 110.861 142.364ZM119.27 147.883C119.27 147.883 119.27 147.877 119.252 147.873C119.266 147.885 119.272 147.889 119.27 147.883ZM113.693 147.164C112.434 148.018 112.333 149.468 112.957 149.737C113.578 150.023 114.409 149.628 115.074 149.209C115.367 149.001 116.126 148.211 117.137 147.964C118.012 147.668 119.097 147.822 119.251 147.873C119.124 147.761 118.341 146.976 117.183 146.729C115.948 146.369 114.249 146.673 113.693 147.164ZM109.165 159.017C109.169 159.017 109.165 159.01 109.147 159.005C109.165 159.017 109.17 159.022 109.165 159.017Z" fill="#255144"/>
<path d="M103.897 158.206C102.641 159.052 102.541 160.49 103.163 160.756C103.782 161.04 104.611 160.648 105.274 160.232C105.566 160.026 106.323 159.244 107.332 158.999C108.203 158.705 109.285 158.859 109.439 158.908C109.312 158.797 108.532 158.02 107.377 157.774C106.145 157.419 104.451 157.719 103.897 158.206ZM104.311 154.407C104.311 154.407 104.311 154.401 104.293 154.397C104.307 154.409 104.314 154.413 104.311 154.407ZM98.7514 153.694C97.4949 154.541 97.3943 155.978 98.0168 156.244C98.6356 156.528 99.4647 156.137 100.128 155.72C100.42 155.514 101.177 154.732 102.185 154.487C103.058 154.194 104.139 154.347 104.292 154.397C104.166 154.285 103.385 153.509 102.23 153.263C100.997 152.911 99.3046 153.208 98.7514 153.694ZM116.461 142.917C116.467 142.917 116.461 142.917 116.453 142.898C116.455 142.913 116.458 142.921 116.461 142.917ZM116.52 137.339C115.959 137.817 115.426 139.445 115.612 140.709C115.694 141.882 116.36 142.759 116.45 142.901C116.422 142.744 116.419 141.656 116.831 140.838C117.212 139.876 118.097 139.238 118.343 138.979C118.849 138.38 119.353 137.619 119.156 136.97C118.98 136.317 117.533 136.218 116.52 137.339ZM119.577 147.962C119.583 147.968 119.577 147.962 119.568 147.937C119.57 147.955 119.573 147.964 119.577 147.962ZM120.334 141.761C119.55 142.055 118.658 143.644 118.747 145.135C118.711 146.478 119.465 147.742 119.568 147.937C119.551 147.749 119.681 146.534 120.314 145.797C120.928 144.89 122.149 144.554 122.499 144.369C123.227 143.916 123.972 143.284 123.794 142.476C123.644 141.673 121.786 140.944 120.334 141.761ZM123.382 155.591C123.388 155.597 123.382 155.591 123.382 155.565C123.376 155.583 123.378 155.592 123.382 155.591ZM125.177 149.605C124.354 149.763 123.209 151.181 123.043 152.665C122.781 153.983 123.311 155.355 123.379 155.565C123.394 155.377 123.727 154.205 124.476 153.58C125.238 152.787 126.495 152.661 126.871 152.538C127.665 152.215 128.506 151.715 128.471 150.889C128.454 150.072 126.746 149.042 125.177 149.605ZM111.765 161.316C111.771 161.321 111.765 161.316 111.757 161.297C111.759 161.311 111.762 161.319 111.765 161.316Z" fill="#255144"/>
<path d="M111.774 156.213C111.152 156.498 110.52 157.851 110.675 159.068C110.722 160.171 111.409 161.164 111.504 161.318C111.479 161.166 111.515 160.162 111.988 159.521C112.436 158.741 113.41 158.397 113.684 158.227C114.251 157.815 114.821 157.253 114.632 156.601C114.462 155.951 112.909 155.457 111.774 156.213ZM109.366 134.365C109.366 134.365 109.366 134.365 109.356 134.359C109.363 134.365 109.368 134.365 109.366 134.365ZM106.044 134.184C105.338 134.743 105.341 135.604 105.721 135.736C106.102 135.868 106.572 135.608 106.948 135.331C107.112 135.195 107.525 134.696 108.112 134.506C108.616 134.292 109.264 134.337 109.356 134.359C109.279 134.304 108.784 133.871 108.085 133.775C107.34 133.616 106.35 133.87 106.044 134.184Z" fill="#255144"/>
<path d="M108.929 133.234C108.714 132.645 108.861 132 108.869 131.789C108.858 131.315 108.781 130.77 108.424 130.555C108.068 130.341 107.369 130.864 107.358 131.773C107.294 132.213 107.712 133.165 108.314 133.665C108.832 134.166 109.498 134.3 109.596 134.325C109.524 134.269 109.074 133.774 108.929 133.234ZM109.607 134.328C109.607 134.328 109.607 134.328 109.596 134.323C109.603 134.328 109.607 134.33 109.607 134.328ZM98.5755 150.28C98.5755 150.28 98.5755 150.28 98.5645 150.274C98.5723 150.28 98.5771 150.283 98.5755 150.28Z" fill="#255144"/>
<path d="M95.4303 149.876C94.7619 150.506 94.7655 151.474 95.1253 151.622C95.4851 151.769 95.9278 151.478 96.2884 151.167C96.4427 151.015 96.8342 150.453 97.3894 150.239C97.8661 149.999 98.479 150.048 98.5648 150.073C98.4927 150.011 98.0247 149.524 97.3635 149.417C96.6554 149.237 95.7202 149.523 95.4303 149.876Z" fill="#255144"/>
<path d="M98.7033 150.061C98.7071 150.061 98.7033 150.061 98.6934 150.055C98.6987 150.06 98.7033 150.063 98.7033 150.061ZM98.1376 148.917C97.9772 148.313 98.1712 147.685 98.1956 147.473C98.2238 147.001 98.1956 146.452 97.868 146.208C97.5405 145.963 96.8259 146.426 96.7411 147.335C96.6442 147.768 96.9702 148.749 97.51 149.295C97.9681 149.834 98.5995 150.021 98.6919 150.055C98.6277 149.995 98.2345 149.466 98.1376 148.917ZM107.355 172.086C107.36 172.086 107.355 172.086 107.338 172.076C107.348 172.087 107.354 172.091 107.355 172.086ZM106.546 170.265C106.335 169.312 106.677 168.347 106.729 168.015C106.806 167.281 106.79 166.421 106.298 166.019C105.819 165.606 104.659 166.293 104.465 167.705C104.287 168.375 104.733 169.926 105.54 170.814C106.219 171.685 107.19 172.017 107.335 172.076C107.234 171.968 106.661 171.121 106.546 170.265ZM114.405 174.641C114.411 174.641 114.405 174.637 114.388 174.63C114.4 174.641 114.404 174.644 114.405 174.641ZM113.596 172.819C113.386 171.866 113.728 170.902 113.779 170.569C113.856 169.835 113.841 168.975 113.348 168.573C112.869 168.161 111.709 168.847 111.516 170.259C111.337 170.929 111.784 172.481 112.591 173.368C113.269 174.239 114.241 174.571 114.385 174.63C114.284 174.522 113.713 173.676 113.596 172.819ZM121.569 177.871C121.574 177.871 121.569 177.871 121.552 177.861C121.562 177.872 121.568 177.876 121.569 177.871ZM120.76 176.05C120.549 175.097 120.892 174.132 120.943 173.801C121.02 173.066 121.004 172.206 120.512 171.804C120.033 171.391 118.873 172.078 118.68 173.49C118.501 174.16 118.947 175.712 119.754 176.599C120.433 177.47 121.405 177.802 121.549 177.861C121.448 177.754 120.875 176.907 120.76 176.05Z" fill="#255144"/>
<path d="M105.286 172.043C104.201 172.232 103.016 173.085 102.777 173.652C102.138 174.748 102.615 175.858 103.196 175.825C103.781 175.808 104.266 175.21 104.617 174.653C104.761 174.391 105.042 173.528 105.724 172.971C106.281 172.429 107.171 172.143 107.307 172.123C107.168 172.087 106.269 171.797 105.286 172.043ZM107.326 172.123C107.326 172.12 107.321 172.12 107.307 172.123C107.324 172.127 107.33 172.127 107.326 172.123ZM112.628 174.55C111.543 174.74 110.357 175.591 110.119 176.159C109.48 177.256 109.957 178.365 110.538 178.332C111.122 178.315 111.608 177.717 111.959 177.16C112.103 176.898 112.384 176.035 113.065 175.478C113.623 174.936 114.513 174.65 114.649 174.63C114.51 174.596 113.61 174.305 112.628 174.55ZM114.667 174.633C114.667 174.633 114.663 174.63 114.649 174.633C114.665 174.635 114.671 174.637 114.667 174.633ZM99.8037 170.517C99.0967 170.498 98.2352 170.885 98.0082 171.208C97.4563 171.815 97.6039 172.571 97.9738 172.626C98.3438 172.68 98.729 172.376 99.0263 172.07C99.1525 171.923 99.4467 171.418 99.9512 171.156C100.378 170.884 100.982 170.819 101.063 170.825C100.988 170.79 100.46 170.487 99.8037 170.517ZM101.073 170.828C101.073 170.828 101.073 170.828 101.063 170.828C101.069 170.829 101.074 170.831 101.073 170.828Z" fill="#255144"/>
<path d="M100.865 170.514C100.865 170.514 100.865 170.514 100.855 170.514C100.861 170.515 100.865 170.516 100.865 170.514ZM100.128 169.642C99.8557 169.148 99.8781 168.55 99.8507 168.353C99.7674 167.93 99.6169 167.453 99.2863 167.316C98.9556 167.18 98.4528 167.76 98.5866 168.581C98.6025 168.986 99.1003 169.772 99.6813 170.123C100.196 170.492 100.777 170.503 100.855 170.509C100.787 170.475 100.333 170.103 100.128 169.642Z" fill="#255144"/>
<path d="M126.007 179.647C125.217 179.124 124.354 178.716 123.497 178.308C121.662 177.436 119.782 176.652 117.914 175.858C114.111 174.24 110.249 172.715 106.231 171.688C104.032 171.115 101.787 170.723 99.5211 170.515C99.5124 170.515 99.5037 170.517 99.497 170.523C99.4903 170.528 99.4862 170.536 99.4855 170.545C99.4847 170.553 99.4875 170.562 99.4932 170.568C99.4989 170.575 99.507 170.579 99.5157 170.58C107.55 171.442 115.032 174.916 122.235 178.303C125.275 179.733 127.465 181.537 128.06 182.012L128.933 181.986C128.732 181.763 127.071 180.351 126.007 179.647Z" fill="#255144"/>
<path d="M117.071 190.303C117.071 190.303 116.35 193.594 118.742 194.533C121.16 195.482 122.731 194.229 122.731 194.229L128.472 188.237L121.717 183.392L117.071 190.303Z" fill="#F5B0A6"/>
<path d="M129.834 201.672C128.604 201.031 127.215 200.295 126.176 198.901C125.609 198.136 124.729 195.137 124.352 193.782C124.303 193.603 124.191 193.448 124.037 193.345C123.883 193.242 123.697 193.198 123.514 193.222C121.941 193.423 118.006 193.532 117.063 189.775C117.038 189.682 116.989 189.597 116.921 189.529C116.853 189.461 116.769 189.413 116.676 189.388C116.583 189.363 116.486 189.364 116.393 189.389C116.3 189.414 116.216 189.463 116.149 189.532L112.215 193.508C112.021 193.705 111.91 193.97 111.908 194.246C111.905 194.523 112.01 194.79 112.2 194.99L121.288 204.545L131.597 204.533C131.597 204.533 132.313 202.964 129.834 201.672Z" fill="#243354"/>
<path d="M164.823 199.487H171.659L173.105 189.37H165.187L164.823 199.487Z" fill="#D6D6D6"/>
<path d="M175.432 198.515C174.562 198.132 173.777 197.495 173.248 197.004C173.07 196.835 172.838 196.738 172.594 196.728C172.351 196.719 172.112 196.798 171.921 196.952C170.61 198.046 167.921 198.754 165.347 197.014C165.246 196.945 165.131 196.903 165.01 196.891C164.889 196.878 164.767 196.896 164.655 196.942C164.543 196.989 164.443 197.063 164.366 197.157C164.288 197.252 164.234 197.364 164.209 197.485L162.989 204.166C162.979 204.211 162.979 204.259 162.99 204.304C163 204.349 163.021 204.391 163.05 204.427C163.079 204.463 163.116 204.492 163.158 204.511C163.199 204.53 163.245 204.54 163.29 204.539L184.269 204.545C184.344 204.545 184.417 204.517 184.473 204.466C184.528 204.414 184.563 204.344 184.571 204.267C184.614 203.782 184.661 202.886 184.444 202.556C183.602 201.295 177.369 199.367 175.432 198.515Z" fill="#243354"/>
<path d="M173.216 101.076L154.239 101.337L162.16 151.744L160.086 197.556C164.837 198.72 172.7 197.859 177.431 196.648C177.431 196.648 181.494 159.461 180.859 146.386C180.287 134.612 173.216 101.076 173.216 101.076Z" fill="#2C4DA2"/>
<path d="M139.161 149.05L112.828 183.923C115.726 187.476 123.547 193.741 129.016 196.267C129.016 196.267 156.379 162.881 159.11 152.202C162.523 138.858 169.423 100.891 169.423 100.891L144.187 99.2368L139.161 149.05Z" fill="#2C4DA2"/>
<path d="M170.626 141.774L170.35 139.991L170.068 138.207L169.501 134.641L168.923 131.076C168.73 129.888 168.536 128.7 168.339 127.512C167.945 125.137 167.539 122.763 167.122 120.391C167.41 122.781 167.713 125.168 168.028 127.551C168.183 128.744 168.341 129.937 168.502 131.129L168.986 134.706L169.481 138.281L169.731 140.069L169.986 141.855C170.325 144.225 170.653 146.596 171.007 148.965V148.93V149.001C171.007 148.989 171.007 148.977 171.001 148.965L170.538 154.039L170.09 159.15C169.787 162.556 169.506 165.964 169.226 169.372C168.946 172.78 168.681 176.188 168.429 179.598C168.177 183.008 167.929 186.418 167.721 189.83C168.118 186.431 168.48 183.03 168.834 179.628C169.188 176.227 169.524 172.823 169.859 169.419C170.193 166.016 170.51 162.612 170.816 159.206L171.278 154.095L171.723 148.984V148.948L171.717 148.913C171.372 146.531 170.993 144.154 170.626 141.774Z" fill="white"/>
<path d="M154.75 138.036C153.621 140.829 152.509 143.628 151.392 146.426L149.728 150.625L148.092 154.768L148.133 154.722L148.069 154.825L148.092 154.768L141.552 162.071L138.276 165.757C137.184 166.985 136.093 168.215 135.005 169.449L131.742 173.147L128.491 176.856C126.331 179.334 124.17 181.812 122.031 184.311C124.286 181.917 126.516 179.499 128.749 177.085L132.087 173.454L135.414 169.812C136.524 168.599 137.63 167.383 138.731 166.162L142.044 162.508L148.643 155.176L148.684 155.13L148.707 155.073L150.352 150.865L151.99 146.656C153.077 143.846 154.167 141.039 155.24 138.224C156.313 135.41 157.386 132.596 158.45 129.779C159.515 126.962 160.568 124.14 161.601 121.31C160.432 124.087 159.287 126.873 158.145 129.66C157.003 132.447 155.872 135.242 154.75 138.036Z" fill="white"/>
<path d="M168.336 119.905C166.07 120.101 163.82 120.604 161.651 121.175C161.643 121.178 161.635 121.182 161.628 121.187C161.621 121.192 161.615 121.199 161.61 121.207C161.606 121.215 161.603 121.223 161.602 121.232C161.601 121.241 161.601 121.25 161.603 121.259C161.605 121.267 161.609 121.276 161.614 121.283C161.62 121.29 161.626 121.296 161.634 121.301C161.641 121.305 161.65 121.308 161.658 121.309C161.667 121.311 161.676 121.31 161.684 121.308C163.922 120.951 166.193 120.639 168.4 120.164C168.574 120.127 168.51 119.89 168.336 119.905ZM167.937 106.182C167.952 108.459 167.81 110.462 167.623 112.59C167.537 113.578 166.763 119.038 165.095 118.641C164.815 118.575 164.672 118.293 164.629 117.86C164.576 117.34 164.767 116.703 164.85 116.186C165.035 115.043 165.184 113.897 165.279 112.742C165.458 110.587 165.466 108.431 165.211 106.283C165.21 106.269 165.204 106.255 165.193 106.245C165.182 106.235 165.168 106.23 165.154 106.231C165.14 106.232 165.127 106.238 165.117 106.249C165.107 106.26 165.103 106.275 165.103 106.289C165.103 109.273 165.03 112.251 164.596 115.206C164.387 116.626 163.691 118.761 165.137 118.982C166.61 119.209 167.563 115.623 167.742 114.644C168.244 111.91 168.264 108.959 168.054 106.193C168.05 106.125 167.936 106.11 167.937 106.182Z" fill="white"/>
<path d="M165.266 118.62C165.111 118.994 164.981 119.378 164.875 119.769C164.792 120.07 164.678 120.396 164.713 120.711C164.72 120.771 164.801 120.777 164.833 120.736C165.037 120.478 165.123 120.123 165.237 119.817C165.369 119.463 165.509 119.111 165.631 118.753C165.712 118.515 165.363 118.391 165.266 118.62ZM159.319 108.476C159.147 109 158.825 109.523 158.59 110.026C158.39 110.455 158.194 110.885 157.999 111.317C157.599 112.208 157.206 113.101 156.82 113.998C156.174 115.511 155.495 117.085 154.16 118.123C152.975 119.042 151.508 119.527 150.059 119.847C149.292 120.016 148.513 120.153 147.735 120.276C146.771 120.43 145.76 120.506 144.819 120.747C144.666 120.786 144.709 120.984 144.847 121.001C145.754 121.113 146.721 121.032 147.63 120.98C148.365 120.938 149.101 120.887 149.831 120.794C152.378 120.473 154.926 119.561 156.351 117.295C157.13 116.058 157.537 114.615 157.995 113.236C158.25 112.47 158.483 111.696 158.723 110.924C158.858 110.492 158.981 110.057 159.112 109.622C159.224 109.255 159.289 108.856 159.441 108.506C159.467 108.44 159.343 108.399 159.319 108.476ZM178.127 193.392C175.111 193.366 175.978 193.331 172.961 193.339C171.485 193.342 161.788 193.375 160.412 193.62C160.405 193.622 160.399 193.626 160.395 193.631C160.391 193.637 160.388 193.644 160.388 193.651C160.388 193.658 160.391 193.665 160.395 193.67C160.399 193.676 160.405 193.68 160.412 193.682C161.793 193.892 171.488 193.691 172.964 193.659C175.979 193.594 175.112 193.582 178.127 193.48C178.137 193.479 178.147 193.474 178.154 193.466C178.161 193.457 178.165 193.447 178.165 193.436C178.165 193.426 178.161 193.415 178.154 193.407C178.147 193.399 178.137 193.394 178.127 193.392ZM131.432 194.37C128.688 192.167 129.49 192.779 126.732 190.592C125.383 189.52 116.51 182.485 115.163 181.594C115.133 181.574 115.115 181.594 115.141 181.621C116.326 182.719 125.258 189.678 126.618 190.736C129.397 192.898 128.612 192.262 131.401 194.412C131.453 194.451 131.484 194.412 131.432 194.37Z" fill="white"/>
<path d="M187.429 89.7067C185.828 88.2651 179.528 89.9677 178.57 87.9229C178.413 87.5876 176.13 81.2006 176.004 80.8501C174.581 76.8865 172.624 75.3387 169.884 73.0246C171.098 75.445 173.163 84.6741 173.151 85.1445C172.963 91.9373 180.768 97.6884 180.768 97.6884C180.768 97.6884 187.285 103.84 191.165 101.44C192.299 100.744 193.216 99.747 193.813 98.5617C194.451 97.2862 194.765 95.8745 194.728 94.4502C194.728 94.4502 190.852 92.7909 187.429 89.7067Z" fill="#6FC183"/>
<path d="M187.414 89.5796C185.933 90.9085 183.882 93.4222 185.933 95.8938C188.338 98.7914 191.554 99.1317 193.811 98.5224C194.451 97.234 194.765 95.8081 194.728 94.3694C194.728 94.3694 190.842 92.6949 187.414 89.5796Z" fill="#40947E"/>
<path d="M198.838 88.4204C197.036 88.7945 194.576 89.976 194.576 89.976C194.576 89.976 194.765 88.1193 194.45 87.2396C194.244 86.6664 193.838 86.6881 193.188 87.2645C192.839 87.5756 192.42 88.0423 191.925 88.6646C190.504 90.4466 189.797 93.4872 189.751 93.8108C189.281 97.1554 190.852 96.6545 194.229 96.0035C197.605 95.3524 201.299 89.9441 200.634 88.6646C200.421 88.2477 199.706 88.2407 198.838 88.4204Z" fill="#F5B0A6"/>
<path d="M194.639 87.2231C194.437 86.6724 194.039 86.6934 193.401 87.247C193.657 87.3322 193.902 87.5385 193.992 87.9943C194.201 89.0874 192.43 93.7187 192.43 93.7187C192.43 93.7187 196.624 89.7921 198.948 88.3582C197.179 88.7176 194.766 89.8526 194.766 89.8526C194.766 89.8526 194.952 88.0682 194.639 87.2231ZM196.566 91.6885C197.945 91.146 199.325 91.9934 199.325 91.9934L199.707 91.4591C198.908 90.2882 196.566 91.6885 196.566 91.6885ZM198.286 90.2695C199.128 89.6097 200.526 89.9878 200.526 89.9878L200.712 89.4498C200.039 88.8042 198.286 90.2695 198.286 90.2695ZM195.686 93.7179C195.686 93.7179 197.34 93.1202 197.768 93.7179L198.474 93.0103C198.474 93.0103 196.653 92.4529 195.686 93.7179Z" fill="#F18A8B"/>
<path d="M205.454 79.3678L205.413 79.3277C205.21 79.121 204.935 79.0042 204.647 79.0029C204.36 79.0016 204.084 79.1159 203.879 79.3207L183.586 99.6056L183.536 99.655C183.337 99.8625 183.226 100.141 183.227 100.43C183.228 100.72 183.34 100.998 183.539 101.204C183.738 101.411 184.009 101.53 184.294 101.536C184.578 101.542 184.854 101.435 185.062 101.237L205.446 80.944C205.549 80.8417 205.63 80.7198 205.686 80.5853C205.743 80.4508 205.772 80.3063 205.773 80.1602C205.774 80.0141 205.747 79.8692 205.693 79.7339C205.638 79.5985 205.559 79.4754 205.457 79.3716L205.454 79.3678Z" fill="#5681BF"/>
<path d="M160.299 71.2404C159.833 71.2938 159.372 71.3882 158.922 71.5225C158.907 71.5285 158.892 71.5329 158.876 71.5356C158.461 71.6704 153.193 71.9031 152.953 72.0973C147.977 76.0851 146.057 88.7696 145.077 92.9523C143.456 99.8428 143.018 107.05 143.257 107.324C143.324 107.401 160.035 115.093 174.755 109.789C175.281 109.6 178.45 81.9862 170.933 73.9313C168.563 71.3891 162.088 71.017 160.299 71.2404Z" fill="#6FC183"/>
<path d="M162.521 79.1128L163.365 80.3824L164.902 80.1804L165.282 78.446L163.727 76.7035L162.521 79.1128Z" fill="#40947E"/>
<path d="M163.555 80.5935L162.062 100.419L166.264 105.215L168.503 100.961L165.219 80.3826L163.555 80.5935Z" fill="#40947E"/>
<path d="M167.754 101.331L167.34 98.9981L168.109 97.5628C168.109 97.5628 167.042 98.6408 164.38 84.4019C162.645 75.1352 157.575 72.6857 154.197 72.1051C152.236 74.0456 150.6 76.6206 150.191 79.9526C149.791 83.2269 150.72 87.9041 152.118 92.646C154.817 101.8 159.265 111.193 159.265 111.193L160.833 111.095L162.809 110.428L175.597 106.116L185.067 102.922L181.193 93.4962C172.786 94.2154 167.754 101.331 167.754 101.331Z" fill="#6FC183"/>
<path opacity="0.34" d="M161.691 105.205C157.661 103.389 154.227 97.6078 151.938 92.7292C154.64 101.842 159.092 111.193 159.092 111.193L160.662 111.095L162.64 110.431L175.44 106.138C173.164 106.739 167.428 107.791 161.691 105.205ZM164.212 84.5213C166.882 98.6948 167.945 97.6231 167.945 97.6231L167.175 99.052L167.59 101.375C167.59 101.375 172.624 94.2885 181.042 93.5732H182.434C182.434 93.5732 183.025 92.1589 184.147 90.9952C181.569 91.3677 175.799 92.1581 173.174 92.1581C169.739 92.1581 164.212 84.5213 164.212 84.5213Z" fill="#40947E"/>
<path d="M192.155 90.6967C191.866 90.4631 191.396 90.2716 190.955 90.1299C190.612 90.0197 190.263 89.9275 189.91 89.8535C189.91 89.8535 192.516 89.3187 191.96 88.562C191.859 88.4257 191.609 88.3284 191.254 88.2731C189.636 88.0076 185.856 88.4989 184.396 89.2299C182.615 90.1206 181.659 92.4569 181.659 92.4569H180.467L182.468 97.3974L185.698 95.3312C185.698 95.3312 188.868 96.3114 189.564 95.6426C190.259 94.9739 188.012 93.8878 187.958 93.8614C188.017 93.8777 190.87 94.6547 191.214 93.8614C191.301 93.6597 191.17 93.4417 190.923 93.2277C190.222 92.6173 188.592 92.042 188.455 91.9937H188.447C188.447 91.9937 191.954 92.2171 192.388 91.3257C192.497 91.0953 192.384 90.8812 192.155 90.6967Z" fill="#F5B0A6"/>
<path d="M187.329 94.8682C186.23 94.3534 185.679 94.4075 184.004 94.6516C182.789 94.8282 181.817 93.2783 181.378 92.4174H180.467L182.468 97.3974L185.7 95.3147C185.7 95.3147 188.871 96.3027 189.566 95.6286C189.098 95.8758 188.43 95.3822 187.329 94.8682ZM191.254 88.2002C191.299 88.3956 191.221 88.5926 190.869 88.7213C189.882 89.0917 187.665 89.4856 188.113 89.7634C188.561 90.0412 189.91 89.7932 189.91 89.7932C189.91 89.7932 192.516 89.2541 191.96 88.4913C191.859 88.354 191.608 88.2591 191.254 88.2002ZM192.156 90.6431C192.168 90.9303 192.042 91.2427 191.439 91.2427C190.323 91.2427 187.524 90.9421 187.507 91.2427C187.49 91.5432 188.443 91.9489 188.443 91.9489C188.443 91.9489 191.951 92.1741 192.386 91.2756C192.499 91.0449 192.386 90.8291 192.156 90.6431Z" fill="#F18A8B"/>
<path d="M191.167 92.9407C191.178 93.185 191.103 93.3973 190.778 93.3063C190.102 93.1168 187.25 92.6425 186.982 92.8506C186.714 93.0586 187.194 93.8311 187.998 94.2102C188.803 94.5893 189.749 95.1638 189.706 95.558C190.44 94.8437 188.039 93.6593 187.98 93.6306C188.044 93.6483 191.11 94.489 191.479 93.6306C191.573 93.4082 191.432 93.1724 191.167 92.9407Z" fill="#F18A8B"/>
<path d="M165.623 69.4594L157.948 68.426C157.662 70.0242 157.46 71.2772 157.46 71.2772C157.625 72.8494 159.957 75.1791 163.541 75.3213C165.839 75.4122 165.742 73.0627 165.742 73.0627C165.659 72.0246 165.699 70.608 165.623 69.4594Z" fill="#F5B0A6"/>
<path d="M157.957 63.3677L157.92 72.5969C157.92 72.5969 159.763 75.1124 162.097 74.8442C164.871 74.5278 165.742 72.5668 165.742 72.5668L165.438 64.1026L157.957 63.3677Z" fill="#F5B0A6"/>
<path d="M159.301 67.9661C159.301 67.9661 160.977 70.6379 162.339 71.7562C163.182 72.4508 165.743 73.4844 165.743 73.4844L165.664 70.4264L159.301 67.9661Z" fill="#F18A8B"/>
<path d="M170.403 56.0098L158.841 56.4141L159.235 66.825C159.246 67.1095 159.343 67.3845 159.516 67.6157C159.688 67.8468 159.928 68.0238 160.204 68.1244L165.865 70.1725C166.101 70.2589 166.357 70.2857 166.607 70.2504C166.857 70.215 167.094 70.1188 167.295 69.9707L170.215 67.8369C170.406 67.697 170.558 67.5151 170.661 67.3066C170.763 67.098 170.812 66.8689 170.803 66.6384L170.403 56.0098Z" fill="#F5B0A6"/>
<path opacity="0.6" d="M168.504 63.673C168.521 64.221 168.725 64.7387 169.07 65.1123C169.415 65.4859 169.873 65.6849 170.343 65.6656L170.215 61.5282C169.743 61.5487 169.299 61.7861 168.978 62.1883C168.657 62.5906 168.487 63.1246 168.504 63.673Z" fill="#F18A8B"/>
<path d="M167.439 58.9075C167.437 58.8866 167.43 58.8664 167.42 58.8482C167.41 58.8301 167.397 58.8142 167.382 58.8014C167.366 58.7887 167.348 58.7795 167.329 58.7742C167.311 58.7689 167.291 58.7677 167.272 58.7706C167.252 58.7736 167.234 58.7806 167.217 58.7913C167.2 58.802 167.185 58.8162 167.174 58.8331C167.162 58.8499 167.153 58.8691 167.148 58.8895C167.144 58.91 167.142 58.9312 167.145 58.9521L167.725 63.4519L166.348 63.506C166.328 63.5065 166.309 63.511 166.291 63.5195C166.273 63.5279 166.257 63.5401 166.244 63.5553C166.23 63.5706 166.219 63.5885 166.212 63.6082C166.205 63.6278 166.202 63.6488 166.202 63.6699C166.203 63.691 166.207 63.7118 166.215 63.7312C166.222 63.7505 166.234 63.768 166.248 63.7827C166.262 63.7973 166.278 63.8088 166.297 63.8165C166.315 63.8242 166.334 63.8279 166.354 63.8275H166.359L167.9 63.7671C167.92 63.7662 167.941 63.7607 167.959 63.7508C167.978 63.741 167.995 63.727 168.008 63.7099C168.022 63.6927 168.032 63.6727 168.037 63.651C168.043 63.6294 168.044 63.6067 168.041 63.5845L167.439 58.9075Z" fill="#D3676D"/>
<path d="M157.138 60.1502C156.638 60.1684 156.154 60.3345 155.749 60.6273C155.343 60.9202 155.033 61.3267 154.859 61.7955C154.684 62.2643 154.653 62.7743 154.768 63.2611C154.883 63.7478 155.141 64.1894 155.507 64.53C155.874 64.8706 156.333 65.095 156.827 65.1747C157.321 65.2544 157.828 65.1858 158.283 64.9778C158.738 64.7697 159.121 64.4314 159.384 64.0057C159.647 63.5799 159.778 63.0859 159.759 62.586C159.747 62.254 159.67 61.9277 159.532 61.6256C159.393 61.3236 159.197 61.0517 158.954 60.8255C158.71 60.5993 158.425 60.4232 158.113 60.3073C157.802 60.1915 157.47 60.1381 157.138 60.1502Z" fill="#F5B0A6"/>
<path d="M161.614 58.4904C161.736 59.1189 163.724 58.5835 163.714 57.887C163.696 56.793 161.412 57.4473 161.614 58.4904ZM168.824 57.3982C168.679 57.9663 170.49 58.5447 170.75 57.9801C171.162 57.0861 169.066 56.4542 168.824 57.3982Z" fill="black"/>
<path opacity="0.6" d="M164.255 64.1858C164.55 63.0563 163.874 61.9013 162.744 61.606C161.613 61.3108 160.458 61.9871 160.162 63.1166C159.867 64.2461 160.544 65.4011 161.674 65.6963C162.804 65.9916 163.96 65.3153 164.255 64.1858Z" fill="#F18A8B"/>
<path d="M164.347 59.8666C164.096 59.8666 163.896 60.2449 163.902 60.7039C163.909 61.163 164.116 61.528 164.367 61.528C164.618 61.528 164.817 61.1498 164.812 60.6908C164.807 60.2317 164.598 59.8633 164.347 59.8666ZM168.96 59.6886C168.708 59.6886 168.51 60.0669 168.515 60.5259C168.52 60.985 168.729 61.35 168.979 61.35C169.229 61.35 169.43 60.9718 169.424 60.5119C169.417 60.0521 169.212 59.6845 168.96 59.6886Z" fill="black"/>
<path d="M157.903 64.2875C157.877 64.2873 157.851 64.2789 157.829 64.2632C157.807 64.2474 157.789 64.225 157.777 64.1983C157.765 64.1717 157.76 64.1418 157.762 64.1119C157.764 64.0821 157.773 64.0534 157.788 64.0291C157.952 63.7714 158.053 63.4297 158.088 63.0142C158.207 61.5871 156.73 61.4007 156.667 61.3928C156.63 61.3885 156.595 61.3673 156.571 61.334C156.547 61.3006 156.536 61.2577 156.54 61.2148C156.544 61.1719 156.562 61.1325 156.591 61.1052C156.621 61.0779 156.658 61.065 156.696 61.0693C157.327 61.1415 158.489 61.6473 158.371 63.0459C158.331 63.5216 158.212 63.9141 158.019 64.2202C158.005 64.2409 157.988 64.2579 157.968 64.2696C157.948 64.2813 157.926 64.2875 157.903 64.2875Z" fill="#919191"/>
<path d="M156.607 62.5731C156.572 62.5865 156.549 62.607 156.541 62.6301C156.534 62.6531 156.544 62.6768 156.568 62.696C156.593 62.7151 156.63 62.7281 156.672 62.7322C156.714 62.7362 156.757 62.7309 156.792 62.7174C156.87 62.6887 157.543 62.4485 158.087 62.8704C158.102 62.882 158.121 62.8914 158.144 62.8979C158.167 62.9044 158.192 62.9078 158.218 62.9078C158.251 62.9079 158.283 62.9021 158.31 62.8915C158.328 62.885 158.343 62.8766 158.354 62.8668C158.366 62.857 158.374 62.846 158.377 62.8345C158.381 62.823 158.38 62.8113 158.375 62.7999C158.37 62.7886 158.361 62.7779 158.348 62.7686C157.756 62.3092 156.951 62.4399 156.607 62.5731Z" fill="#F18A8B"/>
<path d="M170.829 47.7402C167.346 46.0231 164.578 49.5856 164.578 49.5856C164.578 49.5856 160.7 48.9782 158.991 50.4176C157.369 51.7833 157.815 53.5111 157.815 53.5111C157.815 53.5111 155.899 54.3232 155.677 55.7042C155.185 58.7585 158.001 64.2872 158.001 64.2872C158.001 64.2872 159.258 64.0758 159.567 62.8262C160.396 59.4605 160.094 56.0887 160.094 56.0887C160.094 56.0887 166.386 57.938 169.601 56.6992C172.903 55.4274 171.712 53.4396 171.712 53.4396C171.712 53.4396 174.31 49.4572 170.829 47.7402Z" fill="black"/>
<path d="M165.268 49.7153C164.487 49.3179 163.612 49.142 162.736 49.0867C161.961 49.0374 161.155 49.0813 160.406 49.2944C159.066 49.6736 157.838 50.5533 157.523 51.9607C157.446 52.3061 157.439 52.6633 157.504 53.0112C157.569 53.3591 157.703 53.6906 157.9 53.9862C157.916 54.0112 157.954 53.9809 157.936 53.9566C157.162 52.8722 157.711 51.2979 158.638 50.4911C159.686 49.5811 161.215 49.3066 162.572 49.3377C163.48 49.3581 164.366 49.5583 165.238 49.7927C165.243 49.7946 165.248 49.7955 165.254 49.7954C165.259 49.7952 165.265 49.794 165.27 49.7918C165.275 49.7896 165.279 49.7864 165.283 49.7824C165.287 49.7785 165.29 49.7738 165.292 49.7688C165.294 49.7637 165.295 49.7583 165.295 49.7528C165.294 49.7474 165.293 49.7421 165.291 49.7371C165.289 49.7321 165.286 49.7276 165.282 49.7239C165.278 49.7202 165.273 49.7173 165.268 49.7153ZM171.465 47.6109C170.37 47.1855 169.131 47.1726 168.013 47.5071C166.87 47.8475 165.865 48.5285 165.057 49.3907C165.04 49.4097 165.073 49.4408 165.091 49.4218C166.566 47.9097 168.769 47.1362 170.857 47.7156C171.79 47.9749 172.705 48.5187 173.081 49.4408C173.43 50.2886 173.274 51.3275 172.823 52.1086C172.266 53.0732 171.305 53.7678 170.329 54.2767C170.324 54.2791 170.321 54.2831 170.32 54.2878C170.318 54.2926 170.318 54.2978 170.32 54.3023C170.323 54.3068 170.326 54.3104 170.331 54.3123C170.336 54.3141 170.341 54.3141 170.346 54.3123C171.288 53.8869 172.181 53.3265 172.808 52.4923C173.4 51.7074 173.716 50.6852 173.492 49.713C173.257 48.6885 172.426 47.984 171.465 47.6109ZM170.534 56.8664C169.054 57.3873 167.461 57.4859 165.904 57.3547C164.274 57.2167 162.689 56.8702 161.129 56.3901C160.223 56.1111 159.328 55.7986 158.444 55.4703C158.415 55.4597 158.401 55.5006 158.428 55.5135C159.982 56.2582 161.573 56.9301 163.26 57.3373C164.827 57.7164 166.419 57.8355 168.021 57.6019C168.891 57.473 169.742 57.2364 170.552 56.8975C170.571 56.8891 170.556 56.8588 170.534 56.8664ZM168.28 65.3619C168.217 65.3439 168.152 65.3352 168.087 65.3361C167.966 65.349 167.846 65.3715 167.729 65.4036C167.088 65.5619 166.421 65.5959 165.766 65.5037C165.554 65.4631 165.337 65.4593 165.123 65.4924C164.935 65.5288 164.789 65.6114 164.711 65.7669C164.551 66.0823 164.669 66.4494 164.884 66.7383C164.944 66.8157 165.012 66.8876 165.085 66.9529C165.57 67.3905 166.334 67.602 167.025 67.4648C167.324 67.4048 167.607 67.282 167.854 67.1046C168.237 66.8232 168.508 66.4274 168.572 66.002C168.61 65.757 168.545 65.456 168.28 65.3619Z" fill="black"/>
<path d="M167.635 65.2863C166.942 65.4618 166.223 65.4995 165.516 65.3973C165.288 65.3523 165.053 65.348 164.823 65.3847C164.828 65.5629 164.895 65.7335 165.013 65.8656C165.149 66.0018 165.344 66.0481 165.529 66.0725C166.206 66.1783 166.899 66.1297 167.555 65.9304C167.71 65.8824 167.876 65.8177 167.969 65.6781C168.063 65.5385 168.052 65.3712 168.023 65.2073C167.892 65.2227 167.762 65.2491 167.635 65.2863Z" fill="white"/>
<path d="M166.49 66.6092C165.91 66.532 165.322 66.6542 164.823 66.9552C165.306 67.391 166.068 67.6018 166.757 67.4651C167.056 67.4053 167.337 67.283 167.583 67.1063C167.324 66.8102 166.901 66.6546 166.49 66.6092Z" fill="#D3676D"/>
<path d="M169.667 58.463C168.749 58.4386 167.97 59.5179 167.932 60.8696C167.893 62.2213 168.608 63.342 169.526 63.3672C170.444 63.3925 171.224 62.3124 171.262 60.9607C171.301 59.609 170.585 58.4883 169.667 58.463ZM170.924 60.9515C170.89 62.1219 170.266 63.0582 169.534 63.0383C168.802 63.0184 168.234 62.05 168.268 60.8788C168.302 59.7076 168.924 58.7721 169.656 58.792C170.388 58.8119 170.957 59.7803 170.925 60.9515H170.924ZM164.024 58.31C162.727 58.2749 161.641 59.3458 161.602 60.6975C161.564 62.0492 162.586 63.1783 163.88 63.2135C165.174 63.2487 166.262 62.1777 166.301 60.826C166.339 59.4743 165.32 58.3452 164.024 58.31ZM165.966 60.8168C165.933 61.9872 165.003 62.9152 163.893 62.8823C162.783 62.8494 161.906 61.8756 161.94 60.7044C161.974 59.5332 162.904 58.6061 164.014 58.639C165.125 58.6719 166 59.6457 165.966 60.8168Z" fill="#243354"/>
<path d="M165.983 60.3173L166.081 60.6092C167.299 60.2395 167.833 60.6285 167.837 60.6328L168.043 60.3965C168.018 60.3758 167.387 59.8905 165.983 60.3173ZM154.239 60.388L154.39 60.6585C154.765 60.4679 155.817 59.9868 156.234 59.9975H156.258C156.669 60.0297 160.094 60.7113 161.848 61.0682L161.916 60.7684C161.708 60.7256 156.819 59.7334 156.281 59.6913C155.722 59.6406 154.39 60.3123 154.239 60.388Z" fill="#243354"/>
<path d="M166.336 71.8318L164.239 75.7632L157.709 70.7254L155.16 72.0361C155.16 72.0361 162.292 80.2707 162.329 79.9112L164.457 76.5421L167.583 78.9303L167.286 73.0045L166.336 71.8318Z" fill="white"/>
<path d="M165.928 73.0299C165.928 72.9942 165.873 72.9782 165.864 73.0196C165.673 73.9809 165.922 77.7903 165.916 78.6991L165.906 78.6888C165.812 78.5846 163.814 76.569 163.795 76.6008C163.454 77.1486 162.3 79.6628 162.22 79.891C161.492 78.6093 158.499 73.7821 157.636 72.5704C157.612 72.5354 157.442 72.6809 157.462 72.7214C158.104 74.0731 162.118 80.3999 162.175 80.3824C162.214 80.4142 163.649 77.318 163.821 76.7328C164.158 77.1717 166.174 79.4457 166.181 79.2978C166.23 78.2992 166.187 77.0182 166.127 76.0212C166.066 75.0241 166.029 74.0214 165.928 73.0299Z" fill="#2E6857"/>
<path d="M176.348 199.359C174.888 199.425 173.157 200.068 172.163 201.377C172.125 201.427 172.188 201.476 172.233 201.45C173.546 200.676 174.929 200.038 176.36 199.546C176.466 199.511 176.452 199.354 176.348 199.359ZM177.444 199.753C175.984 199.82 174.253 200.463 173.26 201.771C173.221 201.822 173.285 201.87 173.329 201.844C174.643 201.07 176.025 200.432 177.456 199.941C177.56 199.905 177.549 199.749 177.444 199.753ZM178.541 200.148C177.081 200.214 175.35 200.856 174.357 202.166C174.318 202.217 174.381 202.264 174.426 202.238C175.74 201.464 177.122 200.827 178.553 200.335C178.657 200.297 178.645 200.143 178.541 200.148ZM124.744 196.327C124.116 195.988 123.421 195.81 122.715 195.808C122.01 195.805 121.313 195.977 120.683 196.311C120.629 196.341 120.647 196.412 120.693 196.409C122.012 196.283 123.34 196.316 124.651 196.506C124.743 196.519 124.82 196.37 124.744 196.327ZM125.306 197.185C124.678 196.846 123.983 196.668 123.278 196.665C122.572 196.662 121.876 196.834 121.246 197.168C121.191 197.198 121.21 197.27 121.256 197.266C122.574 197.14 123.902 197.173 125.213 197.363C125.305 197.376 125.383 197.227 125.306 197.185ZM125.868 198.042C125.241 197.704 124.546 197.525 123.84 197.522C123.134 197.519 122.438 197.692 121.808 198.026C121.754 198.055 121.772 198.128 121.818 198.124C123.136 197.998 124.464 198.031 125.776 198.22C125.868 198.233 125.945 198.084 125.868 198.042Z" fill="white"/>
<path d="M345.69 51.871H218.615C212.285 51.871 207.153 57.3644 207.153 64.1407V155.027C207.153 161.804 212.285 167.296 218.615 167.296H345.69C352.021 167.296 357.153 161.804 357.153 155.027V64.1407C357.153 57.3644 352.021 51.871 345.69 51.871Z" fill="#3D5891"/>
<path d="M341.864 55.5499H222.443C216.539 55.5499 211.754 60.6907 211.754 67.0384V152.13C211.754 158.473 216.539 163.617 222.443 163.617H341.864C347.767 163.617 352.552 158.476 352.552 152.13V67.0384C352.552 60.693 347.767 55.5499 341.864 55.5499Z" fill="white"/>
<path d="M341.864 55.5499H222.443C216.539 55.5499 211.754 60.611 211.754 66.8604V67.5063H352.552V66.8604C352.552 60.6133 347.767 55.5499 341.864 55.5499Z" fill="#5681BF"/>
<path d="M222.797 55.5499L261.086 163.617H304.699C293.096 129.022 279.739 89.1426 268.548 55.5499H222.797Z" fill="white"/>
<path d="M292.736 55.5499L332.772 163.617H348.871L308.298 55.5499H292.736Z" fill="white"/>
<path d="M224.638 59.229C224.202 59.229 223.776 59.3638 223.414 59.6165C223.052 59.8691 222.769 60.2282 222.602 60.6484C222.435 61.0685 222.392 61.5308 222.477 61.9769C222.562 62.4229 222.772 62.8326 223.08 63.1541C223.388 63.4757 223.781 63.6947 224.208 63.7834C224.636 63.8721 225.079 63.8266 225.482 63.6526C225.884 63.4785 226.228 63.1838 226.47 62.8057C226.713 62.4276 226.842 61.983 226.842 61.5283C226.842 60.9185 226.61 60.3336 226.196 59.9024C225.783 59.4712 225.223 59.229 224.638 59.229ZM213.958 59.229C213.522 59.229 213.096 59.3638 212.734 59.6165C212.371 59.8691 212.089 60.2282 211.922 60.6484C211.755 61.0685 211.712 61.5308 211.797 61.9769C211.882 62.4229 212.092 62.8326 212.4 63.1541C212.708 63.4757 213.101 63.6947 213.528 63.7834C213.956 63.8721 214.399 63.8266 214.801 63.6526C215.204 63.4785 215.548 63.1838 215.79 62.8057C216.032 62.4276 216.162 61.983 216.162 61.5283C216.162 60.9185 215.93 60.3336 215.516 59.9024C215.103 59.4712 214.543 59.229 213.958 59.229ZM235.318 59.229C234.882 59.229 234.456 59.3638 234.093 59.6165C233.731 59.8691 233.448 60.2282 233.282 60.6484C233.115 61.0685 233.071 61.5308 233.156 61.9769C233.241 62.4229 233.451 62.8326 233.759 63.1541C234.068 63.4757 234.46 63.6947 234.888 63.7834C235.315 63.8721 235.758 63.8266 236.161 63.6526C236.564 63.4785 236.908 63.1838 237.15 62.8057C237.392 62.4276 237.521 61.983 237.521 61.5283C237.521 60.9185 237.289 60.3336 236.876 59.9024C236.463 59.4712 235.902 59.229 235.318 59.229Z" fill="white"/>
<path d="M223.258 158.099H282.153V79.4628H223.258V158.099Z" fill="#D1DBED"/>
<path d="M282.153 79.4628H223.258V83.1417H282.153V79.4628Z" fill="#5681BF"/>
<path d="M267.29 121.77H237.658C236.862 121.77 236.862 122.69 237.658 122.69H267.29C268.089 122.69 268.089 121.77 267.29 121.77Z" fill="white"/>
<path d="M251.325 85.4411C246.543 85.4411 242.263 87.5941 239.362 90.9966L251.325 101.536L263.288 90.9966C260.387 87.5941 256.106 85.4411 251.325 85.4411Z" fill="#B5CAE8"/>
<path d="M252.705 101.528V117.631C261.352 117.631 268.349 110.429 268.349 101.528C268.348 100.762 268.295 99.996 268.19 99.2368L252.705 101.528Z" fill="white"/>
<path d="M241.245 113.962C241.814 114.462 242.417 114.919 243.05 115.332L251.325 101.481L239.367 90.9595C233.795 97.8582 234.635 108.147 241.245 113.962Z" fill="#5681BF"/>
<path d="M251.324 117.631V101.536L243.042 115.075C245.494 116.743 248.376 117.632 251.324 117.631Z" fill="#3D5891"/>
<path d="M253.166 100.616L268.81 98.3176C268.39 95.2679 267.107 92.398 265.11 90.0395L253.166 100.616Z" fill="#99B1DA"/>
<path d="M235.681 140.164H230.16V154.88H235.681V140.164Z" fill="#99B1DA"/>
<path d="M235.681 134.646H230.16V141.544H235.681V134.646Z" fill="white"/>
<path d="M273.871 141.084H267.89V155.34H273.871V141.084Z" fill="#99B1DA"/>
<path d="M273.871 129.128H267.89V142.004H273.871V129.128Z" fill="white"/>
<path d="M260.988 139.705H255.466V154.88H260.988V139.705Z" fill="#99B1DA"/>
<path d="M260.988 138.325H255.466V148.442H260.988V138.325Z" fill="white"/>
<path d="M248.564 134.646H242.583V154.88H248.564V134.646Z" fill="#99B1DA"/>
<path d="M248.564 126.829H242.583V142.924H248.564V126.829Z" fill="white"/>
<path d="M225.471 80.3831C225.311 80.3773 225.152 80.4263 225.016 80.5238C224.88 80.6214 224.772 80.7629 224.707 80.9304C224.642 81.0979 224.622 81.2836 224.651 81.4639C224.679 81.6441 224.754 81.8107 224.866 81.9422C224.978 82.0738 225.122 82.1643 225.279 82.2021C225.436 82.24 225.6 82.2236 225.749 82.1549C225.898 82.0862 226.026 81.9684 226.116 81.8166C226.206 81.6648 226.254 81.4859 226.254 81.3028C226.257 81.0628 226.176 80.8313 226.03 80.6589C225.883 80.4865 225.682 80.3873 225.471 80.3831ZM227.884 80.3831C227.724 80.3773 227.565 80.4263 227.429 80.5238C227.293 80.6214 227.185 80.7629 227.12 80.9304C227.055 81.0979 227.035 81.2836 227.064 81.4639C227.092 81.6441 227.167 81.8107 227.279 81.9422C227.391 82.0738 227.534 82.1643 227.692 82.2021C227.849 82.24 228.013 82.2236 228.162 82.1549C228.311 82.0862 228.439 81.9684 228.529 81.8166C228.619 81.6648 228.667 81.4859 228.667 81.3028C228.67 81.0628 228.589 80.8313 228.443 80.6589C228.296 80.4865 228.095 80.3873 227.884 80.3831ZM230.297 80.3831C230.136 80.3773 229.978 80.4263 229.842 80.5238C229.705 80.6214 229.598 80.7629 229.533 80.9304C229.468 81.0979 229.448 81.2836 229.476 81.4639C229.505 81.6441 229.58 81.8107 229.692 81.9422C229.803 82.0738 229.947 82.1643 230.105 82.2021C230.262 82.24 230.426 82.2236 230.575 82.1549C230.724 82.0862 230.852 81.9684 230.942 81.8166C231.032 81.6648 231.08 81.4859 231.08 81.3028C231.083 81.0628 231.002 80.8313 230.855 80.6589C230.709 80.4865 230.508 80.3873 230.297 80.3831Z" fill="white"/>
<path d="M338.288 94.6384H285.834V158.099H338.288V94.6384Z" fill="#D1DBED"/>
<path d="M334.147 99.6967H291.816V123.609H334.147V99.6967Z" fill="white"/>
<path d="M328.868 102.587C328.145 102.241 327.212 102.182 326.4 102.383C325.635 102.566 324.95 102.987 324.445 103.582C323.331 104.943 323.622 106.809 322.587 108.117C321.967 108.899 320.52 109.15 319.448 108.802C318.872 108.615 318.566 108.349 318.391 108.046C318.043 107.436 318.199 106.653 317.752 105.944C317.564 105.654 317.309 105.412 317.007 105.239C316.704 105.066 316.365 104.968 316.016 104.952C314.731 104.909 313.679 106.023 312.418 105.835C311.676 105.725 311.183 105.197 310.836 104.687C310.167 103.705 309.6 102.522 308.243 102.118C306.82 101.697 305.168 102.42 304.416 103.432C303.004 105.332 304.747 109.334 300.336 109.138C298.379 109.051 296.296 109.825 295.533 111.194C295.192 111.809 294.732 113.802 295.317 114.39C295.916 114.995 298.862 114.861 299.863 114.942L310.513 115.809C314.927 116.169 319.41 116.526 323.782 115.941C325.509 115.71 327.316 115.277 328.413 114.239C329.222 113.473 329.536 112.477 329.739 111.507C330.16 109.503 330.487 107.405 330.465 105.374C330.454 104.314 330.046 103.151 328.868 102.587Z" fill="#5681BF"/>
<path d="M329.485 104.373C328.176 104.664 326.974 105.344 326.153 106.282C325.594 106.918 325.13 107.713 324.262 107.969C322.71 108.423 321.44 106.898 320.046 106.145C318.546 105.336 316.457 105.472 315.111 106.467C313.483 107.671 313.11 109.752 311.733 111.174C310.217 112.74 307.463 113.27 305.336 112.406C304.462 112.051 303.711 111.498 302.85 111.119C299.434 109.622 294.684 111.777 294.117 115.082V121.921C294.117 121.921 331.245 122.282 331.176 122.223C331.176 122.223 331.183 120.544 331.183 120.452C331.194 117.946 331.193 115.44 331.197 112.934C331.197 110.541 331.425 108.147 331.381 105.759C331.361 104.653 330.816 104.076 329.485 104.373Z" fill="#B5CAE8"/>
<path d="M295.496 127.288H292.275V130.048H295.496V127.288Z" fill="#5681BF"/>
<path d="M295.496 131.427H292.275V134.186H295.496V131.427Z" fill="#5681BF"/>
<path d="M307.46 127.748H298.257V128.668H307.46V127.748Z" fill="#B5CAE8"/>
<path d="M307.459 132.347H297.797V133.267H307.459V132.347Z" fill="#B5CAE8"/>
<path d="M333.227 138.785H292.736V139.705H333.227V138.785Z" fill="white"/>
<path d="M310.681 141.544H292.736V153.961H310.681V141.544Z" fill="#B5CAE8"/>
<path d="M333.227 141.544H313.442V147.063H333.227V141.544Z" fill="#B5CAE8"/>
<path d="M333.227 148.442H313.442V153.96H333.227V148.442Z" fill="#B5CAE8"/>
<path d="M334.147 46.3531H277.092V89.1202H334.147V46.3531Z" fill="#B5CAE8"/>
<path d="M334.147 46.3531H277.092V49.5721H334.147V46.3531Z" fill="#5681BF"/>
<path d="M327.159 50.0317H327.032V57.1198H318.658V50.0317H318.535V57.1198H310.157V50.0317H310.031V57.1198H301.656V50.0317H301.53V57.1198H293.155V50.0317H293.028V57.1198H284.654V50.0317H284.528V57.1198H277.552V57.2505H284.528V65.2591H277.552V65.3897H284.528V73.3983H277.552V73.5289H284.528V81.5376H277.552V81.6682H284.528V89.1199H284.654V81.6682H293.028V89.1199H293.155V81.6682H301.53V89.1199H301.656V81.6682H310.031V89.1199H310.157V81.6682H318.535V89.1199H318.661V81.6682H327.035V89.1199H327.162V81.6682H334.147V81.5376H327.162V73.5289H334.147V73.3983H327.162V65.3897H334.147V65.2591H327.162V57.2505H334.147V57.1198H327.162L327.159 50.0317ZM293.028 81.5376H284.654V73.5289H293.028V81.5376ZM293.028 73.3983H284.654V65.3897H293.028V73.3983ZM293.028 65.2591H284.654V57.2505H293.028V65.2591ZM301.53 81.5376H293.155V73.5289H301.53V81.5376ZM301.53 73.3983H293.155V65.3897H301.53V73.3983ZM301.53 65.2591H293.155V57.2505H301.53V65.2591ZM310.031 81.5376H301.656V73.5289H310.031V81.5376ZM310.031 73.3983H301.656V65.3897H310.031V73.3983ZM310.031 65.2591H301.656V57.2505H310.031V65.2591ZM318.532 81.5376H310.157V73.5289H318.535L318.532 81.5376ZM318.532 73.3983H310.157V65.3897H318.535L318.532 73.3983ZM318.532 65.2591H310.157V57.2505H318.535L318.532 65.2591ZM327.032 81.5376H318.658V73.5289H327.032V81.5376ZM327.032 73.3983H318.658V65.3897H327.032V73.3983ZM327.032 65.2591H318.658V57.2505H327.032V65.2591Z" fill="#3D5891"/>
<path d="M327.812 55.0902C326.855 55.0902 326.079 55.904 326.079 56.908C326.077 57.3912 326.263 57.8559 326.596 58.2021L320.564 63.6486L320.105 64.0625C319.801 63.8033 319.417 63.661 319.019 63.661C318.062 63.661 317.286 64.4748 317.286 65.4788C317.284 65.7789 317.355 66.0749 317.493 66.3407C317.631 66.6065 317.831 66.8341 318.076 67.0034C317.636 68.1153 317.196 69.2271 316.755 70.3389C316.567 70.8134 316.379 71.2873 316.192 71.7607C316.063 71.7294 315.931 71.7133 315.799 71.7127C315.492 71.7151 315.192 71.8002 314.928 71.9593C314.665 72.1184 314.449 72.3458 314.301 72.6178L308.475 68.7555L304.157 65.8934C304.24 65.6781 304.283 65.4491 304.282 65.2181C304.282 64.2125 303.506 63.4003 302.549 63.4003C301.591 63.4003 300.815 64.2141 300.815 65.2181C300.815 65.3428 300.827 65.4672 300.851 65.5894L292.68 69.0874L291.879 69.43C291.75 69.1089 291.53 68.8335 291.247 68.6388C290.963 68.4441 290.629 68.3388 290.286 68.3363C289.329 68.3363 288.553 69.15 288.553 70.1541C288.552 70.4 288.6 70.6435 288.693 70.8705C288.787 71.0974 288.925 71.303 289.098 71.4753L287.885 72.9202L282.097 79.8148C281.813 79.6131 281.474 79.505 281.127 79.5054C280.17 79.5054 279.393 80.3199 279.393 81.3239C279.393 82.328 280.17 83.1418 281.127 83.1418C282.085 83.1418 282.861 82.328 282.861 81.3239C282.861 80.9527 282.752 80.5897 282.546 80.282L287.492 74.3946L289.639 71.8419C289.845 71.9302 290.067 71.9757 290.291 71.9757C291.248 71.9757 292.025 71.162 292.025 70.1579C292.025 70.1332 292.025 70.11 292.025 70.0852L292.143 70.0349L301.098 66.2028C301.249 66.4571 301.463 66.6676 301.719 66.8144C301.974 66.9612 302.263 67.0394 302.556 67.0414C302.797 67.0405 303.035 66.988 303.254 66.8873C303.473 66.7867 303.668 66.6401 303.827 66.4573L307.736 69.0487L314.089 73.259C314.075 73.3489 314.068 73.4396 314.067 73.5306C314.067 74.5362 314.843 75.3484 315.801 75.3484C316.758 75.3484 317.535 74.5346 317.535 73.5306C317.537 73.2355 317.468 72.9443 317.335 72.6817C317.202 72.4191 317.008 72.1928 316.77 72.0222C317.4 70.4333 318.029 68.8447 318.658 67.2564C318.777 67.2834 318.9 67.2972 319.022 67.2974C319.98 67.2974 320.756 66.4829 320.756 65.4788C320.757 65.1581 320.675 64.8428 320.518 64.5637C320.876 64.243 321.231 63.9217 321.585 63.5999L326.153 59.4777L327.139 58.5874C327.351 58.6816 327.58 58.73 327.812 58.7297C328.77 58.7297 329.546 57.9159 329.546 56.9119C329.546 55.9078 328.77 55.0902 327.812 55.0902Z" fill="#5681BF"/>
<path d="M234.598 32.5569H182.928C181.421 32.5569 179.976 33.1591 178.91 34.2311C177.844 35.303 177.245 36.7568 177.245 38.2728V66.5175C177.245 68.0335 177.844 69.4874 178.91 70.5595C179.975 71.6315 181.421 72.2339 182.928 72.2341H188.364C188.832 72.2345 189.281 72.4218 189.612 72.7548C189.942 73.0878 190.128 73.5393 190.128 74.01V81.1644C190.128 81.2869 190.165 81.4066 190.235 81.5071C190.305 81.6076 190.404 81.684 190.518 81.726C190.633 81.768 190.757 81.7735 190.875 81.7418C190.993 81.71 191.098 81.6426 191.176 81.5486L197.965 73.3975C198.269 73.0333 198.648 72.7403 199.076 72.5393C199.504 72.3383 199.971 72.2341 200.443 72.2341H234.598C236.105 72.2339 237.551 71.6315 238.617 70.5595C239.683 69.4875 240.282 68.0336 240.282 66.5175V38.2728C240.282 36.7568 239.683 35.3029 238.617 34.231C237.551 33.1591 236.105 32.5569 234.598 32.5569Z" fill="#B5CAE8"/>
<path d="M185.067 56.4696H184.607V56.9295H185.067V56.4696Z" fill="white"/>
<path d="M185.067 63.3676H184.607V62.5794H185.067V63.3676ZM185.067 61.7912H184.607V61.0022H185.067V61.7912ZM185.067 60.214H184.607V59.4258H185.067V60.214ZM185.067 58.6375H184.607V57.8493H185.067V58.6375Z" fill="white"/>
<path d="M185.067 64.2872H184.607V64.7471H185.067V64.2872Z" fill="white"/>
<path d="M191.049 54.1704H190.589V54.6303H191.049V54.1704Z" fill="white"/>
<path d="M191.046 63.3677H190.589V62.4477H191.049L191.046 63.3677ZM191.046 61.5285H190.589V60.6085H191.049L191.046 61.5285ZM191.046 59.6886H190.589V58.7686H191.049L191.046 59.6886ZM191.046 57.8494H190.589V56.9294H191.049L191.046 57.8494ZM191.046 56.0094H190.589V55.0902H191.049L191.046 56.0094Z" fill="white"/>
<path d="M191.049 64.2872H190.589V64.7471H191.049V64.2872Z" fill="white"/>
<path d="M197.03 56.9298H196.57V57.3896H197.03V56.9298Z" fill="white"/>
<path d="M197.03 63.3677H196.57V62.6446H197.03V63.3677ZM197.03 61.9223H196.57V61.2H197.03V61.9223ZM197.03 60.4769H196.57V59.7546H197.03V60.4769ZM197.03 59.0323H196.57V58.3092H197.03V59.0323Z" fill="white"/>
<path d="M197.03 64.2872H196.57V64.7471H197.03V64.2872Z" fill="white"/>
<path d="M203.012 55.0902H202.552V55.5501H203.012V55.0902Z" fill="white"/>
<path d="M203.012 63.3676H202.552V62.6015H203.012V63.3676ZM203.012 61.8348H202.552V61.068H203.012V61.8348ZM203.012 60.302H202.552V59.533H203.012V60.302ZM203.012 58.7685H202.552V58.0024H203.012V58.7685ZM203.012 57.2357H202.552V56.4696H203.012V57.2357Z" fill="white"/>
<path d="M203.012 64.2872H202.552V64.7471H203.012V64.2872Z" fill="white"/>
<path d="M208.994 50.4916H208.534V50.9514H208.994V50.4916Z" fill="white"/>
<path d="M208.994 63.3675H208.534V62.4835H208.994V63.3675ZM208.994 61.5994H208.534V60.7146H208.994V61.5994ZM208.994 59.8306H208.534V58.9488H208.994V59.8306ZM208.994 58.0617H208.534V57.1769H208.994V58.0617ZM208.994 56.2928H208.534V55.408H208.994V56.2928ZM208.994 54.5239H208.534V53.6391H208.994V54.5239ZM208.994 52.7551H208.534V51.871H208.994V52.7551Z" fill="white"/>
<path d="M208.994 64.2872H208.534V64.7471H208.994V64.2872Z" fill="white"/>
<path d="M214.976 48.652H214.516V49.1119H214.976V48.652Z" fill="white"/>
<path d="M214.976 63.3677H214.516V62.479H214.976V63.3677ZM214.976 61.5896H214.516V60.701H214.976V61.5896ZM214.976 59.8115H214.516V58.9229H214.976V59.8115ZM214.976 58.0334H214.516V57.1448H214.976V58.0334ZM214.976 56.2554H214.516V55.3667H214.976V56.2554ZM214.976 54.4773H214.516V53.5879H214.976V54.4773ZM214.976 52.6992H214.516V51.8098H214.976V52.6992ZM214.976 50.9211H214.516V50.0317H214.976V50.9211Z" fill="white"/>
<path d="M214.976 64.2872H214.516V64.7471H214.976V64.2872Z" fill="white"/>
<path d="M220.958 53.2507H220.498V53.7105H220.958V53.2507Z" fill="white"/>
<path d="M220.958 63.3677H220.498V62.5762H220.958V63.3677ZM220.958 61.7787H220.498V60.9872H220.958V61.7787ZM220.958 60.1889H220.498V59.3974H220.958V60.1889ZM220.958 58.5999H220.498V57.8069H220.958V58.5999ZM220.958 57.0108H220.498V56.2194H220.958V57.0108ZM220.958 55.4218H220.498V54.6303H220.958V55.4218Z" fill="white"/>
<path d="M220.958 64.2872H220.498V64.7471H220.958V64.2872Z" fill="white"/>
<path d="M226.938 50.9512H226.478V51.4111H226.938V50.9512Z" fill="white"/>
<path d="M226.938 63.3678H226.478V62.5183H226.938V63.3678ZM226.938 61.6695H226.478V60.8207H226.938V61.6695ZM226.938 59.9719H226.478V59.1231H226.938V59.9719ZM226.938 58.2735H226.478V57.4247H226.938V58.2735ZM226.938 56.5759H226.478V55.7271H226.938V56.5759ZM226.938 54.8775H226.478V54.0287H226.938V54.8775ZM226.938 53.1799H226.478V52.3311H226.938V53.1799Z" fill="white"/>
<path d="M226.938 64.2872H226.478V64.7471H226.938V64.2872Z" fill="white"/>
<path d="M233.38 45.8929H232.92V46.3528H233.38V45.8929Z" fill="white"/>
<path d="M233.38 63.3675H232.92V62.5234H233.38V63.3675ZM233.38 61.673H232.92V60.8289H233.38V61.673ZM233.38 59.9786H232.92V59.1344H233.38V59.9786ZM233.38 58.2833H232.92V57.4392H233.38V58.2833ZM233.38 56.5889H232.92V55.7447H233.38V56.5889ZM233.38 54.8944H232.92V54.0487H233.38V54.8944ZM233.38 53.1999H232.92V52.3558H233.38V53.1999ZM233.38 51.5055H232.92V50.6613H233.38V51.5055ZM233.38 49.811H232.92V48.9668H233.38V49.811ZM233.38 48.1165H232.92V47.2724H233.38V48.1165Z" fill="white"/>
<path d="M233.38 64.2872H232.92V64.7471H233.38V64.2872Z" fill="white"/>
<path d="M236.141 64.2872H181.387V64.7471H236.141V64.2872Z" fill="#5681BF"/>
<path d="M183.119 58.769L182.767 58.4417C182.928 58.2608 186.755 54.0109 190.189 53.8151C191.75 53.7266 192.731 54.5199 193.681 55.2913C194.903 56.2811 196.168 57.3046 198.832 56.7862C201.195 56.3273 203.579 54.3985 205.888 52.534C208.275 50.6021 210.745 48.6044 213.181 48.2904C215.592 47.9771 216.786 49.465 217.936 50.8957C219.087 52.3265 220.192 53.7032 222.516 53.1667C224.965 52.599 226.785 50.8957 228.711 49.0946C230.461 47.4579 232.27 45.7657 234.611 44.9732L234.76 45.4336C232.517 46.194 230.745 47.8511 229.032 49.4533C227.145 51.2176 225.197 53.0422 222.622 53.6389C222.26 53.7265 221.888 53.7719 221.516 53.7744C219.631 53.7744 218.585 52.4713 217.568 51.2059C216.449 49.8127 215.391 48.4971 213.242 48.7735C210.938 49.0711 208.629 50.9388 206.186 52.9161C203.835 54.8175 201.405 56.7831 198.927 57.2655C196.049 57.8246 194.637 56.6813 193.391 55.6734C192.43 54.895 191.601 54.2239 190.221 54.3022C188.89 54.3805 187.245 55.1691 185.466 56.592C184.631 57.2563 183.846 57.984 183.119 58.769Z" fill="white"/>
<path d="M232.92 44.9732C232.738 44.9732 232.56 45.0272 232.409 45.1284C232.257 45.2296 232.139 45.3734 232.07 45.5416C232 45.7099 231.982 45.8949 232.018 46.0734C232.054 46.2519 232.142 46.4158 232.271 46.5443C232.4 46.6728 232.564 46.7602 232.743 46.7953C232.921 46.8305 233.106 46.8118 233.274 46.7417C233.443 46.6717 233.586 46.5533 233.687 46.4017C233.788 46.25 233.841 46.0719 233.84 45.8899C233.84 45.6465 233.742 45.4133 233.57 45.2415C233.397 45.0697 233.164 44.9732 232.92 44.9732Z" fill="white"/>
<path d="M226.938 51.8712C227.447 51.8712 227.859 51.4594 227.859 50.9514C227.859 50.4435 227.447 50.0317 226.938 50.0317C226.43 50.0317 226.018 50.4435 226.018 50.9514C226.018 51.4594 226.43 51.8712 226.938 51.8712Z" fill="white"/>
<path d="M220.936 52.4277C220.75 52.4276 220.568 52.4822 220.412 52.5848C220.257 52.6874 220.137 52.8333 220.065 53.004C219.994 53.1747 219.975 53.3626 220.011 53.5439C220.048 53.7252 220.137 53.8917 220.269 54.0224C220.401 54.1531 220.569 54.2421 220.752 54.2781C220.935 54.3141 221.124 54.2956 221.296 54.2248C221.469 54.154 221.616 54.0341 221.719 53.8804C221.823 53.7266 221.878 53.5459 221.878 53.3611C221.877 53.1136 221.778 52.8763 221.602 52.7013C221.425 52.5263 221.186 52.4279 220.936 52.4277ZM214.885 47.7325C214.699 47.7325 214.516 47.7873 214.361 47.89C214.206 47.9927 214.086 48.1386 214.014 48.3094C213.943 48.4801 213.925 48.668 213.961 48.8492C213.997 49.0304 214.087 49.1969 214.219 49.3275C214.351 49.4581 214.519 49.547 214.702 49.583C214.884 49.6189 215.074 49.6003 215.246 49.5295C215.418 49.4587 215.565 49.3388 215.669 49.1851C215.772 49.0314 215.827 48.8507 215.827 48.6659C215.827 48.5432 215.803 48.4218 215.756 48.3084C215.708 48.1951 215.639 48.0921 215.551 48.0054C215.464 47.9187 215.36 47.85 215.246 47.8031C215.131 47.7563 215.009 47.7323 214.885 47.7325ZM208.834 49.5146C208.647 49.5146 208.465 49.5694 208.31 49.6721C208.155 49.7747 208.035 49.9207 207.963 50.0914C207.892 50.2622 207.873 50.45 207.91 50.6313C207.946 50.8125 208.036 50.9789 208.168 51.1096C208.3 51.2402 208.468 51.3291 208.65 51.365C208.833 51.401 209.023 51.3824 209.195 51.3116C209.367 51.2407 209.514 51.1209 209.618 50.9672C209.721 50.8134 209.776 50.6328 209.776 50.448C209.776 50.2004 209.676 49.9629 209.5 49.7879C209.323 49.6129 209.084 49.5146 208.834 49.5146ZM202.783 54.0403C202.597 54.0402 202.415 54.0949 202.26 54.1975C202.105 54.3 201.984 54.4459 201.912 54.6167C201.841 54.7874 201.822 54.9753 201.858 55.1566C201.895 55.3378 201.985 55.5044 202.116 55.635C202.248 55.7657 202.416 55.8547 202.599 55.8907C202.782 55.9268 202.971 55.9082 203.143 55.8374C203.316 55.7666 203.463 55.6467 203.566 55.493C203.67 55.3393 203.725 55.1586 203.725 54.9737C203.725 54.7262 203.625 54.489 203.449 54.314C203.272 54.139 203.033 54.0405 202.783 54.0403ZM196.732 55.9812C196.546 55.981 196.363 56.0357 196.208 56.1383C196.053 56.2409 195.932 56.3867 195.861 56.5575C195.79 56.7282 195.771 56.9161 195.807 57.0974C195.844 57.2786 195.933 57.4452 196.065 57.5759C196.197 57.7065 196.365 57.7955 196.548 57.8316C196.731 57.8676 196.92 57.849 197.092 57.7782C197.264 57.7074 197.412 57.5876 197.515 57.4338C197.619 57.2801 197.674 57.0994 197.674 56.9145C197.674 56.667 197.574 56.4296 197.398 56.2545C197.221 56.0795 196.982 55.9812 196.732 55.9812ZM190.681 53.11C190.495 53.11 190.312 53.1648 190.157 53.2674C190.003 53.3701 189.882 53.516 189.81 53.6867C189.739 53.8574 189.72 54.0452 189.757 54.2264C189.793 54.4076 189.883 54.5741 190.015 54.7047C190.146 54.8353 190.314 54.9243 190.497 54.9604C190.68 54.9964 190.869 54.9779 191.041 54.9072C191.214 54.8365 191.361 54.7168 191.464 54.5631C191.568 54.4095 191.623 54.2289 191.623 54.0442C191.623 53.7964 191.524 53.5588 191.347 53.3836C191.17 53.2084 190.931 53.11 190.681 53.11ZM184.63 55.6805C184.444 55.6803 184.262 55.735 184.107 55.8376C183.952 55.9402 183.831 56.086 183.759 56.2568C183.688 56.4275 183.669 56.6154 183.706 56.7967C183.742 56.9779 183.832 57.1445 183.963 57.2752C184.095 57.4058 184.263 57.4948 184.446 57.5309C184.629 57.5669 184.818 57.5483 184.991 57.4775C185.163 57.4067 185.31 57.2869 185.413 57.1331C185.517 56.9794 185.572 56.7987 185.572 56.6138C185.572 56.3664 185.472 56.1291 185.296 55.9541C185.119 55.7791 184.88 55.6807 184.63 55.6805Z" fill="white"/>
<path d="M233.84 38.0753H211.294V38.9951H233.84V38.0753Z" fill="#3D5891"/>
<path d="M225.558 40.3745H211.294V41.2943H225.558V40.3745Z" fill="#3D5891"/>
<path d="M204.394 47.772C208.681 43.4875 208.681 36.5408 204.394 32.2563C200.107 27.9717 193.157 27.9717 188.87 32.2563C184.583 36.5408 184.583 43.4875 188.87 47.772C193.157 52.0566 200.107 52.0566 204.394 47.772Z" fill="#F19A6D"/>
<path d="M203.122 46.4998C206.706 42.9179 206.706 37.1104 203.122 33.5285C199.538 29.9466 193.727 29.9466 190.143 33.5285C186.559 37.1104 186.559 42.9179 190.143 46.4998C193.727 50.0817 199.538 50.0817 203.122 46.4998Z" fill="#FAFAFA"/>
<path d="M201.927 45.3066C204.852 42.3837 204.852 37.6447 201.927 34.7217C199.003 31.7988 194.261 31.7988 191.336 34.7217C188.412 37.6446 188.412 42.3837 191.336 45.3066C194.261 48.2296 199.003 48.2296 201.927 45.3066Z" fill="#F19A6D"/>
<path d="M196.57 44.9731C199.365 44.9731 201.631 42.7083 201.631 39.9146C201.631 37.1209 199.365 34.8561 196.57 34.8561C193.775 34.8561 191.509 37.1209 191.509 39.9146C191.509 42.7083 193.775 44.9731 196.57 44.9731Z" fill="#FAFAFA"/>
<path d="M196.843 43.3736C198.695 43.2559 200.1 41.6604 199.982 39.81C199.865 37.9596 198.268 36.555 196.417 36.6727C194.565 36.7904 193.16 38.3859 193.278 40.2363C193.395 42.0867 194.992 43.4913 196.843 43.3736Z" fill="#F19A6D"/>
<path d="M197.391 38.6466C197.094 38.5301 196.77 38.5041 196.459 38.5719C196.147 38.6396 195.863 38.7981 195.642 39.0272C195.421 39.2563 195.273 39.5458 195.216 39.859C195.16 40.1723 195.198 40.4952 195.325 40.7871C195.452 41.0789 195.663 41.3265 195.931 41.4986C196.199 41.6706 196.512 41.7595 196.83 41.7538C197.149 41.7481 197.458 41.6482 197.72 41.4667C197.982 41.2852 198.183 41.0302 198.3 40.734C198.456 40.3367 198.448 39.8936 198.278 39.5021C198.107 39.1107 197.788 38.8029 197.391 38.6466Z" fill="#FAFAFA"/>
<path d="M196.908 39.0593C196.739 38.9925 196.553 38.9774 196.375 39.016C196.198 39.0546 196.035 39.1451 195.909 39.2761C195.782 39.407 195.697 39.5726 195.665 39.7517C195.633 39.9309 195.654 40.1156 195.727 40.2824C195.8 40.4493 195.921 40.5908 196.074 40.6891C196.227 40.7873 196.406 40.8379 196.588 40.8344C196.77 40.8309 196.947 40.7734 197.097 40.6694C197.246 40.5653 197.361 40.4192 197.428 40.2497C197.516 40.023 197.512 39.7703 197.414 39.5471C197.317 39.324 197.135 39.1485 196.908 39.0593Z" fill="#F19A6D"/>
<path d="M179.546 50.0318L187.624 46.4494L188.748 43.5938L180.599 47.2064L179.546 50.0318Z" fill="#FFEBD7"/>
<path d="M177.706 46.052L180.49 47.2726L188.749 43.4023L185.896 42.2141L177.706 46.052Z" fill="#FFEBD7"/>
<path d="M196.396 39.489L180.279 46.413C180.168 46.4605 180.082 46.5495 180.038 46.6602C179.994 46.771 179.996 46.8944 180.044 47.0035C180.092 47.1125 180.182 47.1982 180.294 47.2417C180.407 47.2851 180.532 47.2828 180.642 47.2352L196.759 40.3121C196.813 40.2887 196.863 40.2549 196.904 40.2126C196.945 40.1704 196.978 40.1206 196.999 40.066C197.021 40.0113 197.032 39.953 197.031 39.8943C197.03 39.8356 197.017 39.7777 196.993 39.7238C196.97 39.67 196.935 39.6213 196.893 39.5805C196.85 39.5397 196.8 39.5077 196.744 39.4861C196.689 39.4646 196.63 39.4541 196.571 39.4551C196.511 39.4561 196.453 39.4687 196.398 39.4921L196.396 39.489Z" fill="#93493A"/>
<path d="M139.516 53.6529L139.092 50.1709L136.432 49.8506C136.03 48.7358 135.443 47.6964 134.696 46.7756L135.796 44.3351L133.033 42.173L130.926 43.8254C129.852 43.3217 128.702 43.0015 127.522 42.8782L126.573 40.3745L123.09 40.7983L122.768 43.4564C121.653 43.8584 120.613 44.4448 119.692 45.1909L117.251 44.0916L115.088 46.8532L116.741 48.959C116.237 50.0315 115.917 51.1811 115.794 52.3596L113.289 53.3083L113.713 56.7903L116.372 57.1106C116.774 58.2267 117.361 59.2675 118.108 60.1894L117.008 62.6238L119.771 64.7859L121.878 63.1335C122.951 63.6376 124.1 63.9585 125.279 64.083L126.228 66.5866L129.712 66.1629L130.033 63.5048C131.149 63.1027 132.189 62.5164 133.11 61.7703L135.557 62.8695L137.721 60.108L136.068 58.0022C136.572 56.9293 136.892 55.7796 137.015 54.6008L139.516 53.6529ZM131.584 57.5328C130.781 58.5573 129.693 59.321 128.456 59.7272C127.218 60.1334 125.889 60.1638 124.634 59.8147C123.38 59.4656 122.257 58.7527 121.408 57.766C120.559 56.7793 120.022 55.5631 119.865 54.2714C119.708 52.9797 119.937 51.6704 120.525 50.5091C121.112 49.3477 122.031 48.3865 123.165 47.747C124.299 47.1076 125.597 46.8185 126.896 46.9164C128.194 47.0143 129.435 47.4948 130.46 48.2971C131.141 48.8297 131.711 49.4912 132.136 50.2438C132.562 50.9964 132.835 51.8254 132.939 52.6834C133.044 53.5415 132.978 54.4117 132.746 55.2444C132.515 56.0772 132.121 56.856 131.587 57.5366L131.584 57.5328Z" fill="#F19A6D"/>
<path opacity="0.43" d="M129.684 46.8322C128.395 45.8447 126.78 45.3512 125.144 45.4442C123.508 45.5372 121.963 46.2104 120.8 47.3373C119.636 48.4643 118.934 49.9674 118.825 51.5643C118.716 53.1612 119.208 54.7421 120.208 56.0099C119.537 54.5398 119.443 52.8803 119.943 51.3467C120.443 49.8131 121.502 48.5123 122.919 47.6913C124.337 46.8704 126.013 46.5865 127.631 46.8937C129.249 47.2008 130.694 48.0776 131.693 49.3574C131.248 48.3664 130.558 47.4987 129.684 46.8322Z" fill="#EF7C59"/>
<path d="M138.424 50.1498L138.695 52.3477L136.165 53.2929C136.04 54.467 135.716 55.6122 135.207 56.6808L136.116 57.823C136.574 56.8133 136.867 55.7391 136.985 54.6397L139.516 53.6953L139.087 50.2263L138.424 50.1498ZM134.692 61.5285L132.224 60.437C131.294 61.1804 130.243 61.7648 129.117 62.1659L128.792 64.8133L125.562 65.2006L126.095 66.5868L129.614 66.1647L129.939 63.5165C131.066 63.1159 132.116 62.5318 133.046 61.7884L135.514 62.8798L137.7 60.1286L136.752 58.9379L134.692 61.5285ZM120.876 61.7937L118.749 63.4407L117.019 62.1045L116.777 62.635L119.568 64.789L121.696 63.1428C122.684 63.5968 123.736 63.8995 124.816 64.0402L124.314 62.7351C123.123 62.6128 121.961 62.2946 120.876 61.7937ZM113.289 55.5507L113.446 56.8233L115.929 57.1181C115.693 56.6903 115.487 56.2469 115.313 55.791L113.289 55.5507ZM133.826 45.4946C134.145 45.8918 134.434 46.311 134.691 46.749L135.758 44.4146L134.695 43.5938L133.826 45.4946Z" fill="#EF7C59"/>
<path d="M123.319 51.9243C122.641 53.238 122.925 54.9093 123.98 55.9384C124.368 56.3193 124.84 56.6035 125.358 56.7678C125.876 56.9321 126.426 56.972 126.962 56.8842C127.498 56.7964 128.007 56.5834 128.445 56.2624C128.884 55.9415 129.24 55.5217 129.486 55.0371C130.164 53.7233 129.88 52.0513 128.825 51.0229C128.437 50.642 127.965 50.3579 127.447 50.1935C126.929 50.0292 126.379 49.9893 125.843 50.0771C125.307 50.1649 124.799 50.378 124.36 50.6989C123.921 51.0199 123.565 51.4397 123.319 51.9243Z" fill="#F19A6D"/>
<path opacity="0.43" d="M128.202 50.4916C128.727 51.4782 128.769 52.707 128.254 53.7164C128.04 54.1433 127.742 54.5211 127.377 54.826C127.013 55.1309 126.59 55.3565 126.136 55.4886C125.681 55.6207 125.205 55.6565 124.736 55.5938C124.267 55.5311 123.816 55.3712 123.411 55.1241C123.524 55.3442 123.662 55.5507 123.821 55.7396C124.418 56.4309 125.261 56.8554 126.166 56.9208C127.071 56.9862 127.965 56.6872 128.653 56.0889C129.342 55.4906 129.769 54.6414 129.842 53.7259C129.915 52.8105 129.628 51.9029 129.043 51.2006C128.8 50.922 128.517 50.6828 128.202 50.4916Z" fill="#EF7C59"/>
<path d="M150.098 71.5433L149.778 68.9166L147.772 68.6749C147.468 67.8336 147.025 67.0492 146.462 66.3543L147.292 64.5131L145.208 62.8845L143.618 64.1319C142.808 63.7518 141.94 63.5101 141.051 63.4169L140.335 61.5282L137.705 61.8442L137.463 63.8496C136.622 64.1528 135.837 64.5953 135.143 65.1583L133.301 64.329L131.669 66.4134L132.916 68.0021C132.537 68.812 132.295 69.6796 132.202 70.569L130.312 71.2848L130.632 73.9123L132.639 74.1539C132.941 74.9945 133.383 75.7784 133.945 76.473L133.114 78.3142L135.199 79.9459L136.789 78.6985C137.598 79.0786 138.466 79.3203 139.356 79.4135L140.072 81.3022L142.7 80.9831L142.942 78.977C143.783 78.6735 144.568 78.2312 145.263 77.6682L147.105 78.4975L148.737 76.4139L147.49 74.8252C147.87 74.0156 148.112 73.1479 148.205 72.2583L150.098 71.5433ZM144.112 74.4746C143.506 75.2473 142.684 75.823 141.751 76.1289C140.818 76.4348 139.815 76.4572 138.869 76.1932C137.923 75.9292 137.076 75.3907 136.437 74.6459C135.797 73.901 135.392 72.9832 135.274 72.0084C135.156 71.0337 135.33 70.0459 135.773 69.1699C136.217 68.2939 136.91 67.569 137.766 67.087C138.622 66.605 139.601 66.3874 140.58 66.4618C141.56 66.5362 142.495 66.8992 143.268 67.505C143.781 67.9071 144.21 68.4063 144.531 68.9741C144.851 69.542 145.056 70.1674 145.135 70.8145C145.214 71.4617 145.164 72.1181 144.989 72.7461C144.814 73.374 144.517 73.9614 144.114 74.4746H144.112Z" fill="#F3CE90"/>
<path opacity="0.54" d="M142.682 66.7018C141.761 65.9716 140.608 65.6065 139.439 65.6751C138.27 65.7436 137.167 66.2412 136.336 67.0742C135.504 67.9072 135.003 69.0184 134.925 70.1988C134.847 71.3792 135.199 72.5477 135.914 73.4845C135.435 72.3981 135.367 71.1716 135.724 70.0381C136.081 68.9047 136.838 67.9432 137.85 67.3365C138.863 66.7298 140.06 66.52 141.216 66.7472C142.371 66.9743 143.403 67.6224 144.117 68.5684C143.799 67.8357 143.306 67.1942 142.682 66.7018Z" fill="#F19A6D"/>
<path d="M149.294 68.811L149.493 70.4802L147.629 71.1985C147.537 72.0913 147.298 72.962 146.923 73.7747L147.593 74.6423C147.929 73.8758 148.145 73.0603 148.233 72.2256L150.098 71.5073L149.782 68.8711L149.294 68.811ZM146.543 77.4602L144.726 76.628C144.04 77.193 143.266 77.637 142.436 77.9414L142.197 79.9547L139.816 80.2489L140.208 81.3021L142.802 80.9818L143.04 78.9685C143.871 78.664 144.645 78.22 145.331 77.655L147.148 78.4873L148.759 76.3962L148.061 75.4908L146.543 77.4602ZM136.363 77.6619L134.794 78.9138L133.521 77.8998L133.342 78.3033L135.399 79.9409L136.968 78.689C137.695 79.034 138.47 79.2641 139.266 79.3712L138.896 78.3795C138.018 78.286 137.162 78.0434 136.363 77.6619ZM130.773 72.9162L130.889 73.8832L132.718 74.108C132.544 73.7828 132.393 73.4458 132.264 73.0994L130.773 72.9162ZM145.906 65.2725C146.141 65.5743 146.353 65.8932 146.543 66.2264L147.329 64.451L146.546 63.8274L145.906 65.2725Z" fill="#F19A6D"/>
<path d="M137.768 70.9817C137.676 71.315 137.652 71.6637 137.697 72.0067C137.742 72.3497 137.854 72.6801 138.029 72.978C139.313 75.1607 142.405 74.7608 143.103 72.3068C143.195 71.9735 143.219 71.6248 143.174 71.2818C143.13 70.9387 143.017 70.6083 142.842 70.3105C141.559 68.1318 138.467 68.5278 137.768 70.9817Z" fill="#F3CE90"/>
<path opacity="0.54" d="M141.768 69.346C142.077 69.8709 142.19 70.4754 142.09 71.066C141.991 71.6566 141.685 72.2003 141.219 72.6132C140.753 73.0261 140.153 73.285 139.512 73.3499C138.872 73.4149 138.226 73.2822 137.675 72.9725C137.771 73.1446 137.889 73.3061 138.024 73.4539C138.533 74.0027 139.255 74.3418 140.033 74.3966C140.81 74.4515 141.58 74.2175 142.171 73.7462C142.763 73.2749 143.129 72.6049 143.188 71.8836C143.247 71.1622 142.995 70.4487 142.487 69.8998C142.279 69.6819 142.037 69.4951 141.768 69.346Z" fill="#F19A6D"/>
<path d="M371.857 74.8642H347.512C345.721 74.8642 344.27 76.3153 344.27 78.1054V100.134C344.27 101.924 345.721 103.376 347.512 103.376H371.857C373.647 103.376 375.098 101.924 375.098 100.134V78.1054C375.098 76.3153 373.647 74.8642 371.857 74.8642Z" fill="#99B1DA"/>
<path d="M352.552 87.7403H349.792V97.3974H352.552V87.7403Z" fill="white"/>
<path d="M352.552 91.8791H349.792V97.3974H352.552V91.8791Z" fill="#D1DBED"/>
<path d="M356.693 84.981H353.932V97.3972H356.693V84.981Z" fill="white"/>
<path d="M356.693 90.4996H353.932V97.3976H356.693V90.4996Z" fill="#D1DBED"/>
<path d="M360.833 88.6601H358.533V97.3975H360.833V88.6601Z" fill="white"/>
<path d="M360.833 92.7988H358.533V97.3974H360.833V92.7988Z" fill="#D1DBED"/>
<path d="M365.435 84.981H362.674V97.3972H365.435V84.981Z" fill="white"/>
<path d="M365.435 90.4996H362.674V97.3976H365.435V90.4996Z" fill="#D1DBED"/>
<path d="M369.577 80.8422H366.816V97.3972H369.577V80.8422Z" fill="white"/>
<path d="M369.577 88.2002H366.816V97.3974H369.577V88.2002Z" fill="#D1DBED"/>
<path d="M372.045 96.9379H347.325C347.287 96.9362 347.249 96.941 347.214 96.9518C347.178 96.9626 347.146 96.9792 347.118 97.0007C347.091 97.0222 347.069 97.048 347.054 97.0767C347.039 97.1054 347.031 97.1363 347.031 97.1675C347.031 97.1987 347.039 97.2296 347.054 97.2583C347.069 97.2869 347.091 97.3128 347.118 97.3343C347.146 97.3558 347.178 97.3724 347.214 97.3832C347.249 97.394 347.287 97.3987 347.325 97.3971H372.045C372.082 97.3987 372.12 97.394 372.156 97.3832C372.191 97.3724 372.224 97.3558 372.251 97.3343C372.279 97.3128 372.3 97.2869 372.315 97.2583C372.33 97.2296 372.338 97.1987 372.338 97.1675C372.338 97.1363 372.33 97.1054 372.315 97.0767C372.3 97.048 372.279 97.0222 372.251 97.0007C372.224 96.9792 372.191 96.9626 372.156 96.9518C372.12 96.941 372.082 96.9362 372.045 96.9379Z" fill="#5681BF"/>
<path d="M210.149 153.441C216.377 147.217 216.377 137.124 210.149 130.9C203.92 124.675 193.822 124.675 187.594 130.9C181.366 137.124 181.366 147.217 187.594 153.441C193.822 159.666 203.92 159.666 210.149 153.441Z" fill="#F3CE90"/>
<path opacity="0.5" d="M183.064 139.138C182.662 141.148 182.668 143.215 183.08 145.223C183.002 143.813 183.102 142.399 183.378 141.013C185.232 131.698 194.487 125.615 204.05 127.422C204.638 127.532 205.212 127.67 205.773 127.834C204.582 127.297 203.328 126.902 202.04 126.66C193.263 125.003 184.764 130.59 183.064 139.138Z" fill="white"/>
<path d="M209.125 130.048C210.846 131.87 212.106 134.071 212.802 136.47C213.498 138.869 213.61 141.397 213.13 143.848C211.452 152.42 203.081 158.022 194.433 156.36C191.839 155.865 189.411 154.737 187.367 153.077C189.662 155.52 192.68 157.176 195.986 157.807C204.635 159.469 213.006 153.867 214.682 145.294C215.231 142.493 215.004 139.596 214.026 136.911C213.048 134.227 211.354 131.855 209.125 130.048Z" fill="#F19A6D"/>
<path d="M201.236 129.815C198.824 129.347 196.327 129.605 194.062 130.556C191.796 131.506 189.864 133.107 188.508 135.155C187.153 137.204 186.436 139.608 186.448 142.064C186.46 144.519 187.2 146.916 188.575 148.952C189.95 150.987 191.898 152.569 194.172 153.498C196.447 154.427 198.946 154.66 201.354 154.17C203.761 153.679 205.969 152.486 207.698 150.741C209.427 148.996 210.6 146.778 211.067 144.367C211.694 141.135 211.011 137.785 209.167 135.056C207.324 132.327 204.471 130.442 201.236 129.815Z" fill="#F3CE90"/>
<path d="M201.922 136.756L202.251 135.086L199.947 134.646L199.611 136.362C197.939 136.43 196.507 137.301 196.182 138.944C195.778 140.994 197.083 142.064 199.29 143.055C200.889 143.762 201.375 144.422 201.187 145.36C201.018 146.215 200.089 146.608 199.055 146.41C197.905 146.192 197.076 145.38 197.073 144.107L194.756 143.665C194.555 145.6 195.55 146.953 197.381 147.674L197.045 149.383L199.349 149.822L199.672 148.183C201.56 148.254 203.241 147.395 203.597 145.585C203.951 143.791 203.057 142.45 200.673 141.408C198.949 140.645 198.434 140.059 198.618 139.123C198.797 138.218 199.57 137.93 200.472 138.103C201.655 138.331 202.155 139.161 202.063 140.316L204.38 140.758C204.5 139.019 203.823 137.485 201.922 136.756Z" fill="#F19A6D"/>
<path d="M186.673 139.696C186.051 142.947 186.729 146.315 188.557 149.06C190.385 151.804 193.214 153.7 196.421 154.331C196.596 154.365 196.772 154.393 196.948 154.42C193.859 153.673 191.175 151.746 189.455 149.041C187.735 146.335 187.112 143.061 187.716 139.902C188.32 136.742 190.105 133.941 192.698 132.083C195.291 130.226 198.492 129.455 201.632 129.932C201.459 129.891 201.286 129.851 201.11 129.816C199.522 129.504 197.889 129.512 196.304 129.839C194.719 130.167 193.213 130.808 191.873 131.725C190.532 132.643 189.383 133.819 188.491 135.186C187.599 136.554 186.981 138.087 186.673 139.696Z" fill="#F19A6D"/>
<path d="M201.003 136.757L201.332 135.086L199.027 134.646L198.689 136.359C197.018 136.427 195.586 137.298 195.261 138.941C194.857 140.992 196.162 142.062 198.369 143.053C199.967 143.761 200.454 144.42 200.265 145.359C200.097 146.214 199.168 146.607 198.133 146.41C196.984 146.191 196.155 145.379 196.152 144.105L193.835 143.663C193.634 145.599 194.628 146.953 196.46 147.674L196.124 149.383L198.428 149.822L198.751 148.183C200.639 148.254 202.319 147.395 202.676 145.584C203.03 143.79 202.135 142.447 199.751 141.407C198.028 140.643 197.512 140.057 197.697 139.121C197.876 138.216 198.649 137.928 199.55 138.101C200.733 138.328 201.234 139.159 201.142 140.315L203.458 140.756C203.582 139.017 202.904 137.485 201.003 136.757Z" fill="#FEFEFE"/>
<path d="M212.642 107.561C211.377 106.84 209.927 106.51 208.475 106.613C207.022 106.716 205.633 107.246 204.483 108.138C203.332 109.03 202.472 110.243 202.011 111.623C201.55 113.003 201.509 114.489 201.893 115.893C202.277 117.297 203.069 118.555 204.168 119.509C205.268 120.463 206.626 121.069 208.07 121.252C209.515 121.434 210.981 121.185 212.284 120.535C213.586 119.885 214.667 118.863 215.388 117.599C215.868 116.76 216.177 115.834 216.298 114.876C216.419 113.917 216.351 112.944 216.096 112.012C215.841 111.079 215.404 110.207 214.812 109.443C214.219 108.679 213.482 108.04 212.642 107.561Z" fill="#F3CE90"/>
<path opacity="0.5" d="M212.529 107.286C211.995 106.99 211.426 106.757 210.834 106.594C211.085 106.703 211.332 106.824 211.576 106.958C212.668 107.563 213.603 108.401 214.311 109.408C215.018 110.415 215.48 111.566 215.66 112.772C215.84 113.978 215.734 115.209 215.351 116.369C214.967 117.53 214.315 118.591 213.445 119.471C214.426 118.726 215.202 117.76 215.706 116.656C216.21 115.553 216.426 114.346 216.336 113.142C216.245 111.938 215.851 110.774 215.187 109.753C214.523 108.732 213.61 107.885 212.529 107.286Z" fill="white"/>
<path d="M203.615 110.263C204.198 109.254 205.016 108.395 206.001 107.758C206.986 107.121 208.11 106.723 209.281 106.597C208.259 106.572 207.242 106.754 206.295 107.132C205.347 107.51 204.488 108.076 203.772 108.795C203.055 109.515 202.496 110.371 202.129 111.312C201.762 112.253 201.596 113.258 201.639 114.265C201.683 115.273 201.936 116.26 202.382 117.167C202.829 118.074 203.46 118.88 204.236 119.537C205.012 120.193 205.916 120.685 206.893 120.983C207.87 121.28 208.898 121.376 209.915 121.265C208.624 121.234 207.363 120.873 206.256 120.218C205.149 119.563 204.233 118.635 203.599 117.527C202.964 116.418 202.632 115.166 202.635 113.893C202.637 112.62 202.975 111.369 203.615 110.263Z" fill="#F19A6D"/>
<path d="M211.615 108.73C210.627 108.166 209.494 107.908 208.359 107.988C207.224 108.068 206.139 108.483 205.24 109.18C204.341 109.876 203.668 110.824 203.308 111.902C202.948 112.981 202.916 114.142 203.216 115.238C203.516 116.335 204.134 117.318 204.994 118.063C205.853 118.809 206.914 119.283 208.042 119.425C209.171 119.568 210.316 119.373 211.334 118.865C212.352 118.357 213.196 117.558 213.759 116.571C214.515 115.247 214.714 113.677 214.312 112.207C213.909 110.736 212.939 109.486 211.615 108.73Z" fill="#F3CE90"/>
<path d="M208.574 111.562C209.227 111.62 209.544 112.026 209.556 112.62L210.835 112.733C210.809 111.832 210.36 111.079 209.29 110.799L209.378 109.927L208.105 109.814L208.014 110.71C207.111 110.827 206.38 111.344 206.293 112.205C206.184 113.278 206.949 113.762 208.199 114.162C209.104 114.447 209.402 114.763 209.352 115.253C209.306 115.7 208.823 115.95 208.251 115.897C207.616 115.842 207.123 115.465 207.053 114.814L205.773 114.696C205.768 115.701 206.38 116.345 207.411 116.625L207.32 117.519L208.594 117.631L208.677 116.774C209.705 116.717 210.57 116.194 210.666 115.247C210.762 114.3 210.205 113.664 208.856 113.246C207.88 112.937 207.569 112.664 207.619 112.174C207.671 111.704 208.075 111.518 208.574 111.562Z" fill="#F19A6D"/>
<path d="M211.657 109.009C211.585 108.968 211.512 108.934 211.439 108.894C212.687 109.664 213.583 110.876 213.942 112.277C214.3 113.679 214.091 115.162 213.361 116.417C212.63 117.672 211.433 118.602 210.019 119.013C208.605 119.425 207.084 119.285 205.773 118.623C205.843 118.666 205.914 118.709 205.986 118.749C207.304 119.476 208.861 119.663 210.319 119.268C211.776 118.873 213.014 117.929 213.764 116.642C214.513 115.355 214.712 113.83 214.317 112.4C213.923 110.97 212.966 109.751 211.657 109.009Z" fill="#F19A6D"/>
<path d="M208.779 111.561C209.373 111.618 209.66 112.021 209.671 112.618L210.834 112.731C210.811 111.83 210.402 111.078 209.429 110.797L209.509 109.926L208.352 109.814L208.269 110.708C207.448 110.826 206.785 111.343 206.704 112.203C206.605 113.275 207.301 113.759 208.438 114.16C209.261 114.444 209.531 114.759 209.485 115.249C209.444 115.696 209.005 115.945 208.485 115.893C207.908 115.837 207.46 115.461 207.396 114.81L206.233 114.697C206.228 115.703 206.785 116.346 207.722 116.626L207.638 117.519L208.796 117.631L208.872 116.774C209.806 116.719 210.593 116.195 210.681 115.249C210.768 114.302 210.261 113.666 209.034 113.249C208.148 112.94 207.865 112.667 207.911 112.178C207.958 111.702 208.325 111.517 208.779 111.561Z" fill="#FEFEFE"/>
<path d="M334.114 153.929C322.535 158.135 316.562 170.931 320.772 182.504C324.982 194.078 337.784 200.047 349.364 195.839C360.943 191.63 366.916 178.837 362.705 167.264C358.494 155.691 345.694 149.721 334.114 153.929Z" fill="#F3CE90"/>
<path opacity="0.5" d="M320.76 182.903C321.74 185.632 323.238 188.141 325.17 190.289C324.061 188.631 323.158 186.841 322.481 184.96C317.934 172.323 324.385 158.353 336.892 153.762C337.651 153.482 338.425 153.241 339.208 153.04C337.426 153.233 335.674 153.643 333.99 154.262C322.508 158.477 316.586 171.302 320.76 182.903Z" fill="white"/>
<path d="M344.93 153.04C351.571 154.937 357.239 159.845 359.781 166.782C363.999 178.298 358.018 191.029 346.409 195.217C342.931 196.476 339.191 196.856 335.528 196.321C340.063 197.62 344.897 197.454 349.331 195.848C360.936 191.663 366.924 178.931 362.703 167.414C359.795 159.478 352.798 154.191 344.93 153.04Z" fill="#F19A6D"/>
<path d="M335.535 158.696C326.463 161.994 321.782 172.017 325.082 181.085C328.381 190.152 338.41 194.83 347.483 191.532C356.556 188.234 361.236 178.211 357.936 169.144C354.637 160.076 344.608 155.399 335.535 158.696Z" fill="#F3CE90"/>
<path d="M342.97 172.915C340.35 173.223 339.306 172.88 338.843 171.606C338.396 170.374 339.111 169.469 340.317 169.031C341.897 168.455 343.103 169.108 343.837 170.583L346.929 169.458C345.806 167.244 343.878 165.865 341.072 166.344L340.249 164.077L337.172 165.198L338.018 167.526C336.067 168.811 334.988 170.901 335.801 173.137C336.814 175.926 339.156 176.289 342.52 175.909C344.949 175.622 346.01 176.08 346.473 177.354C346.895 178.516 346.07 179.665 344.688 180.166C343.153 180.725 341.569 180.332 340.634 178.784L337.542 179.91C338.713 182.412 340.892 183.345 343.607 182.908L344.453 185.231L347.53 184.11L346.717 181.889C349.029 180.619 350.41 178.366 349.518 175.904C348.633 173.462 346.583 172.47 342.97 172.915Z" fill="#F19A6D"/>
<path d="M326.53 180.603C323.288 171.801 327.682 162.096 336.367 158.559C336.125 158.636 335.883 158.712 335.641 158.799C326.485 162.086 321.762 172.079 325.091 181.119C328.421 190.16 338.542 194.823 347.698 191.535C347.94 191.448 348.176 191.355 348.411 191.259C339.451 194.055 329.772 189.405 326.53 180.603Z" fill="#F19A6D"/>
<path d="M342.047 173.376C339.428 173.684 338.385 173.342 337.922 172.067C337.476 170.835 338.19 169.93 339.396 169.491C340.975 168.916 342.181 169.568 342.915 171.044L346.007 169.919C344.884 167.704 342.956 166.326 340.151 166.805L339.327 164.537L336.25 165.658L337.096 167.986C335.146 169.271 334.068 171.362 334.88 173.598C335.893 176.388 338.235 176.751 341.597 176.371C344.026 176.084 345.086 176.542 345.549 177.817C345.971 178.979 345.147 180.127 343.765 180.629C342.227 181.188 340.647 180.794 339.712 179.242L336.62 180.369C337.792 182.871 339.97 183.805 342.683 183.368L343.529 185.691L346.606 184.57L345.797 182.341C348.108 181.071 349.489 178.818 348.597 176.356C347.707 173.924 345.661 172.928 342.047 173.376Z" fill="#FEFEFE"/>
<defs>
<linearGradient id="paint0_linear_172_770" x1="232" y1="0" x2="232" y2="244" gradientUnits="userSpaceOnUse">
<stop stop-color="#6B94CF"/>
<stop offset="1" stop-color="#6B94CF" stop-opacity="0"/>
</linearGradient>
</defs>
</svg>
